<svg width="1182" height="1156" viewBox="0 0 1182 1156" fill="none" xmlns="http://www.w3.org/2000/svg">
<g opacity="0.1">
<path d="M567.446 671.889V294.731C567.452 292.34 566.845 289.991 565.689 287.925C564.533 285.859 562.87 284.151 560.869 282.977L472.25 229.549L376.54 172.283L296.923 124.391C295.326 123.426 293.513 122.916 291.667 122.913C289.821 122.91 288.007 123.415 286.408 124.376C284.809 125.336 283.481 126.719 282.559 128.385C281.638 130.051 281.154 131.94 281.158 133.863V856.508C281.162 858.423 281.652 860.303 282.577 861.957C283.503 863.612 284.831 864.983 286.428 865.931L376.54 920.234L471.923 977.451L562.035 1031.66C563.648 1032.68 565.513 1033.18 567.399 1033.11V918.486C565.518 918.509 563.666 918.006 562.035 917.029L471.923 862.823L381.811 808.617C380.214 807.668 378.886 806.297 377.96 804.643C377.035 802.988 376.545 801.109 376.54 799.194V306C376.51 304.063 376.972 302.151 377.88 300.46C378.789 298.769 380.111 297.359 381.712 296.372C383.313 295.385 385.137 294.858 386.998 294.842C388.858 294.827 390.689 295.325 392.305 296.286L465.347 340C467.331 341.193 468.982 342.905 470.135 344.967C471.289 347.028 471.905 349.368 471.923 351.754V741.589C471.918 743.499 472.399 745.378 473.316 747.033C474.234 748.688 475.556 750.06 477.147 751.011L562.035 802.011C563.663 802.996 565.517 803.499 567.399 803.468V673.394C567.277 672.903 567.23 672.395 567.259 671.889H567.446Z" fill="#F9F9F9"/>
<path d="M895.525 659.211L805.553 605.151L762.829 579.506C761.24 578.527 759.428 578.011 757.582 578.011C755.736 578.011 753.923 578.527 752.334 579.506L710.03 604.86L666.094 631.428C665.705 631.657 665.383 631.989 665.158 632.39C664.933 632.791 664.815 633.247 664.815 633.711C664.815 634.176 664.933 634.632 665.158 635.033C665.383 635.434 665.705 635.766 666.094 635.994L800.282 716.623C801.917 717.605 803.27 719.023 804.205 720.73C805.139 722.437 805.621 724.372 805.6 726.337V887.206C805.596 887.662 805.709 888.11 805.927 888.506C806.145 888.901 806.46 889.229 806.839 889.456C807.219 889.684 807.649 889.802 808.087 889.799C808.525 889.796 808.954 889.672 809.331 889.44L894.313 838.343C896.286 837.145 897.923 835.429 899.061 833.367C900.198 831.304 900.797 828.967 900.796 826.588V668.634C900.806 666.717 900.322 664.831 899.395 663.174C898.468 661.517 897.132 660.149 895.525 659.211V659.211Z" fill="#F9F9F9"/>
<path d="M706.112 722.014L662.642 748L572.53 802.157C570.986 803.089 569.231 803.576 567.446 803.566V690.589L582.604 681.506L583.024 681.263L613.295 663.097C613.674 662.88 614.099 662.767 614.531 662.767C614.963 662.767 615.388 662.88 615.767 663.097L706.112 717.497C706.489 717.729 706.802 718.059 707.019 718.455C707.236 718.851 707.35 719.3 707.35 719.756C707.35 720.212 707.236 720.66 707.019 721.056C706.802 721.452 706.489 721.782 706.112 722.014V722.014Z" fill="#F9F9F9"/>
<path d="M753.967 807.889L662.642 862.774C646.722 872.489 630.801 882.089 614.881 891.577C600.733 899.964 586.616 908.431 572.53 916.98C570.97 917.927 569.204 918.446 567.399 918.486V1033.11C569.204 1033.11 570.975 1032.61 572.53 1031.66L662.642 977.451L756.439 921.109C756.82 920.874 757.137 920.54 757.357 920.14C757.578 919.74 757.695 919.287 757.698 918.826V810.123C757.701 809.667 757.588 809.218 757.371 808.823C757.153 808.427 756.838 808.099 756.459 807.872C756.079 807.645 755.648 807.527 755.211 807.529C754.773 807.532 754.344 807.656 753.967 807.889V807.889Z" fill="#F9F9F9"/>
</g>
</svg>
