<svg width="170" height="160" viewBox="0 0 170 160" fill="none" xmlns="http://www.w3.org/2000/svg">
<g clip-path="url(#clip0_477_798)">
<path d="M140.979 159.849C131.036 155.913 126.519 145.393 124.47 135.402C124.128 133.737 123.521 132.034 123.976 130.407C124.432 128.78 126.026 127.342 127.658 127.682C129.024 127.985 129.897 129.272 130.884 130.293C132.174 131.656 133.844 132.64 135.666 133.094C136.842 133.396 138.246 133.396 139.157 132.602C140.41 131.466 140.106 129.461 139.689 127.834C138.929 124.768 138.208 121.703 137.449 118.676C137.032 117.048 136.652 115.345 136.804 113.68C136.956 112.015 137.715 110.274 139.195 109.48C140.675 108.685 142.801 109.101 143.522 110.653C143.825 111.296 143.863 112.015 144.053 112.696C144.243 113.378 144.774 114.059 145.457 114.097C146.178 114.134 146.71 113.529 147.089 112.923C148.379 110.88 149.025 108.458 149.632 106.074C150.201 103.69 150.732 101.268 151.833 99.1107C152.934 96.9537 154.755 94.9858 157.07 94.3046C159.385 93.6235 162.27 94.456 163.408 96.6509C164.547 98.808 163.75 101.495 162.725 103.728C161.207 107.02 159.196 110.085 156.805 112.81C156.387 113.302 155.894 113.832 155.856 114.475C155.742 115.648 157.07 116.481 158.247 116.594C159.575 116.708 160.866 116.254 162.194 116.102C163.522 115.951 165.04 116.178 165.799 117.275C166.862 118.789 165.875 120.87 164.775 122.384C162.535 125.336 159.803 127.909 156.729 129.953C155.628 130.672 154.452 131.353 153.655 132.45C152.896 133.548 152.63 135.137 153.503 136.159C154.376 137.181 155.97 137.181 157.184 136.651C158.399 136.121 159.385 135.175 160.486 134.418C162.535 133.018 165.496 132.488 167.431 134.115C168.684 135.175 169.215 136.954 169.063 138.581C168.949 140.208 168.266 141.76 167.545 143.236C164.926 148.344 161.093 152.848 156.273 155.913C151.378 158.865 146.634 160.53 140.979 159.849Z" fill="#05AC7D"/>
<path d="M142.042 153.037C142.307 147.701 143.104 141.873 144.129 135.781C144.395 134.267 144.66 132.753 144.926 131.277C145.191 129.801 145.457 128.325 145.799 126.925C146.482 124.087 147.317 121.438 148.228 118.903C149.138 116.405 150.049 114.059 150.96 111.864C151.871 109.669 152.744 107.663 153.617 105.847C155.363 102.214 157.108 99.4513 158.399 97.597C159.044 96.6888 159.537 95.9698 159.917 95.5156C160.107 95.2886 160.22 95.0994 160.334 94.9858C160.41 94.8723 160.486 94.7966 160.486 94.7966C160.486 94.7966 160.448 94.8723 160.372 94.9858C160.258 95.1372 160.144 95.2886 159.993 95.5535C159.651 96.0454 159.158 96.7645 158.513 97.6727C157.26 99.527 155.552 102.29 153.844 105.922C152.972 107.739 152.099 109.745 151.226 111.939C150.353 114.134 149.404 116.481 148.531 118.978C147.658 121.476 146.785 124.163 146.14 126.963C145.799 128.363 145.533 129.801 145.305 131.277C145.04 132.753 144.774 134.267 144.508 135.781C143.484 141.835 142.687 147.663 142.383 152.999" fill="#E0E0E0"/>
<path d="M145.875 126.925C145.837 126.925 145.723 126.698 145.533 126.244C145.343 125.828 145.078 125.185 144.774 124.39C144.167 122.8 143.37 120.606 142.497 118.146C141.624 115.686 140.827 113.491 140.182 111.939C139.878 111.145 139.613 110.539 139.423 110.085C139.233 109.631 139.157 109.404 139.157 109.404C139.195 109.404 139.309 109.631 139.537 110.047C139.764 110.464 140.068 111.069 140.41 111.864C141.093 113.415 141.966 115.61 142.801 118.07C143.636 120.492 144.395 122.649 144.964 124.314C145.23 125.071 145.457 125.714 145.647 126.206C145.799 126.66 145.875 126.925 145.875 126.925Z" fill="#E0E0E0"/>
<path d="M166.103 117.956C166.103 117.994 165.799 118.07 165.268 118.259C164.737 118.448 163.978 118.675 163.029 119.016C161.131 119.697 158.551 120.681 155.78 121.93C152.972 123.179 150.505 124.428 148.721 125.374C147.848 125.828 147.127 126.244 146.634 126.509C146.14 126.774 145.875 126.925 145.837 126.925C145.837 126.925 146.064 126.736 146.558 126.433C147.013 126.131 147.734 125.714 148.607 125.222C150.353 124.238 152.82 122.952 155.628 121.703C158.437 120.454 161.017 119.47 162.953 118.865C163.902 118.562 164.699 118.335 165.23 118.184C165.799 117.994 166.103 117.956 166.103 117.956Z" fill="#E0E0E0"/>
<path d="M142.231 152.583C142.231 152.583 142.155 152.507 142.041 152.356C141.89 152.167 141.7 151.939 141.51 151.675C141.055 151.069 140.372 150.199 139.575 149.139C137.981 146.944 135.855 143.879 133.578 140.473C131.301 137.029 129.214 133.964 127.658 131.731C126.899 130.672 126.291 129.763 125.798 129.12C125.608 128.817 125.419 128.59 125.305 128.401C125.191 128.25 125.153 128.136 125.153 128.136C125.153 128.136 125.229 128.212 125.343 128.363C125.495 128.553 125.684 128.78 125.874 129.044C126.329 129.65 127.013 130.52 127.81 131.618C129.404 133.813 131.529 136.878 133.806 140.322C136.083 143.765 138.17 146.831 139.726 149.063C140.485 150.123 141.093 151.031 141.586 151.675C141.776 151.977 141.966 152.204 142.079 152.394C142.193 152.469 142.231 152.583 142.231 152.583Z" fill="#E0E0E0"/>
<path d="M168.228 136.878C168.228 136.878 168.152 136.954 167.963 137.067C167.773 137.181 167.507 137.332 167.204 137.521C166.52 137.938 165.572 138.505 164.433 139.224C162.08 140.662 158.854 142.668 155.287 144.863C151.719 147.096 148.493 149.063 146.102 150.426C144.926 151.107 143.939 151.675 143.256 152.015C142.952 152.167 142.687 152.318 142.459 152.431C142.269 152.507 142.193 152.583 142.193 152.545C142.193 152.545 142.269 152.469 142.459 152.356C142.649 152.242 142.914 152.091 143.218 151.902C143.901 151.485 144.85 150.918 145.989 150.199C148.342 148.761 151.567 146.755 155.135 144.56C158.702 142.327 161.928 140.36 164.319 138.997C165.496 138.316 166.482 137.748 167.166 137.408C167.469 137.256 167.735 137.105 167.963 136.992C168.114 136.916 168.228 136.878 168.228 136.878Z" fill="#E0E0E0"/>
<path d="M13.3163 44.5804L8.24292 70.6228L46.9904 78.1281L52.0638 52.0857L13.3163 44.5804Z" fill="#9552EC"/>
<path d="M52.0959 52.4504C52.0959 52.4504 51.9441 52.5639 51.6784 52.7153C51.3748 52.9045 50.9574 53.1315 50.426 53.4343C49.2875 54.0776 47.6935 54.9858 45.758 56.0833C41.773 58.316 36.27 61.3435 30.2357 64.7115L30.1218 64.7872L30.008 64.6736C29.9321 64.5979 29.8562 64.4844 29.7803 64.4087C25.1881 59.035 21.0893 54.229 18.0911 50.6717C16.649 48.931 15.4345 47.4929 14.5996 46.4712C14.2201 45.9792 13.9164 45.6008 13.6508 45.3359C13.4231 45.071 13.3472 44.9196 13.3472 44.9196C13.3472 44.9196 13.499 45.0331 13.7267 45.298C13.9923 45.5629 14.296 45.9414 14.7134 46.3955C15.5863 47.3794 16.8008 48.7796 18.2809 50.5204C21.317 54.0398 25.4158 58.8458 30.008 64.1817C30.0839 64.2574 30.1598 64.3709 30.2357 64.4466L30.008 64.4087C36.0803 61.0786 41.5833 58.089 45.6062 55.8941C47.5796 54.8345 49.1736 53.9641 50.3501 53.3586C50.8814 53.0937 51.3369 52.8666 51.6405 52.6774C51.9441 52.4882 52.0959 52.4125 52.0959 52.4504Z" fill="#E0E0E0"/>
<path d="M8.29964 70.9555C8.22374 70.8799 11.8292 67.8903 16.3454 64.2573C20.8617 60.6244 24.5809 57.7483 24.6189 57.824C24.6948 57.8997 21.0894 60.8893 16.5731 64.5222C12.0569 68.1552 8.33759 71.0312 8.29964 70.9555Z" fill="#E0E0E0"/>
<path d="M37.5604 59.9811C37.6363 59.9433 39.8375 64.0303 42.4562 69.1391C45.0748 74.2479 47.1242 78.4106 47.0104 78.4484C46.9345 78.4863 44.7333 74.3993 42.1146 69.2905C39.5339 64.2195 37.4845 60.0189 37.5604 59.9811Z" fill="#E0E0E0"/>
<path d="M67.6561 39.3945L43.1392 41.93L41.1278 24.9763L65.6446 22.403L67.6561 39.3945Z" fill="#9552EC"/>
<path d="M65.7206 22.5922C65.7206 22.5922 65.6447 22.6679 65.5308 22.8571C65.379 23.0463 65.1892 23.2734 64.9236 23.5383C64.3543 24.1438 63.5953 24.9763 62.6465 26.0359C60.7109 28.1551 58.0164 31.0312 55.0561 34.21L54.9802 34.2857L54.9043 34.2479C54.8284 34.21 54.7905 34.1722 54.7146 34.1343C50.9953 31.6745 47.6176 29.4796 45.1507 27.8524C43.9363 27.0577 42.9495 26.3765 42.2664 25.9224C41.9248 25.6953 41.6971 25.5061 41.4694 25.3926C41.2796 25.2791 41.2037 25.2034 41.2037 25.2034C41.2037 25.2034 41.3176 25.2412 41.5074 25.3548C41.6971 25.4683 41.9628 25.6575 42.3043 25.8467C43.0254 26.3008 44.0122 26.9442 45.2266 27.701C47.6935 29.2904 51.1091 31.4853 54.8284 33.9451C54.9043 33.983 54.9423 34.0208 55.0182 34.0586H54.8664C57.8266 30.8798 60.5212 28.0038 62.4947 25.9224C63.4814 24.9006 64.2405 24.0681 64.8097 23.4626C65.0754 23.1977 65.3031 22.9707 65.4549 22.8193C65.6447 22.6679 65.7206 22.5922 65.7206 22.5922Z" fill="#E0E0E0"/>
<path d="M43.2531 42.1192C43.2152 42.0813 44.7712 39.5837 46.7447 36.4806C48.7182 33.4153 50.3881 30.9555 50.426 30.9934C50.464 31.0312 48.9079 33.5288 46.9344 36.6319C44.9609 39.6972 43.329 42.157 43.2531 42.1192Z" fill="#E0E0E0"/>
<path d="M58.5476 29.9338C58.5856 29.8959 60.6729 32.0152 63.2157 34.6642C65.7585 37.3132 67.7699 39.5081 67.732 39.5459C67.694 39.5837 65.6067 37.4645 63.0639 34.8155C60.5211 32.1665 58.5097 30.0095 58.5476 29.9338Z" fill="#E0E0E0"/>
<path d="M33.7272 18.8079L20.1785 9.46074L26.5923 0L40.1031 9.34721L33.7272 18.8079Z" fill="#9552EC"/>
<path d="M40.0651 9.49858C40.0651 9.49858 39.9892 9.49858 39.8374 9.53642C39.6856 9.57426 39.4959 9.57426 39.2302 9.6121C38.6989 9.68779 37.9398 9.76348 36.991 9.877C35.0935 10.1041 32.4748 10.4068 29.5905 10.7474H29.5146V10.6717C29.5146 10.6339 29.4766 10.5582 29.4766 10.5203C28.6417 7.64427 27.9206 5.07095 27.3893 3.1788C27.1236 2.27057 26.8959 1.51371 26.7441 0.983912C26.6682 0.719011 26.6302 0.529797 26.5923 0.378425C26.5543 0.227053 26.5543 0.151367 26.5543 0.151367C26.5543 0.151367 26.5923 0.227053 26.6302 0.340582C26.6682 0.491954 26.7441 0.681168 26.82 0.946069C26.9718 1.47587 27.1995 2.23273 27.5031 3.1788C28.0724 5.07095 28.8314 7.64427 29.6664 10.5203C29.6664 10.5582 29.7043 10.6339 29.7043 10.6717L29.5905 10.596C32.4748 10.2933 35.0935 9.99053 36.991 9.80132C37.9398 9.68779 38.6989 9.6121 39.2302 9.57426C39.4959 9.53642 39.6856 9.53642 39.8374 9.53642C39.9892 9.49858 40.0651 9.49858 40.0651 9.49858Z" fill="#E0E0E0"/>
<path d="M20.1405 9.61209C20.1405 9.57425 22.0381 8.96876 24.3531 8.28759C26.7062 7.60642 28.6037 7.07661 28.6037 7.11446C28.6037 7.1523 26.7062 7.75779 24.3911 8.43896C22.076 9.12013 20.1785 9.64993 20.1405 9.61209Z" fill="#E0E0E0"/>
<path d="M33.2339 10.1041C33.2719 10.1041 33.4237 12.0719 33.5375 14.5317C33.6514 16.9915 33.7273 18.9593 33.6893 18.9593C33.6514 18.9593 33.4996 16.9915 33.3857 14.5317C33.2339 12.0719 33.196 10.1041 33.2339 10.1041Z" fill="#E0E0E0"/>
<path d="M142.459 31.2583C142.459 21.9868 134.072 14.6831 124.432 16.4996C118.398 17.6348 113.578 22.5544 112.515 28.6093C111.87 32.3936 112.629 35.9508 114.375 38.8647L114.413 38.9026C114.982 39.8865 115.703 40.5677 116.462 41.5894L125.229 53.1694C126.329 54.6074 128.493 54.6074 129.593 53.1694L138.208 41.7787C138.208 41.7787 139.802 39.8487 140.41 38.9026L140.448 38.8647C141.7 36.632 142.459 34.0208 142.459 31.2583ZM127.392 37.8051C123.711 37.8051 120.751 34.8534 120.751 31.1826C120.751 27.5119 123.711 24.5601 127.392 24.5601C131.073 24.5601 134.034 27.5119 134.034 31.1826C134.034 34.8155 131.035 37.8051 127.392 37.8051Z" fill="#F69851"/>
<path d="M153.996 57.0672C153.996 52.0719 149.48 48.1362 144.281 49.1201C141.017 49.7256 138.436 52.3746 137.867 55.6291C137.525 57.6726 137.943 59.5648 138.854 61.1542L138.891 61.192C139.195 61.7218 139.613 62.1003 139.992 62.6301L144.698 68.8742C145.267 69.6689 146.444 69.6689 147.051 68.8742L151.681 62.7436C151.681 62.7436 152.554 61.7218 152.858 61.192V61.1542C153.579 59.9432 153.996 58.543 153.996 57.0672ZM145.875 60.5866C143.901 60.5866 142.307 58.9971 142.307 57.0293C142.307 55.0615 143.901 53.4721 145.875 53.4721C147.848 53.4721 149.442 55.0615 149.442 57.0293C149.442 58.9971 147.848 60.5866 145.875 60.5866Z" fill="#EBEBEB"/>
<path d="M168.987 159.886C168.987 159.924 131.377 160 84.9621 160C38.585 159.962 0.974854 159.924 0.974854 159.886C0.974854 159.849 38.585 159.773 85 159.773C131.377 159.773 168.987 159.811 168.987 159.886Z" fill="#263238"/>
<g filter="url(#filter0_d_477_798)">
<path d="M61.9633 29.3661L64.4681 64.6358C64.8856 70.3879 69.6675 74.8534 75.4741 74.8534C81.85 74.8534 86.8976 69.4797 86.4801 63.122C86.2524 59.754 86.0626 57.0293 86.0626 57.0293C86.0626 57.0293 94.6397 55.7048 94.7156 47.1523C94.7915 42.2327 93.9187 31.0312 93.1976 22.4409C92.7042 16.6509 87.8464 12.1854 82.0018 12.1854H76.8404C67.9217 12.7531 61.2043 20.5109 61.9633 29.3661Z" fill="#B78876"/>
<path d="M86.0626 56.9158C86.0626 56.9158 80.6355 57.3699 74.9048 53.737C74.9048 53.737 77.5614 59.8676 86.1005 59.1107L86.0626 56.9158Z" fill="#AA6550"/>
<path d="M90.5409 32.8098C90.5789 33.4531 90.0476 34.0208 89.3644 34.0586C88.6813 34.0965 88.112 33.6045 88.112 32.9612C88.0741 32.3179 88.6054 31.7502 89.2885 31.7124C89.9337 31.6745 90.503 32.1665 90.5409 32.8098Z" fill="#263238"/>
<path d="M91.7174 31.0691C91.5656 31.2204 90.6548 30.5393 89.3265 30.5393C87.9982 30.5393 87.0494 31.1826 86.8976 31.0312C86.8217 30.9555 86.9735 30.6906 87.391 30.3501C87.8084 30.0473 88.5295 29.7446 89.3265 29.7446C90.1614 29.7446 90.8446 30.0473 91.2241 30.3501C91.6415 30.6906 91.7934 30.9934 91.7174 31.0691Z" fill="#263238"/>
<path d="M77.7133 32.8098C77.7512 33.4531 77.2199 34.0208 76.5368 34.0586C75.8537 34.0965 75.2844 33.6045 75.2844 32.9612C75.2464 32.3179 75.7778 31.7502 76.4609 31.7124C77.1061 31.6745 77.6753 32.1665 77.7133 32.8098Z" fill="#263238"/>
<path d="M78.7759 31.2961C78.6241 31.4475 77.7133 30.7663 76.385 30.7663C75.0567 30.7663 74.1079 31.4096 73.9561 31.2583C73.8802 31.1826 74.032 30.9177 74.4494 30.5771C74.8669 30.2744 75.55 29.9716 76.385 29.9716C77.2199 29.9716 77.903 30.2744 78.2826 30.5771C78.738 30.9555 78.8518 31.2204 78.7759 31.2961Z" fill="#263238"/>
<path d="M83.5578 41.0218C83.5578 40.9461 84.3548 40.7947 85.6831 40.6433C86.0247 40.6055 86.3283 40.5298 86.4042 40.3027C86.4801 40.0757 86.3283 39.6973 86.1765 39.3188C85.8729 38.5241 85.5313 37.6537 85.1897 36.7833C83.8235 33.1504 82.7988 30.1608 82.9506 30.123C83.1024 30.0851 84.3548 32.9612 85.7211 36.5941C86.0626 37.5024 86.3662 38.3349 86.6699 39.1675C86.7837 39.5459 87.0114 39.9622 86.8596 40.492C86.7837 40.7569 86.5181 40.9082 86.2903 40.9839C86.0626 41.0596 85.8729 41.0596 85.7211 41.0596C84.3928 41.0974 83.5578 41.0974 83.5578 41.0218Z" fill="#263238"/>
<path d="M79.6868 41.93C79.9145 41.93 79.9145 43.3302 81.129 44.3519C82.3435 45.3737 83.8615 45.2223 83.8995 45.4115C83.9374 45.4872 83.5579 45.6764 82.9127 45.7143C82.2676 45.7521 81.3567 45.5251 80.5977 44.9196C79.8386 44.3141 79.535 43.4816 79.4971 42.8761C79.4212 42.2706 79.6109 41.93 79.6868 41.93Z" fill="#263238"/>
<path d="M79.1175 26.1495C79.0037 26.4901 77.6754 26.3387 76.1193 26.5279C74.5633 26.6793 73.3109 27.1334 73.1212 26.8306C73.0452 26.6793 73.235 26.3387 73.7663 25.9981C74.2597 25.6575 75.0567 25.3169 76.0055 25.2412C76.9163 25.1277 77.7892 25.2791 78.3585 25.5061C78.8898 25.6954 79.1934 25.9981 79.1175 26.1495Z" fill="#263238"/>
<path d="M91.2241 27.2469C90.9964 27.5497 90.0856 27.2469 88.985 27.2091C87.8844 27.1712 86.9735 27.3983 86.7458 27.0956C86.6699 26.9442 86.7838 26.6414 87.2012 26.3765C87.5807 26.1116 88.2639 25.8846 89.0229 25.8846C89.7819 25.9224 90.4271 26.1873 90.8066 26.4901C91.2241 26.7928 91.338 27.1334 91.2241 27.2469Z" fill="#263238"/>
<path d="M64.8476 35.7994C64.6958 35.7237 58.9651 34.0586 59.1549 39.8864C59.3446 45.7143 65.1892 44.3141 65.1892 44.1627C65.1892 44.0113 64.8476 35.7994 64.8476 35.7994Z" fill="#B78876"/>
<path d="M63.3296 42.0057C63.2916 42.0057 63.2157 42.0813 63.0639 42.157C62.9121 42.2327 62.6085 42.3084 62.3049 42.1949C61.6977 42.0057 61.1284 41.0217 61.0525 39.9621C61.0145 39.4323 61.1284 38.9404 61.2802 38.4863C61.432 38.07 61.6977 37.7294 62.0392 37.6916C62.3428 37.6159 62.5706 37.8051 62.6465 37.9565C62.7224 38.1078 62.6844 38.2214 62.7224 38.2592C62.7224 38.2592 62.8362 38.1457 62.7983 37.9186C62.7603 37.8051 62.6844 37.6537 62.5706 37.578C62.4187 37.4645 62.229 37.4267 62.0013 37.4645C61.5459 37.5024 61.1663 37.9186 60.9766 38.4106C60.7489 38.8647 60.635 39.4702 60.673 40.0378C60.7489 41.211 61.394 42.3084 62.229 42.4976C62.6465 42.5733 62.988 42.4598 63.1398 42.3084C63.3296 42.157 63.3675 42.0435 63.3296 42.0057Z" fill="#AA6550"/>
<path d="M61.5838 35.6102C62.4946 35.3831 64.0127 36.2157 64.3922 37.0482C64.7717 37.8808 64.8476 38.8269 65.2271 39.6594C65.6066 40.4919 66.4795 41.2488 67.3524 41.0217C67.9596 40.8704 68.4151 40.3027 68.5669 39.6972C68.7187 39.0918 68.6807 38.4484 68.5669 37.8051C68.2253 35.0804 67.656 32.3936 67.5422 29.631C67.4283 26.8685 67.8078 24.0303 69.288 21.684C70.7301 19.3377 73.3867 17.6348 76.1193 17.8619C77.941 18.0132 79.6108 18.9593 81.4325 19.2242C83.5578 19.527 85.8349 18.7701 87.3909 17.2564C87.5807 17.0672 88.4915 16.4617 88.4915 16.4617C88.4915 16.3103 88.3397 15.0993 87.8843 14.6452C84.3168 11.3529 77.8271 10.4068 73.0831 11.6178C68.3392 12.7909 63.8988 16.1589 61.8874 20.5487C59.8759 24.9763 60.4832 31.1069 61.5838 35.6102Z" fill="#263238"/>
<path d="M93.3114 21.192C93.3114 21.192 70.844 14.0019 61.1283 33.3775C61.1283 33.3775 59.6862 28.5336 59.6862 25.9224C59.6862 24.1816 60.7109 13.8505 71.4133 10.596C71.3753 10.5582 87.4289 4.46546 93.3114 21.192Z" fill="#E8505B"/>
<path d="M73.994 21.6461C74.791 22.9328 76.1952 23.8032 77.7133 23.9167C79.2313 24.0681 80.7494 23.4626 81.7741 22.3273C82.2295 23.4248 83.406 24.1816 84.5825 24.1438C85.759 24.0681 86.8596 23.1977 87.2012 22.0624C87.8464 22.7058 88.5295 23.3491 89.4024 23.6518C90.2374 23.9546 91.338 23.841 91.9072 23.122C92.4765 22.403 92.3247 21.3056 91.7554 20.5487C91.1861 19.8297 90.3512 19.3756 89.4783 19.035C86.8217 17.9375 83.8615 17.3699 81.0151 17.7483C78.1687 18.1268 75.3603 19.5269 73.5765 21.7975" fill="#263238"/>
<g opacity="0.4">
<g opacity="0.4">
<path opacity="0.4" d="M93.3114 21.192C93.3114 21.192 90.7686 18.1646 86.1765 17.9754C79.5349 17.6727 67.1627 21.3813 61.1283 33.3775C61.1283 33.3775 59.6862 28.5336 59.6862 25.9224C59.6862 24.1816 60.7109 13.8505 71.4133 10.596C71.3753 10.5582 87.4289 4.46546 93.3114 21.192Z" fill="black"/>
</g>
</g>
<path d="M62.0392 31.0691C65.3789 25.9981 69.9711 21.7975 75.1325 18.5809C80.294 15.3642 88.8331 12.1854 94.7156 10.6339C96.4994 10.1798 98.321 9.76349 100.143 10.0662C101.926 10.369 103.71 11.58 104.166 13.3207C104.735 15.5156 100.788 18.9593 98.9283 20.2838C97.0686 21.6083 93.3114 23.5762 93.3114 23.5762C93.3114 23.5762 93.3494 19.4891 86.7837 18.6187C77.7892 17.5213 62.0392 31.0691 62.0392 31.0691Z" fill="#E8505B"/>
<path d="M80.4838 14.3424C80.4838 14.3424 83.7097 12.5638 86.9735 12.1476C86.2904 11.6556 85.9488 11.4285 85.2278 11.088C83.5579 11.4285 81.888 11.8448 80.1802 12.7909L80.4838 14.3424Z" fill="#E0E0E0"/>
<path d="M98.7006 64.4087L91.5656 62.8571L88.6813 62.1381L86.2524 58.3917C86.2524 58.3917 85.1138 65.052 80.7873 68.6471C79.6108 69.631 78.0548 69.9716 76.5367 69.6689C75.55 69.4796 74.4114 69.2147 73.5765 68.9877C73.3867 68.9498 73.197 68.8742 72.9693 68.7985C69.8193 67.6632 67.2765 65.3926 65.6446 62.4787C64.6958 60.7758 63.8609 59.035 64.1645 58.3917L60.7868 65.3926L40.8621 74.5506L29.5525 102.1L51.4886 108.571L52.1717 131.277L48.035 159.849L110.048 159.886L107.847 96.1968" fill="#E8505B"/>
<path d="M82.685 89.0445C82.685 89.0445 82.5332 89.0445 82.3054 89.0445C82.0398 89.0445 81.6603 89.0445 81.2048 89.0066C80.2181 88.9688 78.8898 88.931 77.2579 88.8553H77.1819V88.7796C77.106 87.0767 77.0301 85.071 76.9542 82.8761C76.8404 79.773 76.7645 76.9347 76.6886 74.8912C76.6506 73.8695 76.6506 73.0748 76.6127 72.4693C76.6127 72.2044 76.6127 71.9773 76.6127 71.8259C76.6127 71.6746 76.6127 71.5989 76.6127 71.5989C76.6127 71.5989 76.6127 71.6746 76.6506 71.8259C76.6506 72.0152 76.6886 72.2044 76.6886 72.4693C76.7265 73.0748 76.7645 73.8695 76.8024 74.8912C76.8783 76.9726 76.9922 79.773 77.144 82.8761C77.2199 85.0331 77.2958 87.0767 77.3338 88.7796L77.2579 88.7039C78.8898 88.7796 80.2181 88.8553 81.2048 88.931C81.6603 88.9688 82.0398 88.9688 82.3054 89.0066C82.5332 89.0066 82.685 89.0445 82.685 89.0445Z" fill="#263238"/>
<path d="M79.3072 79.8486C79.3072 79.8486 79.3831 79.773 79.6108 79.7351C79.8006 79.6973 80.1422 79.7351 80.4458 79.9622C80.5976 80.0757 80.7494 80.2271 80.8253 80.4163C80.9391 80.6055 80.9771 80.8704 80.9391 81.0975C80.8632 81.5894 80.4837 82.0814 79.9144 82.2327C79.3452 82.3841 78.7759 82.0814 78.4723 81.7029C78.1307 81.3245 78.1307 80.8326 78.2066 80.492C78.2825 80.1514 78.4723 79.8865 78.6241 79.7351C78.7759 79.5837 78.8897 79.5459 78.8897 79.5459C78.8897 79.5459 78.8138 79.6216 78.7 79.773C78.5861 79.9243 78.4343 80.1514 78.3584 80.492C78.2825 80.8326 78.3584 81.2488 78.6241 81.5516C78.8897 81.8922 79.3831 82.1192 79.8765 82.0057C80.3699 81.8922 80.6735 81.438 80.7494 81.0218C80.8253 80.6055 80.5976 80.2271 80.3319 80.0379C80.0663 79.8486 79.8006 79.773 79.6108 79.773C79.3831 79.8108 79.3072 79.8486 79.3072 79.8486Z" fill="#263238"/>
<path d="M78.6241 71.8638C78.6241 71.8638 78.7 71.7881 78.9277 71.7124C79.1554 71.6746 79.497 71.6746 79.8385 71.8638C80.0283 71.9773 80.2181 72.0908 80.3319 72.3179C80.4837 72.5071 80.5596 72.772 80.5217 73.0747C80.5217 73.6045 80.1422 74.21 79.5349 74.3992C78.8897 74.5885 78.2825 74.2857 77.941 73.8316C77.7891 73.6045 77.6753 73.3396 77.6753 73.1126C77.6753 72.8855 77.7132 72.6585 77.7891 72.4693C77.941 72.0908 78.2066 71.8638 78.3964 71.7502C78.5861 71.6367 78.7 71.6367 78.7 71.6367C78.7 71.6367 78.5861 71.7124 78.4343 71.8259C78.2825 71.9395 78.0548 72.1665 77.941 72.5449C77.8271 72.8855 77.8271 73.3775 78.1307 73.7559C78.4343 74.1343 79.0036 74.3992 79.5349 74.2479C80.0663 74.0965 80.4078 73.5667 80.4078 73.0747C80.4458 72.5828 80.1422 72.2044 79.8006 72.0151C79.497 71.8259 79.1554 71.7881 78.9657 71.8259C78.7379 71.8259 78.6241 71.8638 78.6241 71.8638Z" fill="#263238"/>
<path d="M76.6127 102.403C76.6127 102.403 76.6506 102.403 76.7265 102.365C76.8024 102.327 76.8783 102.289 76.9922 102.252C77.2579 102.176 77.5994 102.025 78.0548 101.798C78.9657 101.343 80.2181 100.587 81.5464 99.3377C82.8747 98.0889 84.241 96.386 85.5313 94.3803C86.8596 92.3746 88.188 90.104 89.4404 87.6064C91.9452 82.649 93.7289 77.9564 94.9813 74.5506C95.5885 72.8477 96.0819 71.4475 96.4235 70.5014C96.5753 70.0473 96.7271 69.6688 96.803 69.4039C96.841 69.2904 96.8789 69.1769 96.9169 69.1012C96.9548 69.0255 96.9548 68.9877 96.9548 68.9877C96.9548 68.9877 96.9548 69.0255 96.9169 69.1012C96.8789 69.1769 96.8789 69.2904 96.841 69.4039C96.765 69.6688 96.6512 70.0473 96.4994 70.5014C96.1958 71.4853 95.7404 72.8477 95.1331 74.5884C93.9187 78.0321 92.1729 82.7247 89.6301 87.6821C88.3777 90.1419 87.0494 92.4503 85.7211 94.456C84.3928 96.4616 83.0265 98.1646 81.6603 99.4134C80.3319 100.662 79.0416 101.419 78.0928 101.873C77.6374 102.062 77.2579 102.214 76.9922 102.289C76.8783 102.327 76.7645 102.365 76.6886 102.365C76.6506 102.403 76.6127 102.403 76.6127 102.403Z" fill="#263238"/>
<path d="M89.668 94.8344C89.8198 94.8344 93.615 94.5695 93.615 94.5695C93.615 94.5695 92.059 97.3321 90.427 98.3538H87.1252L89.668 94.8344Z" fill="#FAFAFA"/>
<path d="M75.9296 110.728C75.9296 110.728 76.0055 110.653 76.1573 110.577C76.3091 110.464 76.5368 110.312 76.8025 110.123C77.3717 109.745 78.1308 109.177 79.1175 108.458C81.0151 107.02 83.5579 104.825 86.2524 102.365C87.6187 101.116 88.9091 99.9811 90.0097 98.8458C91.1482 97.7483 92.0591 96.6509 92.7801 95.7048C93.5012 94.7587 93.9946 93.9262 94.2982 93.3207C94.45 93.018 94.5639 92.7909 94.6398 92.6395C94.7157 92.4882 94.7536 92.4125 94.7536 92.4125C94.7536 92.4125 94.7157 92.4882 94.6777 92.6774C94.6018 92.8287 94.5259 93.0937 94.3741 93.3964C94.0705 94.0019 93.6151 94.8723 92.894 95.8183C92.1729 96.8023 91.2621 97.8997 90.1235 98.9972C88.985 100.132 87.6946 101.306 86.3663 102.554C83.6717 105.014 81.129 107.171 79.1934 108.609C78.2446 109.328 77.4097 109.858 76.8404 110.237C76.5747 110.426 76.347 110.539 76.1952 110.653C76.0434 110.691 75.9296 110.728 75.9296 110.728Z" fill="#263238"/>
<path d="M65.3031 152.772C65.3031 152.772 65.3031 152.734 65.341 152.696C65.379 152.621 65.4169 152.545 65.4928 152.431C65.6447 152.204 65.8344 151.902 66.138 151.485C66.7073 150.691 67.5802 149.555 68.7567 148.269C71.1097 145.658 74.3736 142.1 77.979 138.127C81.5844 134.191 84.8862 130.634 87.2392 128.023C88.4157 126.736 89.4024 125.714 90.0476 124.995C90.3892 124.655 90.6169 124.39 90.8067 124.163C90.8826 124.087 90.9585 124.011 90.9964 123.936C91.0344 123.898 91.0723 123.86 91.0723 123.86C91.0723 123.86 91.0723 123.898 90.9964 123.936C90.9585 124.011 90.8826 124.049 90.8067 124.163C90.6169 124.352 90.3892 124.655 90.0476 124.995C89.3645 125.752 88.4157 126.774 87.2771 128.098C84.9241 130.71 81.6603 134.267 78.0549 138.24C74.4495 142.176 71.1856 145.733 68.7946 148.344C67.6181 149.631 66.7453 150.728 66.138 151.523C65.8344 151.902 65.6067 152.242 65.4549 152.431C65.379 152.545 65.341 152.621 65.2651 152.658C65.341 152.734 65.3031 152.772 65.3031 152.772Z" fill="#263238"/>
<path d="M98.2072 64.2195C98.5487 64.7114 105.873 65.5061 107.657 67.3226C109.441 69.1012 127.392 82.7625 127.392 82.7625L114.602 99.9054L106.367 98.0889L98.2072 64.2195Z" fill="#E8505B"/>
<path opacity="0.4" d="M125.229 81.0974L110.883 99.0728L114.602 99.9054L127.392 82.7247L125.229 81.0974Z" fill="black"/>
<path d="M102.116 82.0813C102.116 82.0813 102.04 81.8543 101.964 81.4758C101.926 81.2866 101.888 81.0596 101.851 80.7568C101.813 80.4919 101.775 80.1513 101.737 79.8108C101.699 79.4702 101.661 79.0539 101.699 78.6376C101.699 78.2213 101.699 77.7672 101.737 77.3131C101.813 76.367 101.964 75.3453 102.192 74.2857C102.458 73.2261 102.799 72.2422 103.179 71.4096C103.369 70.9933 103.558 70.5771 103.786 70.1986C103.976 69.8202 104.204 69.4796 104.393 69.2147C104.583 68.912 104.773 68.6471 104.925 68.42C105.076 68.193 105.228 68.0037 105.38 67.8524C105.646 67.5496 105.798 67.3983 105.798 67.3983C105.798 67.3983 105.684 67.5875 105.456 67.8902C105.342 68.0416 105.19 68.2308 105.038 68.4957C104.887 68.7228 104.697 68.9877 104.507 69.2904C104.317 69.5931 104.128 69.9337 103.938 70.2743C103.748 70.6527 103.558 71.0312 103.369 71.4475C102.989 72.3178 102.648 73.2639 102.382 74.3235C102.116 75.3831 101.964 76.367 101.888 77.3131C101.851 77.7672 101.813 78.2213 101.851 78.6376C101.851 79.0539 101.851 79.4323 101.888 79.7729C101.888 80.1135 101.926 80.4541 101.964 80.719C102.002 80.9839 102.04 81.2488 102.04 81.438C102.116 81.8543 102.116 82.0813 102.116 82.0813Z" fill="#263238"/>
<path d="M107.847 96.1968C107.809 96.2346 107.088 94.6452 106.253 92.7152C105.418 90.7474 104.811 89.158 104.849 89.158C104.887 89.1202 105.608 90.7096 106.443 92.6396C107.278 94.5696 107.923 96.159 107.847 96.1968Z" fill="#263238"/>
<path d="M51.4886 83.7086C51.4507 83.7086 51.1471 83.1788 50.5778 82.3084C50.0085 81.438 49.1356 80.3406 47.9971 79.2431C46.8585 78.1457 45.72 77.3132 44.8471 76.7455C43.9742 76.1779 43.4049 75.913 43.4049 75.8751C43.4049 75.8751 43.5567 75.913 43.8224 76.0643C44.088 76.1779 44.4676 76.3671 44.923 76.632C45.8338 77.1618 47.0103 77.9943 48.1489 79.0918C49.2874 80.1892 50.1603 81.3623 50.7296 82.2327C50.9953 82.6869 51.223 83.0274 51.3368 83.2923C51.4127 83.5572 51.4886 83.7086 51.4886 83.7086Z" fill="#263238"/>
<path opacity="0.4" d="M29.5525 102.062L30.4254 99.9054L54.6765 106.49L53.7277 109.177L29.5525 102.062Z" fill="black"/>
<path d="M94.2981 93.5856H103.52V97.3699L91.7174 97.2942C91.7174 97.2942 93.5391 95.0993 94.2981 93.5856Z" fill="#FAFAFA"/>
<g opacity="0.2">
<path opacity="0.2" d="M61.3561 66.1873C61.6976 69.1391 62.0392 72.1665 63.5193 74.7777C64.9994 77.351 67.8458 79.3945 70.8061 78.9782C72.7796 78.6755 74.4494 77.3888 75.7777 75.913C77.1061 74.4371 78.2446 72.772 79.6868 71.4475C80.5976 72.3557 81.5464 73.3018 82.647 73.983C83.7476 74.6641 85.038 75.1183 86.3283 74.9669C87.6187 74.8155 88.3398 74.2857 88.7193 73.0747C87.353 73.491 86.594 73.4532 85.2277 73.1883C83.7856 72.9234 82.3814 72.3179 81.091 71.2961C80.294 70.6528 79.9904 69.7067 78.9657 69.7824C78.0169 69.8202 77.2958 70.5771 76.6506 71.2961C75.7018 72.3936 74.4874 73.5667 73.3488 74.4749C72.2103 75.3832 71.1097 75.9886 69.6675 75.9508C67.2766 75.913 65.341 74.0208 64.0127 72.053C62.7982 70.2365 61.8874 68.193 61.3561 66.0738" fill="black"/>
</g>
<path d="M89.2885 62.5165C89.2885 62.5165 89.3265 62.5922 89.3265 62.7436C89.3265 62.895 89.3644 63.0842 89.4024 63.3491C89.4403 63.8789 89.5162 64.6357 89.5542 65.6197C89.5921 67.5118 89.4783 70.1608 88.8331 73.0369C88.8331 73.0747 88.8331 73.0747 88.8331 73.1126V73.1883H88.7572C87.315 73.5288 85.8728 73.4153 84.6584 73.0747C83.4439 72.7342 82.4192 72.2043 81.6222 71.6745C80.8253 71.1069 80.2939 70.5771 79.9524 70.1608C79.7626 69.9716 79.6867 69.7824 79.6108 69.6689C79.5349 69.5553 79.4969 69.4797 79.4969 69.4797C79.5349 69.4418 80.1421 70.5014 81.6982 71.561C82.4572 72.0908 83.4819 72.5828 84.6963 72.9234C85.9108 73.2261 87.315 73.3775 88.6813 72.999L88.6054 73.0747C88.6054 73.0369 88.6054 73.0369 88.6054 72.999C89.2126 70.1608 89.3644 67.5497 89.3644 65.6197C89.3644 64.6736 89.3265 63.9167 89.2885 63.3869C89.2885 63.122 89.2506 62.9328 89.2506 62.7814C89.2885 62.5922 89.2885 62.5165 89.2885 62.5165Z" fill="#263238"/>
<path d="M77.7892 69.9716C77.7892 69.9716 77.7513 70.0473 77.6754 70.1986C77.5995 70.35 77.4476 70.5392 77.2579 70.8041C76.8784 71.2961 76.2332 71.9773 75.3983 72.772C74.9808 73.1504 74.4874 73.5667 73.994 74.0208C73.7284 74.2478 73.4627 74.4749 73.197 74.702C72.8934 74.929 72.5898 75.1182 72.2483 75.3074C71.5651 75.6859 70.8061 75.9508 69.9712 75.9886C69.1362 76.0643 68.2254 75.8751 67.4663 75.421C66.6693 75.0047 66.0621 74.3992 65.4928 73.7559C64.9236 73.1504 64.4302 72.5071 64.0127 71.9016C63.1398 70.6528 62.5326 69.4418 62.0772 68.3822C61.6218 67.3226 61.3941 66.4522 61.2422 65.8089C61.1663 65.5061 61.1284 65.2412 61.0904 65.0899C61.0525 64.9385 61.0525 64.825 61.0525 64.825C61.0525 64.825 61.0904 64.9006 61.1284 65.052C61.1663 65.2034 61.2422 65.4683 61.3182 65.771C61.5079 66.3765 61.7736 67.2469 62.229 68.3065C62.6844 69.3283 63.3296 70.5392 64.1645 71.7881C64.582 72.3935 65.0754 73.0369 65.6446 73.6424C66.176 74.2478 66.8212 74.8155 67.5422 75.2318C68.3013 75.648 69.1362 75.8372 69.9332 75.7616C70.7302 75.6859 71.4892 75.4588 72.1344 75.1182C72.476 74.929 72.7796 74.7398 73.0452 74.5506C73.3109 74.3235 73.5766 74.0965 73.8422 73.9073C74.3736 73.491 74.829 73.0747 75.2464 72.6963C76.0814 71.9394 76.7266 71.2961 77.144 70.8041C77.3338 70.5771 77.4856 70.35 77.5994 70.2365C77.7133 70.0473 77.7892 69.9716 77.7892 69.9716Z" fill="#263238"/>
<path d="M69.5916 113.453L72.5138 109.215C72.5138 109.215 74.5253 102.252 74.2596 101.268C73.994 100.284 73.0831 96.6509 73.3108 96.6131C73.5385 96.5752 75.7018 95.7427 76.9162 98.6566C77.6373 100.473 77.903 102.857 77.9789 104.409C78.0168 105.203 78.7759 105.809 79.5728 105.658C81.5843 105.241 84.962 104.598 85.759 104.787C86.9355 105.052 87.9602 106.528 88.074 107.02C88.1879 107.512 87.3909 108.647 87.3909 108.647C87.3909 108.647 88.3776 109.139 88.6813 109.896C88.7192 110.009 88.7572 110.085 88.7951 110.199C88.9849 110.804 88.8331 111.485 88.3776 111.977L88.074 112.318C88.074 112.318 89.2885 112.658 89.4403 113.34C89.5921 114.059 89.4023 114.891 89.4023 114.891L88.2638 116.064C88.2638 116.064 88.7951 116.556 88.871 117.2C88.9469 117.843 87.2011 119.432 87.2011 119.432L79.7626 122.081L76.8024 122.838L69.5916 113.453Z" fill="#B78876"/>
<path d="M87.353 108.647C87.353 108.685 86.2144 108.912 84.7722 109.215C83.3301 109.517 82.1915 109.745 82.1915 109.707C82.1915 109.669 82.4572 109.593 82.9126 109.442C83.368 109.328 84.0132 109.139 84.7343 109.026C85.4554 108.874 86.1006 108.761 86.5939 108.723C87.0494 108.647 87.353 108.647 87.353 108.647Z" fill="#AA6550"/>
<path d="M88.0361 112.318C88.0361 112.356 87.1632 112.696 86.0626 113.037C84.962 113.378 84.0511 113.605 84.0511 113.567C84.0511 113.529 84.924 113.188 86.0246 112.848C87.1253 112.507 88.0361 112.28 88.0361 112.318Z" fill="#AA6550"/>
<path d="M88.4914 115.951C88.5294 115.989 87.5806 116.443 86.4041 116.973C85.2276 117.502 84.2408 117.843 84.2408 117.805C84.2029 117.767 85.1517 117.313 86.3282 116.783C87.5047 116.291 88.4535 115.913 88.4914 115.951Z" fill="#AA6550"/>
<path d="M52.4374 139.754L79.8006 121.438L72.8934 108.95L47.9211 121.779L50.7675 108.307L33.8031 103.311L29.5904 126.358C28.9453 136.613 37.1808 144.863 47.1241 142.176C49.0217 141.646 50.8055 140.851 52.4374 139.754Z" fill="#B78876"/>
<path d="M44.3158 129.007C44.3158 129.007 44.2778 128.893 44.2399 128.666C44.2019 128.439 44.164 128.098 44.164 127.682C44.126 126.85 44.3158 125.714 44.885 124.579C45.4543 123.444 46.2893 122.611 46.9344 122.157C47.276 121.93 47.5417 121.741 47.7694 121.665C47.9591 121.552 48.1109 121.514 48.1109 121.552C48.1109 121.589 47.6555 121.816 47.0483 122.308C46.4031 122.8 45.6061 123.633 45.0748 124.73C44.5435 125.828 44.3537 126.963 44.3158 127.758C44.2399 128.477 44.3537 129.007 44.3158 129.007Z" fill="#AA6550"/>
<path d="M114.602 99.9054C114.792 99.6783 134.11 111.41 134.11 111.41L140.296 139.565L149.214 142.819C149.214 142.819 151.985 111.523 149.898 106.641C147.772 101.76 126.33 84.2384 126.33 84.2384L114.602 99.9054Z" fill="#B78876"/>
<path d="M138.322 109.253C138.36 109.29 137.753 110.123 136.652 110.842C135.552 111.561 134.527 111.75 134.527 111.712C134.489 111.637 135.514 111.372 136.538 110.691C137.601 109.972 138.284 109.215 138.322 109.253Z" fill="#AA6550"/>
<path d="M91.376 99.9811L92.894 126.963L123.749 124.882L122.838 104.787L118.322 98.7701L91.376 99.9811Z" fill="#263238"/>
<path d="M84.3549 127.569C84.4308 128.098 87.0874 152.545 87.0874 152.545L133.047 149.366L140.827 148.344L137.26 125.563L131.757 124.238L84.3549 127.569Z" fill="#E8505B"/>
<path opacity="0.4" d="M131.719 124.238L84.3549 127.569C84.4308 128.098 87.0874 152.545 87.0874 152.545L134.945 149.215L131.719 124.238Z" fill="black"/>
<path d="M119.157 125.184L92.894 126.963L91.376 99.9811L118.322 98.7701L119.157 125.184Z" fill="#455A64"/>
<path d="M101.167 99.5269L101.699 107.852L103.103 107.058L103.9 107.852L104.849 107.058L106.367 107.852V99.2999L101.167 99.5269Z" fill="#263238"/>
<path d="M112.136 125.752L110.352 105.506L127.886 110.312L129.593 124.314L112.136 125.752Z" fill="#E8505B"/>
<path d="M127.886 110.312C127.886 110.312 127.848 110.35 127.772 110.464C127.696 110.577 127.582 110.691 127.43 110.88C127.126 111.258 126.671 111.75 126.14 112.356C125.001 113.604 123.445 115.345 121.661 117.351L121.586 117.427L121.51 117.351C120.751 116.556 119.954 115.724 119.119 114.853C116.69 112.28 114.489 109.972 112.857 108.269C112.06 107.436 111.452 106.755 110.997 106.263C110.807 106.036 110.617 105.847 110.504 105.695C110.39 105.582 110.352 105.506 110.352 105.506C110.352 105.506 110.428 105.544 110.542 105.695C110.693 105.847 110.845 105.998 111.073 106.225C111.528 106.717 112.211 107.36 113.008 108.193C114.64 109.896 116.842 112.204 119.308 114.74C120.143 115.61 120.94 116.443 121.699 117.237H121.548C123.369 115.232 124.925 113.529 126.102 112.28C126.671 111.675 127.089 111.183 127.43 110.842C127.582 110.691 127.696 110.577 127.81 110.464C127.848 110.35 127.886 110.312 127.886 110.312Z" fill="#263238"/>
<path d="M118.056 114.096C118.094 114.134 116.842 116.518 115.248 119.432C113.654 122.346 112.325 124.692 112.287 124.692C112.249 124.655 113.502 122.271 115.096 119.357C116.69 116.405 118.018 114.059 118.056 114.096Z" fill="#263238"/>
<path d="M129.176 124.314C129.138 124.352 127.923 122.422 126.443 120C125.001 117.578 123.863 115.61 123.901 115.572C123.939 115.534 125.153 117.464 126.633 119.886C128.075 122.308 129.214 124.276 129.176 124.314Z" fill="#263238"/>
<path d="M121.548 124.995L120.409 112.053L131.605 115.156L132.667 124.049L121.548 124.995Z" fill="#E8505B"/>
<path opacity="0.4" d="M121.548 124.995L120.409 112.053L131.605 115.156L132.667 124.049L121.548 124.995Z" fill="white"/>
<path d="M131.605 115.156C131.605 115.156 131.529 115.27 131.339 115.497C131.111 115.724 130.846 116.064 130.542 116.443C129.821 117.275 128.834 118.373 127.696 119.659L127.62 119.735L127.544 119.659C127.051 119.167 126.557 118.638 126.026 118.07C124.47 116.443 123.066 114.967 122.041 113.869C121.548 113.34 121.168 112.923 120.864 112.583C120.599 112.28 120.447 112.091 120.447 112.091C120.447 112.091 120.637 112.242 120.902 112.545C121.206 112.848 121.624 113.264 122.117 113.794C123.142 114.853 124.584 116.329 126.14 117.956C126.671 118.524 127.164 119.054 127.658 119.546H127.506C128.645 118.297 129.669 117.2 130.39 116.405C130.732 116.026 131.036 115.724 131.263 115.497C131.453 115.232 131.567 115.118 131.605 115.156Z" fill="#263238"/>
<path d="M125.305 117.54C125.343 117.578 124.584 119.092 123.559 120.946C122.534 122.8 121.699 124.314 121.624 124.276C121.586 124.238 122.345 122.725 123.369 120.87C124.432 118.978 125.267 117.502 125.305 117.54Z" fill="#263238"/>
<path d="M132.402 124.049C132.364 124.087 131.567 122.838 130.656 121.324C129.745 119.773 129.024 118.524 129.062 118.486C129.1 118.448 129.897 119.697 130.808 121.211C131.757 122.762 132.44 124.011 132.402 124.049Z" fill="#263238"/>
<path d="M128.682 114.588V115.648L130.314 115.837L130.39 115.043L128.682 114.588Z" fill="white"/>
<path d="M122.914 109.328C122.914 109.442 122.914 110.842 122.914 110.842L125.988 111.334L126.14 110.161L122.914 109.328Z" fill="white"/>
<path d="M110.883 133.321L110.731 125.752L104.583 126.168L105.266 133.85L110.883 133.321Z" fill="#E8505B"/>
<path d="M130.878 137.277L120.564 138.252L121.427 147.331L131.742 146.356L130.878 137.277Z" fill="#FAFAFA"/>
<path d="M131.757 146.376C131.757 146.376 131.757 146.301 131.719 146.187C131.719 146.074 131.681 145.885 131.681 145.695C131.643 145.241 131.567 144.636 131.491 143.841C131.339 142.252 131.111 139.981 130.808 137.294L130.884 137.37C127.923 137.673 124.394 138.013 120.599 138.354C120.561 138.392 120.751 138.165 120.675 138.24V138.278V138.316V138.392V138.543L120.713 138.846C120.751 139.035 120.751 139.262 120.789 139.451C120.826 139.868 120.864 140.246 120.902 140.662C120.978 141.457 121.054 142.252 121.13 143.008C121.282 144.522 121.396 145.96 121.548 147.323L121.434 147.247C124.508 146.982 127.051 146.755 128.872 146.604C129.783 146.528 130.466 146.452 130.998 146.414C131.225 146.414 131.415 146.376 131.567 146.376C131.681 146.376 131.757 146.376 131.757 146.376C131.757 146.376 131.681 146.376 131.567 146.414C131.415 146.414 131.263 146.452 131.036 146.49C130.542 146.528 129.821 146.604 128.948 146.717C127.126 146.906 124.546 147.171 121.472 147.474H121.396V147.398C121.282 146.074 121.13 144.598 120.978 143.084C120.902 142.327 120.826 141.533 120.751 140.738C120.713 140.322 120.675 139.943 120.637 139.527C120.599 139.338 120.599 139.111 120.561 138.921L120.523 138.619V138.467V138.392V138.354V138.316C120.447 138.429 120.637 138.165 120.599 138.202C124.394 137.862 127.923 137.521 130.884 137.256H130.96V137.332C131.187 140.057 131.415 142.327 131.529 143.955C131.605 144.749 131.643 145.355 131.681 145.771C131.681 145.96 131.719 146.112 131.719 146.263C131.757 146.339 131.757 146.376 131.757 146.376Z" fill="#263238"/>
<path d="M130.087 139.451C130.087 139.489 128.303 139.754 126.064 139.981C123.825 140.208 122.041 140.359 122.003 140.322C122.003 140.284 123.787 140.019 126.026 139.792C128.265 139.565 130.087 139.413 130.087 139.451Z" fill="#263238"/>
<path d="M130.011 141.003C130.011 141.041 129.593 141.154 128.91 141.268C128.227 141.419 127.278 141.57 126.178 141.684C125.115 141.798 124.128 141.873 123.445 141.911C122.724 141.949 122.307 141.911 122.307 141.911C122.307 141.873 122.724 141.835 123.445 141.798C124.128 141.722 125.115 141.646 126.178 141.533C127.24 141.419 128.189 141.268 128.91 141.154C129.593 141.041 130.011 141.003 130.011 141.003Z" fill="#263238"/>
<path d="M130.466 144.371C130.466 144.409 130.049 144.522 129.366 144.636C128.682 144.787 127.734 144.938 126.633 145.052C125.57 145.165 124.584 145.241 123.901 145.279C123.179 145.317 122.762 145.279 122.762 145.279C122.762 145.241 123.179 145.203 123.901 145.165C124.584 145.09 125.57 145.014 126.633 144.901C127.696 144.787 128.644 144.636 129.366 144.522C130.011 144.409 130.466 144.371 130.466 144.371Z" fill="#263238"/>
<path d="M129.935 142.668C129.935 142.706 128.265 143.008 126.178 143.311C124.09 143.614 122.382 143.803 122.382 143.765C122.382 143.727 124.052 143.425 126.14 143.122C128.227 142.819 129.935 142.592 129.935 142.668Z" fill="#263238"/>
<path d="M139.043 156.746C139.043 156.746 147.507 151.145 148.19 148.307C148.835 145.43 149.252 142.857 149.252 142.857L140.182 139.111L141.093 142.365C141.093 142.365 137.829 144.295 137.525 146.641C137.298 148.193 133.123 150.842 133.123 150.842C132.402 149.972 131.339 149.518 130.201 149.593L126.671 149.858L129.062 155.232L139.043 156.746Z" fill="#B78876"/>
<path d="M142.345 149.063C142.345 149.063 142.193 149.139 141.928 149.215C141.662 149.29 141.282 149.404 140.789 149.555C140.334 149.707 139.84 150.009 139.309 150.426C138.816 150.842 138.208 151.296 137.487 151.561C136.045 152.167 134.603 152.129 133.654 151.864C133.426 151.788 133.199 151.75 133.009 151.637C132.819 151.523 132.743 151.334 132.781 151.183C132.819 151.031 132.895 150.956 132.971 150.918C133.047 150.88 133.085 150.918 133.085 150.918C133.085 150.918 133.047 150.918 132.971 150.956C132.933 150.993 132.857 151.069 132.857 151.22C132.857 151.334 132.933 151.485 133.085 151.599C133.237 151.712 133.464 151.75 133.692 151.788C134.641 152.015 136.045 152.015 137.449 151.41C138.132 151.145 138.702 150.691 139.233 150.312C139.764 149.896 140.296 149.593 140.789 149.48C141.282 149.328 141.662 149.29 141.928 149.215C142.193 149.101 142.345 149.063 142.345 149.063Z" fill="#AA6550"/>
<path d="M136.463 153.415C136.463 153.453 136.045 153.188 135.286 152.886C134.565 152.583 133.54 152.28 132.326 152.167C132.022 152.129 131.719 152.129 131.453 152.129H131.415L131.377 152.091C130.846 151.258 130.239 150.653 129.783 150.237C129.328 149.82 129.024 149.631 129.024 149.593C129.024 149.593 129.1 149.631 129.252 149.707C129.404 149.782 129.593 149.934 129.859 150.123C130.352 150.501 130.96 151.145 131.529 151.977L131.453 151.939C131.757 151.939 132.022 151.939 132.326 151.977C133.54 152.091 134.603 152.431 135.286 152.772C135.628 152.923 135.931 153.113 136.121 153.226C136.387 153.302 136.463 153.378 136.463 153.415Z" fill="#AA6550"/>
<path d="M138.778 151.864C138.778 151.902 138.208 152.129 137.525 152.507C136.842 152.886 136.387 153.264 136.349 153.226C136.311 153.188 136.766 152.696 137.449 152.318C138.132 151.939 138.74 151.826 138.778 151.864Z" fill="#AA6550"/>
<path d="M143.37 141.798C143.37 141.873 142.763 141.798 142.117 141.949C141.434 142.138 140.979 142.479 140.941 142.403C140.903 142.365 141.358 141.911 142.079 141.76C142.763 141.608 143.37 141.76 143.37 141.798Z" fill="#AA6550"/>
</g>
<path d="M19.6092 138.581C20.7098 139.905 22.6073 139.262 23.4423 138.316C24.2772 137.37 24.5429 136.083 24.7706 134.872C25.3019 132.072 25.8332 129.158 24.9983 126.433C24.7326 125.639 24.3531 124.806 23.7079 124.276C23.0628 123.709 22.1519 123.444 21.3549 123.709C20.4061 124.049 19.8748 125.071 19.5333 125.979C18.4706 128.742 18.0911 131.731 18.3188 134.683C18.4327 136.083 18.7363 137.521 19.6092 138.581Z" fill="#E8505B"/>
<g opacity="0.2">
<g opacity="0.2">
<g opacity="0.2">
<path opacity="0.2" d="M19.6092 138.581C20.7098 139.905 22.6073 139.262 23.4423 138.316C24.2772 137.37 24.5429 136.083 24.7706 134.872C25.3019 132.072 25.8332 129.158 24.9983 126.433C24.7326 125.639 24.3531 124.806 23.7079 124.276C23.0628 123.709 22.1519 123.444 21.3549 123.709C20.4061 124.049 19.8748 125.071 19.5333 125.979C18.4706 128.742 18.0911 131.731 18.3188 134.683C18.4327 136.083 18.7363 137.521 19.6092 138.581Z" fill="black"/>
</g>
</g>
</g>
<path d="M23.9736 145.393C25.5296 144.409 27.4272 144.144 29.2489 144.257C30.2356 144.333 31.2603 144.522 31.9814 145.203C32.7025 145.885 32.9302 147.133 32.2471 147.815C31.8296 148.231 31.2224 148.344 30.6152 148.382C29.2109 148.496 27.617 148.382 26.5543 149.328C25.9471 149.858 25.6055 150.691 24.8465 151.031C24.1254 151.334 23.2146 150.956 22.7592 150.312C22.3037 149.669 22.2278 148.836 22.3417 148.042C22.3796 148.042 22.4176 146.377 23.9736 145.393Z" fill="#E8505B"/>
<path d="M17.0663 140.851C18.0151 139.489 18.0531 137.597 17.4459 136.045C16.8386 134.494 15.6242 133.245 14.2579 132.223C12.6639 131.05 10.8802 130.18 8.94468 129.726C8.18564 129.536 7.42661 129.385 6.62962 129.536C5.87059 129.688 5.1495 130.142 4.84589 130.861C4.39047 131.921 5.03565 133.094 5.64288 134.04C6.78143 135.705 8.03384 137.294 9.4001 138.77C10.5007 139.943 11.7531 141.116 13.3091 141.533C14.8651 141.987 16.4212 141.76 17.1423 140.662" fill="#E8505B"/>
<path d="M21.4687 159.886C21.4687 159.886 21.5067 159.659 21.5067 159.243C21.5067 158.789 21.5067 158.184 21.5067 157.465C21.5067 156.708 21.5446 155.837 21.6585 154.853C21.7723 153.869 22 152.81 22.3416 151.75C22.6832 150.653 23.1006 149.669 23.632 148.874C24.1633 148.042 24.8085 147.436 25.4536 147.058C26.0988 146.679 26.6681 146.49 27.0476 146.414C27.4651 146.339 27.6928 146.301 27.6928 146.263C27.6928 146.263 27.4651 146.263 27.0476 146.301C26.6301 146.377 26.0229 146.528 25.3777 146.906C24.6946 147.285 24.0115 147.89 23.4422 148.723C22.8729 149.555 22.4175 150.577 22.0759 151.675C21.7344 152.772 21.5446 153.832 21.4308 154.853C21.3169 155.837 21.3169 156.745 21.3169 157.502C21.3169 158.259 21.3548 158.865 21.3928 159.281C21.4308 159.659 21.4308 159.886 21.4687 159.886Z" fill="#263238"/>
<path d="M21.4687 158.524C21.4687 158.524 21.4687 158.411 21.4687 158.221C21.4308 157.994 21.4308 157.729 21.3928 157.389C21.3169 156.632 21.241 155.572 21.1651 154.248C20.9754 151.599 20.8995 147.928 20.9754 143.879C21.0513 139.83 21.3169 136.159 21.6205 133.548C21.6964 132.904 21.7723 132.299 21.8483 131.769C21.9242 131.239 21.9621 130.785 22.038 130.445C22.076 130.104 22.1139 129.839 22.1519 129.612C22.1898 129.423 22.1898 129.309 22.1898 129.309C22.1898 129.309 22.1519 129.423 22.1139 129.612C22.076 129.839 22.0001 130.104 21.9242 130.445C21.8483 130.823 21.7723 131.239 21.6964 131.769C21.6205 132.299 21.5067 132.867 21.4308 133.548C21.0892 136.197 20.7856 139.868 20.7097 143.917C20.6338 147.966 20.7476 151.637 20.9754 154.286C21.0892 155.61 21.2031 156.67 21.3169 157.427C21.3549 157.767 21.3928 158.032 21.4308 158.259C21.4308 158.411 21.4687 158.524 21.4687 158.524Z" fill="#263238"/>
<path d="M20.8616 151.485C20.8616 151.485 20.8616 151.183 20.7857 150.615C20.7098 150.047 20.5579 149.215 20.2923 148.231C20.0266 147.247 19.6851 146.074 19.1917 144.787C18.6983 143.5 18.0911 142.138 17.332 140.776C15.8519 138.013 13.9923 135.78 12.3983 134.456C12.0188 134.115 11.6393 133.851 11.2977 133.586C11.1459 133.472 10.9941 133.359 10.8423 133.245C10.6905 133.169 10.5387 133.094 10.4248 133.018C9.93146 132.753 9.62785 132.602 9.62785 132.602C9.58989 132.677 10.7664 133.207 12.2845 134.57C13.8025 135.932 15.6242 138.127 17.1043 140.889C17.8634 142.252 18.4706 143.614 18.964 144.863C19.4573 146.112 19.8369 147.285 20.1025 148.269C20.3682 149.253 20.5579 150.047 20.6718 150.615C20.7477 151.145 20.8236 151.485 20.8616 151.485Z" fill="#263238"/>
</g>
<defs>
<filter id="filter0_d_477_798" x="17.5525" y="3.48322" width="145.124" height="174.403" filterUnits="userSpaceOnUse" color-interpolation-filters="sRGB">
<feFlood flood-opacity="0" result="BackgroundImageFix"/>
<feColorMatrix in="SourceAlpha" type="matrix" values="0 0 0 0 0 0 0 0 0 0 0 0 0 0 0 0 0 0 127 0" result="hardAlpha"/>
<feOffset dy="6"/>
<feGaussianBlur stdDeviation="6"/>
<feColorMatrix type="matrix" values="0 0 0 0 0 0 0 0 0 0 0 0 0 0 0 0 0 0 0.11 0"/>
<feBlend mode="normal" in2="BackgroundImageFix" result="effect1_dropShadow_477_798"/>
<feBlend mode="normal" in="SourceGraphic" in2="effect1_dropShadow_477_798" result="shape"/>
</filter>
<clipPath id="clip0_477_798">
<rect width="168.05" height="160" fill="white" transform="translate(0.974854)"/>
</clipPath>
</defs>
</svg>
