<svg width="222" height="160" viewBox="0 0 222 160" fill="none" xmlns="http://www.w3.org/2000/svg">
<circle cx="149.5" cy="87" r="31" fill="#F7F0F7"/>
<path d="M76.1899 105.256C76.1899 105.256 97.8382 47.98 81.501 0.611029C81.2916 -0.00540571 80.5061 -0.205933 80.0274 0.24711C72.4572 7.31012 26.6771 53.9512 76.1899 105.256Z" fill="#07E2A4"/>
<path opacity="0.28" d="M75.9502 17.4774C75.0077 20.9086 74.1998 24.3844 73.5265 27.8825C72.8309 31.3732 72.2399 34.8861 71.7537 38.4139C71.2749 41.9417 70.871 45.4769 70.6017 49.0196C70.3175 52.5622 70.1304 56.1123 70.1005 59.6698C70.0482 63.2198 70.1005 66.7773 70.3175 70.32C70.3399 70.7656 70.3623 71.2038 70.3848 71.6494L70.4895 72.9788C70.5643 73.8626 70.6167 74.7539 70.7139 75.6302L70.9982 78.2817L71.0655 78.9427L71.1553 79.6037L71.3348 80.9256C71.5442 82.6933 71.8809 84.4386 72.1576 86.1913C72.3147 87.0677 72.5017 87.9367 72.6738 88.8056L72.9356 90.1128C73.0254 90.5509 73.1376 90.9743 73.2348 91.4125L73.8407 94.0119L74.5364 96.589L74.888 97.8813L75.2919 99.1588L76.0774 101.714V101.721C76.1148 101.855 76.04 101.996 75.9128 102.033C75.7856 102.07 75.651 102.003 75.6061 101.884C73.0179 95.2002 71.1253 88.2189 70.0407 81.1187L69.8312 79.7893L69.7265 79.1209L69.6442 78.4525L69.3151 75.7788C69.2104 74.8876 69.143 73.9889 69.0533 73.0977L68.9261 71.7534C68.8887 71.3078 68.8663 70.8547 68.8363 70.4091C68.5745 66.8293 68.5222 63.2347 68.5521 59.6401C68.6493 52.4582 69.3076 45.2912 70.4371 38.2134C71.0057 34.6707 71.7013 31.1504 72.5242 27.6597C72.9356 25.9144 73.3919 24.1839 73.8706 22.4534C74.3494 20.723 74.8655 19.0148 75.464 17.314C75.5089 17.1803 75.651 17.1135 75.7856 17.158C75.9128 17.2026 75.9801 17.3363 75.9427 17.4625L75.9502 17.4774Z" fill="white"/>
<path d="M62.0146 109.958C62.0146 109.958 75.8907 40.1519 46.8743 13.0213C46.3581 12.5386 45.5278 12.6648 45.1687 13.2739C41.0545 20.3443 21.7401 59.3654 62.0146 109.958Z" fill="#05AC7D"/>
<path opacity="0.28" d="M47.323 25.818C47.48 29.2567 47.7568 32.7102 48.071 36.1415C48.2356 37.8571 48.4001 39.5801 48.5797 41.2958C48.7816 43.0114 48.9612 44.727 49.1781 46.4426C49.4025 48.1508 49.6194 49.8664 49.8513 51.5746L50.6068 56.6992C51.1679 60.1082 51.7214 63.5171 52.3722 66.9038C52.9632 70.3054 53.7187 73.6772 54.4144 77.0639L55.5888 82.1067C55.7908 82.946 55.9778 83.7927 56.1872 84.6245L56.8455 87.1273C57.2868 88.7984 57.7132 90.4695 58.1695 92.1331L59.6282 97.1017C59.8751 97.9335 60.0995 98.7653 60.3613 99.5897L61.1617 102.055L62.77 106.98V106.987C62.8149 107.121 62.7401 107.262 62.6054 107.306C62.4708 107.351 62.3286 107.277 62.2838 107.15C60.0396 100.6 57.8928 94.0047 56.2097 87.2907L55.5439 84.7804C55.3345 83.9412 55.14 83.0945 54.938 82.2553L53.7411 77.205C53.038 73.8183 52.2675 70.439 51.6616 67.0301C50.375 60.227 49.3352 53.3794 48.5198 46.5095C48.3104 44.7938 48.1383 43.0708 47.9438 41.3552C47.7643 39.6321 47.6072 37.9091 47.4501 36.186C47.1733 32.7325 46.934 29.2864 46.8218 25.818C46.8143 25.6769 46.9265 25.5581 47.0686 25.5581C47.1958 25.5655 47.3155 25.6695 47.323 25.818Z" fill="white"/>
<path d="M107.766 29.6468L134.688 8.74001C134.785 8.66574 134.86 8.56176 134.89 8.44293L136.558 3.0287C136.603 2.88016 136.7 2.76133 136.835 2.68706L137.919 2.07805C138.024 2.01864 138.151 1.98893 138.279 2.00379L141.652 2.33057C141.921 2.36028 142.146 2.5608 142.191 2.82817L142.445 4.39526C142.468 4.55122 142.438 4.70719 142.348 4.83344L141.892 5.47959C141.764 5.66526 141.749 5.91035 141.862 6.11088C141.981 6.33368 141.959 6.60848 141.787 6.79415C141.226 7.41059 139.82 8.77714 137.575 9.73522C137.501 9.76492 137.426 9.81691 137.373 9.87633L111.573 36.8286C111.334 37.0663 107.474 29.8696 107.766 29.6468Z" fill="url(#paint0_linear_689_471)"/>
<path d="M138.638 6.71963C138.615 6.71963 138.593 6.7122 138.57 6.70477C138.503 6.66764 138.48 6.58594 138.518 6.5191C138.548 6.45968 139.348 5.04114 140.351 5.34564C141.136 5.58331 141.353 5.49418 141.36 5.49418C141.428 5.44962 141.503 5.4719 141.547 5.53874C141.592 5.60559 141.57 5.69471 141.503 5.73184C141.443 5.77641 141.166 5.88781 140.268 5.61301C139.483 5.36792 138.765 6.63793 138.765 6.65278C138.735 6.69734 138.69 6.71963 138.638 6.71963Z" fill="url(#paint1_linear_689_471)"/>
<path d="M107.841 29.587L95.6777 39.7099L99.4404 48.3475L113.107 35.7885C110.466 33.9912 108.634 31.9488 107.841 29.587Z" fill="url(#paint2_linear_689_471)"/>
<path d="M28.2567 133.869C28.3689 132.339 28.8775 131.262 29.4086 130.527C28.2641 130.898 27.8303 131.745 27.561 134.01C27.2393 136.706 26.6708 143.999 26.5212 145.618C26.3716 147.23 27.0448 148.024 27.561 148.552C27.733 148.723 28.0023 148.648 28.3165 148.396C27.6732 147.579 27.4114 146.74 27.2842 146.056C27.0822 144.972 27.9948 137.434 28.2567 133.869Z" fill="url(#paint3_linear_689_471)"/>
<path d="M35.7669 131.752L33.7696 129.182C33.7696 129.182 31.8547 130.088 30.1416 130.356C29.8723 130.4 29.6255 130.452 29.4086 130.526C28.87 131.262 28.3688 132.339 28.2566 133.869C27.9873 137.433 27.0822 144.972 27.2841 146.056C27.4113 146.747 27.6731 147.579 28.3164 148.396C28.9597 147.898 29.805 146.695 30.4483 145.469C31.4058 143.642 34.6374 138.169 35.4004 136.126C36.1559 134.084 35.7669 131.752 35.7669 131.752Z" fill="#1B0637"/>
<path d="M62.9059 108.424C63.2724 106.931 63.9531 105.951 64.6039 105.32C63.4071 105.498 62.846 106.263 62.2027 108.454C61.4397 111.061 59.6594 118.161 59.248 119.728C58.8291 121.295 59.3602 122.186 59.7866 122.788C59.9287 122.988 60.2055 122.951 60.557 122.758C60.0559 121.844 59.9437 120.976 59.9287 120.277C59.8988 119.186 62.0531 111.9 62.9059 108.424Z" fill="url(#paint4_linear_689_471)"/>
<path d="M70.6628 107.578L69.1218 104.718C69.1218 104.718 67.0797 105.297 65.3517 105.283C65.0749 105.283 64.8281 105.297 64.6037 105.327C63.9529 105.966 63.2796 106.939 62.9056 108.432C62.0454 111.907 59.8985 119.186 59.921 120.292C59.9359 120.991 60.0481 121.859 60.5493 122.773C61.2674 122.387 62.2997 121.34 63.1375 120.233C64.3867 118.584 68.486 113.72 69.5781 111.833C70.6553 109.932 70.6628 107.578 70.6628 107.578Z" fill="#1B0637"/>
<path d="M35.767 125.506C35.4154 125.959 32.8721 130.564 32.3185 131.559C32.2288 131.73 32.1614 131.908 32.139 132.101C32.0791 132.621 32.1315 133.609 33.2236 134.329C33.8969 134.767 34.802 134.619 35.2882 133.98L39.9186 127.927L35.767 125.506Z" fill="url(#paint5_linear_689_471)"/>
<path d="M71.7028 101.413C71.2839 101.807 68 105.929 67.2893 106.82C67.1696 106.969 67.0799 107.139 67.0275 107.325C66.8779 107.823 66.7657 108.811 67.7307 109.702C68.3216 110.251 69.2342 110.244 69.8252 109.694L74.8071 103.99L71.7028 101.413Z" fill="url(#paint6_linear_689_471)"/>
<path d="M77.949 79.7118C77.949 78.4343 85.3322 78.8874 91.8027 78.1447C95.1988 77.751 97.2185 81.8136 94.8323 84.2496L75.2336 104.332C74.8222 104.755 74.2088 104.911 73.6478 104.726C72.8773 104.473 71.7627 104.02 70.7753 103.24C70.1993 102.787 70.0946 101.955 70.5135 101.354L79.5274 88.6166L71.2989 90.9784L40.1057 129.287C39.5895 129.918 38.6844 130.066 37.9887 129.636C37.0686 129.064 35.8493 128.202 35.0414 127.252C34.615 126.746 34.5851 126.026 34.9517 125.476C38.3927 120.255 57.0937 91.8102 57.9838 88.8617C58.9638 85.6087 62.5469 79.6449 65.9056 79.437C69.2568 79.2216 77.949 79.7118 77.949 79.7118Z" fill="#380D71"/>
<path d="M80.0138 88.4608C79.924 88.4608 79.8342 88.4013 79.8118 88.3048C79.7819 88.1934 79.8492 88.082 79.9614 88.0523L87.3595 86.1064C87.4717 86.0767 87.5839 86.1436 87.6139 86.255C87.6438 86.3664 87.5765 86.4778 87.4643 86.5075L80.0661 88.4533C80.0512 88.4533 80.0362 88.4608 80.0138 88.4608Z" fill="#380D71"/>
<path d="M72.0395 90.4434C71.9871 90.4434 71.9348 90.4286 71.8974 90.3914C71.8151 90.3172 71.8076 90.1835 71.8824 90.1018L73.7301 88.1114C73.8049 88.0297 73.9395 88.0223 74.0218 88.0965C74.1041 88.1708 74.1116 88.3045 74.0368 88.3862L72.1891 90.3766C72.1517 90.4211 72.0919 90.4434 72.0395 90.4434Z" fill="#380D71"/>
<path d="M99.4402 39.3386C99.4402 39.3386 103.345 43.2972 102.679 50.1374C102.485 52.1501 101.692 54.0588 100.443 55.6556L80.7168 80.922C80.2605 81.5013 79.5947 81.8875 78.8542 81.9766C75.9518 82.3331 68.2395 83.0238 62.7788 81.2265C62.3449 81.0854 62.1579 80.5729 62.3823 80.1793L80.3128 48.8525L91.1744 36.3084C91.1744 36.301 96.3508 34.5334 99.4402 39.3386Z" fill="url(#paint7_linear_689_471)"/>
<path d="M42.7463 67.5316C42.679 67.5316 42.6191 67.4945 42.5892 67.435C42.5443 67.3459 42.5743 67.2419 42.664 67.19C42.7388 67.1454 50.3165 63.0532 51.9323 61.7312C52.0071 61.6643 52.1267 61.6792 52.1866 61.7534C52.2539 61.8277 52.2389 61.9465 52.1641 62.006C50.5259 63.3502 43.1503 67.3385 42.8436 67.5093C42.8062 67.5242 42.7762 67.5316 42.7463 67.5316Z" fill="url(#paint8_linear_689_471)"/>
<path d="M100.391 27.5599L94.496 35.8261C94.1145 36.3608 94.1668 37.0886 94.6156 37.5714C95.4086 38.4106 96.7475 39.5989 98.1913 39.8663C98.6401 39.948 99.0964 39.7623 99.3432 39.3836L102.478 34.608C102.485 34.608 103.083 27.0994 100.391 27.5599Z" fill="url(#paint9_linear_689_471)"/>
<path d="M102.051 20.6529C102.171 20.7643 107.078 30.3376 107.078 30.3376L101.513 33.0039L95.4983 24.6189C95.5058 24.6189 100.061 18.7887 102.051 20.6529Z" fill="url(#paint10_linear_689_471)"/>
<path d="M98.034 25.6215L100.809 30.2188C100.854 30.2856 100.899 30.3525 100.959 30.4045C101.288 30.709 102.418 31.6002 103.293 30.3896C104.041 29.3573 104.736 28.4215 105.484 28.0353C105.918 27.8125 106.457 27.9907 106.681 28.4289C107.138 29.3275 108.028 31.162 108.581 32.8999C108.724 33.3381 108.492 33.806 108.065 33.9768C106.936 34.4298 104.714 35.2468 102.732 35.5216C102.41 35.5662 102.088 35.4325 101.894 35.1651C101.041 34.0065 98.6474 30.7758 97.8321 29.9663C97.069 29.2161 95.6702 29.4984 95.0344 29.6766C94.795 29.7435 94.5407 29.7137 94.3237 29.5875C93.6804 29.2013 92.5658 28.2506 93.5907 26.6316C93.845 26.2305 93.7178 25.6958 93.3139 25.4358C92.5958 24.9679 91.8178 24.0916 92.5584 22.673C93.3064 21.2322 94.6454 21.1059 95.558 21.2173C95.9619 21.2693 96.3734 21.054 96.523 20.6826C96.6801 20.3038 97.099 20.4524 97.3084 20.1924C97.4879 19.9696 97.4356 19.8062 97.5553 19.6057C97.9218 18.9596 97.8994 18.4397 98.7372 18.0758C99.388 17.7935 100.136 17.7787 100.839 17.8975C101.228 17.9643 101.625 18.0683 101.939 18.2986C102.223 18.5065 102.425 18.8036 102.62 19.1007C103.023 19.7097 103.45 20.4449 103.181 21.1208C102.784 22.1457 101.064 22.3314 100.158 22.6507C99.0289 23.0444 98.4006 23.7351 97.9667 24.8565C97.8695 25.1016 97.8919 25.3913 98.034 25.6215Z" fill="#380D71"/>
<path d="M98.8792 31.6519C98.8792 31.6519 97.8095 28.5475 96.4481 28.6663C95.0792 28.7777 94.002 30.1294 95.7 31.6519C97.802 33.5458 98.8792 31.6519 98.8792 31.6519Z" fill="url(#paint11_linear_689_471)"/>
<path d="M120.124 75.8051V55.2028C120.124 52.492 117.932 50.2936 115.209 50.2639C107.025 50.1748 90.1496 50.1674 76.3408 51.326C74.4557 51.4819 72.9896 53.0193 72.9222 54.8909L71.6281 74.8099C71.5309 77.4465 73.6329 79.6449 76.2884 79.6968L115.374 80.4321C117.977 80.4841 120.124 78.3971 120.124 75.8051Z" fill="url(#paint12_linear_689_471)"/>
<path d="M115.381 57.4308C115.418 59.1835 115.366 61.9686 115.321 63.7659C115.299 64.7017 114.468 65.4147 113.533 65.3033L106.801 64.5161C105.903 64.4121 105.275 63.5877 105.402 62.7039L106.233 57.2302C106.352 56.4504 107.025 55.8785 107.811 55.8785H113.78C114.655 55.8785 115.366 56.5692 115.381 57.4308Z" fill="white"/>
<path opacity="0.37" d="M97.7872 67.8062L92.1694 68.4078C91.3839 68.4895 90.7107 67.8508 90.7706 67.0635L91.9973 50.4717C94.3537 50.3975 96.6726 50.3455 98.9167 50.3083V66.5585C98.9167 67.1972 98.4305 67.7393 97.7872 67.8062Z" fill="white"/>
<path d="M95.4832 64.9321C95.4683 65.2292 95.2139 65.4594 94.9222 65.4594C94.9147 65.4594 94.8997 65.4594 94.8923 65.4594C94.5781 65.4445 94.3462 65.1772 94.3612 64.8652L95.2064 50.3827C95.5879 50.3753 95.962 50.3679 96.336 50.353L95.4832 64.9321Z" fill="white"/>
<path d="M112.269 62.6597C112.366 62.6597 112.449 62.5854 112.456 62.4815L112.748 57.9213C112.755 57.8174 112.673 57.7282 112.568 57.7208C112.456 57.7134 112.374 57.7951 112.366 57.8991L112.075 62.4592C112.067 62.5632 112.149 62.6523 112.254 62.6597C112.262 62.6597 112.262 62.6597 112.269 62.6597Z" fill="#1B0637"/>
<path d="M111.671 62.6595C111.775 62.6595 111.858 62.5778 111.858 62.4813L112.007 57.832C112.007 57.728 111.933 57.6389 111.828 57.6389C111.708 57.6315 111.633 57.7132 111.633 57.8171L111.484 62.4664C111.476 62.5704 111.559 62.6521 111.671 62.6595C111.663 62.6595 111.671 62.6595 111.671 62.6595Z" fill="#1B0637"/>
<path d="M110.855 62.6596C110.751 62.6522 110.668 62.5705 110.676 62.4665C110.751 60.9069 110.893 57.9287 110.893 57.8247C110.893 57.7207 110.975 57.639 111.08 57.639C111.185 57.639 111.267 57.7207 111.267 57.8247C111.267 57.899 111.087 61.7164 111.05 62.4814C111.042 62.5854 110.96 62.6596 110.863 62.6596H110.855Z" fill="#1B0637"/>
<path d="M109.606 62.8454C109.808 62.8454 109.973 62.6894 109.98 62.4815C110.137 57.9808 110.115 57.8768 110.092 57.8099C110.04 57.6094 109.831 57.4906 109.629 57.55C109.442 57.602 109.329 57.7802 109.352 57.9585C109.367 58.2258 109.277 60.8476 109.225 62.4592C109.217 62.6672 109.382 62.838 109.591 62.8454C109.599 62.8454 109.606 62.8454 109.606 62.8454Z" fill="#380D71"/>
<path d="M108.791 62.6598C108.895 62.6598 108.978 62.5781 108.978 62.4741V57.9139C108.978 57.81 108.895 57.7283 108.791 57.7283C108.686 57.7283 108.604 57.81 108.604 57.9139V62.4741C108.604 62.5781 108.686 62.6598 108.791 62.6598Z" fill="#1B0637"/>
<path d="M108.132 62.6597C108.237 62.6597 108.319 62.5781 108.319 62.4741C108.357 60.8921 108.439 58.3001 108.514 57.9882C108.544 57.9288 108.544 57.8545 108.506 57.7951C108.447 57.706 108.334 57.6837 108.245 57.7431C108.14 57.81 108.043 57.8768 107.938 62.4666C107.945 62.5706 108.028 62.6523 108.132 62.6597Z" fill="#380D71"/>
<path d="M113.279 63.0755C113.481 63.0755 113.646 62.9195 113.653 62.719L113.907 57.9286C113.915 57.7207 113.758 57.5498 113.548 57.535C113.354 57.5201 113.167 57.6835 113.152 57.8915L112.898 62.6819C112.89 62.8898 113.047 63.0606 113.257 63.0755C113.272 63.0755 113.279 63.0755 113.279 63.0755Z" fill="#1B0637"/>
<path d="M104.258 20.9722C99.5299 12.1119 87.2845 20.1626 92.9845 27.6267C97.2259 24.8268 102.013 20.6677 104.258 20.9722Z" fill="url(#paint13_linear_689_471)"/>
<path d="M94.8323 49.7142L84.2176 44.3074C84.2176 44.3074 76.6399 51.7269 74.7025 61.8052C76.9317 61.9686 80.9861 62.5405 84.9507 64.5309C85.8184 59.7777 94.8323 49.7142 94.8323 49.7142Z" fill="url(#paint14_linear_689_471)"/>
<path d="M103.569 67.3234C103.569 67.3234 90.3366 74.7503 85.8708 68.4077C84.9432 67.0932 84.7188 65.786 84.9507 64.5383C80.9861 62.5479 76.9317 61.976 74.7025 61.8126C74.119 64.8502 74.4257 68.0884 76.2285 71.3488C84.053 85.5565 105.327 70.5615 105.327 70.5615L103.569 67.3234Z" fill="url(#paint15_linear_689_471)"/>
<path d="M104.198 71.1036C103.352 71.3264 102.5 70.7768 102.328 69.9227C102.066 68.5933 101.737 66.5509 101.998 65.6077C102.402 64.152 103.188 62.273 105.813 62.6963C108.432 63.1122 111.528 64.2114 111.528 64.2114C111.528 64.2114 111.371 66.1127 109.382 65.4963L110.616 66.4469C110.616 66.4469 110.436 67.9694 108.753 67.1525L109.905 68.4076C109.905 68.4076 109.18 69.6553 107.945 68.8532C106.921 68.1997 106.337 70.5392 104.198 71.1036Z" fill="url(#paint16_linear_689_471)"/>
<path d="M37.4351 69.2469C36.9714 69.336 36.732 69.8336 36.934 70.2495C37.8914 72.1657 40.7116 76.3842 46.5089 75.0547C53.9444 73.3465 76.6175 56.3315 81.749 51.6822C86.8806 47.0329 93.6803 41.2399 97.0091 42.0495C100.338 42.859 98.3256 40.9429 96.0217 39.4055C93.7177 37.8681 92.8649 35.6177 94.5779 36.0337C94.5779 36.0337 90.4413 34.7042 84.1203 38.1578C77.949 41.537 47.7955 53.0859 37.7044 49.7438C37.3304 49.6175 36.934 49.8552 36.8666 50.2414C36.4627 52.5214 35.8568 59.6736 41.7588 67.7095C41.7663 67.7244 39.4623 68.8681 37.4351 69.2469Z" fill="url(#paint17_linear_689_471)"/>
<path d="M96.882 24.7228L105.365 24.4629C105.582 24.4555 105.776 24.3366 105.881 24.151C106.644 22.7918 107.751 21.9229 109.142 21.4401C109.322 21.3807 109.285 21.1208 109.098 21.1133L103.899 20.7643C103.891 20.7643 103.884 20.7643 103.884 20.7643C101.288 20.9648 98.999 22.5096 96.8072 24.5372C96.7249 24.604 96.7773 24.7303 96.882 24.7228Z" fill="url(#paint18_linear_689_471)"/>
<path d="M135.878 58.5432L133.465 59.9374L132.1 57.5567L134.514 56.1625L135.878 58.5432Z" stroke="#1B0637" stroke-width="0.84" stroke-linecap="round" stroke-linejoin="round"/>
<path d="M135.063 55.8304L131.258 58.0269L128.993 53.8344L132.797 51.6378L135.063 55.8304Z" stroke="#1B0637" stroke-width="0.84" stroke-linecap="round" stroke-linejoin="round"/>
<path d="M151.267 54.1895C144.589 54.1895 138.06 56.1698 132.508 59.88C126.955 63.5903 122.627 68.8638 120.071 75.0338C117.515 81.2037 116.846 87.993 118.149 94.5431C119.451 101.093 122.667 107.11 127.389 111.833C132.111 116.555 138.128 119.771 144.678 121.075C151.228 122.378 158.017 121.71 164.187 119.154C170.357 116.599 175.631 112.272 179.342 106.719C183.053 101.167 185.034 94.6384 185.034 87.96C185.035 83.5252 184.163 79.1337 182.466 75.0363C180.769 70.9389 178.282 67.2159 175.146 64.0798C172.011 60.9438 168.288 58.4563 164.191 56.7593C160.093 55.0623 155.702 54.189 151.267 54.1895ZM151.267 117.209C145.479 117.209 139.821 115.493 135.008 112.277C130.195 109.061 126.444 104.491 124.229 99.143C122.014 93.7954 121.435 87.9111 122.564 82.2341C123.693 76.5571 126.48 71.3425 130.573 67.2496C134.666 63.1568 139.881 60.3695 145.558 59.2403C151.235 58.1111 157.119 58.6906 162.467 60.9056C167.814 63.1207 172.385 66.8717 175.601 71.6844C178.816 76.4971 180.533 82.1553 180.533 87.9435C180.535 91.7881 179.78 95.5955 178.31 99.148C176.84 102.701 174.685 105.929 171.967 108.648C169.249 111.367 166.022 113.525 162.471 114.996C158.919 116.468 155.112 117.226 151.267 117.226V117.209Z" fill="#1B0637" stroke="#1B0637" stroke-width="0.84" stroke-linecap="round" stroke-linejoin="round"/>
<path d="M171.987 62.4859C168.621 59.7439 164.745 57.6974 160.583 56.4651" stroke="white" stroke-width="1.67" stroke-linecap="round" stroke-linejoin="round"/>
<path d="M157.469 55.7087C156.273 55.4802 155.066 55.3188 153.852 55.2253" stroke="white" stroke-width="1.67" stroke-linecap="round" stroke-linejoin="round"/>
<path d="M175.896 106.006C179.841 100.62 181.913 94.0891 181.794 87.4137C181.675 80.7382 179.373 74.2855 175.239 69.0427" stroke="white" stroke-width="0.84" stroke-linecap="round" stroke-linejoin="round"/>
<path d="M171.628 110.708C172.585 109.85 173.488 108.933 174.331 107.963" stroke="white" stroke-width="0.84" stroke-linecap="round" stroke-linejoin="round"/>
<path d="M138.841 115.861C143.973 118.14 149.633 118.962 155.202 118.237C160.77 117.512 166.031 115.268 170.408 111.751" stroke="white" stroke-width="0.84" stroke-linecap="round" stroke-linejoin="round"/>
<path d="M134.497 113.477C135.41 114.076 136.356 114.625 137.328 115.121" stroke="white" stroke-width="0.84" stroke-linecap="round" stroke-linejoin="round"/>
<path d="M131.222 110.978C131.992 111.649 132.795 112.281 133.629 112.872" stroke="white" stroke-width="0.84" stroke-linecap="round" stroke-linejoin="round"/>
<path d="M142.823 58.6057C137.634 60.0994 132.934 62.9421 129.202 66.8441C125.47 70.7462 122.839 75.568 121.577 80.8181C120.316 86.0683 120.469 91.559 122.021 96.7306C123.573 101.902 126.469 106.57 130.413 110.258" stroke="white" stroke-width="0.84" stroke-linecap="round" stroke-linejoin="round"/>
<path d="M172.858 66.3661C169.286 62.7987 164.886 60.171 160.052 58.7177C155.217 57.2643 150.098 57.0304 145.151 58.0369" stroke="white" stroke-width="0.84" stroke-linecap="round" stroke-linejoin="round"/>
<path d="M153.72 87.9601C153.72 87.3862 153.519 86.8306 153.151 86.3901C152.783 85.9496 152.273 85.6522 151.708 85.5497L151.448 69.48H151.083L150.827 85.5497C150.269 85.6519 149.765 85.9439 149.399 86.3763C149.033 86.8086 148.828 87.3544 148.819 87.9208C148.81 88.4872 148.998 89.0392 149.35 89.4829C149.702 89.9265 150.197 90.2343 150.751 90.3539L150.659 96.0591H151.876L151.784 90.3539C152.331 90.2366 152.823 89.9349 153.175 89.4993C153.527 89.0637 153.72 88.5204 153.72 87.9601ZM151.267 89.2754C151.007 89.2754 150.753 89.1982 150.537 89.0537C150.32 88.9092 150.152 88.7037 150.052 88.4634C149.953 88.2231 149.926 87.9586 149.977 87.7034C150.028 87.4483 150.153 87.2139 150.337 87.03C150.521 86.846 150.756 86.7208 151.011 86.67C151.266 86.6193 151.53 86.6453 151.771 86.7449C152.011 86.8444 152.216 87.013 152.361 87.2293C152.505 87.4456 152.583 87.6999 152.583 87.9601C152.583 88.3089 152.444 88.6434 152.197 88.8901C151.951 89.1368 151.616 89.2754 151.267 89.2754Z" fill="#1B0637"/>
<path d="M151.264 89.3083C152.01 89.3083 152.615 88.7032 152.615 87.9568C152.615 87.2104 152.01 86.6053 151.264 86.6053C150.518 86.6053 149.912 87.2104 149.912 87.9568C149.912 88.7032 150.518 89.3083 151.264 89.3083Z" fill="#EB3349"/>
<path d="M151.264 60.3452V65.2151" stroke="#1B0637" stroke-width="3.34" stroke-linecap="round" stroke-linejoin="round"/>
<path d="M151.264 110.866V115.736" stroke="#1B0637" stroke-width="3.34" stroke-linecap="round" stroke-linejoin="round"/>
<path d="M137.417 64.0544L139.854 68.2733" stroke="#1B0637" stroke-width="3.34" stroke-linecap="round" stroke-linejoin="round"/>
<path d="M162.678 107.808L165.114 112.024" stroke="#1B0637" stroke-width="3.34" stroke-linecap="round" stroke-linejoin="round"/>
<path d="M127.279 74.192L131.498 76.6253" stroke="#1B0637" stroke-width="3.34" stroke-linecap="round" stroke-linejoin="round"/>
<path d="M171.033 99.4525L175.249 101.886" stroke="#1B0637" stroke-width="3.34" stroke-linecap="round" stroke-linejoin="round"/>
<path d="M178.961 88.0391H174.091" stroke="#1B0637" stroke-width="3.34" stroke-linecap="round" stroke-linejoin="round"/>
<path d="M128.44 88.0391H123.57" stroke="#1B0637" stroke-width="3.34" stroke-linecap="round" stroke-linejoin="round"/>
<path d="M178.961 88.0391H174.091" stroke="#1B0637" stroke-width="3.34" stroke-linecap="round" stroke-linejoin="round"/>
<path d="M128.44 88.0391H123.57" stroke="#1B0637" stroke-width="3.34" stroke-linecap="round" stroke-linejoin="round"/>
<path d="M175.249 74.192L171.033 76.6253" stroke="#1B0637" stroke-width="3.34" stroke-linecap="round" stroke-linejoin="round"/>
<path d="M131.498 99.4525L127.279 101.886" stroke="#1B0637" stroke-width="3.34" stroke-linecap="round" stroke-linejoin="round"/>
<path d="M165.114 64.0544L162.678 68.2733" stroke="#1B0637" stroke-width="3.34" stroke-linecap="round" stroke-linejoin="round"/>
<path d="M139.854 107.808L137.417 112.024" stroke="#1B0637" stroke-width="3.34" stroke-linecap="round" stroke-linejoin="round"/>
<path d="M152.658 53.1241H149.87V55.5903H152.658V53.1241Z" stroke="#1B0637" stroke-width="0.84" stroke-linecap="round" stroke-linejoin="round"/>
<path d="M153.461 46.5378H149.067V52.9861H153.461V46.5378Z" stroke="#1B0637" stroke-width="0.84" stroke-linecap="round" stroke-linejoin="round"/>
<path d="M154.378 42H148.018V46.3931H154.378V42Z" fill="#EB3349"/>
<path d="M154.447 42H148.088V46.3931H154.447V42Z" stroke="#1B0637" stroke-width="0.84" stroke-linecap="round" stroke-linejoin="round"/>
<path d="M148.791 44.7291V42.0985" stroke="#1B0637" stroke-width="0.84" stroke-linecap="round" stroke-linejoin="round"/>
<path d="M148.791 46.472V45.3375" stroke="#1B0637" stroke-width="0.84" stroke-linecap="round" stroke-linejoin="round"/>
<path d="M149.603 46.4719V42.0985" stroke="#1B0637" stroke-width="0.84" stroke-linecap="round" stroke-linejoin="round"/>
<path d="M150.412 43.1902V42.0985" stroke="#1B0637" stroke-width="0.84" stroke-linecap="round" stroke-linejoin="round"/>
<path d="M150.412 46.472V43.7197" stroke="#1B0637" stroke-width="0.84" stroke-linecap="round" stroke-linejoin="round"/>
<path d="M151.747 46.4719V42.0985" stroke="#1B0637" stroke-width="0.84" stroke-linecap="round" stroke-linejoin="round"/>
<path d="M146.075 101.136V101.56H144.102V98.8114H144.546V101.149L146.075 101.136Z" fill="#1B0637"/>
<path d="M146.966 98.8114V101.574H146.519V98.8114H146.966Z" fill="#1B0637"/>
<path d="M149.728 101.139V101.56H147.719V98.8114H149.692V99.229H148.147V99.9722H149.636V100.39H148.147V101.153L149.728 101.139Z" fill="#1B0637"/>
<path d="M152.283 99.959V100.38H150.85V101.56H150.402V98.8114H152.375V99.2323H150.85V99.9722L152.283 99.959Z" fill="#1B0637"/>
<path d="M154.99 101.139V101.56H152.98V98.8114H154.953V99.229H153.411V99.9722H154.901V100.39H153.411V101.153L154.99 101.139Z" fill="#1B0637"/>
<path d="M155.664 98.8115H156.801C157.06 98.7947 157.316 98.8667 157.528 99.0153C157.613 99.0884 157.68 99.1802 157.723 99.2835C157.767 99.3868 157.785 99.4987 157.778 99.6105C157.782 99.718 157.761 99.8249 157.718 99.9234C157.675 100.022 157.61 100.109 157.528 100.179C157.342 100.33 157.11 100.411 156.87 100.41L157.781 101.574H157.229L156.348 100.41H156.124V101.574H155.677L155.664 98.8115ZM156.788 99.2291H156.111V100.005H156.788C156.928 100.015 157.066 99.9816 157.186 99.9097C157.23 99.8739 157.265 99.8279 157.287 99.7758C157.309 99.7237 157.319 99.667 157.314 99.6105C157.319 99.5551 157.309 99.4995 157.286 99.4489C157.263 99.3983 157.227 99.3543 157.183 99.3211C157.066 99.2451 156.928 99.2082 156.788 99.2159V99.2291Z" fill="#1B0637"/>
<path d="M146.805 103.773C146.793 103.796 146.782 103.819 146.772 103.842C146.756 103.879 146.743 103.915 146.726 103.961C146.71 104.007 146.697 104.05 146.68 104.099C146.664 104.148 146.651 104.194 146.637 104.237C146.624 104.28 146.611 104.319 146.605 104.352L146.585 104.415C146.587 104.434 146.587 104.454 146.585 104.474C146.585 104.497 146.585 104.52 146.585 104.536C146.713 104.493 146.838 104.457 146.963 104.428C147.087 104.402 147.214 104.388 147.341 104.388H147.39C147.422 104.385 147.454 104.385 147.486 104.388C147.514 104.395 147.541 104.407 147.565 104.424C147.576 104.432 147.585 104.442 147.59 104.454C147.596 104.467 147.599 104.48 147.598 104.493V104.513C147.6 104.528 147.6 104.544 147.598 104.559C147.59 104.576 147.581 104.593 147.571 104.609C147.56 104.627 147.542 104.641 147.522 104.648H147.446C147.365 104.648 147.283 104.655 147.203 104.668C147.119 104.681 147.037 104.701 146.956 104.727C146.872 104.751 146.788 104.78 146.706 104.812L146.46 104.921L146.289 105.671C146.285 105.691 146.275 105.709 146.259 105.723C146.253 105.73 146.245 105.736 146.237 105.74C146.228 105.744 146.219 105.746 146.21 105.746H146.167C146.151 105.751 146.133 105.75 146.117 105.745C146.1 105.74 146.086 105.73 146.075 105.717C146.058 105.673 146.05 105.626 146.052 105.579C146.049 105.527 146.049 105.476 146.052 105.424C146.052 105.371 146.069 105.316 146.082 105.263C146.095 105.21 146.101 105.164 146.108 105.118C146.11 105.085 146.11 105.052 146.108 105.02C146.092 105 146.078 104.979 146.065 104.957C146.051 104.933 146.045 104.906 146.046 104.878C146.043 104.834 146.057 104.791 146.085 104.757C146.115 104.722 146.151 104.693 146.19 104.671V104.651C146.192 104.64 146.192 104.629 146.19 104.618V104.586C146.189 104.576 146.189 104.566 146.19 104.556L146.259 104.303C146.289 104.204 146.312 104.115 146.335 104.04C146.358 103.964 146.374 103.898 146.394 103.839C146.414 103.78 146.43 103.727 146.443 103.678C146.457 103.629 146.476 103.586 146.489 103.54C146.496 103.519 146.503 103.498 146.512 103.477C146.532 103.421 146.564 103.37 146.605 103.326C146.612 103.317 146.622 103.31 146.633 103.305C146.643 103.3 146.655 103.297 146.667 103.297C146.702 103.291 146.737 103.291 146.772 103.297C146.789 103.303 146.802 103.315 146.812 103.329V103.369H146.891L146.996 103.349L147.098 103.326L147.164 103.306L147.374 103.254L147.555 103.218C147.614 103.218 147.67 103.198 147.723 103.195H147.88H147.949C147.968 103.192 147.987 103.192 148.005 103.195C148.02 103.201 148.034 103.21 148.045 103.221C148.049 103.237 148.049 103.254 148.045 103.27C148.046 103.282 148.046 103.294 148.045 103.306C148.038 103.323 148.031 103.34 148.022 103.356C147.996 103.392 147.957 103.418 147.913 103.428H147.87H147.798H147.713L147.627 103.444L147.479 103.477L147.311 103.517L147.134 103.566L146.963 103.619L146.822 103.675C146.813 103.707 146.807 103.74 146.805 103.773Z" fill="#1B0637"/>
<path d="M148.742 105.552C148.738 105.513 148.738 105.473 148.742 105.434C148.746 105.376 148.746 105.318 148.742 105.26L148.617 105.358L148.476 105.467C148.428 105.499 148.379 105.528 148.328 105.552C148.286 105.575 148.24 105.587 148.193 105.589C148.159 105.588 148.126 105.583 148.094 105.572C148.066 105.563 148.039 105.55 148.015 105.533C147.963 105.492 147.919 105.443 147.884 105.388C147.857 105.336 147.843 105.279 147.844 105.22C147.844 105.191 147.844 105.161 147.844 105.128C147.844 105.095 147.844 105.062 147.867 105.023C147.912 104.843 147.987 104.673 148.091 104.52C148.199 104.368 148.333 104.236 148.485 104.129C148.541 104.089 148.603 104.061 148.67 104.046C148.728 104.033 148.787 104.027 148.847 104.027H148.936H149.025H149.09H149.143C149.172 104.026 149.201 104.032 149.229 104.043C149.249 104.049 149.268 104.062 149.281 104.079C149.297 104.093 149.308 104.112 149.314 104.132C149.317 104.153 149.317 104.174 149.314 104.194C149.319 104.223 149.319 104.252 149.314 104.28C149.314 104.306 149.298 104.332 149.288 104.362L149.061 105.266C149.061 105.316 149.061 105.358 149.061 105.401C149.058 105.44 149.051 105.479 149.041 105.516V105.556C149.036 105.571 149.028 105.586 149.018 105.598C149.006 105.613 148.992 105.625 148.975 105.635C148.955 105.647 148.93 105.653 148.906 105.651H148.821C148.804 105.649 148.788 105.642 148.775 105.631C148.763 105.625 148.755 105.614 148.752 105.602C148.746 105.586 148.743 105.569 148.742 105.552ZM148.173 105.033L148.157 105.102C148.155 105.131 148.155 105.161 148.157 105.191C148.153 105.219 148.153 105.248 148.157 105.276C148.162 105.288 148.17 105.298 148.182 105.305C148.193 105.311 148.206 105.314 148.219 105.312C148.266 105.313 148.312 105.301 148.354 105.279C148.395 105.259 148.433 105.233 148.469 105.204C148.518 105.164 148.568 105.118 148.62 105.069C148.673 105.02 148.719 104.967 148.765 104.911C148.809 104.858 148.848 104.802 148.883 104.743C148.918 104.689 148.944 104.631 148.962 104.569C148.962 104.536 148.979 104.5 148.985 104.454C148.992 104.408 148.985 104.372 148.985 104.339C148.989 104.325 148.989 104.31 148.985 104.296C148.982 104.288 148.977 104.282 148.97 104.278C148.962 104.274 148.954 104.272 148.946 104.273C148.888 104.273 148.831 104.284 148.778 104.306C148.72 104.329 148.664 104.358 148.614 104.395C148.559 104.433 148.509 104.476 148.462 104.523C148.415 104.573 148.372 104.627 148.334 104.684C148.296 104.74 148.262 104.798 148.232 104.859C148.207 104.915 148.187 104.973 148.173 105.033Z" fill="#1B0637"/>
<path d="M149.653 105.322H149.692H149.715H149.748H149.791C149.851 105.321 149.912 105.316 149.972 105.306C150.035 105.294 150.098 105.279 150.159 105.26C150.21 105.243 150.26 105.222 150.307 105.197C150.34 105.183 150.365 105.157 150.379 105.125C150.381 105.113 150.381 105.101 150.379 105.089C150.373 105.076 150.362 105.066 150.35 105.059C150.328 105.038 150.304 105.021 150.277 105.006L150.185 104.964L150.093 104.924L150.034 104.901C150.003 104.89 149.974 104.875 149.945 104.859L149.866 104.803C149.843 104.779 149.821 104.754 149.801 104.727C149.782 104.695 149.769 104.661 149.761 104.625C149.76 104.609 149.76 104.592 149.761 104.576C149.759 104.559 149.759 104.543 149.761 104.526C149.763 104.491 149.773 104.456 149.791 104.424C149.812 104.382 149.84 104.343 149.873 104.309C149.907 104.269 149.946 104.233 149.988 104.201C150.029 104.168 150.073 104.14 150.12 104.115L150.222 104.05C150.252 104.03 150.283 104.013 150.317 104L150.416 103.967C150.452 103.964 150.488 103.964 150.524 103.967H150.636C150.673 103.97 150.71 103.977 150.744 103.99C150.777 104.002 150.806 104.021 150.83 104.046C150.853 104.074 150.864 104.109 150.863 104.145C150.864 104.161 150.864 104.178 150.863 104.194C150.861 104.216 150.855 104.237 150.846 104.257C150.84 104.276 150.83 104.294 150.817 104.309C150.813 104.317 150.807 104.323 150.8 104.327C150.793 104.331 150.785 104.333 150.777 104.332C150.754 104.335 150.731 104.329 150.711 104.316C150.695 104.307 150.679 104.296 150.665 104.283L150.623 104.25C150.606 104.239 150.587 104.234 150.567 104.234C150.536 104.235 150.505 104.241 150.475 104.25L150.369 104.29C150.332 104.306 150.296 104.325 150.261 104.346L150.166 104.415C150.142 104.435 150.12 104.457 150.1 104.48C150.083 104.497 150.074 104.519 150.074 104.543C150.073 104.552 150.075 104.56 150.078 104.568C150.081 104.576 150.087 104.583 150.093 104.589C150.105 104.604 150.121 104.616 150.139 104.622C150.168 104.639 150.197 104.653 150.228 104.664L150.327 104.704L150.422 104.747L150.504 104.783L150.587 104.832C150.609 104.846 150.63 104.863 150.649 104.882C150.665 104.9 150.678 104.921 150.688 104.944C150.694 104.971 150.694 104.999 150.688 105.026C150.69 105.04 150.69 105.055 150.688 105.069C150.691 105.086 150.691 105.104 150.688 105.122C150.688 105.122 150.688 105.158 150.672 105.181L150.642 105.25C150.642 105.27 150.623 105.293 150.613 105.309L150.587 105.345C150.538 105.389 150.485 105.428 150.429 105.46C150.368 105.496 150.306 105.528 150.241 105.556C150.177 105.581 150.111 105.602 150.044 105.618C149.985 105.633 149.924 105.641 149.863 105.641C149.833 105.645 149.802 105.645 149.771 105.641C149.739 105.629 149.708 105.614 149.679 105.595C149.652 105.581 149.628 105.56 149.61 105.536C149.592 105.517 149.581 105.493 149.58 105.467C149.578 105.454 149.578 105.44 149.58 105.427C149.588 105.413 149.597 105.4 149.607 105.388L149.64 105.358C149.639 105.345 149.644 105.332 149.653 105.322Z" fill="#1B0637"/>
<path d="M151.313 105.092C151.313 104.991 151.324 104.891 151.346 104.793C151.366 104.687 151.389 104.589 151.412 104.493C151.383 104.498 151.353 104.498 151.323 104.493C151.293 104.487 151.264 104.475 151.238 104.461C151.214 104.448 151.193 104.431 151.175 104.411C151.159 104.392 151.151 104.367 151.152 104.342C151.151 104.329 151.151 104.316 151.152 104.303C151.157 104.286 151.164 104.269 151.172 104.253L151.205 104.214C151.218 104.204 151.234 104.199 151.251 104.198H151.481C151.504 104.198 151.52 104.198 151.527 104.171L151.547 104.115C151.547 104.05 151.573 103.99 151.586 103.941L151.622 103.819C151.622 103.783 151.639 103.757 151.642 103.737C151.645 103.72 151.645 103.702 151.642 103.685V103.642C151.642 103.642 151.642 103.609 151.642 103.586V103.569C151.642 103.569 151.642 103.546 151.642 103.533C151.64 103.513 151.64 103.492 151.642 103.471C151.65 103.447 151.663 103.425 151.682 103.408C151.692 103.398 151.704 103.39 151.718 103.385C151.731 103.38 151.746 103.378 151.761 103.379C151.788 103.377 151.816 103.384 151.839 103.398C151.861 103.41 151.88 103.427 151.892 103.448C151.908 103.468 151.919 103.492 151.925 103.517C151.928 103.543 151.928 103.57 151.925 103.596C151.929 103.622 151.929 103.649 151.925 103.675L151.8 104.155L151.964 104.125L152.109 104.099L152.247 104.069L152.346 104.046L152.415 104.03H152.461H152.517C152.533 104.026 152.55 104.026 152.566 104.03C152.581 104.036 152.594 104.046 152.602 104.059C152.608 104.075 152.608 104.093 152.602 104.109C152.602 104.134 152.597 104.158 152.586 104.181C152.577 104.203 152.562 104.222 152.543 104.237L152.487 104.273L152.421 104.296L152.349 104.313L152.254 104.332L152.145 104.359L152.033 104.388L151.899 104.421L151.803 104.441H151.741H151.701C151.678 104.507 151.659 104.572 151.642 104.635C151.626 104.697 151.613 104.757 151.603 104.809C151.593 104.862 151.583 104.914 151.58 104.957C151.577 104.99 151.577 105.023 151.58 105.056C151.576 105.085 151.576 105.115 151.58 105.145C151.585 105.17 151.595 105.195 151.609 105.217C151.622 105.239 151.642 105.256 151.665 105.266C151.693 105.28 151.723 105.287 151.754 105.286C151.816 105.285 151.878 105.268 151.931 105.237C151.992 105.201 152.049 105.158 152.099 105.108C152.154 105.056 152.204 105 152.25 104.941L152.382 104.77C152.387 104.76 152.394 104.751 152.403 104.745C152.413 104.739 152.424 104.736 152.435 104.737H152.461H152.487C152.496 104.743 152.504 104.751 152.51 104.76C152.514 104.77 152.514 104.782 152.51 104.793V104.812C152.488 104.886 152.46 104.958 152.425 105.026L152.306 105.24C152.291 105.267 152.273 105.292 152.254 105.316L152.178 105.385L152.096 105.447L152.017 105.503C151.973 105.53 151.926 105.549 151.876 105.559C151.826 105.569 151.775 105.575 151.724 105.575C151.662 105.573 151.601 105.559 151.545 105.533C151.488 105.507 151.437 105.47 151.395 105.424C151.356 105.377 151.326 105.322 151.307 105.263C151.301 105.206 151.304 105.148 151.313 105.092Z" fill="#1B0637"/>
<path d="M152.898 104.964C152.897 104.919 152.911 104.875 152.938 104.839C152.962 104.803 153 104.778 153.043 104.77C153.043 104.743 153.076 104.71 153.102 104.668C153.13 104.618 153.162 104.571 153.197 104.526C153.237 104.477 153.283 104.428 153.332 104.375C153.383 104.325 153.438 104.279 153.497 104.237C153.557 104.195 153.622 104.16 153.691 104.135C153.761 104.108 153.836 104.095 153.911 104.096C153.97 104.094 154.029 104.102 154.085 104.119C154.129 104.133 154.171 104.155 154.207 104.184C154.237 104.213 154.262 104.248 154.279 104.286C154.294 104.327 154.302 104.371 154.302 104.414C154.308 104.452 154.308 104.489 154.302 104.526C154.288 104.589 154.257 104.647 154.213 104.694C154.169 104.744 154.117 104.788 154.059 104.822C153.999 104.859 153.935 104.889 153.868 104.911C153.801 104.937 153.732 104.957 153.661 104.97L153.46 105.01L153.293 105.029C153.281 105.053 153.272 105.079 153.266 105.105C153.263 105.136 153.263 105.166 153.266 105.197C153.265 105.228 153.271 105.258 153.285 105.285C153.299 105.312 153.32 105.335 153.345 105.352C153.41 105.392 153.486 105.411 153.562 105.408C153.614 105.407 153.666 105.402 153.717 105.391L153.858 105.345C153.9 105.327 153.941 105.306 153.98 105.283L154.089 105.217C154.126 105.189 154.165 105.165 154.207 105.144C154.238 105.129 154.271 105.12 154.306 105.118C154.332 105.118 154.352 105.118 154.358 105.138C154.363 105.153 154.363 105.169 154.358 105.184V105.21C154.357 105.218 154.357 105.226 154.358 105.233C154.352 105.265 154.34 105.295 154.322 105.322C154.307 105.351 154.285 105.377 154.26 105.398C154.149 105.486 154.025 105.555 153.891 105.602C153.761 105.642 153.626 105.662 153.49 105.661H153.395C153.356 105.657 153.317 105.651 153.28 105.641C153.238 105.631 153.198 105.616 153.161 105.595C153.121 105.577 153.086 105.551 153.056 105.519C153.022 105.481 152.996 105.437 152.98 105.388C152.959 105.333 152.949 105.275 152.951 105.217C152.951 105.156 152.959 105.095 152.974 105.036C152.966 105.035 152.957 105.033 152.95 105.029C152.943 105.025 152.936 105.019 152.931 105.013C152.922 105.008 152.915 105 152.909 104.992C152.904 104.983 152.9 104.974 152.898 104.964ZM153.973 104.487V104.457C153.974 104.444 153.971 104.43 153.964 104.418C153.958 104.406 153.949 104.396 153.937 104.388C153.913 104.372 153.884 104.364 153.855 104.365C153.803 104.366 153.753 104.38 153.707 104.405C153.657 104.431 153.611 104.465 153.569 104.503C153.528 104.542 153.491 104.583 153.457 104.628C153.427 104.667 153.401 104.709 153.378 104.753C153.455 104.747 153.531 104.735 153.605 104.717C153.667 104.705 153.728 104.687 153.786 104.661C153.831 104.642 153.872 104.615 153.908 104.582C153.936 104.556 153.956 104.523 153.967 104.487H153.973Z" fill="#1B0637"/>
<path d="M154.694 105.45C154.694 105.368 154.726 105.279 154.746 105.184C154.766 105.089 154.786 104.99 154.805 104.895L154.865 104.602C154.884 104.507 154.901 104.421 154.914 104.342V104.283C154.911 104.248 154.911 104.213 154.914 104.178C154.917 104.144 154.923 104.111 154.934 104.079C154.94 104.047 154.954 104.017 154.973 103.99C154.995 103.974 155.022 103.966 155.049 103.967C155.076 103.966 155.104 103.973 155.128 103.987C155.148 104 155.165 104.018 155.177 104.04C155.187 104.064 155.194 104.089 155.197 104.115C155.198 104.144 155.198 104.172 155.197 104.201C155.198 104.218 155.198 104.236 155.197 104.253V104.299L155.299 104.198C155.335 104.164 155.373 104.133 155.414 104.105C155.453 104.076 155.496 104.052 155.542 104.033C155.587 104.016 155.635 104.007 155.683 104.007H155.743H155.798L155.871 104.03L155.943 104.069C155.981 104.099 156.012 104.136 156.035 104.178C156.061 104.217 156.074 104.263 156.075 104.309C156.078 104.328 156.078 104.347 156.075 104.365C156.068 104.384 156.058 104.402 156.045 104.418C156.036 104.435 156.022 104.45 156.006 104.461C155.99 104.47 155.972 104.476 155.953 104.477C155.928 104.476 155.904 104.47 155.881 104.461C155.855 104.454 155.832 104.442 155.812 104.424C155.801 104.416 155.792 104.406 155.785 104.395C155.776 104.382 155.769 104.369 155.762 104.355C155.755 104.345 155.748 104.334 155.743 104.322C155.744 104.315 155.744 104.307 155.743 104.299H155.706C155.647 104.299 155.589 104.315 155.539 104.345C155.485 104.376 155.436 104.412 155.391 104.454C155.345 104.496 155.303 104.542 155.266 104.592C155.226 104.638 155.193 104.684 155.164 104.724L155.088 105.02C155.059 105.122 155.032 105.233 155.006 105.348V105.394C155.006 105.427 155.006 105.463 155.006 105.496C155.004 105.529 154.996 105.562 154.983 105.592C154.97 105.611 154.952 105.626 154.93 105.634C154.905 105.648 154.877 105.655 154.848 105.654C154.828 105.655 154.807 105.652 154.789 105.644C154.77 105.636 154.753 105.624 154.74 105.608C154.716 105.576 154.703 105.537 154.703 105.496C154.698 105.481 154.695 105.466 154.694 105.45Z" fill="#1B0637"/>
<defs>
<linearGradient id="paint0_linear_689_471" x1="107.749" y1="19.4097" x2="142.45" y2="19.4097" gradientUnits="userSpaceOnUse">
<stop stop-color="#FEBBBA"/>
<stop offset="1" stop-color="#FF928E"/>
</linearGradient>
<linearGradient id="paint1_linear_689_471" x1="138.501" y1="6.01251" x2="141.567" y2="6.01251" gradientUnits="userSpaceOnUse">
<stop stop-color="#FEBBBA"/>
<stop offset="1" stop-color="#FF928E"/>
</linearGradient>
<linearGradient id="paint2_linear_689_471" x1="116.965" y1="40.4289" x2="171.018" y2="46.4476" gradientUnits="userSpaceOnUse">
<stop stop-color="#E1473D"/>
<stop offset="1" stop-color="#E9605A"/>
</linearGradient>
<linearGradient id="paint3_linear_689_471" x1="26.5078" y1="139.583" x2="29.4143" y2="139.583" gradientUnits="userSpaceOnUse">
<stop stop-color="#4F52FF"/>
<stop offset="1" stop-color="#4042E2"/>
</linearGradient>
<linearGradient id="paint4_linear_689_471" x1="59.091" y1="114.124" x2="64.603" y2="114.124" gradientUnits="userSpaceOnUse">
<stop stop-color="#4F52FF"/>
<stop offset="1" stop-color="#4042E2"/>
</linearGradient>
<linearGradient id="paint5_linear_689_471" x1="32.1222" y1="130.045" x2="39.9206" y2="130.045" gradientUnits="userSpaceOnUse">
<stop stop-color="#FEBBBA"/>
<stop offset="1" stop-color="#FF928E"/>
</linearGradient>
<linearGradient id="paint6_linear_689_471" x1="66.9303" y1="105.762" x2="74.8019" y2="105.762" gradientUnits="userSpaceOnUse">
<stop stop-color="#FEBBBA"/>
<stop offset="1" stop-color="#FF928E"/>
</linearGradient>
<linearGradient id="paint7_linear_689_471" x1="114.475" y1="62.7944" x2="168.527" y2="68.813" gradientUnits="userSpaceOnUse">
<stop stop-color="#E1473D"/>
<stop offset="1" stop-color="#E9605A"/>
</linearGradient>
<linearGradient id="paint8_linear_689_471" x1="50.6908" y1="60.5527" x2="44.1601" y2="68.7092" gradientUnits="userSpaceOnUse">
<stop stop-color="#F9C200"/>
<stop offset="0.9964" stop-color="#9B1E5F"/>
</linearGradient>
<linearGradient id="paint9_linear_689_471" x1="91.7053" y1="38.2353" x2="103.815" y2="31.1681" gradientUnits="userSpaceOnUse">
<stop stop-color="#FEBBBA"/>
<stop offset="1" stop-color="#FF928E"/>
</linearGradient>
<linearGradient id="paint10_linear_689_471" x1="100.435" y1="22.4619" x2="103.836" y2="42.6194" gradientUnits="userSpaceOnUse">
<stop stop-color="#FEBBBA"/>
<stop offset="1" stop-color="#FF928E"/>
</linearGradient>
<linearGradient id="paint11_linear_689_471" x1="97.443" y1="44.4551" x2="96.8382" y2="30.3052" gradientUnits="userSpaceOnUse">
<stop stop-color="#FEBBBA"/>
<stop offset="1" stop-color="#FF928E"/>
</linearGradient>
<linearGradient id="paint12_linear_689_471" x1="82.1373" y1="77.3695" x2="114.008" y2="50.9818" gradientUnits="userSpaceOnUse">
<stop stop-color="#FF928E"/>
<stop offset="1" stop-color="#FE7062"/>
</linearGradient>
<linearGradient id="paint13_linear_689_471" x1="232.671" y1="-14.1417" x2="199.558" y2="-5.21895" gradientUnits="userSpaceOnUse">
<stop stop-color="#E1473D"/>
<stop offset="1" stop-color="#E9605A"/>
</linearGradient>
<linearGradient id="paint14_linear_689_471" x1="115.035" y1="57.7659" x2="169.087" y2="63.7846" gradientUnits="userSpaceOnUse">
<stop stop-color="#E1473D"/>
<stop offset="1" stop-color="#E9605A"/>
</linearGradient>
<linearGradient id="paint15_linear_689_471" x1="74.642" y1="62.6274" x2="100.642" y2="76.2665" gradientUnits="userSpaceOnUse">
<stop stop-color="#FEBBBA"/>
<stop offset="1" stop-color="#FF928E"/>
</linearGradient>
<linearGradient id="paint16_linear_689_471" x1="129.979" y1="64.2871" x2="159.043" y2="61.2777" gradientUnits="userSpaceOnUse">
<stop stop-color="#FEBBBA"/>
<stop offset="1" stop-color="#FF928E"/>
</linearGradient>
<linearGradient id="paint17_linear_689_471" x1="35.7856" y1="66.022" x2="93.4603" y2="34.3861" gradientUnits="userSpaceOnUse">
<stop stop-color="#E1473D"/>
<stop offset="1" stop-color="#E9605A"/>
</linearGradient>
<linearGradient id="paint18_linear_689_471" x1="-22.0249" y1="-10.2851" x2="8.46848" y2="-2.06839" gradientUnits="userSpaceOnUse">
<stop stop-color="#E1473D"/>
<stop offset="1" stop-color="#E9605A"/>
</linearGradient>
</defs>
</svg>
