<svg width="230" height="160" viewBox="0 0 230 160" fill="none" xmlns="http://www.w3.org/2000/svg">
<g clip-path="url(#clip0_477_1180)">
<path d="M132.323 123.982C132.323 123.982 138.636 65.7528 157.56 67.0439C176.469 68.3349 142.942 105.685 141.747 122.661L132.323 123.982Z" fill="#D3A09F"/>
<path d="M137.61 123.285C138.207 111.547 143.034 99.0967 146.972 90.7125C151.247 81.6309 155.415 75.25 155.461 75.1759L155.047 74.9236C155.002 74.9829 150.818 81.3935 146.528 90.5196C142.574 98.9335 137.732 111.458 137.119 123.27L137.61 123.285Z" fill="#F9F9F9"/>
<path d="M199.01 121.771C187.594 124.947 190.689 141.789 177.281 139.489C163.874 137.189 164.9 136.299 158.94 142.249C158.94 142.249 156.84 147.769 151.646 149.001C131.174 153.853 100.834 126.015 121.306 108.282C122.792 107.006 125.029 106.398 127.512 105.863C141.011 102.925 145.67 108.712 155.354 92.4634C165.038 76.1996 181.143 97.583 190.245 96.2029C199.331 94.8229 207.207 91.6473 214.992 100.581C222.745 109.529 210.425 118.61 199.01 121.771Z" fill="#05AC7D"/>
<path d="M129.396 127.647L128.921 127.054C129.197 126.846 156.856 106.575 216.815 101.352L216.892 102.109C157.131 107.303 129.657 127.439 129.396 127.647Z" fill="#F9F9F9"/>
<path d="M165.207 102.777C156.809 96.3809 155.047 90.9942 154.971 90.7717L155.722 90.5491C155.737 90.6084 157.514 95.9505 165.697 102.183L165.207 102.777Z" fill="#F9F9F9"/>
<path d="M167.137 110.834C164.655 107.184 164.487 101.693 166.662 94.9713C168.287 89.9408 170.677 85.9193 170.708 85.8748L171.382 86.2606C171.29 86.4239 162.081 102.02 167.796 110.434L167.137 110.834Z" fill="#F9F9F9"/>
<path d="M182.859 108.505C181.863 107.807 181.327 107.332 181.296 107.317L181.817 106.754C181.924 106.857 193.386 116.607 209.215 115.123L209.291 115.88C196.542 117.082 186.567 111.131 182.859 108.505Z" fill="#F9F9F9"/>
<path d="M191.838 125.451C187.946 121.771 186.659 117.928 186.245 115.36C185.801 112.556 186.276 110.641 186.307 110.567L187.057 110.745C187.042 110.82 185.265 118.18 192.375 124.902L191.838 125.451Z" fill="#F9F9F9"/>
<path d="M24.4481 52.709C34.1477 62.0132 21.4294 77.3569 36.2623 82.2094C51.1104 87.0618 50.5741 85.6076 53.1944 94.8079C53.1944 94.8079 52.1677 101.5 56.7034 105.522C74.5855 121.355 121.076 109.514 110.518 80.6661C109.752 78.5886 107.837 76.7782 105.646 74.8936C93.7088 64.7139 85.6948 68.0527 85.2044 46.4765C84.7141 24.9299 56.259 37.8697 47.8772 31.6224C39.4954 25.3751 33.3509 17.9555 20.4181 22.8079C7.48537 27.6603 14.7332 43.4196 24.4481 52.709Z" fill="#05AC7D"/>
<path d="M90.3072 95.8912L91.1346 95.5499C90.9814 95.1937 74.6469 59.9505 17.1391 22.615L16.6334 23.3421C73.9114 60.5293 90.1386 95.535 90.3072 95.8912Z" fill="#F9F9F9"/>
<path d="M68.349 51.6554C80.4697 49.6967 85.3271 45.2004 85.5263 45.0075L84.898 44.3842C84.8521 44.4287 80.01 48.8805 68.1958 50.7948L68.349 51.6554Z" fill="#F9F9F9"/>
<path d="M61.806 58.7338C66.403 56.3744 69.6974 50.9284 71.337 42.9745C72.5629 37.024 72.4556 31.6818 72.4403 31.6373L71.5362 31.6522C71.5362 31.8599 71.9346 52.531 61.377 57.9622L61.806 58.7338Z" fill="#F9F9F9"/>
<path d="M47.2797 47.9902C48.6894 47.8122 49.5015 47.6341 49.5322 47.6341L49.333 46.7882C49.1644 46.8328 32.0331 50.5426 16.9245 40.5854L16.4188 41.2977C28.6007 49.3109 42.0392 48.6431 47.2797 47.9902Z" fill="#F9F9F9"/>
<path d="M28.5548 60.277C34.5768 58.6447 38.0705 55.4691 39.9552 53.0948C41.9932 50.4979 42.6061 48.3166 42.6368 48.2275L41.7634 48.0049C41.7327 48.094 39.327 56.4633 28.325 59.446L28.5548 60.277Z" fill="#F9F9F9"/>
<path d="M136.997 76.8228L133.748 76.3925L133.58 70.4271L136.997 70.2045V76.8228Z" fill="#EABCB5"/>
<path d="M170.861 60.084L167.612 59.6537L167.444 53.6883L170.861 53.4657V60.084Z" fill="#EABCB5"/>
<path d="M163.261 43.1081L160.012 42.6629L159.828 36.6976L163.261 36.475V43.1081Z" fill="#EABCB5"/>
<path d="M136.997 120.881L133.748 120.45L133.58 114.485L136.997 114.262V120.881Z" fill="#EABCB5"/>
<path d="M130.883 107.777L127.634 107.347L127.466 101.382L130.883 101.159V107.777Z" fill="#EABCB5"/>
<path d="M60.5036 71.0651L57.2551 70.6348L57.0865 64.6546L60.5036 64.432V71.0651Z" fill="#EABCB5"/>
<path d="M130.73 151.227L61.6068 153.022C56.6115 153.022 52.1371 149.713 52.1371 144.876L55.1557 23.5945C55.1557 18.7569 59.2164 14.8245 64.2117 14.8245H130.73C135.725 14.8245 142.85 17.4807 142.85 24.7371L139.786 142.457C139.786 147.294 135.725 151.227 130.73 151.227Z" fill="#1B0637"/>
<path d="M130.76 17.0502H64.181C60.4575 17.0502 57.4542 19.8845 57.4542 23.3866L55.5235 139.326C55.4622 147.265 59.8599 146.953 63.5834 146.953L130.684 145.157C134.407 145.157 137.518 141.017 137.518 137.515L140.23 24.1286C140.215 20.6265 134.484 17.0502 130.76 17.0502Z" fill="#F7F0F7"/>
<path d="M106.596 87.3734C106.55 91.6471 105.569 95.9356 103.684 100.105C99.1334 110.166 89.9395 117.987 79.0907 121.014C79.014 121.044 78.9374 121.044 78.8455 121.044C78.4624 121.044 78.1253 120.806 78.018 120.435C77.8801 119.99 78.156 119.53 78.6157 119.396C88.9741 116.503 97.7696 109.039 102.106 99.4229C103.899 95.4608 104.834 91.3948 104.88 87.3437C104.926 83.1294 103.991 79.1525 102.121 75.5317C98.7503 69.0173 88.4531 56.7304 79.7189 46.8326C79.3971 46.4616 79.4891 45.8977 79.9334 45.6603C80.3318 45.4377 80.8375 45.5268 81.144 45.8681C81.7722 46.5803 82.4158 47.3223 83.0594 48.0494C94.0767 60.6628 101.018 69.6702 103.669 74.7897C105.661 78.6479 106.642 82.892 106.596 87.3734Z" fill="#AF1124"/>
<path d="M114.625 92.864C109.262 92.864 104.65 92.0627 100.819 90.4897C88.3918 85.3405 66.1273 82.9217 61.6989 82.4765C61.2698 82.432 60.948 82.061 60.994 81.6455C61.04 81.2152 61.423 80.9036 61.8674 80.9481C66.3724 81.3933 88.8362 83.8566 101.462 89.08C113.644 94.1254 131.818 89.2284 135.679 88.0858C136.093 87.9671 136.522 88.1748 136.66 88.5755C136.798 88.991 136.568 89.4361 136.139 89.5549C134.392 90.0742 129.841 91.3356 124.294 92.1221C120.846 92.6266 117.613 92.864 114.625 92.864Z" fill="#AF1124"/>
<path d="M86.7982 79.672C86.1853 80.2656 86.3691 81.2747 87.1659 81.6308C90.3685 83.0851 98.3518 86.5426 99.6543 85.3703C101.294 83.9012 97.4937 72.8757 95.9154 73.2466C94.659 73.5286 89.066 77.4461 86.7982 79.672Z" fill="#F38A97"/>
<path d="M128.6 59.7874C128.017 60.1732 127.389 60.4997 126.746 60.7223C122.562 62.2062 106.182 68.4238 108.373 74.0776C109.017 75.7247 110.105 84.9399 110.013 87.4329C109.921 89.9259 132.384 86.6909 134.729 84.5096C135.618 83.6934 135.158 65.4411 135.066 58.3183C135.051 57.0718 133.702 56.3299 132.691 57.0125L128.6 59.7874Z" fill="#F38A97"/>
<path d="M85.0821 75.1608L91.8855 70.8129C93.2033 69.9671 93.4638 68.3199 92.4525 67.1921L76.0567 48.9102C75.2446 47.9902 73.8195 47.6934 72.6243 48.1831L67.1999 50.3644C65.6063 51.0025 65.024 52.7536 65.9894 54.0446L81.0214 74.4931C81.8948 75.695 83.7489 76.0067 85.0821 75.1608Z" fill="#F38A97"/>
<path d="M62.0666 76.5409C62.082 77.6242 62.9247 78.5442 64.028 78.7075C68.4411 79.3159 78.9221 80.6663 79.2899 79.7759C80.6383 76.4519 66.9087 56.7009 63.0167 58.1848C61.8674 58.6003 61.99 71.5995 62.0666 76.5409Z" fill="#F38A97"/>
<path d="M95.7621 32.8096C95.7621 32.8096 81.0059 41.1493 81.9253 42.4848C82.8293 43.8203 90.2457 55.9737 93.0805 55.3653C95.9153 54.7717 109.277 47.5598 108.388 45.8236C107.484 44.1023 98.413 30.8657 95.7621 32.8096Z" fill="#F38A97"/>
<path d="M106.826 55.3949C106.826 55.3949 96.3139 60.8706 97.1414 61.7906C97.9535 62.6958 100.987 66.6134 102.397 66.4353C103.807 66.2573 114.686 60.4699 114.196 59.4906C113.69 58.5112 107.96 54.8014 106.826 55.3949Z" fill="#F38A97"/>
<path d="M64.1658 85.9341C64.1658 85.9341 75.2751 87.4181 80.7148 88.5904C86.1546 89.7627 100.635 93.9028 100.053 95.1048C99.4704 96.3068 85.2658 114.529 69.9886 118.477C59.8294 121.103 60.9939 110.731 60.9939 106.338C60.9786 100.224 58.8027 84.4947 64.1658 85.9341Z" fill="#F38A97"/>
<path d="M84.8368 126.905C84.8368 126.905 129.059 127.84 130.883 125.11C135.035 118.862 133.825 98.5475 133.687 97.5384C133.304 94.808 115.713 96.5145 113.384 98.2655C110.871 100.15 105.952 116.043 96.0227 119.367C81.4044 124.279 80.1173 126.92 84.8368 126.905Z" fill="#F38A97"/>
<path d="M160.702 78.8555C157.055 79.5233 152.917 78.9001 148.397 76.971C144.98 75.5167 142.574 73.8102 142.467 73.736L146.451 68.201L144.459 70.9611L146.451 68.1861C148.535 69.6552 154.971 73.1869 159.798 72.0443C161.989 71.5249 163.674 70.0559 164.961 67.5629L171.121 70.6939C168.93 74.938 165.59 77.7129 161.452 78.6923C161.192 78.7517 160.947 78.811 160.702 78.8555Z" fill="#F38A97"/>
<path d="M151.921 74.478C151.921 74.478 149.654 71.1986 147.34 70.1895C145.026 69.1804 143.57 70.0114 143.57 70.0114L141.088 69.0469C141.088 69.0469 140.735 78.1433 147.171 76.5407C147.677 76.422 151.921 74.478 151.921 74.478Z" fill="#F38A97"/>
<path d="M141.456 64.3133L143.815 77.4905C143.969 78.3512 144.827 78.9151 145.716 78.7519L152.044 77.5053C152.902 77.3421 153.454 76.5408 153.3 75.7098L150.971 62.7255C150.818 61.8796 149.991 61.3157 149.117 61.4641L142.743 62.5177C141.9 62.6661 141.302 63.4674 141.456 64.3133Z" fill="#30262A"/>
<path d="M142.452 63.9124C142.452 63.6899 142.651 63.5118 142.881 63.5118C143.111 63.5118 143.294 63.7047 143.294 63.9273C143.294 64.1499 143.095 64.3279 142.865 64.3279C142.636 64.3279 142.452 64.135 142.452 63.9124Z" fill="#100B47"/>
<path d="M140.291 68.0973C140.291 68.0973 139.632 66.7172 140.95 66.1385C142.62 65.4114 145.409 66.0643 144.367 66.5392C143.432 66.9547 141.961 67.2515 141.961 67.2515C141.961 67.2515 145.716 66.5688 145.593 67.3702C145.47 68.1715 142.237 68.7205 142.237 68.7205C142.237 68.7205 145.945 68.3941 145.593 69.1064C145.225 69.8335 142.299 70.338 142.299 70.338C142.299 70.338 145.915 69.8335 145.47 70.6496C145.026 71.4806 143.095 71.3768 142.268 71.5103C141.486 71.6439 141.149 71.1987 141.073 70.4567C141.073 70.4567 140.552 69.7593 140.628 69.2696C140.659 69.0767 140.444 68.9283 140.414 68.8096C140.337 68.5721 140.291 68.0973 140.291 68.0973Z" fill="#F38A97"/>
<path d="M174.952 153.824C174.952 153.824 174.891 156.138 173.282 156.791C171.673 157.444 166.984 158.038 168.746 159.522C169.742 160.368 174.477 159.819 175.81 159.819C177.143 159.819 178.4 160.382 179.396 159.522C180.484 158.572 179.396 153.838 179.396 153.838C179.396 153.838 178.247 154.417 177.205 154.387C175.703 154.343 174.952 153.824 174.952 153.824Z" fill="#30262A"/>
<path d="M193.493 153.824C193.493 153.824 193.432 156.138 191.823 156.791C190.214 157.444 185.525 158.038 187.287 159.522C188.283 160.368 193.018 159.819 194.351 159.819C195.684 159.819 196.941 160.382 197.937 159.522C199.025 158.572 197.937 153.838 197.937 153.838C197.937 153.838 196.788 154.417 195.746 154.387C194.229 154.343 193.493 153.824 193.493 153.824Z" fill="#30262A"/>
<path d="M162.954 90.5044C162.954 90.5044 162.663 100.18 165.835 118.729C168.134 132.114 170.846 145.617 172.179 152.087C172.654 154.402 174.661 156.094 177.052 156.183L178.339 156.227C180.913 156.331 182.997 154.18 182.813 151.642L179.58 107.881L178.783 93.4722L162.954 90.5044Z" fill="#CC142A"/>
<path d="M192.114 99.0222C191.961 100.194 185.096 100.061 176.684 99.0222C168.271 97.9983 161.728 96.2324 161.866 95.0453C162.019 93.873 168.792 93.7246 177.22 94.7633C185.617 95.7872 192.252 97.835 192.114 99.0222Z" fill="#30262A"/>
<path d="M172.623 97.4196L190.582 153.289C191.333 155.634 193.508 157.237 195.991 157.266L197.063 157.281C199.607 157.326 201.568 155.04 201.093 152.562L191.271 100.061C191.133 99.4377 190.658 98.948 190.03 98.7699C186.659 97.8351 172.286 95.1046 172.623 97.4196Z" fill="#CC142A"/>
<path d="M193.248 95.0749L189.172 90.4896C189.249 90.4451 197.232 85.563 196.466 78.6034C196.068 74.9826 193.815 72.0592 189.785 69.9224C186.582 68.2307 183.426 67.6965 183.395 67.6965L184.345 61.746C184.514 61.7757 188.483 62.4137 192.635 64.6099C198.458 67.6817 201.875 72.2967 202.488 77.9504C202.994 82.5061 201.339 87.0469 197.722 91.0683C195.163 93.9471 195.286 94.1104 193.248 95.0749Z" fill="#F38A97"/>
<path d="M189.295 66.8506C189.295 66.8506 186.904 60.3362 178.385 60.6329C169.865 60.9297 163.444 71.7624 161.851 95.0452C161.851 95.0452 175.795 92.0921 192.114 98.9924C192.129 98.9924 193.033 76.3329 189.295 66.8506Z" fill="#ED6B6C"/>
<path d="M195.991 65.4707L189.249 70.1896C189.249 70.1896 173.742 71.6883 169.635 70.9612C165.513 70.2341 164.395 67.014 164.395 67.014C164.395 67.014 168.777 62.1764 176.224 60.8853C176.929 60.7666 177.649 60.6776 178.4 60.6182C179.656 60.5292 180.928 60.5737 182.169 60.6924C189.525 61.4789 195.991 65.4707 195.991 65.4707Z" fill="#ED6B6C"/>
<path d="M195.991 65.4707C196.359 65.9752 195.148 67.4591 193.279 68.765C191.425 70.0708 189.616 70.7089 189.249 70.2044C188.881 69.6999 190.091 68.2159 191.961 66.9101C193.815 65.6042 195.623 64.9513 195.991 65.4707Z" fill="#30262A"/>
<path d="M200.572 80.1911C199.96 80.1911 199.454 79.5085 199.454 78.6627C199.454 77.8168 199.96 77.1342 200.572 77.1342C201.185 77.1342 201.691 77.8168 201.691 78.6627C201.691 79.0633 201.584 79.4343 201.385 79.7162C201.17 80.0279 200.879 80.1911 200.572 80.1911ZM200.572 77.431C200.128 77.431 199.745 77.9949 199.745 78.6627C199.745 79.3304 200.128 79.8943 200.572 79.8943C200.787 79.8943 200.986 79.7756 201.139 79.553C201.308 79.3156 201.4 79.004 201.4 78.6627C201.4 77.9949 201.017 77.431 200.572 77.431Z" fill="#EE5062"/>
<path d="M182.154 60.7073C181.25 60.6183 180.453 60.0544 180.085 59.2382L178.951 56.6859L178.63 55.9439L176.699 51.596L177.036 56.1071L177.235 58.8227L177.297 59.5944C177.343 60.2176 176.883 60.7815 176.239 60.9002H176.224C175.887 61.4493 175.397 62.5474 176.822 62.9777C178.492 63.4971 181.189 62.2209 182.154 60.7073Z" fill="#F38A97"/>
<path d="M192.467 88.4716C192.467 88.4716 189.938 86.2308 187.946 86.4386C185.954 86.6315 183.564 88.3529 184.82 88.4716C186.077 88.5903 187.747 88.338 187.747 88.338C187.747 88.338 184.223 89.0651 184.759 89.7923C185.295 90.5194 188.345 89.8516 188.345 89.8516C188.345 89.8516 184.223 91.0388 184.958 91.5581C185.694 92.0775 188.804 91.1575 188.804 91.1575C188.804 91.1575 185.019 92.404 185.878 92.9975C186.736 93.5911 189.003 91.9439 189.524 92.6711C190.061 93.3982 191.057 96.2176 193.309 95.0453L192.467 88.4716Z" fill="#F38A97"/>
<path d="M180.652 122.394L176.791 111.027C175.917 108.475 174.14 106.338 171.765 105.017L171.918 104.765C174.354 106.115 176.193 108.312 177.082 110.938L180.943 122.305L180.652 122.394Z" fill="#020202"/>
<path d="M190.49 70.2786C190.49 70.2786 190.122 69.1953 191.808 67.9785C193.493 66.7765 195.7 66.4946 195.7 66.4946L196.144 68.5721L193.754 69.5811L190.49 70.2786Z" fill="#F38A97"/>
<path d="M181.955 50.8539C181.955 50.8539 181.771 51.5959 182.215 53.1095C182.859 55.3354 180.239 56.2554 179.564 55.6173C179.488 55.5431 179.595 51.7591 179.595 51.7591L180.438 51.2843L181.955 50.8539Z" fill="#30262A"/>
<path d="M178.951 56.6265C178.951 56.6561 178.951 56.671 178.951 56.7007C178.844 58.1549 177.235 58.8375 177.235 58.8375L177.22 58.8227L177.021 56.1071C177.511 55.929 178.216 55.751 178.614 55.9439C178.829 56.0626 178.967 56.2555 178.951 56.6265Z" fill="#30262A"/>
<path d="M172.087 52.3231C172.087 49.4294 174.048 47.0848 176.469 47.0848C178.89 47.0848 180.852 49.4294 180.852 52.3231C180.852 55.2167 178.89 57.5613 176.469 57.5613C174.048 57.5465 172.102 55.2167 172.087 52.3231Z" fill="#F38A97"/>
<path d="M174.738 48.3016C174.86 48.4649 174.171 51.1508 179.319 51.8037C184.468 52.4418 181.373 46.4022 177.572 46.2538C172.087 46.0609 171.29 49.6223 171.811 50.9133C172.347 52.2044 174.738 48.3016 174.738 48.3016Z" fill="#30262A"/>
<path d="M182.675 44.9925C182.675 44.9925 180.361 46.4913 182.139 47.901C183.916 49.3107 188.804 49.934 187.471 52.3083C186.138 54.6825 184.974 58.2143 187.379 58.6595C189.785 59.1046 191.287 58.9266 192.267 60.7815C193.248 62.6364 197.6 61.4938 197.247 59.2827C196.895 57.0865 200.634 55.1426 199.025 53.1096C197.431 51.0766 193.509 49.3256 192.528 46.6694C191.563 44.028 184.544 43.8499 182.675 44.9925Z" fill="#30262A"/>
<path d="M178.752 50.9431C178.752 50.9431 180.852 53.0948 180.132 55.291C180.132 55.291 181.357 54 181.373 53.5103C181.403 53.0354 181.082 51.2844 181.082 51.2844L178.752 50.9431Z" fill="#30262A"/>
<path d="M180.269 53.1096C179.779 53.5696 179.074 53.6141 178.722 53.2135C178.369 52.8128 178.476 52.1154 178.967 51.6553C179.457 51.1953 180.162 51.1508 180.514 51.5515C180.867 51.9521 180.76 52.6496 180.269 53.1096Z" fill="#F38A97"/>
<path d="M196.19 61.4937C196.175 61.4937 196.16 61.4937 196.16 61.4937C195.531 61.2563 195.164 60.9744 195.026 60.6034C194.811 60.0395 195.179 59.4162 195.547 58.7633C195.884 58.1846 196.221 57.591 196.144 57.0716C196.052 56.4484 195.194 56.3 194.29 56.1368C193.524 56.0032 192.742 55.8697 192.436 55.3948C192.283 55.1722 192.252 54.8903 192.344 54.549C192.436 54.178 192.559 53.8515 192.681 53.5251C193.187 52.145 193.585 51.0469 191.348 48.5539C188.483 45.3487 186.108 45.2003 183.962 45.5119C183.717 45.5416 183.074 45.868 183.089 46.15C183.089 46.2984 183.288 46.6545 185.157 46.8771C185.188 46.8771 187.793 47.4707 189.05 50.1862C189.724 51.6405 188.774 53.1838 188.008 54.4303C187.502 55.2613 187.058 55.9884 187.195 56.4781C187.241 56.6562 187.379 56.7897 187.579 56.9084C188.1 57.1755 188.682 57.3388 189.249 57.4871C190.704 57.873 192.191 58.2588 192.39 60.7815C192.39 60.8408 192.344 60.8853 192.298 60.8853C192.237 60.8853 192.191 60.8408 192.191 60.7963C192.007 58.4072 190.658 58.051 189.203 57.6801C188.621 57.5317 188.038 57.3684 187.487 57.0865C187.226 56.9529 187.058 56.76 186.996 56.5374C186.828 55.9735 187.303 55.2167 187.839 54.3412C188.621 53.0799 189.494 51.6405 188.866 50.2901C187.655 47.6636 185.157 47.0997 185.127 47.0997C183.625 46.9216 182.905 46.61 182.89 46.1648C182.89 45.7196 183.671 45.3635 183.947 45.3338C186.138 45.0222 188.59 45.1706 191.517 48.4501C193.83 51.0321 193.417 52.1747 192.88 53.6141C192.758 53.9257 192.651 54.2522 192.543 54.6232C192.467 54.9051 192.482 55.1277 192.605 55.3058C192.865 55.7064 193.601 55.8252 194.321 55.9587C195.255 56.1219 196.221 56.2852 196.343 57.0568C196.435 57.6504 196.083 58.2736 195.73 58.882C195.378 59.4904 195.041 60.0692 195.225 60.544C195.347 60.8557 195.669 61.1079 196.236 61.3157C196.297 61.3305 196.313 61.3899 196.297 61.4492C196.282 61.4641 196.236 61.4937 196.19 61.4937Z" fill="#F9F9F9"/>
<path d="M179.365 50.2159C177.389 50.1714 176.393 48.6726 176.362 48.5984C176.331 48.5539 176.347 48.4945 176.393 48.4648C176.439 48.4352 176.5 48.45 176.53 48.4945C176.546 48.5094 177.496 49.9784 179.365 50.0081C179.427 50.0081 179.472 50.0526 179.472 50.112C179.457 50.1714 179.411 50.2159 179.365 50.2159Z" fill="#F9F9F9"/>
<path d="M187.778 88.3972L187.732 88.2637C187.778 88.2488 188.743 87.9075 189.279 88.2785L189.187 88.3972C188.712 88.0708 187.793 88.3972 187.778 88.3972Z" fill="#EE5062"/>
<path d="M188.375 89.9109L188.314 89.7773C188.36 89.7625 189.295 89.4063 190.137 89.7773L190.076 89.9109C189.295 89.5696 188.391 89.9109 188.375 89.9109Z" fill="#EE5062"/>
<path d="M188.835 91.2317L188.789 91.0981C188.835 91.0833 189.984 90.6678 190.521 91.113L190.429 91.2168C189.954 90.831 188.85 91.2317 188.835 91.2317Z" fill="#EE5062"/>
<path d="M163.107 96.0988C163.107 96.0988 167.015 95.5794 172.884 95.9949C181.97 96.6478 189.708 98.6808 189.708 98.6808L186.828 99.1557L168.746 99.8531L165.115 96.9595L163.107 96.0988Z" fill="#CC142A"/>
<path d="M174.048 55.7064C174.048 55.7064 175.55 55.7361 177.036 55.2316C177.036 55.2316 177.159 56.6561 175.534 56.76C174.615 56.8045 174.048 55.7064 174.048 55.7064Z" fill="#EB3349"/>
<path d="M174.048 55.7064C174.048 55.7064 174.416 56.0032 175.259 55.9884C176.101 55.9884 177.051 55.2316 177.051 55.2316C177.051 55.2316 175.243 55.7064 174.048 55.7064Z" fill="#F9F9F9"/>
<path d="M176.055 52.3677C176.025 52.3528 175.994 52.338 175.994 52.3083C175.979 52.2638 175.994 52.2044 176.055 52.1896C176.086 52.1748 176.76 51.8483 177.342 52.4715C177.373 52.5161 177.373 52.5754 177.342 52.6051C177.296 52.6348 177.251 52.6348 177.205 52.6051C176.745 52.3083 176.163 52.3677 176.132 52.3677C176.086 52.3825 176.071 52.3825 176.055 52.3677Z" fill="#080435"/>
<path d="M176.837 53.436C176.837 53.6734 176.714 53.8515 176.546 53.8663C176.377 53.8663 176.224 53.6883 176.224 53.4657C176.224 53.2431 176.347 53.0502 176.515 53.0353C176.684 53.0205 176.837 53.1986 176.837 53.436Z" fill="#080435"/>
<path d="M172.5 52.8722C172.47 52.8722 172.439 52.8722 172.424 52.8425C172.393 52.798 172.393 52.7386 172.424 52.7089C172.455 52.6941 172.93 52.1302 173.726 52.4863C173.772 52.516 173.803 52.5605 173.772 52.6199C173.757 52.6644 173.696 52.6792 173.634 52.6644C173.098 52.5605 172.577 52.8276 172.546 52.8425C172.531 52.8573 172.516 52.8722 172.5 52.8722Z" fill="#080435"/>
<path d="M173.634 53.5696C173.726 53.7773 173.68 53.9999 173.527 54.0741C173.374 54.1483 173.159 54.0296 173.067 53.8219C172.975 53.6141 173.021 53.3915 173.175 53.3173C173.343 53.2431 173.542 53.3618 173.634 53.5696Z" fill="#080435"/>
<path d="M168.946 66.6009L166.934 70.2374L167.123 70.3355L169.135 66.699L168.946 66.6009Z" fill="#30262A"/>
<path d="M122.869 56.8194H122.854C121.965 56.8194 121.137 56.4336 120.586 55.7659C116.908 51.4031 108.419 40.4518 108.955 33.0173C109.231 29.2036 110.365 25.9687 112.25 23.6834C114.334 21.1607 117.245 19.7659 120.923 19.5581C125.06 19.3207 128.967 20.671 131.91 23.357C134.959 26.1319 136.767 30.1533 136.767 34.1154C136.767 37.2316 135.296 41.2086 132.415 45.9274C130.009 49.845 127.144 53.4509 125.152 55.7807C124.585 56.4485 123.758 56.8194 122.869 56.8194ZM120.938 19.8104C117.337 20.0181 114.487 21.3685 112.464 23.8318C110.61 26.0725 109.492 29.263 109.231 33.0173C108.71 40.3479 117.153 51.2399 120.8 55.5878C121.306 56.1962 122.057 56.5375 122.854 56.5523C123.666 56.5672 124.416 56.211 124.937 55.6175C128.416 51.5367 136.506 41.2828 136.506 34.1154C136.506 30.2275 134.714 26.2803 131.726 23.5499C128.83 20.9085 124.999 19.5729 120.938 19.8104ZM122.593 41.6686C122.363 41.6686 122.118 41.6686 121.873 41.6537C119.697 41.5647 117.72 40.7782 116.311 39.4279C114.885 38.0478 114.089 36.1632 114.089 34.0857C114.089 29.1739 116.632 26.5622 122.348 25.6274C124.294 25.3009 126.01 25.6867 127.42 26.7551C129.305 28.1797 130.576 30.8211 130.822 33.8483C131.021 36.2671 130.423 38.1814 129.075 39.5317C127.68 40.9415 125.443 41.6686 122.593 41.6686ZM123.666 25.7757C123.252 25.7757 122.838 25.8054 122.409 25.8796C115.284 27.0519 114.365 30.8804 114.365 34.0857C114.365 36.089 115.131 37.9143 116.51 39.2498C117.874 40.5556 119.789 41.3273 121.888 41.4015C124.999 41.535 127.42 40.8227 128.891 39.3537C130.178 38.0626 130.745 36.2077 130.561 33.8631C130.316 30.9101 129.09 28.3281 127.267 26.9629C126.24 26.1764 125.029 25.7757 123.666 25.7757Z" fill="#30262A"/>
<path d="M128.584 140.216L63.9513 141.952C62.6182 141.982 61.5149 140.958 61.5149 139.667V133.776C61.5149 132.515 62.5722 131.491 63.8747 131.491H128.508C129.81 131.491 130.868 132.515 130.868 133.776V137.931C130.883 139.163 129.872 140.172 128.584 140.216Z" fill="#F28686"/>
<path d="M127.879 136.358C127.879 136.699 127.742 137.011 127.512 137.233C127.282 137.456 126.96 137.59 126.608 137.59H65.5755C64.8707 137.59 64.3037 137.04 64.3037 136.358C64.3037 136.017 64.4416 135.705 64.6715 135.482C64.9013 135.26 65.2231 135.126 65.5755 135.126H126.608C127.297 135.126 127.879 135.675 127.879 136.358Z" fill="#EA4747"/>
<path d="M127.88 136.358C127.88 136.699 127.742 137.011 127.512 137.233C127.282 137.456 126.96 137.59 126.608 137.59H104.971L102.305 135.126H126.592C127.297 135.126 127.88 135.675 127.88 136.358Z" fill="#F7F0F7"/>
<path d="M92.4063 114.04C91.9926 114.04 91.5942 113.832 91.3796 113.476C91.0425 112.927 91.2111 112.214 91.7934 111.873C91.8087 111.858 94.1531 110.449 96.8347 107.214C99.3017 104.231 102.581 99.0224 104.159 91.1724C105.216 85.9045 104.006 80.0133 100.558 73.6621C97.7234 68.4387 94.0918 64.2837 92.1765 62.2656C91.6248 61.6868 91.3643 60.8855 91.4716 60.099C91.5788 59.3126 92.0539 58.6151 92.7434 58.1996L108.113 48.9844C108.679 48.6431 109.415 48.8212 109.767 49.3554C110.12 49.9045 109.936 50.6168 109.384 50.9581L94.0152 60.1732C93.8926 60.2474 93.862 60.3513 93.862 60.4107C93.8467 60.4849 93.862 60.5887 93.9539 60.6778C95.9459 62.7701 99.7154 67.1032 102.688 72.564C106.396 79.3901 107.683 85.8006 106.519 91.6028C104.849 99.9721 101.309 105.552 98.6275 108.757C95.6855 112.274 93.1418 113.787 93.0345 113.847C92.8353 113.995 92.6208 114.04 92.4063 114.04Z" fill="#ED6B6C"/>
<path d="M110.889 51.0158C111.403 49.8023 110.803 48.4157 109.55 47.9187C108.297 47.4218 106.865 48.0026 106.352 49.2161C105.839 50.4295 106.438 51.8161 107.691 52.3131C108.944 52.81 110.376 52.2292 110.889 51.0158Z" fill="#30262A"/>
<path d="M118.456 20.1666C110.855 20.6118 107.132 26.1468 106.626 33.5071C106.105 40.7931 114.226 51.4032 118.226 56.1666C119.344 57.5021 121.444 57.5021 122.578 56.1814C126.47 51.6258 134.177 41.6983 134.177 34.5903C134.177 27.2301 127.895 19.6175 118.456 20.1666ZM119.421 42.0099C115.039 41.8319 111.775 38.8195 111.775 34.5606C111.775 30.3166 113.629 27.2746 119.927 26.2358C125.32 25.3455 127.895 30.094 128.247 34.3381C128.646 39.4576 125.428 42.2474 119.421 42.0099Z" fill="#D3A09F"/>
<path d="M87.4571 112.808L95.042 109.617C95.7315 109.321 96.4364 109.988 96.1606 110.671L92.7895 118.847C92.6669 119.144 92.2072 119.115 92.1306 118.803L91.7322 115.316C91.533 114.485 91.4258 114.247 90.5677 113.995L87.4877 113.461C87.1966 113.342 87.1659 112.927 87.4571 112.808Z" fill="#30262A"/>
<path d="M93.6935 19.6026C93.6935 7.99835 83.0439 0 71.1838 0C53.9912 0 48.0918 9.40808 48.0918 21.0124C48.0918 32.6167 61.7141 40.8376 73.5742 40.8376C85.4343 40.8376 93.6935 31.2069 93.6935 19.6026Z" fill="#ED6B6C"/>
<path d="M97.4477 38.2259C97.4477 38.2259 89.9394 37.0982 89.4031 29.7824L83.5037 33.9968C83.5037 34.0116 86.3231 40.7189 97.4477 38.2259Z" fill="#ED6B6C"/>
<path d="M73.9266 43.2861C67.9965 43.2861 61.5455 41.1938 56.6727 37.7065C51.2943 33.8483 48.3369 28.7585 48.3369 23.357C48.3369 17.0206 50.0684 11.9901 53.4702 8.4287C57.3623 4.30339 63.4455 2.22589 71.5209 2.22589C77.4509 2.22589 83.0592 4.16983 87.3037 7.70157C91.7168 11.3817 94.1532 16.4271 94.1532 21.9324C94.1532 26.5919 92.8507 30.9695 90.3837 34.6051C92.1612 39.5318 97.7541 40.437 97.8154 40.437L98.3977 40.526L97.8154 40.6595C94.429 41.4163 89.6635 41.7725 86.1238 39.1608C82.6914 41.8615 78.4623 43.2861 73.9266 43.2861ZM71.5209 2.44848C63.5068 2.44848 57.4848 4.51114 53.6234 8.56225C50.2676 12.094 48.5514 17.0651 48.5514 23.3421C48.5514 28.6694 51.4782 33.6999 56.7953 37.5136C61.6374 40.986 68.0272 43.0487 73.9113 43.0487C78.4316 43.0487 82.6302 41.6241 86.0472 38.9382L86.1238 38.8788L86.2005 38.9382C89.4949 41.4163 93.9386 41.2383 97.2484 40.5557C95.7774 40.1995 91.6248 38.8195 90.1385 34.6348L90.1232 34.5903L90.1538 34.5458C92.6209 30.925 93.9233 26.5771 93.9233 21.9472C93.9233 16.5012 91.5176 11.5153 87.1505 7.87964C82.9519 4.37758 77.405 2.44848 71.5209 2.44848Z" fill="#1B0637"/>
<path d="M71.8427 20.3297C71.8274 20.3297 71.812 20.3297 71.812 20.3297C71.5975 20.3149 71.4289 20.1665 71.3676 19.9736V19.9587L70.9693 16.4567C70.77 15.6702 70.6934 15.4773 69.9119 15.2399L66.8167 14.6908C66.6175 14.6315 66.4796 14.4682 66.4796 14.2605C66.4642 14.0676 66.5868 13.8895 66.7707 13.8005L74.3863 10.5952C74.7541 10.4319 75.1678 10.5061 75.4589 10.7881C75.7501 11.0552 75.842 11.4559 75.6888 11.8268L72.3024 20.0329C72.2258 20.2258 72.0419 20.3297 71.8427 20.3297ZM71.6435 19.9142C71.6741 20.0181 71.7507 20.0478 71.8273 20.0626C71.904 20.0626 71.9959 20.0329 72.0266 19.9439L75.413 11.7378C75.5356 11.4262 75.413 11.1442 75.2444 10.9958C75.0759 10.8474 74.8 10.7287 74.4783 10.8623L66.8626 14.0676C66.7401 14.1121 66.7401 14.2308 66.7401 14.2605C66.7401 14.2902 66.7554 14.394 66.878 14.4385L69.9732 14.9876C70.908 15.2695 71.0305 15.5663 71.2297 16.4122V16.427L71.6435 19.9142Z" fill="#30262A"/>
<path d="M61.2544 23.5203V23.7281C61.2544 23.7578 61.2544 23.7874 61.2391 23.8023L59.7834 26.7108C59.7528 26.7701 59.6915 26.8146 59.6149 26.8146H59.3237C59.1858 26.8146 59.0939 26.6811 59.1552 26.5624L60.5342 23.9062V23.8913H59.0173C58.91 23.8913 58.8334 23.8171 58.8334 23.7132V23.5203C58.8334 23.4165 58.91 23.3423 59.0173 23.3423H61.0552C61.1625 23.3274 61.2544 23.4165 61.2544 23.5203Z" fill="#30262A"/>
<path d="M63.0013 24.9746C63.0013 24.752 63.0013 24.5591 62.986 24.381C62.986 24.2771 63.0626 24.1881 63.1698 24.1881H63.3844C63.4763 24.1881 63.5529 24.2623 63.5682 24.3513L63.5836 24.5739H63.5989C63.7215 24.3662 63.9666 24.1287 64.4263 24.1287C64.7788 24.1287 65.0546 24.3216 65.1772 24.6036H65.1925C65.2844 24.4552 65.3917 24.3513 65.5143 24.2771C65.6675 24.1732 65.8361 24.1287 66.0659 24.1287C66.5103 24.1287 66.9547 24.4255 66.9547 25.2565V26.6069C66.9547 26.7107 66.878 26.7849 66.7708 26.7849H66.4796C66.3724 26.7849 66.2958 26.7107 66.2958 26.6069V25.3752C66.2958 24.9449 66.1425 24.6778 65.8207 24.6778C65.5909 24.6778 65.4223 24.841 65.3457 25.0191C65.3304 25.0784 65.3151 25.1675 65.3151 25.2417V26.6217C65.3151 26.7256 65.2385 26.7998 65.1312 26.7998H64.8401C64.7328 26.7998 64.6562 26.7256 64.6562 26.6217V25.2862C64.6562 24.9152 64.5029 24.6629 64.1965 24.6629C63.936 24.6629 63.7674 24.8558 63.7061 25.0339C63.6908 25.1081 63.6755 25.1823 63.6755 25.2565V26.6217C63.6755 26.7256 63.5989 26.7998 63.4916 26.7998H63.2005C63.0932 26.7998 63.0166 26.7256 63.0166 26.6217V24.9746H63.0013Z" fill="#30262A"/>
<path d="M68.4105 23.4756C68.4105 23.6686 68.2572 23.8318 68.0274 23.8318C67.7975 23.8318 67.6443 23.6686 67.6443 23.4756C67.6443 23.2679 67.7975 23.1195 68.0274 23.1195C68.2726 23.1195 68.4105 23.2679 68.4105 23.4756ZM67.6903 26.6364V24.3957C67.6903 24.2918 67.7669 24.2176 67.8741 24.2176H68.1806C68.2879 24.2176 68.3645 24.2918 68.3645 24.3957V26.6364C68.3645 26.7403 68.2879 26.8145 68.1806 26.8145H67.8741C67.7822 26.8145 67.6903 26.7254 67.6903 26.6364Z" fill="#30262A"/>
<path d="M69.0998 24.9746C69.0998 24.752 69.0998 24.5591 69.0845 24.381C69.0845 24.2771 69.1611 24.1881 69.2684 24.1881H69.4982C69.5901 24.1881 69.6667 24.2623 69.6821 24.3513L69.6974 24.5739H69.7127C69.8353 24.3662 70.1264 24.1287 70.5708 24.1287C71.0458 24.1287 71.5208 24.4255 71.5208 25.2417V26.6069C71.5208 26.7108 71.4442 26.7849 71.337 26.7849H71.0305C70.9232 26.7849 70.8466 26.7108 70.8466 26.6069V25.3159C70.8466 24.9449 70.7087 24.6629 70.3256 24.6629C70.0498 24.6629 69.8659 24.8558 69.7893 25.0488C69.774 25.1081 69.7587 25.1823 69.7587 25.2565V26.6069C69.7587 26.7108 69.6821 26.7849 69.5748 26.7849H69.2684C69.1611 26.7849 69.0845 26.7108 69.0845 26.6069V24.9746H69.0998Z" fill="#30262A"/>
<path d="M74.6774 26.028C74.6774 26.2506 74.6774 26.4435 74.6927 26.6216C74.6927 26.7254 74.6161 26.8145 74.5088 26.8145H74.279C74.1871 26.8145 74.1104 26.7403 74.0951 26.6512L74.0798 26.4286H74.0645C73.9419 26.6067 73.6814 26.8738 73.1911 26.8738C72.7007 26.8738 72.2563 26.5919 72.2563 25.746V24.3957C72.2563 24.2918 72.333 24.2176 72.4402 24.2176H72.7467C72.8539 24.2176 72.9306 24.2918 72.9306 24.3957V25.6273C72.9306 26.0577 73.0685 26.3396 73.4362 26.3396C73.712 26.3396 73.8959 26.1615 73.9572 25.9835C73.9879 25.9241 74.0032 25.8499 74.0032 25.7757V24.3808C74.0032 24.277 74.0798 24.2028 74.1871 24.2028H74.4935C74.6008 24.2028 74.6774 24.277 74.6774 24.3808V26.028Z" fill="#30262A"/>
<path d="M76.1945 23.7724V24.0247C76.1945 24.1286 76.2711 24.2028 76.3784 24.2028H76.6542C76.7615 24.2028 76.8381 24.277 76.8381 24.3809V24.5144C76.8381 24.6183 76.7615 24.6925 76.6542 24.6925H76.3784C76.2711 24.6925 76.1945 24.7667 76.1945 24.8706V25.8351C76.1945 26.1616 76.2864 26.31 76.5469 26.31C76.5776 26.31 76.6082 26.31 76.6236 26.31C76.7308 26.31 76.8074 26.3842 76.8074 26.488V26.6513C76.8074 26.7403 76.7461 26.8145 76.6542 26.8293C76.5623 26.8442 76.4397 26.859 76.3171 26.859C76.0566 26.859 75.8574 26.7848 75.7348 26.6513C75.5816 26.5029 75.5203 26.2654 75.5203 25.9241V24.8706C75.5203 24.7667 75.4437 24.6925 75.3364 24.6925H75.3211C75.2138 24.6925 75.1372 24.6183 75.1372 24.5144V24.3809C75.1372 24.277 75.2138 24.2028 75.3211 24.2028H75.3364C75.4437 24.2028 75.5203 24.1286 75.5203 24.0247V23.8466C75.5203 23.7724 75.5816 23.6982 75.6582 23.6686L75.9647 23.5944C76.0719 23.5647 76.1945 23.6537 76.1945 23.7724Z" fill="#30262A"/>
<path d="M78.0178 25.6868C77.8952 25.6868 77.8033 25.8056 77.8493 25.9243C77.9719 26.2211 78.2783 26.3546 78.6307 26.3546C78.8606 26.3546 79.0291 26.3249 79.1977 26.2953C79.305 26.2656 79.3969 26.3249 79.4276 26.4288L79.4582 26.5327C79.4735 26.6217 79.4275 26.7108 79.3356 26.7404C79.1211 26.7998 78.8606 26.8443 78.5541 26.8443C77.6807 26.8443 77.175 26.3249 77.175 25.5236C77.175 24.7965 77.6347 24.1287 78.4928 24.1287C79.3663 24.1287 79.6574 24.8262 79.6574 25.3901C79.6574 25.4346 79.6574 25.4643 79.6574 25.4939C79.6574 25.583 79.5655 25.672 79.4735 25.672H78.0178V25.6868ZM78.7687 25.2268C78.8912 25.2268 78.9832 25.123 78.9525 25.0042C78.8912 24.7965 78.7533 24.5887 78.4162 24.5887C78.1098 24.5887 77.9412 24.7816 77.8493 24.9894C77.8033 25.1081 77.8952 25.2268 78.0178 25.2268H78.7687Z" fill="#30262A"/>
<path d="M80.0714 26.4139C80.102 26.31 80.2246 26.2507 80.3165 26.2952C80.4698 26.3545 80.6536 26.3991 80.8069 26.3991C81.098 26.3991 81.2359 26.2803 81.2359 26.1023C81.2359 25.9242 81.1286 25.8352 80.7915 25.7165C80.2705 25.5384 80.056 25.2713 80.056 24.9597C80.056 24.4996 80.4544 24.1435 81.0674 24.1435C81.2819 24.1435 81.4811 24.1732 81.6343 24.2325C81.7262 24.2622 81.7722 24.3661 81.7416 24.4551L81.7109 24.559C81.6803 24.6629 81.573 24.7222 81.4658 24.6777C81.3585 24.6332 81.2206 24.6035 81.0827 24.6035C80.8375 24.6035 80.6996 24.7222 80.6996 24.8855C80.6996 25.0487 80.8222 25.1229 81.1746 25.2564C81.665 25.4197 81.8948 25.6571 81.8948 26.0429C81.8948 26.5178 81.5117 26.8591 80.8069 26.8591C80.5617 26.8591 80.3318 26.8146 80.148 26.7404C80.056 26.7107 80.0101 26.6068 80.0407 26.5178L80.0714 26.4139Z" fill="#30262A"/>
</g>
<defs>
<clipPath id="clip0_477_1180">
<rect width="229.61" height="160" fill="white" transform="translate(0.194824)"/>
</clipPath>
</defs>
</svg>
