<svg width="658" height="437" viewBox="0 0 658 437" fill="none" xmlns="http://www.w3.org/2000/svg">
<g clip-path="url(#clip0_521_2330)">
<path d="M552.9 323.4C552.9 321.8 552.8 205.9 552.7 18.5L552.9 18.7C406.9 18.7 214.8 18.6999 5.09999 18.7999L5.39999 18.5C5.39999 126.3 5.39999 229.4 5.39999 323.4L5.19999 323.2C325.9 323.3 550.7 323.4 552.9 323.4C550.7 323.4 325.9 323.5 5.09999 323.6H4.89999V323.4C4.89999 229.4 4.89999 126.3 4.89999 18.5V18.2H5.19999C214.9 18.2 407 18.1999 553 18.2999H553.2V18.5C553 206 552.9 321.8 552.9 323.4Z" fill="#E0E0E0"/>
<path d="M552.9 18.5H5.10001V41.8H552.9V18.5Z" fill="#E0E0E0"/>
<path d="M23 29.5C23 31.6 21.3 33.3 19.2 33.3C17.1 33.3 15.4 31.6 15.4 29.5C15.4 27.4 17.1 25.7 19.2 25.7C21.3 25.8 23 27.4 23 29.5Z" fill="white"/>
<path d="M34.6 29.5C34.6 31.6 32.9 33.3 30.8 33.3C28.7 33.3 27 31.6 27 29.5C27 27.4 28.7 25.7 30.8 25.7C32.9 25.7 34.6 27.4 34.6 29.5Z" fill="white"/>
<path d="M46.3 29.5C46.3 31.6 44.6 33.3 42.5 33.3C40.4 33.3 38.7 31.6 38.7 29.5C38.7 27.4 40.4 25.7 42.5 25.7C44.6 25.8 46.3 27.4 46.3 29.5Z" fill="white"/>
<path d="M600.3 65.1001H46.2V434.5H600.3V65.1001Z" fill="#FAFAFA"/>
<path d="M600.3 65.1001H46.2V88.7001H600.3V65.1001Z" fill="#1B0637"/>
<path d="M600.2 88.7C600.2 88.2 600.2 81.2 600.1 65.1L600.2 65.2C534.6 65.2 311.2 65.3 46.2 65.4L46.5 65.1C46.5 73.2 46.5 81.2 46.5 88.7L46.2 88.4C354.6 88.6 597.4 88.7 600.2 88.7C597.4 88.7 354.5 88.8 46.1 89H45.8V88.7C45.8 81.2 45.8 73.2 45.8 65.1V64.8H46.1C311.1 64.9 534.5 65 600.1 65H600.2V65.1C600.3 81.3 600.2 88.2 600.2 88.7Z" fill="#1B0637"/>
<path d="M64.3 76.2001C64.3 78.3001 62.6 80.0001 60.5 80.0001C58.4 80.0001 56.7 78.3001 56.7 76.2001C56.7 74.1001 58.4 72.4001 60.5 72.4001C62.6 72.4001 64.3 74.1001 64.3 76.2001Z" fill="#E0E0E0"/>
<path d="M76.1 76.2001C76.1 78.3001 74.4 80.0001 72.3 80.0001C70.2 80.0001 68.5 78.3001 68.5 76.2001C68.5 74.1001 70.2 72.4001 72.3 72.4001C74.3 72.4001 76.1 74.1001 76.1 76.2001Z" fill="#E0E0E0"/>
<path d="M87.8 76.2001C87.8 78.3001 86.1 80.0001 84 80.0001C81.9 80.0001 80.2 78.3001 80.2 76.2001C80.2 74.1001 81.9 72.4001 84 72.4001C86.1 72.4001 87.8 74.1001 87.8 76.2001Z" fill="#E0E0E0"/>
<path d="M201.7 157H179.7L175.5 167.2H164.3L185.4 119.8H196.2L217.4 167.2H205.9L201.7 157ZM198.3 148.6L190.8 130.5L183.3 148.6H198.3Z" fill="#505050"/>
<path d="M261.3 148.9C261.3 160.3 253.4 167.7 243.2 167.7C238.3 167.7 234.4 166.1 231.8 163V167.2H221.7V117H232.3V134.7C235 131.7 238.7 130.3 243.3 130.3C253.4 130.1 261.3 137.5 261.3 148.9ZM250.6 148.9C250.6 142.6 246.6 138.8 241.3 138.8C236 138.8 232 142.6 232 148.9C232 155.2 236 159 241.3 159C246.6 159 250.6 155.2 250.6 148.9Z" fill="#505050"/>
<path d="M265.6 148.9C265.6 137.9 274.1 130.1 285.6 130.1C297.2 130.1 305.6 137.9 305.6 148.9C305.6 159.9 297.2 167.7 285.6 167.7C274.1 167.7 265.6 159.9 265.6 148.9ZM295 148.9C295 142.6 291 138.8 285.7 138.8C280.4 138.8 276.4 142.6 276.4 148.9C276.4 155.2 280.5 159 285.7 159C291 159 295 155.2 295 148.9Z" fill="#505050"/>
<path d="M349.4 130.7V167.1H339.4V162.8C336.6 166 332.6 167.7 328.1 167.7C319 167.7 312.5 162.6 312.5 151.3V130.7H323.1V149.7C323.1 155.8 325.8 158.5 330.5 158.5C335.4 158.5 338.9 155.4 338.9 148.7V130.7H349.4Z" fill="#505050"/>
<path d="M382.7 165.4C380.5 167 377.4 167.7 374.1 167.7C365.5 167.7 360.5 163.3 360.5 154.6V139.6H354.9V131.5H360.5V122.6H371.1V131.5H380.2V139.6H371.1V154.4C371.1 157.5 372.8 159.2 375.6 159.2C377.2 159.2 378.7 158.7 379.9 157.8L382.7 165.4Z" fill="#505050"/>
<path d="M444.6 130.7V167.1H434.6V162.8C431.8 166 427.8 167.7 423.3 167.7C414.2 167.7 407.7 162.6 407.7 151.3V130.7H418.3V149.7C418.3 155.8 421 158.5 425.7 158.5C430.6 158.5 434.1 155.4 434.1 148.7V130.7H444.6Z" fill="#505050"/>
<path d="M450.8 163.7L454.3 156.1C457.5 158.2 462.5 159.6 467 159.6C471.9 159.6 473.7 158.3 473.7 156.3C473.7 150.3 451.7 156.4 451.7 141.9C451.7 135 457.9 130.1 468.6 130.1C473.6 130.1 479.2 131.3 482.6 133.3L479.1 140.8C475.5 138.8 471.9 138.1 468.6 138.1C463.9 138.1 461.8 139.6 461.8 141.5C461.8 147.7 483.8 141.7 483.8 156.1C483.8 162.9 477.5 167.7 466.6 167.7C460.5 167.7 454.2 166 450.8 163.7Z" fill="#505050"/>
<path d="M536.3 434.5C514.9 412 483.5 401 452.5 401.3C429.8 401.5 406.2 408.2 385.1 399.9C365.6 392.2 353.2 373.4 338 358.9C314.7 336.7 282.8 323.9 250.6 323.8C228.8 323.7 204.8 328.7 186.8 316.4C174.7 308.1 168.4 293.7 159.9 281.7C134.9 246.5 86.8 231.8 46.5 247.4L46.4 434.4L536.3 434.5Z" fill="#EBEBEB"/>
<path d="M600.2 434.5C600.2 432.8 600.1 290.3 600 65.1L600.2 65.3C447.7 65.3 255 65.3 46.2 65.4L46.5 65.1C46.5 196.6 46.5 321.8 46.5 434.5L46.3 434.3C372.6 434.4 598.1 434.5 600.2 434.5C598.1 434.5 372.5 434.6 46.1 434.7H45.9V434.5C45.9 321.8 45.9 196.7 45.9 65.1V64.8H46.2C255 64.8 447.7 64.8 600.2 64.9H600.4V65.1C600.3 290.3 600.2 432.8 600.2 434.5Z" fill="#1B0637"/>
<path d="M115.6 145.9C115.6 146.3 112.9 146.6 109.5 146.6C106.1 146.6 103.4 146.3 103.4 145.9C103.4 145.5 106.1 145.2 109.5 145.2C112.9 145.2 115.6 145.6 115.6 145.9Z" fill="#1B0637"/>
<path d="M122 129.4C122.4 129.4 122.7 132.2 122.7 135.6C122.7 139 122.4 141.8 122 141.8C121.6 141.8 121.3 139 121.3 135.6C121.4 132.1 121.7 129.4 122 129.4Z" fill="#1B0637"/>
<path d="M128.9 145.5C128.9 145.1 131.6 144.8 135 144.8C138.4 144.8 141.1 145.1 141.1 145.5C141.1 145.9 138.4 146.2 135 146.2C131.7 146.2 128.9 145.9 128.9 145.5Z" fill="#1B0637"/>
<path d="M122.5 162.1C122.1 162.1 121.8 159.3 121.8 155.9C121.8 152.5 122.1 149.7 122.5 149.7C122.9 149.7 123.2 152.5 123.2 155.9C123.1 159.3 122.8 162.1 122.5 162.1Z" fill="#1B0637"/>
<path d="M132.3 155C132 155.2 130.8 154.3 129.6 152.8C128.4 151.4 127.7 150 128 149.8C128.3 149.6 129.5 150.5 130.7 152C131.9 153.4 132.6 154.7 132.3 155Z" fill="#1B0637"/>
<path d="M131.7 136.2C132 136.5 131.2 137.7 129.9 138.9C128.7 140.2 127.4 141 127.2 140.7C126.9 140.4 127.7 139.2 129 138C130.3 136.7 131.5 135.9 131.7 136.2Z" fill="#1B0637"/>
<path d="M117.8 141C117.6 141.3 116.4 140.7 115.2 139.7C114 138.7 113.3 137.7 113.5 137.4C113.7 137.1 114.9 137.7 116.1 138.7C117.3 139.7 118 140.7 117.8 141Z" fill="#1B0637"/>
<path d="M117.2 149.3C117.5 149.6 116.8 150.8 115.7 152C114.6 153.2 113.4 154 113.2 153.8C112.9 153.5 113.6 152.3 114.7 151.1C115.8 149.8 117 149 117.2 149.3Z" fill="#1B0637"/>
<path d="M459.2 113.9C459.2 114.1 457.7 114.3 455.7 114.3C453.8 114.3 452.2 114.1 452.2 113.9C452.2 113.7 453.7 113.5 455.7 113.5C457.6 113.5 459.2 113.7 459.2 113.9Z" fill="#1B0637"/>
<path d="M462.8 104.5C463 104.5 463.2 106.1 463.2 108C463.2 109.9 463 111.5 462.8 111.5C462.6 111.5 462.4 109.9 462.4 108C462.5 106 462.6 104.5 462.8 104.5Z" fill="#1B0637"/>
<path d="M466.8 113.6C466.8 113.4 468.3 113.2 470.3 113.2C472.2 113.2 473.8 113.4 473.8 113.6C473.8 113.8 472.3 114 470.3 114C468.3 114 466.8 113.9 466.8 113.6Z" fill="#1B0637"/>
<path d="M463.1 123C462.9 123 462.7 121.4 462.7 119.5C462.7 117.6 462.9 116 463.1 116C463.3 116 463.5 117.6 463.5 119.5C463.5 121.5 463.3 123 463.1 123Z" fill="#1B0637"/>
<path d="M468.7 119C468.5 119.1 467.9 118.6 467.2 117.8C466.5 117 466.1 116.2 466.3 116.1C466.5 116 467.1 116.5 467.8 117.3C468.4 118.1 468.8 118.9 468.7 119Z" fill="#1B0637"/>
<path d="M468.4 108.4C468.5 108.5 468.1 109.2 467.4 110C466.7 110.7 466 111.2 465.9 111C465.8 110.9 466.2 110.2 466.9 109.4C467.5 108.7 468.2 108.2 468.4 108.4Z" fill="#1B0637"/>
<path d="M460.4 111.1C460.3 111.3 459.6 110.9 458.9 110.4C458.2 109.8 457.8 109.3 457.9 109.1C458 108.9 458.7 109.3 459.4 109.8C460.1 110.3 460.6 110.9 460.4 111.1Z" fill="#1B0637"/>
<path d="M460.1 115.8C460.3 115.9 459.9 116.6 459.2 117.3C458.6 118 457.9 118.5 457.8 118.3C457.6 118.2 458 117.5 458.7 116.8C459.3 116.1 460 115.6 460.1 115.8Z" fill="#1B0637"/>
<path d="M302.1 192.5C302.1 192.7 300.9 192.8 299.5 192.8C298 192.8 296.8 192.7 296.8 192.5C296.8 192.3 298 192.2 299.5 192.2C300.9 192.2 302.1 192.4 302.1 192.5Z" fill="#1B0637"/>
<path d="M304.9 185.3C305.1 185.3 305.2 186.5 305.2 188C305.2 189.5 305.1 190.7 304.9 190.7C304.7 190.7 304.6 189.5 304.6 188C304.7 186.5 304.8 185.3 304.9 185.3Z" fill="#1B0637"/>
<path d="M307.9 192.4C307.9 192.2 309.1 192.1 310.5 192.1C312 192.1 313.2 192.2 313.2 192.4C313.2 192.6 312 192.7 310.5 192.7C309.1 192.6 307.9 192.5 307.9 192.4Z" fill="#1B0637"/>
<path d="M305.1 199.6C304.9 199.6 304.8 198.4 304.8 196.9C304.8 195.4 304.9 194.2 305.1 194.2C305.3 194.2 305.4 195.4 305.4 196.9C305.4 198.4 305.3 199.6 305.1 199.6Z" fill="#1B0637"/>
<path d="M309.4 196.5C309.3 196.6 308.8 196.2 308.2 195.6C307.7 195 307.4 194.4 307.5 194.3C307.6 194.2 308.1 194.6 308.7 195.2C309.2 195.8 309.5 196.4 309.4 196.5Z" fill="#1B0637"/>
<path d="M309.2 188.3C309.3 188.4 309 188.9 308.4 189.5C307.9 190 307.3 190.4 307.2 190.3C307.1 190.2 307.4 189.7 308 189.1C308.5 188.5 309.1 188.2 309.2 188.3Z" fill="#1B0637"/>
<path d="M303.1 190.4C303 190.5 302.5 190.3 302 189.9C301.5 189.5 301.2 189 301.3 188.9C301.4 188.8 301.9 189 302.4 189.4C302.9 189.8 303.2 190.3 303.1 190.4Z" fill="#1B0637"/>
<path d="M302.9 194C303 194.1 302.7 194.6 302.2 195.2C301.7 195.7 301.2 196.1 301.1 196C301 195.9 301.3 195.4 301.8 194.8C302.2 194.2 302.7 193.9 302.9 194Z" fill="#1B0637"/>
<path d="M442.9 203.7C442.9 203.9 441.4 204.1 439.4 204.1C437.5 204.1 435.9 203.9 435.9 203.7C435.9 203.5 437.4 203.3 439.4 203.3C441.4 203.4 442.9 203.5 442.9 203.7Z" fill="#E0E0E0"/>
<path d="M446.6 194.3C446.8 194.3 447 195.9 447 197.8C447 199.7 446.8 201.3 446.6 201.3C446.4 201.3 446.2 199.7 446.2 197.8C446.2 195.9 446.4 194.3 446.6 194.3Z" fill="#E0E0E0"/>
<path d="M450.5 203.5C450.5 203.3 452 203.1 454 203.1C455.9 203.1 457.5 203.3 457.5 203.5C457.5 203.7 456 203.9 454 203.9C452 203.9 450.5 203.7 450.5 203.5Z" fill="#E0E0E0"/>
<path d="M446.8 212.9C446.6 212.9 446.4 211.3 446.4 209.4C446.4 207.5 446.6 205.9 446.8 205.9C447 205.9 447.2 207.5 447.2 209.4C447.2 211.3 447 212.9 446.8 212.9Z" fill="#E0E0E0"/>
<path d="M452.4 208.9C452.2 209 451.6 208.5 450.9 207.7C450.2 206.9 449.8 206.1 450 206C450.2 205.9 450.8 206.4 451.5 207.2C452.2 208 452.6 208.7 452.4 208.9Z" fill="#E0E0E0"/>
<path d="M452.1 198.2C452.2 198.3 451.8 199 451.1 199.8C450.4 200.5 449.7 201 449.6 200.8C449.5 200.7 449.9 200 450.6 199.2C451.3 198.5 451.9 198.1 452.1 198.2Z" fill="#E0E0E0"/>
<path d="M444.2 200.9C444.1 201.1 443.4 200.7 442.7 200.2C442 199.6 441.6 199.1 441.7 198.9C441.8 198.7 442.5 199.1 443.2 199.6C443.9 200.2 444.3 200.8 444.2 200.9Z" fill="#E0E0E0"/>
<path d="M443.9 205.6C444.1 205.7 443.7 206.4 443 207.1C442.4 207.8 441.7 208.3 441.6 208.1C441.4 208 441.8 207.3 442.5 206.6C443.1 205.9 443.7 205.5 443.9 205.6Z" fill="#E0E0E0"/>
<path d="M260.7 114.5L261.1 115.6C261.9 117.5 263.4 119 265.3 119.7L266.5 120.2L265.4 120.7C263.5 121.5 262 123 261.2 124.9L260.9 125.7L260.4 124.7C259.5 122.9 258 121.5 256.1 120.8L255.1 120.4L256.4 119.8C258.1 119 259.4 117.6 260.1 115.9L260.7 114.5Z" fill="#E0E0E0"/>
<path d="M85.1 195.4L85.4 196.1C85.9 197.4 86.9 198.3 88.2 198.9L89 199.2L88.3 199.5C87 200 86 201 85.5 202.3L85.3 202.8L85 202.1C84.4 200.9 83.4 200 82.2 199.5L81.5 199.3L82.4 198.9C83.5 198.4 84.4 197.4 84.9 196.3L85.1 195.4Z" fill="#E0E0E0"/>
<path d="M527.6 125.6L527.9 126.3C528.4 127.6 529.4 128.5 530.7 129.1L531.5 129.4L530.8 129.7C529.5 130.2 528.5 131.2 528 132.5L527.8 133L527.5 132.3C526.9 131.1 525.9 130.2 524.7 129.7L524 129.5L524.9 129.1C526 128.6 526.9 127.6 527.4 126.5L527.6 125.6Z" fill="#E0E0E0"/>
<path d="M528.9 156L529.3 157.1C530.1 159 531.6 160.5 533.5 161.2L534.7 161.7L533.6 162.2C531.7 163 530.2 164.5 529.4 166.4L529.1 167.2L528.6 166.2C527.7 164.4 526.2 163 524.3 162.3L523.3 161.9L524.6 161.3C526.3 160.5 527.6 159.1 528.3 157.4L528.9 156Z" fill="#1B0637"/>
<path d="M344.2 107.9L344.4 108.4C344.8 109.3 345.5 110 346.4 110.3L346.9 110.5L346.4 110.7C345.5 111.1 344.8 111.8 344.4 112.7L344.3 113.1L344.1 112.6C343.7 111.8 343 111.1 342.1 110.8L341.6 110.6L342.2 110.3C343 109.9 343.6 109.3 343.9 108.5L344.2 107.9Z" fill="#1B0637"/>
<path d="M204.8 190.8L205.1 191.5C205.6 192.6 206.5 193.5 207.6 194L208.3 194.3L207.6 194.6C206.4 195.1 205.5 196 205.1 197.2L204.9 197.7L204.6 197.1C204.1 196 203.2 195.2 202 194.8L201.4 194.6L202.2 194.2C203.2 193.7 204 192.9 204.4 191.8L204.8 190.8Z" fill="#1B0637"/>
<path d="M609.3 165.6C585.8 165.6 566.8 184.6 566.8 208.1C566.8 220.3 571.9 231.3 580.2 239L574.5 259.1L594.8 248C599.3 249.7 604.2 250.6 609.4 250.6C632.9 250.6 651.9 231.6 651.9 208.1C651.8 184.6 632.8 165.6 609.3 165.6Z" fill="#F9F9F9"/>
<path d="M609.3 165.6C609.3 165.6 609.6 165.6 610.1 165.6C610.6 165.6 611.4 165.6 612.3 165.7C612.8 165.7 613.3 165.7 613.9 165.8C614.5 165.9 615.2 166 615.9 166.1C616.6 166.2 617.4 166.3 618.2 166.5C619 166.7 619.9 166.9 620.8 167.1C624.4 168.1 628.7 169.7 633.1 172.7C637.5 175.6 642 179.9 645.5 185.5C645.9 186.2 646.4 186.9 646.8 187.7C647.2 188.5 647.6 189.2 647.9 190C648.7 191.5 649.2 193.3 649.9 195C650.9 198.5 651.8 202.2 651.9 206.1C652.1 208.1 651.9 210.1 651.8 212.1C651.7 213.1 651.5 214.1 651.4 215.1C651.3 215.6 651.2 216.1 651.2 216.6C651.1 217.1 650.9 217.6 650.8 218.1C649.9 222.2 648.2 226.2 645.9 230C641.4 237.6 634.1 244.1 625.2 247.7C620.8 249.5 615.9 250.5 610.9 250.7C605.9 251 600.9 250.2 596 248.7C595.5 248.5 595.1 248.4 594.6 248.2H594.8C587.9 252 581.1 255.7 574.5 259.3L574 259.6L574.2 259C576.2 252.1 578.1 245.3 579.9 238.9L580 239.1C577.3 236.5 575 233.7 573.1 230.7C571.2 227.7 569.7 224.5 568.7 221.2C567.7 217.9 567 214.6 566.8 211.4C566.7 210.6 566.7 209.8 566.7 209C566.7 208.2 566.7 207.4 566.7 206.6C566.8 205 566.8 203.4 567.1 201.9C568 195.8 570.1 190.3 573 185.7C575.8 181.1 579.3 177.4 582.8 174.6C583.7 173.9 584.6 173.3 585.4 172.6C586.3 172 587.2 171.5 588.1 171C588.9 170.4 589.8 170.1 590.7 169.6C591.6 169.2 592.4 168.8 593.2 168.5C596.5 167.2 599.4 166.4 601.8 166C603 165.8 604.1 165.7 605 165.5C605.9 165.5 606.7 165.4 607.4 165.4C608 165.4 608.5 165.4 608.8 165.3C609.2 165.6 609.3 165.6 609.3 165.6C609.3 165.6 609.1 165.6 608.8 165.6C608.5 165.6 608 165.7 607.4 165.7C606.8 165.7 606 165.8 605 165.8C604.1 165.9 603 166.1 601.8 166.3C599.4 166.7 596.5 167.5 593.2 168.8C592.4 169.1 591.6 169.6 590.7 170C589.9 170.4 589 170.8 588.1 171.4C587.2 171.9 586.4 172.5 585.5 173C584.7 173.6 583.8 174.3 582.9 175C579.4 177.8 576 181.5 573.2 186C570.4 190.5 568.3 196 567.4 202.1C567.1 203.6 567.1 205.2 567 206.7C567 207.5 566.9 208.3 567 209.1C567 209.9 567 210.7 567.1 211.5C567.4 214.7 568 218 569 221.2C570.1 224.4 571.5 227.6 573.4 230.6C575.3 233.6 577.6 236.4 580.2 238.9L580.3 239V239.1C578.5 245.5 576.5 252.3 574.6 259.2L574.2 258.9C580.8 255.3 587.6 251.6 594.5 247.8L594.6 247.7H594.7C595.2 247.9 595.6 248 596.1 248.2C600.9 249.7 605.9 250.5 610.8 250.2C615.7 250 620.5 249.1 624.9 247.2C633.7 243.6 641 237.3 645.4 229.7C647.6 226 649.3 222 650.2 217.9C650.3 217.4 650.5 216.9 650.6 216.4C650.7 215.9 650.8 215.4 650.8 214.9C650.9 213.9 651.1 212.9 651.2 211.9C651.3 209.9 651.5 207.9 651.3 206C651.2 202.1 650.4 198.4 649.4 195C648.8 193.3 648.3 191.6 647.4 190.1C647 189.3 646.7 188.6 646.3 187.8C645.9 187.1 645.4 186.4 645 185.7C641.5 180.1 637.1 175.8 632.7 172.9C628.3 169.9 624 168.3 620.5 167.3C619.6 167.1 618.8 166.8 618 166.6C617.2 166.4 616.4 166.3 615.7 166.2C615 166.1 614.3 166 613.7 165.9C613.1 165.8 612.6 165.8 612.1 165.8C611.1 165.7 610.4 165.7 609.9 165.7C609.6 165.6 609.3 165.6 609.3 165.6Z" fill="#1B0637"/>
<path d="M600 202.3H603L609.6 193.2V187.2C609.6 187.2 614.2 186.9 613.7 194.8C613.2 202.7 613.7 200.7 613.7 200.7C613.7 200.7 623.6 200.7 624.4 201.6C625 202.2 625.3 212 625.4 217.3C625.5 220 623.8 222.5 621.3 223.1C620.9 223.2 620.6 223.2 620.2 223.2C617.7 223.2 605.2 221.2 605.2 221.2H600V202.3Z" fill="#1B0637"/>
<path d="M591.4 200.6L593.3 221.2H598.4V201L591.4 200.6Z" fill="#1B0637"/>
<path d="M178.2 209.1C178 212.3 173.9 216.6 175.1 219.5C177.5 224.9 176.1 231.4 173 236.5C169.9 241.6 165.3 245.5 160.8 249.3C161 241.4 160.3 233.5 158.7 225.8C158.2 223.4 157.4 220.7 155.2 219.6C152.3 218.2 148.7 220.2 145.8 219C142.7 217.6 142 213.4 139.4 211.2C137 209.2 133.5 209.5 130.6 210.4C127.7 211.4 125 213 122 213.7C119 214.4 115.4 213.8 113.7 211.2C112.7 209.6 113.4 210.6 112.4 208.9C112.4 208.9 106.5 209.1 104.5 202.3C104.5 202.3 101.7 194.7 107.8 191.4C107.8 191.4 109.2 177.7 123 183.9C127 185.7 131.7 180 135.5 181.9C138.7 183.5 139.7 188 142.9 189.6C146.6 191.5 150.9 188.7 155 188.5C160.3 188.3 165.2 193.2 165 198.6C165 198.6 165.7 195.9 170.1 197.1C174.6 198.1 178.5 202.8 178.2 209.1Z" fill="#1B0637"/>
<path d="M172.3 231.1C172.3 229.6 172.1 228 171.5 226.6C170.9 225.4 168.8 222.8 166.4 222.6L166.8 208.5C166.9 205.6 164.7 203.1 161.8 202.8L134.1 199.9C124.6 198.9 116.1 206 115.5 215.6C114.8 226.2 114.4 239.3 115.7 247.2C118.2 263.2 130.5 265.2 130.5 265.2L130.2 276.4C129.7 288.3 138.6 295.5 147.8 295.5C157.1 295.5 165.5 287.6 165.2 275.8L166.1 239.8C167.6 239.7 169.1 238.9 170.1 237.8C171.6 236 172.3 233.6 172.3 231.1Z" fill="#FFBE9D"/>
<path d="M121.5 224.3C121.5 225.4 122.3 226.3 123.5 226.4C124.6 226.5 125.6 225.6 125.6 224.6C125.6 223.5 124.8 222.6 123.6 222.5C122.5 222.4 121.6 223.2 121.5 224.3Z" fill="#1B0637"/>
<path d="M118.2 222.4C118.5 222.7 120 221.5 122.2 221.5C124.4 221.5 126 222.6 126.3 222.3C126.4 222.2 126.2 221.7 125.5 221.2C124.8 220.7 123.6 220.2 122.3 220.2C120.9 220.2 119.8 220.7 119.1 221.2C118.3 221.8 118 222.3 118.2 222.4Z" fill="#1B0637"/>
<path d="M142.8 224.7C142.8 225.8 143.6 226.7 144.8 226.8C145.9 226.9 146.9 226 146.9 225C146.9 223.9 146.1 223 144.9 222.9C143.8 222.8 142.9 223.6 142.8 224.7Z" fill="#1B0637"/>
<path d="M139.8 222.8C140.1 223.1 141.6 221.9 143.8 221.9C146 221.9 147.6 223 147.9 222.7C148 222.6 147.8 222.1 147.1 221.6C146.4 221.1 145.2 220.6 143.9 220.6C142.5 220.6 141.4 221.1 140.7 221.6C139.9 222.2 139.7 222.7 139.8 222.8Z" fill="#1B0637"/>
<path d="M131.8 239.1C131.8 239 130.4 238.7 128.2 238.5C127.6 238.4 127.1 238.3 127 237.9C126.9 237.5 127.1 236.9 127.4 236.2C127.9 234.8 128.5 233.4 129.1 231.9C131.4 225.8 133.1 220.8 132.8 220.7C132.6 220.6 130.5 225.5 128.2 231.6C127.6 233.1 127.1 234.5 126.6 235.9C126.4 236.5 126 237.3 126.3 238.1C126.5 238.5 126.9 238.8 127.2 238.9C127.6 239 127.9 239 128.2 239C130.4 239.3 131.8 239.3 131.8 239.1Z" fill="#1B0637"/>
<path d="M130.3 265.2C130.3 265.2 141 265.9 151.7 259.5C151.7 259.5 146.2 271.5 130.2 270L130.3 265.2Z" fill="#EB996E"/>
<path d="M138.8 218.9C139 219.5 141.2 219.2 143.8 219.5C146.4 219.8 148.5 220.5 148.8 220C149 219.7 148.6 219.2 147.7 218.6C146.9 218 145.5 217.5 144 217.3C142.4 217.1 141 217.4 140.1 217.8C139.2 218.2 138.8 218.6 138.8 218.9Z" fill="#1B0637"/>
<path d="M117.8 217.2C118.2 217.7 119.7 217.2 121.5 217.2C123.3 217.1 124.9 217.5 125.2 217C125.4 216.7 125.1 216.2 124.4 215.8C123.7 215.3 122.6 214.9 121.4 215C120.1 215 119.1 215.5 118.4 216C117.8 216.5 117.6 217 117.8 217.2Z" fill="#1B0637"/>
<path d="M132.3 251.6C132.3 251.6 132.5 251.3 132.9 251C133.3 250.7 134.1 250.5 134.9 250.5C135.7 250.5 136.4 250.7 136.9 251C137.3 251.3 137.5 251.5 137.5 251.6C137.4 251.7 136.4 251 134.9 251C133.4 251 132.4 251.7 132.3 251.6Z" fill="#EB996E"/>
<path d="M164.9 235.4C164.9 235.3 165.6 235.2 166.4 234.7C167.2 234.2 168.2 233 168.3 231.4C168.3 229.8 167.5 228.6 166.6 228C165.8 227.4 165.1 227.5 165.1 227.4C165.1 227.3 165.8 227.1 166.8 227.7C167.8 228.3 168.8 229.7 168.8 231.4C168.8 232.3 168.5 233.1 168.1 233.7C167.7 234.3 167.1 234.7 166.7 235C165.6 235.5 164.9 235.5 164.9 235.4Z" fill="#EB996E"/>
<path d="M112.3 196.1C109.7 203 115.8 208 120.6 209.1C127.3 210.7 134.4 206.4 139 208.2C142.4 209.5 145.6 212.2 149.2 211.6C151 211.3 152.7 210.3 154.4 210.8C156.6 211.4 157.5 214.1 157.4 216.3C157.3 219.1 156.4 221.9 156.7 224.7C157.1 227.5 159.5 230.4 162.2 229.6C164.8 228.9 166.5 226.3 166.7 223.6C167 219.8 166.3 215.2 166.5 211.3C166.7 207.9 166.7 204.2 164.5 201.5C162.3 198.9 158.6 198.2 155.2 197.7C140.9 195.7 126.5 195 112 195.4" fill="#1B0637"/>
<path d="M103.9 197.5C103.9 197.5 103.8 197.3 103.8 196.8C103.8 196.3 103.8 195.6 104.2 194.7C104.6 193.9 105.4 192.9 106.6 192.4C107.2 192.1 108 192.1 108.7 192.2C109.4 192.3 110.2 192.5 111 192.5C111.8 192.6 112.6 192.4 113.4 192C114.2 191.6 114.9 191 115.6 190.4C116.3 189.8 117 189.1 117.9 188.5C118.7 187.9 119.7 187.4 120.8 187.2C123 186.8 125.4 187.3 127.5 188.3C129.6 189.4 131.5 190.9 133.4 192.5C135.3 194.1 137.2 195.6 139.3 196.5C140.4 196.9 141.5 197.1 142.5 197C143.6 196.9 144.6 196.5 145.5 196C147.4 195 149.2 193.9 151.1 193.4C153 192.9 154.8 192.8 156.5 193.2C158.1 193.6 159.5 194.4 160.4 195.3C161.3 196.2 161.9 197.2 162.3 198.1C162.6 199 162.7 199.7 162.7 200.2C162.7 200.4 162.7 200.6 162.7 200.7C162.7 200.8 162.7 200.9 162.7 200.9C162.6 200.9 162.8 199.9 162.2 198.2C161.9 197.4 161.3 196.4 160.3 195.6C159.4 194.7 158.1 194 156.5 193.7C154.9 193.4 153.1 193.4 151.3 193.9C149.5 194.4 147.8 195.5 145.8 196.5C144.8 197 143.8 197.4 142.6 197.6C141.4 197.7 140.2 197.5 139.1 197.1C136.9 196.2 135 194.6 133 193C131.1 191.4 129.2 189.9 127.2 188.8C125.1 187.8 122.9 187.3 120.8 187.7C118.7 188 117.2 189.5 115.8 190.8C115.1 191.4 114.3 192 113.5 192.4C112.7 192.8 111.8 193 110.9 192.9C110.1 192.8 109.3 192.6 108.6 192.5C107.9 192.4 107.2 192.5 106.6 192.7C105.4 193.1 104.7 194 104.3 194.8C103.9 195.6 103.8 196.3 103.8 196.8C103.9 197.3 104 197.5 103.9 197.5Z" fill="#455A64"/>
<path d="M111.7 208.7C111.7 208.7 111.5 208.8 111 208.7C110.5 208.6 109.9 208.3 109.4 207.5C108.9 206.7 108.8 205.6 109 204.4C109.2 203.2 109.7 201.8 110.6 200.5C111.5 199.2 112.9 198.1 114.7 197.4C116.4 196.8 118.5 196.6 120.5 197.3C122.5 197.9 124.3 199.2 126.1 200.5C127.9 201.8 129.8 203.2 132 203.8C134.2 204.5 136.5 204.1 138.6 203.4C140.7 202.7 142.6 201.7 144.3 200.7C146.1 199.7 147.8 198.7 149.4 198C151.1 197.3 152.8 196.8 154.3 196.7C157.5 196.5 159.9 197.8 161.2 199C161.8 199.6 162.2 200.2 162.4 200.6C162.6 201 162.7 201.2 162.6 201.3C162.5 201.3 162.3 200.3 161 199.2C159.8 198 157.4 196.9 154.3 197.1C152.8 197.2 151.2 197.7 149.5 198.4C147.9 199.1 146.2 200.1 144.4 201.1C142.6 202.1 140.7 203.2 138.6 203.9C136.5 204.6 134 205 131.7 204.3C129.4 203.6 127.5 202.2 125.7 200.9C123.9 199.6 122.1 198.4 120.2 197.8C118.3 197.2 116.3 197.3 114.7 197.9C113 198.5 111.7 199.6 110.8 200.8C109.9 202 109.4 203.3 109.2 204.5C109 205.7 109.1 206.8 109.5 207.5C109.9 208.2 110.5 208.6 111 208.7C111.4 208.7 111.6 208.6 111.7 208.7Z" fill="#455A64"/>
<path d="M172.9 235.3C172.9 235.3 173.3 234.8 173.8 233.9C174.3 233 174.9 231.5 175 229.6C175 228.7 175 227.6 174.6 226.6C174.3 225.5 173.7 224.5 173 223.5C172.3 222.5 171.5 221.4 170.7 220.2C170 219 169.3 217.6 169.4 216C169.4 214.4 170.2 213.1 170.7 211.9C171.3 210.7 171.8 209.4 171.8 208.2C171.9 205.7 170.4 203.6 168.8 202.7C167.2 201.7 165.5 201.7 164.5 201.9C163.4 202.1 162.9 202.3 162.9 202.3C162.9 202.3 163 202.2 163.3 202.1C163.6 202 164 201.8 164.5 201.7C165.5 201.5 167.3 201.4 169 202.4C170.7 203.3 172.3 205.5 172.2 208.2C172.2 209.5 171.7 210.9 171.1 212.1C170.5 213.3 169.8 214.6 169.8 216C169.7 217.4 170.3 218.7 171 219.9C171.7 221.1 172.5 222.1 173.2 223.2C173.9 224.3 174.5 225.4 174.8 226.5C175.1 227.6 175.2 228.7 175.1 229.7C175 231.7 174.3 233.2 173.7 234.1C173.4 234.6 173.1 234.9 173 235.1C173 235.2 172.9 235.3 172.9 235.3Z" fill="#455A64"/>
<path d="M131 223.6C130.9 223.6 131 222.7 130.6 221.1C130.2 219.6 129.2 217.3 126.8 215.6C125.7 214.7 124.2 214 122.5 213.7C120.8 213.4 119 213.5 117.2 214.2C116.3 214.5 115.5 215 114.7 215.6C113.9 216.2 113.2 216.9 112.6 217.7C111.4 219.3 110.7 221.5 110.7 223.6C110.7 225.8 111.4 227.9 112.6 229.5C113.2 230.3 113.9 231.1 114.7 231.6C115.5 232.2 116.3 232.7 117.2 233C119 233.7 120.8 233.7 122.5 233.5C124.2 233.2 125.6 232.5 126.8 231.6C129.1 229.9 130.2 227.6 130.6 226.1C130.9 224.6 130.9 223.6 131 223.6C131 223.6 131.1 224.5 130.8 226.1C130.4 227.7 129.4 230 127.1 231.9C125.9 232.8 124.4 233.6 122.7 233.9C121 234.2 119 234.2 117.2 233.5C116.3 233.2 115.4 232.7 114.5 232.1C113.7 231.5 112.9 230.7 112.3 229.9C111 228.2 110.3 226 110.2 223.7C110.2 221.4 111 219.2 112.3 217.5C112.9 216.6 113.7 215.9 114.5 215.3C115.3 214.7 116.2 214.2 117.2 213.9C119.1 213.2 121 213.2 122.7 213.5C124.4 213.8 125.9 214.6 127.1 215.5C129.5 217.3 130.5 219.7 130.8 221.3C131.1 222.7 131 223.6 131 223.6Z" fill="#1B0637"/>
<path d="M154.4 223.6C154.3 223.6 154.4 222.7 154 221.1C153.6 219.6 152.6 217.3 150.2 215.6C149.1 214.7 147.6 214 145.9 213.7C144.2 213.4 142.4 213.5 140.6 214.2C139.7 214.5 138.9 215 138.1 215.6C137.3 216.2 136.6 216.9 136 217.7C134.8 219.3 134.1 221.5 134.1 223.6C134.1 225.8 134.8 227.9 136 229.5C136.6 230.3 137.3 231.1 138.1 231.6C138.9 232.2 139.7 232.7 140.6 233C142.4 233.7 144.2 233.7 145.9 233.5C147.6 233.2 149 232.5 150.2 231.6C152.5 229.9 153.6 227.6 154 226.1C154.4 224.6 154.4 223.6 154.4 223.6C154.4 223.6 154.5 224.5 154.2 226.1C153.8 227.7 152.8 230 150.5 231.9C149.3 232.8 147.8 233.6 146.1 233.9C144.4 234.2 142.4 234.2 140.6 233.5C139.7 233.2 138.8 232.7 137.9 232.1C137.1 231.5 136.3 230.7 135.7 229.9C134.4 228.2 133.7 226 133.6 223.7C133.6 221.4 134.4 219.2 135.7 217.5C136.3 216.6 137.1 215.9 137.9 215.3C138.7 214.7 139.6 214.2 140.6 213.9C142.5 213.2 144.4 213.2 146.1 213.5C147.8 213.8 149.3 214.6 150.5 215.5C152.9 217.3 153.9 219.7 154.2 221.3C154.6 222.7 154.4 223.6 154.4 223.6Z" fill="#1B0637"/>
<path d="M134.4 221.9C134.5 222 134.4 222 134.4 221.9V221.8V222C134.1 222.1 133.5 222.2 132.7 222.2C131.7 222.2 130.9 222.1 130.9 221.9C130.9 221.8 131.7 221.6 132.7 221.6C133.5 221.6 134.1 221.7 134.4 221.8V222V221.9C134.4 221.8 134.5 221.9 134.4 221.9Z" fill="#1B0637"/>
<path d="M166.8 224.2C166.8 224.3 164 224.3 160.5 224C157 223.8 154.2 223.4 154.2 223.3C154.2 223.2 157 223.2 160.5 223.5C164 223.7 166.8 224 166.8 224.2Z" fill="#1B0637"/>
<path d="M141 238.6C141.1 238.6 141.2 239.2 141.1 240.2C141 241.2 140.4 242.6 139.1 243.6C137.9 244.6 136.4 244.9 135.4 244.8C134.4 244.8 133.8 244.5 133.8 244.4C133.8 244.3 134.4 244.5 135.4 244.4C136.3 244.4 137.7 244 138.8 243.1C139.9 242.2 140.5 241 140.7 240C141 239.2 140.9 238.6 141 238.6Z" fill="#1B0637"/>
<path d="M101.4 310.4C101.4 310.4 101.4 310.5 101.4 310.7C101.4 310.9 101.4 311.2 101.4 311.6C101.4 312.5 101.4 313.7 101.4 315.2C101.4 318.4 101.4 322.9 101.5 328.5C101.5 339.7 101.2 355.2 100.3 372.3C99.4 389.4 98.5 404.8 97.9 416.1C97.6 421.7 97.4 426.2 97.2 429.4C97.1 430.9 97.1 432.1 97 433C97 433.4 97 433.7 96.9 433.9C96.9 434.1 96.9 434.2 96.9 434.2C96.9 434.2 96.9 434.1 96.9 433.9C96.9 433.7 96.9 433.4 96.9 433C96.9 432.1 96.9 430.9 97 429.4C97.1 426.3 97.3 421.7 97.5 416.1C98 404.9 98.9 389.4 99.7 372.3C100.6 355.2 101 339.7 101.1 328.5C101.1 322.9 101.2 318.4 101.2 315.2C101.2 313.7 101.2 312.4 101.2 311.6C101.2 311.2 101.2 310.9 101.2 310.7C101.4 310.5 101.4 310.4 101.4 310.4Z" fill="#1B0637"/>
<path d="M198 293.2C192.6 287 182.1 286.1 177.4 289.4C172.7 292.8 170.1 298.5 169.7 304.2C169.2 309.9 170.7 315.7 172.9 321C176.4 329.5 181.6 336.4 189.3 345.2L209.3 371.4L170.7 409L186.7 434.2L219.5 407.8L246.6 379.1" fill="#EE5062"/>
<path d="M58.6 374C58.6 374 59.3 373.5 60.7 373C62 372.5 64 372.1 66.2 372.3C68.4 372.4 70.3 373 71.6 373.6C72.9 374.2 73.6 374.8 73.6 374.8C73.6 374.9 72.8 374.4 71.5 373.9C70.2 373.4 68.3 372.9 66.2 372.7C64.1 372.6 62.2 372.9 60.8 373.3C59.4 373.7 58.6 374.1 58.6 374Z" fill="#1B0637"/>
<path d="M203.2 299C189.7 281.2 175.2 282.7 167.9 282.5V274.7C162.4 274.7 155 279.6 151.2 283.1L147.4 288.3C145.4 282.5 140.8 277.9 135 276.1C131.5 275 128.6 274.7 128.6 274.7V281.7C110.5 282.2 100.9 287.1 88.8 301.1C88.2 301.8 86.9 303.1 85.5 304.4L49.8 346.4C42.5 354.5 35.8 365.6 37.4 376.4C39.1 388.6 46.2 396.6 59.8 405.7L97.4 430.1L97.2 434.3H186.9C186.9 434.3 247.7 389.4 249.2 372.8C250.3 359.6 229.3 331.8 203.2 299ZM98.7 394.4L72.4 374.8L100.8 345.4L98.7 394.4ZM184.9 395.9L184.2 381.4L188 343.2C195.5 351.8 209.4 368.9 209.4 371.4L184.9 395.9Z" fill="#EE5062"/>
<path d="M167.9 282.5C167.9 282.5 167.7 282.9 167.2 283.7C166.7 284.4 166 285.5 165.1 286.8C163.3 289.4 160.6 292.9 157.2 296.3C156.4 297.2 155.5 298 154.6 298.7L154.2 299.1V298.5C154.2 296.6 153.7 294.8 153 293.3C152.3 291.8 151.4 290.6 150.5 289.8C149.6 288.9 148.8 288.3 148.2 288.2C147.5 288.1 147.2 288.4 147.2 288.4C147.2 288.4 147.4 288 148.2 288.1C148.9 288.2 149.8 288.8 150.7 289.7C151.6 290.6 152.6 291.7 153.3 293.3C154.1 294.8 154.6 296.7 154.6 298.7L154.2 298.5C155 297.7 155.9 296.9 156.7 296.1C160.1 292.7 162.8 289.3 164.6 286.8C165.5 285.6 166.2 284.6 166.8 283.8C167.5 282.9 167.8 282.5 167.9 282.5Z" fill="#1B0637"/>
<path d="M128.5 281.7C128.5 281.7 128.8 282 129.3 282.6C129.8 283.3 130.5 284.2 131.3 285.2C133 287.4 135.2 290.6 137.7 294C138.3 294.8 138.8 295.5 139.3 296.3L138.8 296.4C139.4 294.7 140 293.1 140.8 291.8C141.6 290.5 142.7 289.5 143.7 289C144.7 288.4 145.7 288.3 146.3 288.3C146.9 288.3 147.3 288.4 147.3 288.4C147.3 288.4 147 288.4 146.3 288.4C145.7 288.5 144.8 288.7 143.9 289.2C143 289.8 142 290.7 141.2 292C140.4 293.3 139.9 294.9 139.3 296.6L139.1 297.1L138.8 296.7C138.3 296 137.7 295.2 137.2 294.4C134.7 290.9 132.5 287.8 130.9 285.5C130.2 284.4 129.5 283.5 129 282.8C128.7 282.1 128.5 281.7 128.5 281.7Z" fill="#1B0637"/>
<g opacity="0.1">
<g opacity="0.1">
<g opacity="0.1">
<path opacity="0.1" d="M147.3 288.3C150.3 291.4 151.8 296.3 151.2 300.6C151 302.1 150.8 304 152.2 304.5C153.1 304.9 154.2 304.2 155 303.6C160.8 298.9 165.7 293 169.1 286.4C169.4 285.9 169.7 285.3 169.6 284.7C169.6 284.1 169 283.5 168.4 283.5C168 283.5 167.6 283.9 167.4 284.2C163.2 289 158.6 294 154.5 298.8C154.7 296 153.8 293.4 152.2 291.4C150.5 289.4 148.7 287.4 147.3 288.3Z" fill="black"/>
</g>
</g>
</g>
<path d="M185.7 432.6C185.7 432.6 185.6 432.5 185.4 432.2C185.2 431.9 184.9 431.5 184.6 430.9C183.9 429.7 182.8 428.1 181.5 426.1C178.9 422 175.2 416.2 171 409.5L170.9 409.3L171 409.2C173.9 406.3 177.1 403.1 180.4 399.8C188.4 391.9 195.6 384.8 200.8 379.6C203.4 377.1 205.5 375 207 373.5C207.7 372.8 208.3 372.3 208.7 371.9C209.1 371.5 209.3 371.3 209.3 371.4C209.3 371.4 209.1 371.6 208.8 372C208.4 372.4 207.8 373 207.2 373.7C205.7 375.2 203.6 377.3 201.1 379.9C195.9 385.1 188.7 392.3 180.8 400.2C177.5 403.5 174.3 406.6 171.4 409.5V409.2C175.6 416 179.2 421.8 181.8 425.9C183 427.9 184 429.6 184.7 430.7C185 431.2 185.3 431.7 185.5 432C185.6 432.5 185.7 432.6 185.7 432.6Z" fill="#1B0637"/>
<path d="M174.6 292.6C174.6 292.6 174.6 292.7 174.5 292.8C174.4 292.9 174.2 293.1 174 293.3C173.6 293.8 173 294.5 172.3 295.4C170.9 297.3 169.1 300.3 168.5 304.5C167.8 308.7 168.5 313.8 170.7 318.9C171.8 321.4 173.2 324.1 175.1 326.4C177 328.8 179 331.2 181 333.8C189.1 344 196 353.4 201.1 360.2C203.6 363.6 205.7 366.3 207.1 368.3C207.8 369.2 208.3 370 208.7 370.5C208.9 370.7 209 370.9 209.1 371.1C209.2 371.2 209.2 371.3 209.2 371.3C209.2 371.3 209.1 371.2 209 371.1C208.9 371 208.7 370.8 208.5 370.6C208.1 370.1 207.5 369.4 206.8 368.5C205.3 366.6 203.2 363.9 200.7 360.5C195.5 353.8 188.5 344.3 180.5 334.2C178.5 331.7 176.5 329.2 174.6 326.8C172.7 324.4 171.3 321.7 170.2 319.1C167.9 313.9 167.3 308.6 168.1 304.4C168.8 300.1 170.7 297.1 172.1 295.2C172.8 294.3 173.4 293.6 173.9 293.1C174.1 292.9 174.3 292.7 174.4 292.6C174.6 292.7 174.6 292.6 174.6 292.6Z" fill="#1B0637"/>
<path d="M208.4 305.6C208.4 305.6 207.8 305.8 206.9 306.3C206 306.8 204.7 307.7 203.3 309C202 310.4 200.6 312.2 199.3 314.3C198 316.4 196.6 318.9 194.8 321.3C193 323.7 190.7 325.5 188.4 326.6C186.1 327.7 183.8 328.2 181.8 328.2C179.9 328.3 178.3 328 177.3 327.8C176.8 327.7 176.4 327.5 176.1 327.4C175.8 327.3 175.7 327.2 175.7 327.2C175.7 327.1 178 328 181.8 327.8C183.7 327.7 185.9 327.2 188.2 326.1C190.5 325 192.6 323.3 194.4 320.9C196.2 318.6 197.5 316.1 198.9 314C200.2 311.8 201.7 310 203 308.6C204.4 307.2 205.7 306.4 206.7 305.9C207.2 305.7 207.6 305.5 207.9 305.4C208.2 305.6 208.4 305.5 208.4 305.6Z" fill="#FAFAFA"/>
<path d="M184.5 393.5C184.5 393.5 184.4 393.5 184.3 393.5C184.1 393.5 183.9 393.4 183.6 393.3C183.3 393.2 182.9 393.2 182.5 393.1C182.1 393 181.6 393 181 392.9C178.7 392.7 175.3 393 171.3 394.1C169.3 394.7 167.2 395.4 165 396.4C162.8 397.4 160.5 398.6 158 399.8C155.5 401 152.8 402.1 149.9 402.9C148.4 403.3 146.9 403.5 145.4 403.6C143.8 403.7 142.2 403.6 140.7 403.3C137.5 402.7 134.7 401.3 132.1 399.8C129.5 398.3 127.2 396.5 125 394.9C120.6 391.6 116.5 388.9 112.5 387.7C110.5 387.1 108.7 386.8 107 386.8C105.4 386.8 104 387 102.8 387.3C100.6 387.9 99.5 388.7 99.5 388.6C99.5 388.6 99.6 388.5 99.7 388.5C99.9 388.4 100.1 388.3 100.3 388.1C100.8 387.8 101.7 387.4 102.8 387.1C103.9 386.8 105.3 386.5 107 386.5C108.7 386.5 110.6 386.7 112.6 387.3C116.7 388.4 120.9 391.2 125.3 394.4C127.5 396 129.8 397.7 132.4 399.3C134.9 400.8 137.8 402.1 140.8 402.8C142.3 403.1 143.9 403.2 145.4 403.1C146.9 403 148.4 402.8 149.8 402.4C152.7 401.7 155.3 400.5 157.8 399.4C160.3 398.2 162.6 397 164.8 396.1C167 395.1 169.2 394.4 171.2 393.8C175.2 392.7 178.6 392.5 181 392.7C183.3 393 184.5 393.5 184.5 393.5Z" fill="#FAFAFA"/>
<path d="M85.7 384.6C85.7 384.6 85.7 384.7 85.8 384.9C85.8 385.1 85.9 385.5 85.9 385.9C86 386.8 86 388.1 85.7 389.6C85.4 391.2 84.8 393 83.6 394.7C82.4 396.5 80.5 397.9 78.5 399.1C76.4 400.3 74.4 401.4 72.8 402.6C71.1 403.8 69.8 405.1 68.9 406.3C68 407.6 67.8 408.8 67.7 409.7C67.7 410.6 67.8 411 67.8 411C67.8 411 67.7 410.9 67.7 410.7C67.6 410.5 67.6 410.1 67.5 409.7C67.4 408.8 67.7 407.5 68.5 406.1C69.3 404.7 70.7 403.4 72.4 402.2C74.1 401 76.1 399.9 78.1 398.7C80.1 397.5 81.9 396.1 83.1 394.5C84.3 392.9 84.9 391.1 85.2 389.6C85.5 388.1 85.5 386.8 85.5 386C85.7 385.1 85.6 384.6 85.7 384.6Z" fill="#FAFAFA"/>
<path d="M236.6 343.2C236.6 343.3 234.1 343.3 230.7 345.1C229 345.9 227.1 347.3 225.4 349.1C224.6 350 223.8 351.1 223.1 352.3C222.4 353.5 222 354.9 221.3 356.2C220.7 357.6 219.8 358.8 218.7 359.7C217.6 360.6 216.4 361.3 215.1 361.7C212.6 362.6 210.2 362.6 208.3 362.5C206.3 362.4 204.8 362.1 203.7 362C202.6 361.8 202 361.7 202 361.7C202 361.7 202.6 361.7 203.7 361.8C204.8 361.9 206.3 362.1 208.3 362.2C210.2 362.2 212.5 362.1 214.9 361.3C217.3 360.5 219.7 358.7 220.8 356C221.4 354.7 221.9 353.3 222.6 352.1C223.3 350.8 224.1 349.7 225 348.8C226.8 346.9 228.8 345.6 230.5 344.7C232.3 343.9 233.8 343.5 234.9 343.3C235.4 343.2 235.9 343.2 236.1 343.2C236.4 343.2 236.6 343.2 236.6 343.2Z" fill="#FAFAFA"/>
<path d="M186.9 351.7C186.9 351.7 186.8 351.7 186.7 351.8C186.5 351.8 186.3 351.9 186 351.9C185.4 352 184.5 352.2 183.4 352.4C181.1 352.8 177.7 353.2 173.5 353.1C169.3 353 164.3 352.5 159.1 350.7C156.5 349.8 153.9 348.5 151.2 347C148.6 345.6 145.9 344 142.9 343C141.4 342.5 139.9 342.1 138.4 342C136.9 341.9 135.4 341.9 133.9 342.2C131 342.7 128.3 343.9 125.9 345.1C121 347.7 117 350.5 113.3 352.5C109.6 354.5 106.4 355.7 104.1 356.1C103 356.4 102 356.4 101.4 356.4C101.1 356.4 100.9 356.4 100.7 356.4C100.5 356.4 100.5 356.4 100.5 356.4C100.5 356.4 100.6 356.4 100.7 356.4C100.9 356.4 101.1 356.4 101.4 356.3C102 356.2 102.9 356.2 104 355.9C106.3 355.5 109.5 354.3 113.1 352.2C116.7 350.2 120.8 347.3 125.7 344.7C128.2 343.4 130.9 342.3 133.9 341.7C135.4 341.4 137 341.4 138.5 341.5C140.1 341.6 141.6 342 143.1 342.5C146.1 343.6 148.9 345.1 151.5 346.6C154.1 348.1 156.7 349.4 159.3 350.3C164.5 352.2 169.5 352.7 173.6 352.8C177.8 352.9 181.1 352.6 183.4 352.3C184.6 352.1 185.5 352 186.1 351.9C186.4 351.9 186.6 351.8 186.8 351.8C186.8 351.7 186.9 351.7 186.9 351.7Z" fill="#FAFAFA"/>
<path d="M89.1 357.4C89 357.4 89.3 356.8 89 355.9C88.7 355 87.6 353.8 85.9 353.3C85 353 84 352.9 83 352.6C81.9 352.4 80.8 352 79.8 351.1C78.8 350.3 78.1 349.1 77.6 347.9C77.1 346.7 76.8 345.3 76.5 343.9C76.2 342.5 75.9 341.2 75.4 340C74.9 338.8 74.3 337.7 73.5 336.8C72.1 334.9 70.3 333.6 68.7 332.7C67.1 331.9 65.6 331.5 64.6 331.3C63.6 331.1 63 331.1 63 331C63 331 63.1 331 63.4 331C63.7 331 64.1 331 64.6 331.1C65.6 331.2 67.1 331.6 68.8 332.4C70.5 333.2 72.3 334.5 73.8 336.5C74.6 337.5 75.2 338.6 75.8 339.8C76.3 341 76.7 342.4 77 343.8C77.3 345.2 77.6 346.5 78.1 347.7C78.6 348.9 79.3 350 80.2 350.7C81.1 351.5 82.2 351.9 83.2 352.1C84.2 352.4 85.2 352.5 86.1 352.8C87.9 353.3 89.1 354.6 89.3 355.7C89.4 356.2 89.4 356.6 89.3 356.9C89.2 357.3 89.1 357.4 89.1 357.4Z" fill="#FAFAFA"/>
<path d="M168.1 306.2C168.1 306.3 167.1 305.5 165.2 305C164.2 304.8 162.9 304.7 161.5 304.9C160.1 305.1 158.5 305.7 156.8 306.5C155.1 307.3 153.4 308.2 151.4 309.2C149.5 310.2 147.4 311.3 145 311.9C142.6 312.5 140 312.6 137.3 312.2C134.7 311.7 132 310.8 129.5 309.6C124.4 307.1 120.1 303.8 116 301.2C111.9 298.6 107.9 296.6 104.4 295.9C100.8 295.1 97.8 295.3 95.8 295.8C93.8 296.3 92.8 296.9 92.8 296.8C92.8 296.8 93.8 296.2 95.8 295.6C97.8 295.1 100.9 294.7 104.5 295.5C108.2 296.2 112.2 298.1 116.3 300.8C120.4 303.4 124.7 306.7 129.7 309.2C132.2 310.4 134.8 311.3 137.4 311.8C140 312.2 142.6 312.2 144.9 311.6C147.2 311 149.3 310 151.2 309C153.1 308 154.9 307 156.6 306.3C158.3 305.6 159.9 305 161.4 304.8C162.9 304.6 164.2 304.7 165.2 304.9C166.2 305.2 166.9 305.6 167.4 305.8C167.9 306 168.1 306.1 168.1 306.2Z" fill="#FAFAFA"/>
<path d="M162.5 433.1C163.5 433.6 162.4 433 165.3 434.5H181.3L184.5 431.9L172.8 412.7C171.4 413.3 165.1 414.3 163.1 415C161.3 415.6 159.5 415.9 157.6 415.9C155.6 415.9 153.1 415.8 151.4 415.4C151.3 415.4 151.1 415.3 151 415.3C150.7 415.2 150.4 415.1 150.1 415.1C148.4 414.9 147 416.8 148 418.2C149 419.7 153.7 421.5 159.7 421.4C159.8 421.4 159.9 421.4 160 421.4C165.3 421.4 160.4 425.8 157.3 428.5C156.2 429.4 155.6 430.9 155.8 432.3C155.9 432.9 156.1 433.3 156.5 433.6C157.9 434.3 162.5 433.1 162.5 433.1Z" fill="#FFBE9D"/>
<path d="M97.2 430.7C97.2 430.7 97.2 430.6 97.2 430.4C97.2 430.2 97.2 429.9 97.2 429.6C97.2 428.8 97.3 427.8 97.3 426.4C97.4 423.6 97.6 419.6 97.8 414.7C98.2 404.8 98.8 391.1 99.4 376.1C100 361 100.4 347.3 100.7 337.4C100.8 332.5 100.9 328.5 100.9 325.7C100.9 324.3 101 323.3 101 322.5C101 322.2 101 321.9 101 321.7C101 321.5 101 321.4 101 321.4C101 321.4 101 321.5 101 321.7C101 321.9 101 322.2 101 322.5C101 323.3 101 324.3 101 325.7C101 328.5 101 332.5 100.9 337.4C100.8 347.3 100.4 361 99.8 376.1C99.2 391.2 98.6 404.8 98 414.7C97.7 419.6 97.5 423.6 97.3 426.4C97.2 427.8 97.1 428.8 97.1 429.6C97.1 429.9 97 430.2 97 430.4C97.2 430.6 97.2 430.7 97.2 430.7Z" fill="#1B0637"/>
<path d="M140.7 432.6C140.7 432.6 140.7 432.5 140.7 432.2C140.7 431.9 140.6 431.6 140.6 431.1C140.5 430.1 140.4 428.7 140.3 426.9C140.2 425.1 140 422.8 139.9 420.2C139.8 417.6 139.6 414.6 139.6 411.4C139.5 408.1 139.5 404.5 139.5 400.7C139.5 398.8 139.5 396.8 139.5 394.7C139.5 392.7 139.6 390.5 139.6 388.4C139.9 379.8 140.3 370.2 141 360.3C142.4 340.4 144.2 322.4 145.3 309.4C145.9 302.9 146.3 297.6 146.6 294C146.8 292.2 146.9 290.8 147 289.8C147 289.3 147.1 289 147.1 288.7C147.1 288.5 147.1 288.3 147.2 288.3C147.2 288.3 147.2 288.4 147.2 288.7C147.2 289 147.2 289.3 147.1 289.8C147 290.8 146.9 292.2 146.8 294C146.6 297.7 146.2 302.9 145.6 309.5C144.6 322.5 142.8 340.5 141.4 360.5C140.7 370.5 140.2 379.9 140 388.6C139.9 390.8 139.9 392.9 139.8 394.9C139.8 396.9 139.8 398.9 139.7 400.9C139.6 404.7 139.7 408.3 139.7 411.6C139.7 414.9 139.9 417.8 139.9 420.4C140 423 140.1 425.2 140.2 427.1C140.3 428.9 140.3 430.3 140.4 431.3C140.4 431.8 140.4 432.1 140.4 432.4C140.7 432.5 140.7 432.6 140.7 432.6Z" fill="#1B0637"/>
<path d="M148.1 334.1C148.1 334 148.6 333.8 149.2 334.4C149.5 334.7 149.8 335.1 149.7 335.7C149.6 336.3 149.1 336.8 148.5 336.8C147.9 336.9 147.2 336.6 147 336.1C146.8 335.6 146.9 335.1 147.1 334.7C147.4 334 148 334.1 148.1 334.1C148.1 334.2 147.6 334.3 147.4 334.9C147.3 335.2 147.3 335.6 147.4 335.9C147.6 336.2 148 336.4 148.4 336.3C148.8 336.2 149.2 335.9 149.2 335.6C149.3 335.3 149.1 334.9 148.9 334.7C148.5 334.1 148.1 334.2 148.1 334.1Z" fill="#1B0637"/>
<path d="M145.3 379C145.3 378.9 145.8 378.7 146.4 379.3C146.7 379.6 147 380 146.9 380.6C146.8 381.2 146.3 381.7 145.7 381.7C145.1 381.8 144.4 381.5 144.2 381C144 380.5 144.1 380 144.3 379.6C144.6 378.9 145.2 378.9 145.3 379C145.3 379.1 144.8 379.2 144.6 379.8C144.5 380.1 144.5 380.5 144.6 380.8C144.8 381.1 145.2 381.3 145.6 381.2C146 381.1 146.4 380.8 146.4 380.5C146.5 380.2 146.3 379.8 146.1 379.6C145.7 379 145.3 379.1 145.3 379Z" fill="#1B0637"/>
<path d="M217 409.8C217 409.8 216.5 409.8 215.7 409.6C214.8 409.4 213.6 409.1 212.2 408.5C209.3 407.3 205.6 404.7 203.2 400.5C202 398.4 201.3 396.2 200.7 394.3C200.1 392.4 199.4 390.7 198.5 389.4C197.6 388.1 196.7 387.3 196 386.9C195.3 386.4 194.8 386.3 194.8 386.2C194.8 386.2 194.9 386.2 195.1 386.3C195.3 386.4 195.6 386.5 196 386.7C196.8 387.1 197.8 387.9 198.7 389.2C199.6 390.5 200.4 392.2 201.1 394.2C201.8 396.1 202.4 398.3 203.6 400.3C205.9 404.4 209.5 407 212.3 408.3C215.1 409.5 217 409.7 217 409.8Z" fill="#FAFAFA"/>
<path d="M319.4 434.5L302.4 385.2L310.3 337.9C312.6 325.1 313.9 313.9 310.4 307.5C301.2 290.4 290.2 288.8 275 284.9C271.9 284.1 248.2 283.3 245.5 283.9C224.9 286.2 211.7 297.1 204.5 314.9L196.7 346.5L185.9 379.5C183.9 383.5 180.5 386.3 176.4 387.2L135 401.3L135.3 409.4L135 420.4L190.3 410C201.4 407.9 212.7 403.8 215.8 393.1L221.8 375.5C224.7 383 227.9 389.8 227.9 389.8L223.9 434.2L319.4 434.5Z" fill="#505050"/>
<path d="M305.2 346.8L289.4 399.6C287 407.8 280.6 414.2 272.4 416.7L206.6 434.2L197.9 411.5L257.3 389.4L271.9 336.5C271.9 336.5 275.3 306.9 302 308.4" fill="#505050"/>
<path d="M302.1 308.5C302.1 308.5 301.8 308.5 301.3 308.5C300.8 308.5 300 308.4 299 308.5C297 308.6 293.9 308.9 290.2 310.3C288.4 311 286.4 312 284.5 313.5C282.6 314.9 280.8 316.8 279.1 319C275.8 323.5 273.2 329.5 272.2 336.5C268.2 351.2 263.2 369.2 257.7 389.4V389.5H257.6C239.4 396.3 219.3 403.8 198.2 411.6L198.4 411.3C198.9 412.6 199.4 414 199.9 415.3C202.4 421.7 204.8 428 207.1 434L206.8 433.8C227 428.4 246.1 423.4 263.3 418.8C265.5 418.2 267.6 417.7 269.7 417.1C270.7 416.8 271.8 416.6 272.8 416.3C273.8 416 274.8 415.6 275.7 415.2C279.5 413.5 282.7 410.8 285.1 407.8C286.3 406.3 287.3 404.6 288.1 402.9C288.9 401.2 289.4 399.4 290 397.7C291 394.2 292.1 390.9 293 387.7C296.8 375 299.9 364.7 302.1 357.7C303.2 354.2 304 351.5 304.6 349.6C304.9 348.7 305.1 348 305.3 347.5C305.4 347 305.5 346.8 305.5 346.8C305.5 346.8 305.4 347 305.3 347.5C305.2 348 305 348.7 304.7 349.6C304.2 351.5 303.4 354.2 302.3 357.7C300.2 364.8 297.2 375 293.4 387.8C292.5 391 291.5 394.3 290.4 397.8C289.9 399.5 289.4 401.3 288.5 403.1C287.7 404.8 286.7 406.5 285.5 408.1C283.1 411.2 279.8 413.9 275.9 415.7C274.9 416.1 273.9 416.5 272.9 416.9C271.9 417.2 270.8 417.5 269.8 417.7C267.7 418.3 265.6 418.8 263.4 419.4C246.2 424 227.1 429.1 206.9 434.5L206.7 434.6L206.6 434.4C204.3 428.4 201.9 422.1 199.4 415.7C198.9 414.3 198.3 412.9 197.9 411.7L197.8 411.5L198 411.4C219.1 403.6 239.2 396.1 257.4 389.3L257.3 389.5C262.9 369.3 267.9 351.3 271.9 336.6C273 329.5 275.6 323.5 279 318.9C280.7 316.6 282.6 314.8 284.5 313.3C286.4 311.9 288.4 310.8 290.2 310.1C293.9 308.7 297 308.4 299.1 308.4C300.1 308.3 300.9 308.4 301.4 308.4C301.8 308.5 302.1 308.5 302.1 308.5Z" fill="#1B0637"/>
<path d="M260.6 377.6C260.6 377.6 260.3 377.7 259.8 377.7C259.3 377.7 258.6 377.6 257.7 377.5C255.9 377.1 253.5 376.1 251.5 374.2C249.4 372.3 248.1 370.1 247.4 368.4C247.2 368 247.1 367.6 247 367.2C246.9 366.9 246.8 366.6 246.8 366.3C246.7 365.8 246.7 365.5 246.7 365.5C246.8 365.5 247 366.6 247.7 368.2C248.4 369.8 249.8 371.9 251.8 373.7C253.8 375.5 256.1 376.6 257.8 377C259.5 377.5 260.6 377.5 260.6 377.6Z" fill="#1B0637"/>
<path d="M221.6 337.4C221.6 337.4 221.4 338 221 339C220.6 340 220 341.4 219.4 343.2C218.1 346.7 216.3 351.7 216.1 357.5C216 360.4 216.4 363.1 217.2 365.5C217.9 367.9 219 369.9 219.9 371.5C220.9 373.1 221.8 374.4 222.4 375.2C223 376 223.4 376.5 223.4 376.5C223.4 376.5 223.3 376.4 223.1 376.2C222.9 376 222.6 375.7 222.3 375.3C221.6 374.5 220.7 373.3 219.6 371.6C218.6 370 217.5 367.9 216.8 365.5C216 363.1 215.6 360.3 215.6 357.4C215.8 351.5 217.7 346.5 219.1 343C219.8 341.2 220.4 339.8 220.9 338.9C221.3 337.9 221.6 337.4 221.6 337.4Z" fill="#1B0637"/>
<path d="M263.1 396.5C262.9 396.6 262.4 394.4 260.7 392.4C259 390.4 256.9 389.5 257 389.4C257 389.3 257.6 389.5 258.4 389.9C259.2 390.3 260.2 391 261.1 392.1C262 393.1 262.6 394.3 262.9 395.1C263.2 395.9 263.2 396.5 263.1 396.5Z" fill="#1B0637"/>
<path d="M199.1 414.7C199.1 414.7 180.3 416.4 180.6 428.6L204 427.4L199.1 414.7Z" fill="#B78876"/>
<path d="M229.5 209.9C227.8 218.2 226.1 226.5 224.6 234.9C222.6 245.5 220.8 256.5 223.8 266.9C225.4 272.6 228.5 277.7 231.4 282.8C233.1 285.7 234.9 288.7 237.9 290.2C241.9 292.2 247.1 290.6 250.3 287.5C253.5 284.3 255.2 279.9 256.3 275.5C258.5 267 258.9 258.1 259.3 249.3C259.6 240.4 259.8 231.4 257.4 222.8C254.9 214.3 249.3 206.2 241.1 202.8" fill="#1B0637"/>
<path d="M230.8 203.2C233.1 201.4 236.1 200.3 239 200.2C241.4 195.3 247.1 193.1 252.4 192.1C260.2 190.6 259.4 190.4 266.7 193.6C274 196.8 284.4 205.9 285.7 213.8C286.9 221.1 289.1 227 292.3 233.7C294.3 237.8 298.2 240.7 300.5 244.7C303 249 303.4 254.5 301.4 259.1C299.5 263.6 295.5 267.6 295.9 272.5C296.1 275.3 296 277.3 297.1 280C300.9 288.8 299.1 300.6 291 305.7C282.8 310.8 271.1 309 264.8 301.7C259.3 295.4 258.3 286.4 258.8 278C259.3 269.7 261.2 261.4 260.7 253" fill="#1B0637"/>
<path d="M240.1 434.2L240 431.3L197.6 426.8L179 373.5L99.4 371.7L123.5 434.3C162.9 434.5 201.8 434.5 240.1 434.2Z" fill="#1B0637"/>
<path d="M143.6 403.8C144.7 405.8 147.3 406.5 149.3 405.3C151.3 404.2 152 401.6 150.8 399.6C149.7 397.6 147.1 396.9 145.1 398.1C143.2 399.3 142.5 401.8 143.6 403.8Z" fill="white"/>
<path d="M259.5 305.4C269 305.4 277.6 297.3 277.3 285.2L279 216.2C279.1 213.2 276.8 210.7 273.8 210.4L245.4 207.4C235.6 206.4 226.9 213.7 226.3 223.5C225.6 234.4 225.2 247.8 226.5 255.9C229.1 272.3 241.7 274.4 241.7 274.4L241.4 285.9C240.9 298.1 250 305.4 259.5 305.4Z" fill="#B78876"/>
<path d="M232.7 232.4C232.7 233.5 233.6 234.5 234.7 234.5C235.9 234.6 236.8 233.7 236.9 232.6C236.9 231.5 236 230.5 234.9 230.5C233.7 230.4 232.7 231.3 232.7 232.4Z" fill="#1B0637"/>
<path d="M229.2 230.5C229.5 230.8 231.1 229.6 233.3 229.6C235.6 229.6 237.2 230.7 237.5 230.5C237.6 230.4 237.4 229.9 236.6 229.4C235.9 228.9 234.7 228.4 233.3 228.4C231.9 228.4 230.7 228.9 230 229.5C229.3 229.8 229.1 230.3 229.2 230.5Z" fill="#1B0637"/>
<path d="M254.5 232.8C254.5 233.9 255.4 234.9 256.5 234.9C257.7 235 258.6 234.1 258.7 233C258.7 231.9 257.8 230.9 256.7 230.9C255.5 230.9 254.6 231.7 254.5 232.8Z" fill="#1B0637"/>
<path d="M251.5 230.9C251.8 231.2 253.4 230 255.6 230C257.9 230 259.5 231.1 259.8 230.9C259.9 230.8 259.7 230.3 258.9 229.8C258.2 229.3 257 228.8 255.6 228.8C254.2 228.8 253 229.3 252.3 229.9C251.6 230.3 251.3 230.8 251.5 230.9Z" fill="#1B0637"/>
<path d="M243.3 247.7C243.3 247.6 241.9 247.3 239.6 247C239 246.9 238.5 246.8 238.4 246.4C238.3 246 238.5 245.4 238.8 244.7C239.3 243.3 239.9 241.8 240.5 240.3C242.9 234 244.6 228.9 244.3 228.8C244 228.7 241.9 233.7 239.5 240C238.9 241.5 238.4 243 237.9 244.4C237.7 245.1 237.3 245.8 237.6 246.7C237.8 247.1 238.2 247.4 238.5 247.5C238.9 247.6 239.2 247.6 239.5 247.6C241.8 247.8 243.3 247.8 243.3 247.7Z" fill="#1B0637"/>
<path d="M241.7 274.4C241.7 274.4 252.7 275.1 263.7 268.5C263.7 268.5 258.4 279.8 242 278.2L241.7 274.4Z" fill="#AA6550"/>
<path d="M244.2 253.1C245 252 246.4 251.4 247.9 251.6C248.9 251.7 249.9 252.2 250.5 253C251.1 253.8 251.2 254.9 250.7 255.7C250.1 256.6 248.8 256.8 247.7 256.4C246.6 256.1 245.7 255.4 244.8 254.7C244.6 254.5 244.3 254.3 244.2 254C244 253.8 243.9 253.4 244.2 253.1Z" fill="#AA6550"/>
<path d="M249.9 249.2C249.5 249.2 249.5 251.6 247.4 253.4C245.3 255.1 242.7 254.9 242.7 255.2C242.7 255.4 243.3 255.7 244.4 255.7C245.5 255.7 247.1 255.4 248.4 254.3C249.7 253.2 250.2 251.8 250.3 250.8C250.4 249.8 250.1 249.2 249.9 249.2Z" fill="#1B0637"/>
<path d="M250.5 226.9C250.7 227.5 253 227.2 255.6 227.5C258.3 227.8 260.4 228.5 260.8 228C261 227.7 260.6 227.2 259.7 226.6C258.8 226 257.5 225.4 255.9 225.3C254.3 225.1 252.8 225.4 251.9 225.8C250.8 226.1 250.4 226.6 250.5 226.9Z" fill="#1B0637"/>
<path d="M230.1 223.9C230.5 224.4 232.1 223.9 233.9 223.9C235.8 223.8 237.4 224.2 237.7 223.7C237.9 223.4 237.6 222.9 236.9 222.4C236.2 221.9 235.1 221.5 233.8 221.6C232.5 221.6 231.4 222.1 230.7 222.6C230.1 223.1 229.9 223.7 230.1 223.9Z" fill="#1B0637"/>
<path d="M226.7 220.8C232.9 217.2 238.9 213.9 242.7 207.9C244.8 213.9 249 216.9 254.5 220.1C260 223.3 266.2 225.2 272.3 227C269.2 230 268.8 234.9 269.5 239.1C270.2 243.3 271.8 247.4 272.1 251.7C272.5 257.4 270.4 263.1 270.2 268.8C270 276.7 273.5 284.1 276.9 291.2L291.7 282.6L289.6 244.1L289.8 216.9L266.7 195.4L237.5 198.6L226.7 220.8Z" fill="#1B0637"/>
<path d="M223.4 301.6C230.9 309.2 230.1 322.7 238.4 329.5C243.5 333.7 250.9 334.1 257.1 332C263.3 329.9 268.5 325.7 273.3 321.2C278.1 316.7 282.6 311.9 288.1 308.3C293.4 304.8 302.4 302.6 303.7 296.4C304.6 291.8 299.8 286.3 298.9 281.8C297.5 274.5 305.3 268.9 306.6 261.7C309.2 247.2 301.5 230.1 293.5 217.7C285.5 205.3 281 191.4 260.7 190.2C242.5 189.4 230.2 198.1 224.1 210.7C221.1 217 220.4 224.2 219.8 231.1C218.4 247.4 217.7 264.7 225.2 279.2C226.8 282.2 228.6 286 226.5 288.7C224.6 291.1 220.2 291 219 293.9C217.9 296.6 221.1 299.3 223.4 301.6ZM246 205C248.4 204.9 255.6 205 263.7 215.7C268.5 222.1 268.5 232.5 268.4 241.5C268.3 248.2 268.4 265.3 268.4 265.3C268.4 265.3 269.5 286.8 262.2 288.7C253.2 291 245.4 289.4 238.7 283C232 276.6 228.1 267.6 226.6 258.5C225.1 249.4 224.2 240 225.4 230.9C226.1 225.5 227.9 219.5 230.9 215C236.9 205.8 246 205 246 205Z" fill="#E8505B"/>
<g opacity="0.3">
<g opacity="0.3">
<g opacity="0.3">
<path opacity="0.3" d="M302.1 289.3C296.1 292.6 292 297.4 287.1 302.2C282.2 307 276.8 311.6 270.1 313.3C263.5 315 255.4 313 252.1 307C270.9 310.2 292.7 295.2 299.1 277.3C299.1 277.3 298.4 279.9 299 282.1C299.6 284.3 302.1 289.3 302.1 289.3Z" fill="black"/>
</g>
</g>
</g>
<g opacity="0.3">
<g opacity="0.3">
<g opacity="0.3">
<path opacity="0.3" d="M227.4 284.3C228.6 289 232.1 293.6 236.5 295.8C237.5 296.3 238.6 296.7 239.4 297.5C240.2 298.3 240.7 299.5 240.3 300.5C239.8 301.6 238.3 302 237.1 301.7C235.9 301.3 235 300.4 234.1 299.6C230.8 296.4 227.5 293.2 226.5 288.8C226.5 288.8 227.5 287.6 227.6 286.6C227.6 285.5 227.4 284.3 227.4 284.3Z" fill="black"/>
</g>
</g>
</g>
<path d="M297.6 280.8C297.6 280.8 297.5 281 297.3 281.4C297.1 281.8 296.8 282.3 296.4 283C295.6 284.4 294.3 286.3 292.5 288.6C290.7 290.9 288.5 293.5 285.6 296.1C282.8 298.7 279.4 301.3 275.4 303.2C273.4 304.1 271.3 304.8 269.3 305.4C267.3 306 265.3 306.4 263.4 306.7C259.6 307.3 256.1 307.3 253.3 307.1C250.4 306.8 248.1 306.3 246.6 305.8C245.8 305.6 245.2 305.3 244.8 305.2C244.4 305.1 244.2 305 244.2 305C244.2 305 245.1 305.2 246.6 305.6C248.1 306 250.4 306.5 253.3 306.7C256.2 306.9 259.6 306.9 263.3 306.2C265.2 305.9 267.1 305.5 269.1 304.9C271.1 304.3 273.1 303.6 275.1 302.7C279 300.8 282.4 298.3 285.2 295.7C288 293.2 290.3 290.6 292.1 288.4C293.9 286.2 295.2 284.3 296.1 282.9C296.6 282.2 296.9 281.7 297.1 281.3C297.4 281 297.6 280.8 297.6 280.8Z" fill="#1B0637"/>
<path d="M251.5 299.3C251.5 299.3 251.1 299.5 250.3 299.6C249.5 299.8 248.4 299.9 247 299.9C244.2 299.9 240.1 299.2 236.4 297C232.6 294.7 230.1 291.5 228.8 289C228.1 287.7 227.7 286.7 227.5 285.9C227.3 285.1 227.2 284.7 227.2 284.7C227.3 284.7 227.7 286.4 229.1 288.8C230.5 291.2 233 294.3 236.6 296.5C240.3 298.7 244.2 299.4 247 299.5C249.8 299.7 251.5 299.2 251.5 299.3Z" fill="#1B0637"/>
<path d="M247.6 324.1C247.6 324.1 247.8 324 248.2 324C248.6 323.9 249.2 323.8 249.9 323.7C251.4 323.4 253.5 322.9 256 322C261.1 320.3 267.7 317 274.3 312.2C280.9 307.4 286.2 302.3 290 298.6C291.9 296.8 293.4 295.3 294.5 294.2C295 293.7 295.4 293.3 295.7 293C296 292.7 296.1 292.6 296.2 292.6C296.2 292.6 296.1 292.8 295.8 293.1C295.5 293.4 295.1 293.8 294.6 294.4C293.6 295.5 292.1 297 290.2 298.9C286.4 302.7 281.1 307.8 274.5 312.7C267.9 317.5 261.2 320.8 256 322.4C253.4 323.2 251.3 323.7 249.9 323.9C249.2 324 248.6 324.1 248.2 324.2C247.9 324.1 247.6 324.1 247.6 324.1Z" fill="#1B0637"/>
<path d="M599.8 345.1L564.5 303.5L564.4 303.6C563 302.2 561.8 301 561.2 300.3C549 286.1 539.3 281.3 520.6 281L484.2 281.8C477.4 282.4 462.1 279.5 447.9 298.3C422.1 330.7 401.3 358.2 402.5 371.2C404 387.7 466.7 434.6 466.7 434.6L552.9 434.5L552.7 427.9L589.9 403.8C603.3 394.7 610.3 386.8 612 374.8C613.6 364.1 607 353.1 599.8 345.1ZM441.8 369.9C441.8 367.4 455.4 351.4 462.8 342.9L466.7 379.7L466 394.1L441.8 369.9ZM551.3 392.5L549.2 344L577.3 373.1L551.3 392.5Z" fill="#505050"/>
<path d="M521 413.3L457.3 444.8C455.6 445.6 453.6 444.9 452.7 443.2L432 401.6C431.2 399.9 431.9 397.9 433.6 397L497.3 365.5C499 364.7 501 365.4 501.9 367.1L522.5 408.8C523.3 410.4 522.6 412.5 521 413.3Z" fill="#E0E0E0"/>
<path d="M477 401.2C478.9 400.1 481.3 400.6 482.4 402.5C483.5 404.4 483 406.8 481.1 407.9C479.2 409 476.8 408.5 475.7 406.6C474.5 404.8 475.1 402.3 477 401.2Z" fill="white"/>
<path d="M548.6 309.5C548.6 309.5 548.6 309.6 548.6 309.8C548.6 310 548.6 310.3 548.6 310.7C548.6 311.6 548.6 312.7 548.6 314.3C548.6 317.4 548.7 321.9 548.7 327.4C548.8 338.5 549.2 353.8 550.1 370.7C550.9 387.6 551.8 402.9 552.3 414C552.5 419.5 552.7 424 552.8 427.1C552.8 428.6 552.9 429.8 552.9 430.7C552.9 431.1 552.9 431.4 552.9 431.6C552.9 431.8 552.9 431.9 552.9 431.9C552.9 431.9 552.9 431.8 552.9 431.6C552.9 431.4 552.9 431.1 552.8 430.7C552.8 429.8 552.7 428.7 552.6 427.1C552.4 424 552.2 419.5 551.9 414C551.3 402.9 550.5 387.6 549.5 370.7C548.6 353.8 548.3 338.4 548.3 327.3C548.3 321.8 548.4 317.3 548.4 314.2C548.4 312.7 548.4 311.5 548.4 310.6C548.4 310.2 548.4 309.9 548.4 309.7C548.6 309.6 548.6 309.5 548.6 309.5Z" fill="#1B0637"/>
<path d="M458.8 287.7C463.4 284.4 468.7 285.4 473.4 288.7C478 292 480.6 297.7 481 303.4C481.4 309.1 480 314.7 477.9 320C474.4 328.4 469.3 335.3 461.6 343.9L441.8 369.8L479.9 407L464.2 432L432.3 406.3C421.4 397.1 412.1 387.7 405.3 377.9" fill="#505050"/>
<path d="M405.2 378C405.2 378 405.3 378.1 405.4 378.3C405.6 378.5 405.8 378.8 406.1 379.2C406.7 380 407.6 381.2 408.8 382.7C411.2 385.7 414.8 389.9 419.8 394.9C422.3 397.4 425.2 400.1 428.3 402.9C431.5 405.7 435.1 408.5 438.9 411.6C446.5 417.7 455 424.6 464.3 432L464 432.1C468.9 424.3 474.2 415.9 479.8 407.2V407.5C473.4 401.3 466.9 394.9 460.1 388.3C453.8 382.1 447.6 376.1 441.6 370.3L441.4 370.1L441.5 369.9C448.5 360.8 455.1 352 461.3 344C465.2 339.6 468.8 335.3 471.7 330.9C474.7 326.5 477 321.9 478.6 317.4C480.2 312.9 481 308.4 480.8 304.3C480.6 300.2 479.3 296.4 477.4 293.6C475.5 290.7 473 288.7 470.6 287.5C468.2 286.3 465.9 285.9 464 286C462.1 286.2 460.8 286.7 459.9 287.2C459 287.7 458.6 288 458.6 287.9C458.6 287.9 458.7 287.8 458.9 287.7C459.1 287.6 459.4 287.3 459.8 287.1C460.6 286.6 462 286 463.9 285.8C465.8 285.6 468.2 286 470.6 287.2C473 288.4 475.6 290.4 477.5 293.3C479.4 296.2 480.7 300 481 304.2C481.3 308.4 480.5 312.9 478.9 317.5C477.3 322 475 326.7 472 331.1C469 335.6 465.4 339.9 461.5 344.3C455.3 352.4 448.7 361.1 441.8 370.3V370C447.8 375.8 453.9 381.9 460.3 388C467 394.6 473.6 401 480 407.2L480.1 407.3L480 407.5C474.4 416.3 469.1 424.7 464.2 432.4L464.1 432.6L463.9 432.4C454.7 425 446.1 418.1 438.5 412C434.7 408.9 431.1 406.1 428 403.3C424.8 400.5 422 397.8 419.5 395.3C414.5 390.3 410.9 386 408.5 383C407.3 381.5 406.5 380.3 405.9 379.5C405.6 379.1 405.4 378.8 405.3 378.6C405.3 378.1 405.2 378 405.2 378Z" fill="#1B0637"/>
<path d="M591 372.4C591 372.5 590.2 372.2 589 371.8C587.8 371.4 586 371.1 584.1 371.2C582.2 371.3 580.5 371.8 579.3 372.3C578.1 372.8 577.4 373.2 577.4 373.1C577.4 373.1 578 372.5 579.2 371.9C580.4 371.3 582.1 370.7 584.1 370.6C586.1 370.5 587.9 370.9 589.2 371.4C590.3 371.9 591 372.3 591 372.4Z" fill="#1B0637"/>
<path d="M487.8 430.9C486.8 431.4 483.7 432.9 480.9 434.3C477.5 436 473.3 435.5 470.4 433.1L466.1 429.6L478.1 410.7C479.5 411.3 485.3 412.1 487.3 412.8C489 413.4 490.9 413.7 492.7 413.7C494.6 413.7 497.1 413.6 498.8 413.2C498.9 413.2 499.1 413.1 499.2 413.1C499.5 413 499.8 412.9 500.1 412.9C501.8 412.7 503.2 414.5 502.2 416C501.2 417.5 496.6 419.3 490.6 419.1C490.5 419.1 490.4 419.1 490.3 419.1C485 419.1 489.9 423.5 493 426.1C494.1 427 494.7 428.4 494.5 429.8C494.4 430.3 494.2 430.8 493.8 431.1C492.3 432 487.8 430.9 487.8 430.9Z" fill="#A36853"/>
<path d="M503.9 298.4C494.7 298.4 486.4 290.6 486.5 278.9L484.8 212.4H485C484.9 209.5 487.1 207.1 490 206.8L517.4 203.9C526.8 202.9 535.2 210 535.8 219.5C536.5 230 536.9 242.9 535.6 250.8C533.1 266.6 521 268.6 521 268.6L521.3 279.6C521.8 291.3 513 298.4 503.9 298.4Z" fill="#A36853"/>
<path d="M529.7 228C529.7 229.1 528.9 230 527.7 230C526.6 230.1 525.6 229.2 525.6 228.2C525.6 227.1 526.4 226.2 527.6 226.2C528.7 226.1 529.6 226.9 529.7 228Z" fill="#1B0637"/>
<path d="M533 226.1C532.7 226.4 531.2 225.2 529 225.2C526.8 225.2 525.2 226.3 525 226C524.9 225.9 525.1 225.4 525.8 224.9C526.5 224.4 527.7 223.9 529 223.9C530.4 223.9 531.5 224.4 532.2 224.9C532.9 225.5 533.1 226 533 226.1Z" fill="#1B0637"/>
<path d="M508.6 228.4C508.6 229.5 507.8 230.4 506.6 230.4C505.5 230.5 504.5 229.6 504.5 228.6C504.5 227.5 505.3 226.6 506.5 226.6C507.7 226.5 508.6 227.3 508.6 228.4Z" fill="#1B0637"/>
<path d="M511.6 226.5C511.3 226.8 509.8 225.6 507.6 225.6C505.4 225.6 503.8 226.7 503.6 226.4C503.5 226.3 503.7 225.8 504.4 225.3C505.1 224.8 506.3 224.3 507.6 224.3C509 224.3 510.1 224.8 510.8 225.3C511.5 225.9 511.7 226.4 511.6 226.5Z" fill="#1B0637"/>
<path d="M519.5 242.7C519.5 242.6 520.8 242.3 523 242.1C523.6 242 524.1 241.9 524.2 241.6C524.3 241.2 524.1 240.6 523.8 239.9C523.3 238.6 522.7 237.1 522.2 235.7C519.9 229.7 518.3 224.7 518.5 224.6C518.7 224.5 520.8 229.3 523.1 235.4C523.7 236.9 524.2 238.3 524.7 239.7C524.9 240.3 525.3 241.1 525 241.9C524.9 242.3 524.4 242.6 524.1 242.7C523.7 242.8 523.4 242.8 523.2 242.8C520.9 242.8 519.5 242.8 519.5 242.7Z" fill="#1B0637"/>
<path d="M521 268.5C521 268.5 510.4 269.2 499.8 262.9C499.8 262.9 505.3 274.8 521.1 273.3L521 268.5Z" fill="#AF1124"/>
<path d="M512.6 222.7C512.4 223.3 510.2 223 507.6 223.3C505 223.6 503 224.3 502.6 223.8C502.4 223.5 502.8 223 503.6 222.4C504.4 221.8 505.7 221.3 507.3 221.1C508.8 220.9 510.2 221.2 511.2 221.6C512.2 222 512.6 222.4 512.6 222.7Z" fill="#1B0637"/>
<path d="M532.2 219.8C531.8 220.3 530.3 219.8 528.5 219.8C526.7 219.7 525.2 220.1 524.8 219.6C524.6 219.3 524.9 218.9 525.6 218.4C526.3 217.9 527.4 217.6 528.6 217.6C529.8 217.6 530.9 218.1 531.5 218.6C532.2 219.1 532.4 219.6 532.2 219.8Z" fill="#1B0637"/>
<path d="M485 227.5C487.7 227 489.8 227.8 490.6 230.5C491.7 234.4 491 236.4 491.2 239.1C492.5 238.7 493.9 238.3 495.2 237.9C494.2 228.8 496.5 222 495.5 212.9C501.1 214.7 508.7 211.3 511.1 205.5C515.7 209 522.5 209.5 527.6 206.7C529.1 209.5 532.4 210.4 534.4 209.9C537.4 209 540.6 204.8 541.4 201.8C543 196.3 542.2 188.5 537.8 185C533.4 181.4 524.5 182.3 521.1 186.8C519.7 188.6 519.6 191.9 517.4 192.3C515.5 192.7 513.7 191.3 511.9 190.4C506.3 187.7 498.7 191.3 497.3 197.3C492.7 194.5 487 192.7 481.8 194.2C476.6 195.7 472.5 201.4 474.2 206.5C474.9 208.6 476.6 210.5 476.8 212.7C477.1 217.1 471.9 221 473.6 225C474.5 227.3 477.3 228.3 478.5 230.4C479.9 232.8 479 235.7 479.1 238.5C479.3 243.1 481.6 249.8 486 251.1" fill="#1B0637"/>
<path d="M485.4 227.4C483.8 227.6 483 228.6 482.4 229.8C481.8 231 481.6 232.4 481.6 233.7C481.6 235.8 482.1 237.9 483.5 239.5C484.9 241.1 487.3 241.8 489.1 240.9" fill="#A36853"/>
<path d="M488.1 237.5C488.1 237.6 487.5 237.8 486.6 237.4C486.1 237.2 485.6 236.9 485.2 236.4C484.8 235.9 484.5 235.2 484.5 234.5C484.4 233.8 484.6 233 484.9 232.5C485.2 231.9 485.6 231.5 486 231.2C486.8 230.7 487.5 230.7 487.4 230.7C487.4 230.8 486.8 230.9 486.2 231.4C485.5 231.9 484.8 233 485 234.4C485.1 235.7 485.9 236.7 486.7 237C487.6 237.5 488.1 237.4 488.1 237.5Z" fill="#AF1124"/>
<path d="M512.5 250.4C514.5 251.8 518.3 251 519.7 249C516.7 247.3 513.8 245.3 511.3 242.8C511.4 242.9 508.6 247.6 512.5 250.4Z" fill="#FAFAFA"/>
<path d="M519 255C518.9 255.1 517.9 254.4 516.5 254.4C515.1 254.4 514 255.1 514 255C514 255 514.2 254.7 514.6 254.4C515 254.1 515.7 253.9 516.5 253.9C517.3 253.9 518 254.2 518.4 254.4C518.9 254.7 519.1 255 519 255Z" fill="#AA6550"/>
<path d="M494.7 319.1C499.1 312.9 504 303.9 506.2 299.7C510.3 291.8 509.6 291.4 508.6 291.1C505.9 290.2 500.8 304.7 500.1 300.9C499.4 297.1 508.4 283.9 505.6 283.1C501.9 282 496.8 297.3 496.3 298.5C495.8 299.7 494 299 494.5 297.9C495.3 296.3 502.9 279.3 499.3 278.2C497.3 277.6 496.6 281.3 496.6 281.3C496.6 281.3 490.6 297.8 488.9 297.2C487.2 296.6 490.4 286.8 491.7 283.6C493 280.4 492 278.5 490.2 279C488.9 279.4 484.7 289.1 483.5 292.4C482.3 295.6 479.1 304.5 477.1 298.7C477.1 298.6 477 298.5 477 298.4C475.2 292.7 472 288.9 470.3 288.4C468.6 287.9 467.4 289.8 468.1 291.4C468.2 291.7 468.3 291.9 468.5 292.2C468.6 292.3 468.7 292.4 468.8 292.6C469.7 294.1 470.6 296.4 471.2 298.2C471.8 299.9 472.1 301.8 472.1 303.6C472.1 305.7 473.1 311.9 473 313.5" fill="#FFAD9D"/>
<path d="M472 311L447.8 359C447.8 359 434.1 319.4 426.7 303.7C423.9 297.7 418.3 293.5 412.8 290.8V290.7C412.4 290.5 412 290.4 411.7 290.2C405.7 287.3 400.2 286.1 399.5 286C374 278.7 349.9 281.2 322.1 291C322.1 291 307.7 294.9 300.6 313.7C294.3 330.7 287.2 356.7 286 361.3C277.3 390.5 289.7 406.7 306.9 404.7C314 403.6 320 397.7 322.7 395.4L331.8 386.8L332 393.4L322 434.5L426.7 434.3L407.8 385.8L412 363.6L419.2 380.7C423.8 391.6 434.3 398.7 446.1 399C458.1 399.3 469.1 392.3 474.1 381.4L498.6 319.7L472 311Z" fill="#EB3349"/>
<path d="M345.9 370.8C345.9 370.8 345.6 371.3 345 372.1C344.4 372.9 343.4 374.1 342.2 375.6C339.8 378.5 336.3 382.4 332.3 386.5C328.3 390.6 324.4 394.2 321.6 396.6C320.2 397.8 319 398.8 318.1 399.4C317.3 400 316.8 400.4 316.8 400.4C316.8 400.4 317.2 400 318 399.3C318.8 398.6 319.9 397.6 321.3 396.3C324.1 393.8 327.9 390.2 331.9 386.1C335.9 382 339.4 378.1 341.9 375.3C343.1 373.9 344.1 372.7 344.8 371.9C345.5 371.3 345.8 370.8 345.9 370.8Z" fill="#1B0637"/>
<path d="M408.2 384.2C408.2 384.2 408.2 384 408.3 383.6C408.4 383.2 408.5 382.7 408.6 382C408.9 380.6 409.2 378.6 409.7 376.2C410.6 371.3 411.9 364.5 412.9 357C413.1 355.1 413.4 353.3 413.6 351.5C413.8 349.7 414 348 413.9 346.4C413.8 343.1 413.1 340.2 412.6 337.8C412.1 335.4 411.6 333.4 411.3 332C411.2 331.3 411.1 330.8 411 330.4C411 330 411 329.8 411 329.8C411 329.8 411.1 330 411.1 330.3C411.2 330.7 411.3 331.2 411.5 331.9C411.8 333.3 412.4 335.2 413 337.6C413.6 340 414.2 343 414.4 346.3C414.5 348 414.3 349.7 414.1 351.5C413.9 353.3 413.7 355.1 413.4 357C412.4 364.6 411.1 371.4 410.1 376.2C409.6 378.6 409.2 380.5 408.9 382C408.8 382.6 408.6 383.2 408.5 383.6C408.2 384.1 408.2 384.2 408.2 384.2Z" fill="#1B0637"/>
<path d="M445.7 370.7C445.6 370.7 445.9 368 446.5 364.8C447.1 361.6 447.7 359 447.8 359C447.9 359 447.6 361.7 447 364.9C446.4 368.2 445.8 370.8 445.7 370.7Z" fill="#1B0637"/>
<path d="M449.4 372.2C449.3 372.2 448.8 369.2 448.4 365.5C448 361.8 447.7 358.7 447.9 358.7C448 358.7 448.5 361.7 448.9 365.4C449.3 369.1 449.5 372.1 449.4 372.2Z" fill="#1B0637"/>
<path d="M372.1 434.3C372 434.3 371.8 418.2 371.8 398.4C371.8 378.6 371.9 362.5 372.1 362.5C372.2 362.5 372.4 378.6 372.4 398.4C372.4 418.2 372.3 434.3 372.1 434.3Z" fill="#1B0637"/>
<g opacity="0.2">
<g opacity="0.2">
<g opacity="0.2">
<path opacity="0.2" d="M411.4 332.7C416.3 342.1 420.6 351.5 421 362.1C421.3 370.4 418 377.2 421.4 384.8C421.2 384.9 418.3 378.5 417 375.4C414.4 369.1 412 363.6 412 363.6C412 363.6 413.8 349.5 414 347.1C414.2 344.6 411.4 332.7 411.4 332.7Z" fill="black"/>
</g>
</g>
</g>
<g opacity="0.2">
<g opacity="0.2">
<g opacity="0.2">
<path opacity="0.2" d="M289.9 380.5C289.9 385.2 287 369.6 289.7 365.8C291.6 363.1 294.9 361.8 298.1 361C301.3 360.2 304.6 359.7 307.5 358C311.2 355.8 313.5 352 316.1 348.6C318.7 345.2 322.1 330.8 326.3 330.5V351.5C316.3 357.8 305.7 364.1 294.7 369.2C294.7 369.4 289.9 373.2 289.9 380.5Z" fill="black"/>
</g>
</g>
</g>
<g opacity="0.2">
<g opacity="0.2">
<g opacity="0.2">
<path opacity="0.2" d="M332 386.9C338.8 383.1 343.8 377.9 351.6 376.6C359.1 375.3 366.7 376.6 374.3 376.1C373.9 372.3 373.5 368.5 373.1 364.7L351.5 364.5L332 386.9Z" fill="black"/>
</g>
</g>
</g>
<path d="M326.3 330.4C326.4 330.4 326.6 335.1 326.6 340.8C326.6 346.6 326.5 351.2 326.3 351.2C326.2 351.2 326 346.5 326 340.8C326.1 335.1 326.2 330.4 326.3 330.4Z" fill="#1B0637"/>
<path d="M289.9 380.4C289.8 380.4 289.7 379.7 289.8 378.5C289.9 377.4 290.2 375.8 290.9 374.1C291.6 372.5 292.6 371.2 293.3 370.3C294.1 369.5 294.7 369.1 294.7 369.1C294.8 369.2 292.6 371.1 291.3 374.3C289.9 377.6 290 380.4 289.9 380.4Z" fill="#1B0637"/>
<path d="M294.2 369.6C294.2 369.6 294.8 369.4 295.8 369C296.8 368.6 298.2 368 300 367.2C303.5 365.6 308.3 363.2 313.3 360.2C318.4 357.2 322.8 354.3 325.9 352C327.4 350.9 328.7 349.9 329.5 349.3C330.3 348.6 330.8 348.2 330.8 348.2C330.8 348.2 330.3 348.5 329.4 349.1C328.4 349.8 327.2 350.6 325.7 351.7C322.6 353.9 318.1 356.8 313.1 359.8C308 362.8 303.3 365.2 299.9 366.9C298.2 367.7 296.9 368.4 295.8 368.9C294.7 369.3 294.2 369.5 294.2 369.6Z" fill="#1B0637"/>
<path d="M425.6 240.8C423.9 238.5 421.2 236.8 420.6 234.1C419.9 230.4 423.6 226.9 422.9 223.2C422.5 220.7 420.1 218.9 417.8 217.9C415.4 216.9 412.8 216.4 410.6 215.1C407.9 213.5 406.1 210.9 404.9 208C404.6 207.2 404.3 206.4 404 205.6C403.7 203.8 403.4 202.1 402.8 200.4C402.7 200 402.6 199.5 402.6 199.1L402.7 200.1C402.4 199.3 401.9 198.5 401.4 197.8C399.6 195.4 395.9 194 393.4 195.7L394.6 194.9C391.7 187.6 384.6 182 376.8 180.9C375.3 180.7 373.8 180.6 372.3 180.7C366.9 180.4 359.1 182 355.8 184.1C351.6 186.8 347.3 190.4 345.2 194.9C344.1 197.3 343.3 200.1 341.2 201.8C338.3 204 334.3 203.1 330.8 203.5C324.9 204.2 319.8 208.7 317.8 214.2C315.8 219.8 316.6 226.2 319.4 231.4C320 232.6 320.8 233.9 320.3 235.1C319.9 236 318.9 236.6 318.1 237.1C315.8 238.4 313.7 240.3 312.7 242.8C311.7 245.3 312.1 248.4 314.1 250.2C315.7 251.6 318.2 251.8 320.2 251.1C319.6 252.6 319.3 254.2 319.3 255.8C319.3 259.3 321.1 263 324.2 264.6C327.3 266.2 331.7 265.4 333.6 262.4C333.6 266.8 336.1 271.2 340 273.3C343.9 275.4 348.9 275.2 352.6 272.8C354.1 271.8 355.6 270.5 357.4 270.8C359.1 271.1 360.1 272.8 361.3 274C364.5 277.3 370 277.7 374.2 275.8C378.4 273.9 381.5 270.1 383.7 266.1C385.2 268.4 388.2 269.7 390.9 269.3C393.7 268.9 396.1 266.9 397 264.2C400.7 268.9 408.1 270.3 413.3 267.3C416.8 265.2 419 261.2 419.3 257.2C422.6 256.7 425.6 254.5 427 251.5C428.3 248 427.8 243.8 425.6 240.8ZM325 243.9C325 243.8 325.1 243.8 325.1 243.8L325 243.9Z" fill="#1B0637"/>
<path d="M388.4 269C388.4 269 401.2 266.9 403.9 250.2C405.2 241.9 404.8 228.3 404.1 217.1C403.5 207.1 394.6 199.6 384.6 200.7L355.6 203.8C352.6 204.1 350.3 206.7 350.3 209.8L353.3 282.4C351.2 282.9 346.4 283.9 344.1 284.6C344.1 284.6 366.5 334.7 372 334.1C377.5 333.5 399.4 286.1 399.4 286.1C399.4 286.1 394.7 284.6 387.8 283.3C387.8 275.5 388.4 269 388.4 269Z" fill="#FFAD9D"/>
<path d="M397.6 226.2C397.6 227.3 396.7 228.3 395.5 228.4C394.3 228.5 393.3 227.6 393.3 226.5C393.3 225.4 394.2 224.4 395.4 224.3C396.6 224.2 397.6 225.1 397.6 226.2Z" fill="#1B0637"/>
<path d="M401.1 224.2C400.8 224.5 399.2 223.3 396.9 223.3C394.6 223.3 392.9 224.5 392.7 224.2C392.6 224.1 392.8 223.6 393.6 223C394.3 222.5 395.6 221.9 397 222C398.4 222 399.6 222.5 400.3 223.1C401 223.6 401.3 224.1 401.1 224.2Z" fill="#1B0637"/>
<path d="M375.4 226.6C375.4 227.7 374.5 228.7 373.3 228.8C372.1 228.9 371.1 228 371.1 226.9C371.1 225.8 372 224.8 373.2 224.7C374.3 224.6 375.3 225.5 375.4 226.6Z" fill="#1B0637"/>
<path d="M378.5 224.7C378.2 225 376.6 223.8 374.3 223.8C372 223.8 370.3 225 370.1 224.7C370 224.6 370.2 224.1 371 223.5C371.7 223 373 222.4 374.4 222.5C375.8 222.5 377 223 377.7 223.6C378.4 224 378.6 224.5 378.5 224.7Z" fill="#1B0637"/>
<path d="M386.9 241.8C386.9 241.7 388.3 241.4 390.6 241.1C391.2 241 391.7 240.9 391.8 240.5C391.9 240.1 391.7 239.4 391.4 238.8C390.8 237.4 390.3 235.9 389.7 234.3C387.3 227.9 385.5 222.7 385.8 222.6C386.1 222.5 388.2 227.6 390.6 234C391.2 235.6 391.7 237.1 392.3 238.5C392.5 239.2 392.9 239.9 392.6 240.8C392.4 241.2 392 241.6 391.6 241.7C391.2 241.8 390.9 241.8 390.6 241.8C388.3 241.9 386.9 241.9 386.9 241.8Z" fill="#1B0637"/>
<path d="M388.4 269C388.4 269 377.2 269.7 366 263C366 263 371.4 274.5 388.1 272.9L388.4 269Z" fill="#ED9482"/>
<path d="M380.4 245.4C380.9 245.1 381.5 244.7 382.1 244.7C382.7 244.6 383.4 244.9 383.7 245.4C383.8 245.6 383.8 245.8 383.9 246C384.2 246.5 384.9 246.3 385.5 246.5C386.4 246.7 386.7 247.9 386.4 248.7C386.1 249.5 385.3 250.1 384.4 250.4C383.3 250.9 382 251 380.8 250.9C380 250.8 379.1 250.5 378.6 249.8C378 249 378.2 247.8 378.8 246.9C379.4 246.1 380.2 245.5 381.1 244.9" fill="#ED9482"/>
<path d="M380.1 243.4C380.5 243.4 380.5 245.9 382.6 247.7C384.7 249.5 387.4 249.2 387.4 249.6C387.4 249.8 386.8 250.1 385.7 250.1C384.6 250.1 383 249.8 381.7 248.7C380.4 247.6 379.8 246.2 379.7 245.1C379.6 244 379.9 243.3 380.1 243.4Z" fill="#1B0637"/>
<path d="M379.5 220.6C379.3 221.2 377 220.9 374.3 221.3C371.6 221.6 369.4 222.4 369 221.8C368.8 221.5 369.2 220.9 370.1 220.3C371 219.7 372.4 219.1 374 218.9C375.6 218.7 377.1 219 378.1 219.4C379.1 219.8 379.6 220.3 379.5 220.6Z" fill="#1B0637"/>
<path d="M400.3 219C399.9 219.5 398.3 219 396.4 219C394.5 218.9 392.9 219.4 392.5 218.8C392.3 218.5 392.6 218 393.3 217.5C394 217 395.2 216.6 396.5 216.6C397.8 216.6 398.9 217.1 399.6 217.7C400.3 218.2 400.5 218.8 400.3 219Z" fill="#1B0637"/>
<path d="M394.3 198.2C393.1 204.1 389.4 209.4 384.3 212.7C379.2 215.9 372.8 217 366.9 215.6C366 222.9 361 229.6 354.2 232.5C358.8 240.8 360.7 250.6 359.6 260C359.1 264 357.9 268.3 354.9 271C350.3 275.2 342.4 274.1 338 269.8C333.7 265.6 332.2 259.1 333.4 253.3C334.6 247.5 338.3 242.3 342.9 238.5C339 237.8 335.7 234.9 334.5 231.1C333.4 227.4 334.5 223 337.4 220.3C338.7 219.1 340.4 218.1 341.4 216.6C342.3 215.2 342.6 213.4 343.1 211.8C344.6 207.6 348.4 204.7 351.9 202C354.9 199.7 358.3 197.4 362 197.4C364 197.4 366 198.1 368 197.8C370.8 197.4 372.9 195.3 375.2 193.8C378.4 191.6 382.4 190.2 386.2 190.8C390.1 191.4 393.7 194.3 394.4 198.1" fill="#1B0637"/>
<path d="M392.8 199.9C392.2 203.1 393.8 206.4 396.2 208.7C398.6 211 401.6 212.4 404.6 213.7C403.4 210.6 402.2 207.4 400.3 204.6C398.3 201.9 395.5 199.6 392.2 199.1" fill="#1B0637"/>
<path d="M319.4 238.4C319.4 238.4 319.2 238.1 319.3 237.4C319.4 236.7 319.8 235.7 320.8 234.8C321.8 233.9 323.5 233.5 325.4 233.6C327.3 233.6 329.3 234.2 331.6 234.1C333.9 234 336.3 232.6 337.7 230.3C338.4 229.2 338.8 227.8 338.8 226.4C338.9 225 338.8 223.5 338.8 221.9C338.9 220.4 339.2 218.7 340.3 217.3C341.3 215.9 342.7 215 344.3 214.3C347.4 212.9 351 212.9 354.5 212.2C356.2 211.9 357.9 211.4 359.4 210.5C360.9 209.6 362 208.4 363 207.1C365 204.4 366.3 201.4 368 198.9C369.8 196.3 372.1 194.4 374.6 193.1C377.1 191.9 379.7 191.3 382 191.2C384.4 191.2 386.5 191.6 388.2 192.3C390 192.9 391.3 193.8 392.4 194.5C394.5 196.1 395.3 197.3 395.3 197.3C395.3 197.3 395.2 197.2 395.1 197.1C395 197 394.8 196.8 394.5 196.6C394 196.1 393.3 195.5 392.2 194.7C390.1 193.3 386.5 191.5 381.9 191.6C379.6 191.7 377.1 192.2 374.7 193.5C372.3 194.7 370 196.6 368.3 199.1C366.6 201.6 365.3 204.6 363.3 207.4C362.3 208.8 361.1 210 359.5 211C358 211.9 356.2 212.4 354.5 212.8C351 213.5 347.5 213.5 344.4 214.8C342.9 215.4 341.5 216.4 340.6 217.6C339.7 218.8 339.3 220.4 339.2 221.9C339.1 223.4 339.2 224.9 339.1 226.4C339 227.9 338.6 229.3 337.9 230.5C336.4 232.9 333.9 234.3 331.5 234.4C329.1 234.5 327.1 233.9 325.2 233.8C323.4 233.7 321.8 234.1 320.8 234.9C319.8 235.7 319.4 236.7 319.3 237.3C319.3 238 319.4 238.4 319.4 238.4Z" fill="#FAFAFA"/>
<path d="M344.2 315.6L345.3 342.2L347.9 367.7L376.3 366.5L374.2 316.2L344.2 315.6Z" fill="#1B0637"/>
<path d="M340 315.5L341.1 342.2L343.8 367.7L372.1 366.5L370.1 316.1L340 315.5Z" fill="#455A64"/>
<path d="M337.4 370.8C345 370.7 355.1 369.2 359.8 368.4C368.6 367 368.5 366.2 368.2 365.2C367.4 362.5 352.7 367.1 355.3 364.3C357.9 361.5 373.9 360.8 372.9 358C371.6 354.4 356.3 359.5 355 359.8C353.7 360.1 353.2 358.2 354.4 358C356.1 357.7 374.3 353.6 373.1 350.1C372.4 348.1 369 349.8 369 349.8C369 349.8 352.2 354.8 351.7 353.1C351.2 351.4 360.9 348.1 364.3 347.2C367.6 346.3 368.6 344.4 367 343.2C365.9 342.4 355.6 344.8 352.3 345.8C349 346.7 340 349.5 343.4 344.5C343.5 344.4 343.5 344.3 343.5 344.3C347 339.5 348.1 334.6 347.5 332.9C346.9 331.3 344.6 331.4 343.8 332.9C343.6 333.1 343.5 333.4 343.5 333.7C343.5 333.8 343.4 334 343.4 334.1C342.8 335.7 341.5 337.8 340.4 339.4C339.4 340.9 338.1 342.3 336.6 343.3C334.9 344.5 330.6 349.1 329.3 349.9" fill="#FFAD9D"/>
<path d="M330.9 348.5L345.9 370.8L321.2 396L322 355.2L330.9 348.5Z" fill="#E8505B"/>
</g>
<defs>
<clipPath id="clip0_521_2330">
<rect width="658" height="437" fill="white"/>
</clipPath>
</defs>
</svg>
