<svg width="92" height="37" viewBox="0 0 92 37" fill="none" xmlns="http://www.w3.org/2000/svg">
<path d="M12.6093 7.95973C6.19132 7.95973 0.843231 10.6822 0.843231 18.8969C0.843231 25.4047 4.43948 29.5026 12.7747 29.5026C22.5858 29.5026 23.2147 23.0397 23.2147 23.0397H18.4609C18.4609 23.0397 17.4417 26.5197 12.4848 26.5197C8.44758 26.5197 5.54394 23.7924 5.54394 19.9701H23.7121V17.5712C23.7121 13.7895 21.3114 7.95973 12.6093 7.95973ZM12.4432 11.0254C16.2862 11.0254 18.9061 13.3797 18.9061 16.9083H5.64895C5.64895 13.1621 9.06886 11.0254 12.4432 11.0254Z" fill="#505050"/>
<path d="M23.7088 0.00517273V25.3774C23.7088 26.8175 23.6059 28.8398 23.6059 28.8398H28.14C28.14 28.8398 28.303 27.3875 28.303 26.06C28.303 26.06 30.5431 29.5649 36.6345 29.5649C43.0488 29.5649 47.406 25.1112 47.406 18.7312C47.406 12.7955 43.4039 8.02169 36.6448 8.02169C30.3155 8.02169 28.3488 11.4395 28.3488 11.4395V0.00517273H23.7088ZM35.4745 11.1599C39.8304 11.1599 42.6005 14.3929 42.6005 18.7312C42.6005 23.3834 39.4013 26.4266 35.5058 26.4266C30.8567 26.4266 28.3488 22.7964 28.3488 18.7725C28.3488 15.023 30.599 11.1599 35.4745 11.1599Z" fill="#505050"/>
<path d="M58.6748 7.95973C49.0197 7.95973 48.4005 13.2462 48.4005 14.0912H53.2063C53.2063 14.0912 53.4582 11.0048 58.3434 11.0048C61.5178 11.0048 63.9777 12.458 63.9777 15.2512V16.2455H58.3434C50.8635 16.2455 46.9091 18.4337 46.9091 22.8743C46.9091 27.2442 50.5627 29.6219 55.5005 29.6219C62.2298 29.6219 64.3975 25.9036 64.3975 25.9036C64.3975 27.3826 64.5113 28.8401 64.5113 28.8401H68.7834C68.7834 28.8401 68.618 27.0336 68.618 25.8778V15.8882C68.618 9.33795 63.3346 7.95973 58.6748 7.95973ZM63.9777 19.2283V20.554C63.9777 22.2831 62.9106 26.582 56.6292 26.582C53.1896 26.582 51.7148 24.8653 51.7148 22.874C51.7148 19.2517 56.6811 19.2283 63.9777 19.2283Z" fill="#B5B5B5"/>
<path d="M66.03 8.78896H71.4364L79.1955 24.3339L86.9368 8.78896H91.8344L77.7338 36.4639H72.5964L76.6652 28.749L66.03 8.78896Z" fill="#505050"/>
</svg>
