<svg width="134" height="32" viewBox="0 0 134 32" fill="none" xmlns="http://www.w3.org/2000/svg">
<path d="M33.3966 23.8613V3.25434H45.5748V5.83922H35.9187V12.1736H44.5892V14.7561H35.9187V21.2137H46.2513V23.7962H33.3966V23.8613ZM59.0432 23.8613L54.859 18.3871L50.6795 23.8613H47.7273L53.4457 16.5414L47.4205 8.97734H50.7446L54.859 14.6353L59.0432 8.97734H62.3022L56.5838 16.5414L61.9953 23.8613H59.0432ZM66.054 21.6461V31.795H63.5319V16.6041C63.5319 12.7291 66.484 8.60774 71.0982 8.60774C75.7705 8.60774 79.2782 11.5599 79.2782 16.4182C79.2782 21.1556 75.7101 24.4146 71.6515 24.4146C69.6826 24.4146 67.0396 23.5545 66.054 21.6484V21.6461ZM76.6329 16.4182C76.6329 13.0987 74.4804 11.1299 70.6682 11.3135C68.8225 11.3763 65.9935 12.7291 66.2399 17.4642C66.3004 19.0031 67.8997 21.8925 71.4051 21.8925C74.42 21.8925 76.6352 20.1723 76.6352 16.4182H76.6329ZM81.4284 23.8613V8.97734H83.9529V10.5766C85.1826 9.16098 87.0887 8.67051 89.118 8.67051V11.3763C88.8112 11.3135 85.7962 10.9462 83.9529 14.8817V23.9241H81.4284V23.8613ZM89.7968 16.4182C89.7968 12.1131 92.8698 8.60774 97.1144 8.60774C102.403 8.60774 104.372 12.1131 104.372 16.6041V17.8338H92.563C92.7489 20.6628 95.2687 22.1389 97.6072 22.0784C99.3274 22.0157 100.497 21.5229 101.726 20.2932L103.386 22.0157C101.849 23.4917 99.8806 24.475 97.4817 24.475C92.993 24.4146 89.7944 21.0928 89.7944 16.4182H89.7968ZM96.9284 11.1299C94.5295 11.1299 92.6862 13.2219 92.563 15.4953H101.726C101.726 13.2824 100.127 11.1299 96.9284 11.1299ZM105.662 21.7693L107.507 20.1095C107.447 20.1095 108.43 21.0928 108.553 21.1556C108.983 21.5229 109.414 21.7693 109.967 21.8925C111.566 22.3225 114.458 22.1993 114.704 19.9863C114.827 18.7543 113.905 18.0802 112.858 17.6502C111.506 17.1574 110.03 16.9714 108.674 16.3577C107.14 15.6813 106.155 14.5121 106.155 12.7896C106.155 8.3009 112.552 7.5617 115.441 9.65146C115.564 9.77698 116.98 11.0694 116.917 11.0694L115.074 12.5432C114.151 11.4367 113.289 10.8835 111.322 10.8835C110.336 10.8835 108.983 11.3135 108.737 12.3595C108.37 13.8356 110.03 14.3889 111.136 14.698C112.612 15.0653 114.211 15.3117 115.504 16.1113C117.287 17.2178 117.717 19.6167 117.04 21.4624C116.303 23.4917 114.088 24.2914 112.122 24.3518C109.783 24.475 107.754 23.7381 106.094 22.0784C105.971 22.0784 105.662 21.7693 105.662 21.7693ZM118.64 21.7693L120.485 20.1095C120.423 20.1095 121.408 21.0928 121.531 21.1556C121.961 21.5229 122.391 21.7693 122.945 21.8925C124.544 22.3225 127.436 22.1993 127.68 19.9863C127.803 18.7543 126.882 18.0802 125.836 17.6502C124.483 17.1574 123.007 16.9714 121.652 16.3577C120.118 15.6813 119.132 14.5121 119.132 12.7896C119.132 8.3009 125.527 7.5617 128.419 9.65146C128.542 9.77698 129.955 11.0694 129.895 11.0694L128.049 12.5432C127.126 11.4367 126.266 10.8835 124.298 10.8835C123.314 10.8835 121.961 11.3135 121.715 12.3595C121.345 13.8356 123.007 14.3889 124.114 14.698C125.59 15.0653 127.189 15.3117 128.479 16.1113C130.265 17.2178 130.695 19.6167 130.018 21.4624C129.279 23.4917 127.066 24.2914 125.097 24.3518C122.761 24.475 120.732 23.7381 119.07 22.0784C118.946 22.0784 118.64 21.7693 118.64 21.7693ZM130.632 8.97734V7.37806H130.079V7.07123H131.555V7.37806H131.001V8.97734H130.632ZM133.4 8.97734V7.50127L132.847 8.97734H132.724L132.171 7.50127V8.97734H131.864V7.07123H132.354L132.847 8.36134L133.34 7.07123H133.83V8.97734H133.4Z" fill="#505050"/>
<path d="M16.2973 23.8613L14.454 18.9403H4.48635L2.643 23.8613H0L7.9964 3.25432H10.8858L18.8194 23.859L16.2973 23.8613ZM9.34695 6.20648L5.5998 16.4182H13.4102L9.34695 6.20648ZM20.4791 23.8613V3.25432H23.064V23.859L20.4791 23.8613ZM26.939 23.8613V9.28649H29.5216V23.8613H26.939ZM31.9809 4.54909V4.42589V4.30269C31.0295 4.26913 30.1262 3.87599 29.4532 3.20257C28.7802 2.52915 28.3876 1.62557 28.3547 0.674088L27.9827 0.674088C27.9498 1.62557 27.5572 2.52915 26.8843 3.20257C26.2113 3.87599 25.3079 4.26913 24.3565 4.30269V4.54909C25.3075 4.58261 26.2106 4.97542 26.8835 5.64835C27.5564 6.32128 27.9492 7.22429 27.9827 8.17536H28.3547C28.3882 7.22429 28.781 6.32128 29.4539 5.64835C30.1269 4.97542 31.0299 4.58261 31.9809 4.54909Z" fill="#B5B5B5"/>
</svg>
