<svg width="45" height="45" viewBox="0 0 45 45" fill="none" xmlns="http://www.w3.org/2000/svg">
<path fill-rule="evenodd" clip-rule="evenodd" d="M15.6192 7.79001C15.6192 7.79001 12.3471 11.2142 12.3471 17.8346C12.3471 24.455 15.2388 28.7161 15.2388 28.7161L4.66118 17.9868L15.6192 7.79001Z" fill="#505050"/>
<path fill-rule="evenodd" clip-rule="evenodd" d="M17.3695 18.1389C17.6641 11.2967 19.2988 6.94947 23.4801 7.12966C27.6612 7.30986 28.2776 10.6876 28.2776 10.6876C28.2776 10.6876 25.2462 10.3286 25.1055 13.5977C24.9646 16.8668 28.1576 17.0042 28.2335 17.0074C28.3093 17.0106 31.2619 16.7539 31.9797 14.4863C32.9443 11.4378 30.7622 8.09409 30.7622 8.09409L41.2633 18.3669L30.4579 28.7922C30.4579 28.7922 31.8275 26.2046 31.5232 22.5524C31.3258 20.182 28.2512 19.7368 28.1749 19.7368C28.099 19.7368 24.9028 19.7368 24.9028 23.0089C24.9028 26.2809 27.9469 26.0524 27.9469 26.0524C27.9469 26.0524 27.1859 29.4008 23.0006 29.4008C18.8152 29.4013 17.3695 24.9874 17.3695 18.1389ZM4.89724 34.4918C5.28544 33.8979 5.97038 33.586 6.67806 33.586C7.19544 33.586 7.62939 33.7458 7.97944 34.1266L7.99461 34.1115C7.95645 33.8223 8.16193 33.6168 8.46625 33.6168C8.75562 33.6168 8.95352 33.8147 8.95352 34.1039C8.95352 34.3624 8.89261 34.6139 8.89261 34.8725C8.89261 35.0782 8.95352 35.2832 8.95352 35.4889C8.95352 35.839 8.62622 36.0141 8.31409 36.0141C7.90313 36.0141 7.72063 35.8238 7.7358 35.4131C7.74362 35.1922 7.74362 35.0858 7.59882 34.9106C7.43908 34.7203 7.18786 34.6746 6.95204 34.6746C6.24435 34.6746 5.8943 35.1239 5.8943 36.3644C5.8943 37.5283 6.24435 38.0082 6.99019 38.0082C7.19567 38.0082 7.42391 37.9777 7.57606 37.8331C7.75856 37.6655 7.76637 37.4982 7.76637 37.2697C7.76637 37.0946 7.76637 36.9578 7.86521 36.8054C7.96427 36.6533 8.14676 36.5922 8.32949 36.5922C8.82411 36.5922 9.04476 36.95 9.04476 37.4065C9.04476 38.5557 7.95668 39.0885 6.93687 39.0885C6.24435 39.0885 5.57459 38.8906 5.08755 38.3654C4.63108 37.8708 4.43295 37.0415 4.43295 36.3793C4.43295 35.778 4.56258 35.0014 4.89724 34.4918ZM10.9465 35.9603C10.9465 36.3104 10.6116 36.4703 10.2921 36.4703C9.91909 36.4703 9.59202 36.2042 9.59202 35.8157C9.59202 35.3363 10.0791 34.9026 11.251 34.9026C11.6314 34.9026 12.149 34.9407 12.4839 35.131C12.8871 35.359 12.971 35.7245 12.971 36.3028V37.7336C12.971 38.0303 13.0167 38.0914 13.1004 38.0914C13.1613 38.0914 13.2222 38.0763 13.2831 38.0763C13.5267 38.0763 13.6635 38.282 13.6635 38.5024C13.6635 38.9287 13.2373 39.0887 12.8795 39.0887C12.5297 39.0887 12.1414 38.9595 12.0123 38.6017C11.6544 38.9441 11.1901 39.0887 10.7107 39.0887C10.0182 39.0887 9.3562 38.7233 9.3562 37.9471C9.3562 36.1433 11.7153 37.0794 11.7153 36.075C11.7153 35.7854 11.4489 35.6486 11.1979 35.6486C11.0685 35.6486 10.9467 35.6716 10.9467 35.8238V35.9603H10.9465ZM11.7151 37.2463C11.4944 37.4823 10.6116 37.3679 10.6116 37.7715C10.6116 38.0376 10.8247 38.1293 11.0453 38.1293C11.4944 38.1293 11.7151 37.8627 11.7151 37.4138V37.2463ZM15.4882 35.9148H15.5034C15.6252 35.2908 16.0895 34.9407 16.7287 34.9407C17.2612 34.9407 17.7331 35.3439 17.7331 35.892C17.7331 36.28 17.4894 36.6377 17.0787 36.6377C16.7896 36.6377 16.5459 36.4474 16.5459 36.143C16.5459 36.0366 16.5917 35.9373 16.6372 35.8463C15.7849 35.7852 15.7619 36.9422 15.7619 37.5508C15.7619 38.0002 15.8074 38.0836 15.8989 38.0836C15.9371 38.0836 15.975 38.0684 16.0132 38.053C16.0587 38.0379 16.1044 38.0301 16.1501 38.0301C16.4014 38.0301 16.485 38.2358 16.485 38.4642C16.485 38.7534 16.3556 38.989 16.1046 38.989C15.6937 38.989 15.3894 38.9131 15.0772 38.9131C14.7881 38.9131 14.499 38.989 14.225 38.989C13.974 38.989 13.8446 38.7534 13.8446 38.4642C13.8446 38.2358 13.9282 38.0301 14.1795 38.0301C14.2326 38.0301 14.2707 38.0452 14.3165 38.053C14.3546 38.0606 14.3925 38.0836 14.4307 38.0836C14.5219 38.0836 14.5677 38.0078 14.5677 37.5508V36.4549C14.5677 35.9831 14.5295 35.9226 14.4307 35.9226C14.3546 35.9226 14.2783 35.9755 14.1795 35.9755C13.9282 35.9755 13.8446 35.7698 13.8446 35.5418C13.8446 35.2526 13.974 35.0166 14.225 35.0166C14.4456 35.0166 14.598 35.0929 14.7502 35.0929C14.9175 35.0929 15.0772 35.0166 15.2524 35.0166C15.4199 35.0166 15.4882 35.0699 15.4882 35.3439V35.9148Z" fill="#252525"/>
<path fill-rule="evenodd" clip-rule="evenodd" d="M19.2153 35.9148H19.2305C19.3521 35.2908 19.8164 34.9407 20.4558 34.9407C20.9883 34.9407 21.4604 35.3439 21.4604 35.892C21.4604 36.28 21.2168 36.6377 20.8058 36.6377C20.5165 36.6377 20.2731 36.4473 20.2731 36.143C20.2731 36.0366 20.3188 35.9373 20.3643 35.8463C19.5121 35.7852 19.4891 36.9422 19.4891 37.5508C19.4891 38.0002 19.5348 38.0836 19.6261 38.0836C19.664 38.0836 19.7021 38.0684 19.7401 38.053C19.7858 38.0379 19.8313 38.03 19.8773 38.03C20.1283 38.03 20.2122 38.2358 20.2122 38.4642C20.2122 38.7534 20.0828 38.989 19.8315 38.989C19.4206 38.989 19.1163 38.9131 18.8041 38.9131C18.515 38.9131 18.2256 38.989 17.9519 38.989C17.7009 38.989 17.5715 38.7534 17.5715 38.4642C17.5715 38.2358 17.6552 38.03 17.9064 38.03C17.9597 38.03 17.9979 38.0452 18.0434 38.053C18.0815 38.0606 18.1197 38.0836 18.1576 38.0836C18.2488 38.0836 18.2946 38.0078 18.2946 37.5508V36.4549C18.2946 35.9831 18.2564 35.9226 18.1576 35.9226C18.0815 35.9226 18.0054 35.9755 17.9064 35.9755C17.6554 35.9755 17.5715 35.7698 17.5715 35.5418C17.5715 35.2526 17.7009 35.0166 17.9519 35.0166C18.1725 35.0166 18.3249 35.0929 18.4771 35.0929C18.6446 35.0929 18.8044 35.0166 18.9795 35.0166C19.1471 35.0166 19.2153 35.0699 19.2153 35.3439V35.9148ZM22.8526 37.2086C22.6549 37.2086 22.632 37.2387 22.632 37.3679C22.632 37.802 22.9744 38.1291 23.416 38.1291C23.6821 38.1291 23.8196 38.0604 24.0324 37.8324C24.2763 37.5733 24.3597 37.5276 24.6107 37.5276C24.9079 37.5276 25.1359 37.7028 25.1359 38.0075C25.1359 38.5858 24.3903 39.088 23.4008 39.088C22.1527 39.088 21.3766 38.2507 21.3766 37.018C21.3766 35.8155 22.1224 34.9023 23.3702 34.9023C24.5424 34.9023 25.2044 35.6027 25.2044 36.7289C25.2044 37.0785 25.1586 37.2084 24.7019 37.2084H22.8526V37.2086ZM23.7584 36.3639C23.9336 36.3639 23.9487 36.3182 23.9487 36.2347C23.9487 36.029 23.7584 35.7629 23.3778 35.7629C22.9898 35.7629 22.6701 36.0596 22.6701 36.2575C22.6701 36.3563 22.7689 36.3639 22.9898 36.3639H23.7584ZM26.1309 36.1582C26.1309 35.8615 26.1079 35.8615 25.8723 35.8615C25.5751 35.8615 25.408 35.7928 25.408 35.4583C25.408 35.1464 25.522 35.009 25.8341 35.009C26.1233 35.009 26.1309 34.9789 26.1384 34.758C26.169 33.9285 26.8841 33.5858 27.6377 33.5858C27.8887 33.5858 28.2006 33.6315 28.4215 33.7455C28.6801 33.8825 28.878 34.1262 28.878 34.4229C28.878 34.7578 28.6495 35.0163 28.307 35.0163C28.056 35.0163 27.7899 34.8412 27.7899 34.5675C27.7899 34.484 27.8129 34.4383 27.8581 34.3617C27.8053 34.3388 27.7671 34.3312 27.706 34.3312C27.4244 34.3312 27.3258 34.4987 27.3258 34.7654C27.3258 35.0088 27.341 35.0088 27.5844 35.0088C28.0409 35.0088 28.125 35.1308 28.125 35.4199C28.125 35.7695 28.0257 35.8612 27.4858 35.8612C27.3483 35.8612 27.3261 35.9523 27.3261 36.158V37.5506C27.3261 38.0075 27.3562 38.0834 27.463 38.0834C27.5088 38.0834 27.5465 38.0682 27.5846 38.0528C27.6228 38.0452 27.6685 38.0298 27.7138 38.0298C27.9652 38.0298 28.0487 38.2355 28.0487 38.464C28.0487 38.7531 27.9195 38.9887 27.5998 38.9887C27.2725 38.9887 26.9682 38.9129 26.6563 38.9129C26.3671 38.9129 26.0775 38.9811 25.8268 38.9887C25.5376 38.9887 25.4085 38.7531 25.4085 38.464C25.4085 38.2355 25.4919 38.0298 25.7433 38.0298C25.7962 38.0298 25.8422 38.045 25.8803 38.0528C25.9256 38.068 25.9638 38.0834 25.9943 38.0834C26.1159 38.0834 26.1313 37.9236 26.1313 37.5506V36.1582H26.1309Z" fill="#252525"/>
<path fill-rule="evenodd" clip-rule="evenodd" d="M32.2277 36.9496C32.2277 38.2128 31.5885 39.0883 30.257 39.0883C28.9326 39.0883 28.2247 38.2969 28.2247 36.9955C28.2247 35.7017 28.9326 34.9028 30.2494 34.9028C31.4972 34.9026 32.2277 35.7245 32.2277 36.9496ZM29.4806 36.9955C29.4806 37.8781 29.8761 38.1296 30.188 38.1296C30.4546 38.1296 30.6826 38.0533 30.8045 37.8023C30.9185 37.5662 30.972 37.2541 30.972 36.9955C30.972 36.1125 30.6371 35.8615 30.2264 35.8615C29.8685 35.8615 29.4806 36.143 29.4806 36.9955ZM33.9765 37.2541C33.9765 37.4138 33.9765 37.6805 34.0675 37.8328C34.1137 37.9042 34.1767 37.9631 34.2511 38.0042C34.3255 38.0453 34.4089 38.0674 34.4939 38.0684C34.6034 38.0679 34.7111 38.0398 34.8068 37.9866C34.9026 37.9334 34.9833 37.8569 35.0416 37.7641C35.2014 37.5207 35.2168 37.2617 35.2168 36.9804V36.4552C35.2168 36.0444 35.1862 35.9228 35.0798 35.9228C35.0416 35.9228 35.0039 35.9376 34.9658 35.9458C34.92 35.9605 34.8819 35.9759 34.8288 35.9759C34.5773 35.9759 34.4939 35.7702 34.4939 35.5422C34.4939 35.2531 34.6231 35.017 34.9582 35.017C35.2092 35.017 35.3765 35.0933 35.628 35.0933C35.8332 35.0933 35.9776 35.017 36.1681 35.017C36.366 35.017 36.412 35.1009 36.412 35.2685V37.5513C36.412 38.0082 36.4648 38.0841 36.5489 38.0841C36.6248 38.0841 36.7011 38.0307 36.7999 38.0307C37.0514 38.0307 37.1348 38.2365 37.1348 38.4649C37.1348 38.7541 37.0056 38.9897 36.6859 38.9897C36.4956 38.9897 36.3205 38.9138 36.1453 38.9138C35.9778 38.9138 35.8105 38.9897 35.6659 38.9897C35.4756 38.9897 35.3921 38.8605 35.3921 38.7387V38.4343H35.377C35.0954 38.8527 34.5475 39.0889 34.0379 39.0889C33.2537 39.0889 32.7823 38.6325 32.7823 37.8634V36.4556C32.7823 35.9913 32.7289 35.9233 32.6448 35.9233C32.6067 35.9233 32.569 35.938 32.5308 35.9463C32.4851 35.961 32.4474 35.9764 32.3938 35.9764C32.1428 35.9764 32.0589 35.7707 32.0589 35.5427C32.0589 35.2535 32.1881 35.0175 32.546 35.0175C32.7894 35.0175 32.9873 35.0938 33.2387 35.0938C33.4743 35.0938 33.5883 35.0175 33.7789 35.0175C33.9768 35.0175 33.9768 35.1621 33.9768 35.36V37.2541H33.9765Z" fill="#252525"/>
<path fill-rule="evenodd" clip-rule="evenodd" d="M38.6936 35.9148H38.7088C38.8304 35.2908 39.2947 34.9407 39.9338 34.9407C40.4666 34.9407 40.9385 35.3439 40.9385 35.892C40.9385 36.28 40.6951 36.6377 40.2839 36.6377C39.9948 36.6377 39.7516 36.4473 39.7516 36.143C39.7516 36.0366 39.7969 35.9373 39.8426 35.8463C38.9901 35.7852 38.9671 36.9422 38.9671 37.5508C38.9671 38.0002 39.0129 38.0836 39.1046 38.0836C39.1423 38.0836 39.1804 38.0684 39.2186 38.053C39.2643 38.0379 39.3096 38.03 39.3556 38.03C39.6065 38.03 39.6904 38.2358 39.6904 38.4642C39.6904 38.7534 39.5613 38.989 39.3098 38.989C38.8991 38.989 38.5948 38.9131 38.2826 38.9131C37.9935 38.9131 37.7039 38.989 37.4302 38.989C37.1792 38.989 37.05 38.7534 37.05 38.4642C37.05 38.2358 37.1334 38.03 37.3849 38.03C37.4377 38.03 37.4759 38.0452 37.5219 38.053C37.5596 38.0606 37.5977 38.0836 37.6359 38.0836C37.7269 38.0836 37.7729 38.0078 37.7729 37.5508V36.4549C37.7729 35.9831 37.7347 35.9226 37.6359 35.9226C37.5596 35.9226 37.4837 35.9755 37.3849 35.9755C37.1334 35.9755 37.05 35.7698 37.05 35.5418C37.05 35.2526 37.1792 35.0166 37.4302 35.0166C37.651 35.0166 37.8032 35.0929 37.9554 35.0929C38.1229 35.0929 38.2826 35.0166 38.4578 35.0166C38.6253 35.0166 38.6934 35.0699 38.6934 35.3439V35.9148H38.6936Z" fill="#252525"/>
</svg>
