<svg width="350" height="357" viewBox="0 0 350 357" fill="none" xmlns="http://www.w3.org/2000/svg">
<g clip-path="url(#clip0_198_233)">
<path d="M312.295 222.808L323.623 222.554L329.203 222.47C331.063 222.47 332.923 222.47 334.698 222.385L334.36 222.723L334.275 213.253L334.698 213.676L323.539 213.591C319.819 213.591 316.099 213.507 312.379 213.422L312.633 213.168C312.633 214.69 312.548 216.297 312.548 217.819L312.295 222.808ZM312.295 222.808L312.21 218.157C312.21 216.551 312.126 214.944 312.126 213.337V213.084H312.379C316.099 212.999 319.819 212.915 323.539 212.915L334.698 212.83H335.121V213.253L335.036 222.723V223.062H334.698C332.838 223.062 330.894 223.062 329.034 222.977L323.37 222.892L312.295 222.808Z" fill="#EBEBEB"/>
<path d="M324.722 234.73L336.051 234.477L341.63 234.392C343.49 234.392 345.35 234.392 347.126 234.308L346.787 234.646L346.703 225.175L347.126 225.598L335.966 225.514C332.246 225.514 328.527 225.429 324.807 225.345L325.06 225.091C325.06 226.613 324.976 228.22 324.976 229.742L324.722 234.73ZM324.722 234.73L324.638 229.995C324.638 228.389 324.553 226.782 324.553 225.175V224.922H324.807C328.527 224.837 332.246 224.753 335.966 224.753L347.126 224.668H347.548V225.091L347.464 234.561V234.9H347.126C345.266 234.9 343.321 234.9 341.461 234.815L335.797 234.73H324.722Z" fill="#EBEBEB"/>
<path d="M299.756 234.714H322.159V225.243H299.756V234.714Z" fill="#EBEBEB"/>
<path d="M5.32609 281.829L16.57 281.575L22.1498 281.49C24.0097 281.49 25.8696 281.49 27.6449 281.406L27.3068 281.744L27.2222 272.274L27.6449 272.697L16.4855 272.612C12.7657 272.612 9.04589 272.527 5.32609 272.443L5.57971 272.189C5.57971 273.711 5.49517 275.318 5.49517 276.84L5.32609 281.829ZM5.32609 281.829L5.24155 277.178C5.24155 275.571 5.15701 274.049 5.15701 272.443V272.189H5.41063C9.13044 272.105 12.8502 272.02 16.57 272.02L27.7295 271.936H28.1522V272.358L28.0676 281.829V282.167H27.7295C25.8696 282.167 23.9251 282.167 22.0652 282.082L16.4855 281.998L5.32609 281.829Z" fill="#EBEBEB"/>
<path d="M17.8046 293.707H40.1234V284.236H17.8046V293.707Z" fill="#EBEBEB"/>
<path d="M63.3213 91.6599L74.6498 91.4062L80.2295 91.3216C82.0894 91.3216 83.9493 91.3216 85.7246 91.2371L85.3865 91.5753L85.3019 82.1049L85.7246 82.5277L74.5652 82.4431C70.8454 82.4431 67.1256 82.3586 63.4058 82.274L63.6594 82.0204C63.6594 83.5424 63.5749 85.149 63.5749 86.671L63.3213 91.6599ZM63.3213 91.6599L63.2367 87.0092C63.2367 85.4026 63.1522 83.7961 63.1522 82.1895V81.9358H63.4058C67.1256 81.8512 70.8454 81.7667 74.5652 81.7667L85.7246 81.6821H86.1473V82.1049L86.0628 91.5753V91.9135H85.7246C83.8647 91.9135 81.9203 91.9135 80.0604 91.829L74.3961 91.7444L63.3213 91.6599Z" fill="#EBEBEB"/>
<path d="M17.7359 9.8876L40.1393 9.8876V0.417211L17.7359 0.417211V9.8876Z" fill="#EBEBEB"/>
<path d="M5.24155 21.8157L16.57 21.562L22.1498 21.4775C24.0097 21.4775 25.8696 21.4775 27.6449 21.3929L27.3068 21.7312L27.2222 12.2608L27.6449 12.6836H16.401C12.6812 12.6836 8.96135 12.599 5.24155 12.5144L5.49517 12.2608C5.49517 13.7828 5.41063 15.3894 5.41063 16.9114L5.24155 21.8157ZM5.24155 21.8157L5.07246 17.1651C5.07246 15.5585 4.98792 13.9519 4.98792 12.3453V12.0917H5.24155C8.96135 12.0071 12.6812 11.9225 16.401 11.9225L27.5604 11.838H27.9831V12.2608L27.8986 21.7312V22.0694H27.5604C25.7005 22.0694 23.756 22.0694 21.8961 21.9848L16.2319 21.9003L5.24155 21.8157Z" fill="#EBEBEB"/>
<path d="M312.295 9.89318L323.623 9.63951L329.203 9.55495C331.063 9.55495 332.923 9.55495 334.698 9.47039L334.36 9.80862L334.275 0.338228L334.698 0.761014L323.539 0.676457C319.819 0.676457 316.099 0.5919 312.379 0.507343L312.633 0.253671C312.633 1.7757 312.548 3.38228 312.548 4.90431L312.295 9.89318ZM312.295 9.89318L312.21 5.24254C312.21 3.63595 312.126 2.02937 312.126 0.422785V0.169114H312.379C316.099 0.0845571 319.819 0 323.539 0L334.614 0H335.036V0.422785L334.952 9.89318V10.2314H334.614C332.754 10.2314 330.809 10.2314 328.949 10.1468L323.285 10.0623L312.295 9.89318Z" fill="#EBEBEB"/>
<path d="M276.877 128.234H299.281V118.763H276.877V128.234Z" fill="#EBEBEB"/>
<path d="M81.8357 357C127.032 357 163.671 353.479 163.671 349.136C163.671 344.793 127.032 341.272 81.8357 341.272C36.6391 341.272 0 344.793 0 349.136C0 353.479 36.6391 357 81.8357 357Z" fill="#EBEBEB"/>
<path d="M2.45169 331.379L45.9058 331.21L89.3599 331.126L176.268 330.956L263.092 331.126L306.546 331.21L350 331.379L306.546 331.633L263.092 331.717L176.268 331.802L89.3599 331.717L45.9058 331.633L2.45169 331.379Z" fill="#263238"/>
<path d="M309.505 255.954C309.505 255.954 301.812 244.116 284.481 246.399C268.08 248.598 257.85 277.347 273.744 282.421C289.638 287.494 289.384 259.928 295.725 255.87C300.374 252.91 306.546 254.179 309.505 255.954Z" fill="#EE5062"/>
<path d="M269.855 261.281C271.039 260.436 272.307 259.59 273.575 258.914C274.758 258.237 276.111 257.73 277.464 257.392C278.225 256.462 279.07 255.531 279.915 254.77C281.606 253.248 283.466 252.065 285.411 251.219C285.242 251.219 285.072 251.135 284.903 251.135C283.973 251.05 283.128 250.965 282.198 250.881C280.338 250.796 278.563 251.05 276.872 251.726C276.787 251.726 276.703 251.642 276.787 251.557C278.563 250.965 280.338 250.627 282.114 250.458C282.959 250.374 283.889 250.374 284.819 250.458C285.326 250.543 285.749 250.543 286.256 250.712C286.341 250.712 286.425 250.712 286.51 250.796C288.116 250.12 289.807 249.697 291.582 249.443C291.413 249.359 291.244 249.359 291.159 249.274C290.314 249.021 289.553 248.767 288.708 248.598C287.017 248.26 285.326 248.09 283.635 248.175C283.551 248.175 283.551 248.006 283.635 248.006C285.326 247.921 287.101 248.09 288.792 248.26C290.145 248.429 291.667 248.767 293.019 249.19C294.034 249.105 295.048 249.105 296.147 249.105C302.065 249.443 308.321 252.234 311.449 257.392C314.662 262.634 314.746 269.145 314.831 275.064C314.915 283.266 314.577 291.637 313.14 299.755C313.056 300.262 312.379 300.093 312.379 299.586C312.802 292.652 313.225 285.634 313.225 278.616C313.225 275.402 313.225 272.105 312.971 268.891C312.802 266.101 312.379 263.395 311.365 260.774C310.35 258.068 308.575 255.785 306.208 254.094C303.925 252.403 301.135 251.388 298.345 250.881C295.809 250.374 293.188 250.458 290.652 250.881C290.737 251.388 290.652 251.896 290.568 252.403C290.483 252.995 290.229 253.671 290.06 254.179C289.807 254.77 289.553 255.278 289.215 255.785C288.877 256.377 288.37 256.8 288.031 257.307C287.947 257.392 287.862 257.307 287.947 257.223C288.792 256.377 289.3 255.109 289.553 254.009C289.722 253.418 289.807 252.91 289.891 252.318C289.976 251.896 289.976 251.473 290.06 251.05C287.355 251.642 284.65 252.657 282.283 254.263C281.86 254.517 281.437 254.855 281.014 255.193C281.522 255.701 281.944 256.462 282.283 257.054C282.79 257.984 283.213 258.914 283.551 259.844C284.227 261.789 284.481 263.818 284.565 265.847C284.565 265.932 284.396 265.932 284.396 265.847C284.312 263.818 283.72 261.958 282.959 260.098C282.621 259.167 282.198 258.322 281.691 257.476C281.437 257.054 281.184 256.631 280.93 256.208C280.761 255.954 280.592 255.785 280.507 255.531C278.309 257.307 276.449 259.421 275.097 261.873C275.857 262.719 276.365 263.903 276.787 264.917C277.295 266.101 277.717 267.285 278.056 268.469C278.732 270.752 279.07 273.204 279.408 275.571C279.408 275.656 279.239 275.656 279.239 275.571C278.985 273.119 278.309 270.836 277.464 268.553C277.041 267.454 276.618 266.355 276.196 265.256C275.773 264.241 275.181 263.226 274.928 262.127C273.575 264.495 272.645 267.116 272.222 269.822C272.222 269.906 272.053 269.906 272.053 269.822C272.814 265.678 274.42 261.535 276.957 258.153C275.857 258.491 274.843 258.829 273.744 259.252C272.391 259.844 271.123 260.52 270.024 261.366C269.855 261.45 269.771 261.281 269.855 261.281Z" fill="#263238"/>
<path d="M282.198 263.057C282.536 264.748 283.043 266.439 283.297 268.215C283.551 269.906 283.72 271.597 283.551 273.288C283.551 273.373 283.466 273.288 283.466 273.288C283.297 269.906 282.874 266.439 281.944 263.142C282.029 262.973 282.198 262.973 282.198 263.057Z" fill="#263238"/>
<path d="M271.884 257.899C272.645 257.307 273.406 256.884 274.251 256.546C275.097 256.208 276.027 256.039 276.957 255.87C277.041 255.87 277.041 256.039 276.957 256.039C276.027 256.123 275.181 256.462 274.336 256.8C273.49 257.138 272.645 257.561 271.884 257.984V257.899Z" fill="#263238"/>
<path d="M301.135 242.171C301.135 242.171 299.529 222.301 284.734 215.874C272.391 210.463 265.29 224.33 274.082 232.87C281.099 239.719 292.428 236.591 301.135 242.171Z" fill="#EE5062"/>
<path d="M276.787 219.679C278.986 220.609 281.268 221.539 283.382 222.808C285.157 223.823 286.848 225.006 288.454 226.19C288.2 225.683 288.031 225.175 287.778 224.668C287.355 223.907 287.017 223.146 286.51 222.385C285.58 220.863 284.565 219.51 283.213 218.242C283.128 218.157 283.297 218.073 283.297 218.157C284.481 219.426 285.749 220.694 286.763 222.131C287.271 222.892 287.778 223.569 288.2 224.414C288.623 225.091 289.046 225.936 289.215 226.697C289.3 226.697 289.3 226.782 289.384 226.782C292.005 228.811 294.287 231.179 296.401 233.716C296.401 233.547 296.316 233.293 296.232 233.124C295.978 232.194 295.64 231.179 295.302 230.249C294.626 228.219 293.78 226.19 292.597 224.414C292.512 224.33 292.681 224.245 292.766 224.33C293.865 226.19 294.964 227.966 295.894 229.995C296.316 230.925 296.655 231.94 296.908 232.955C297.077 233.547 297.331 234.308 297.415 234.984C298.092 235.83 298.684 236.591 299.275 237.436C305.616 246.484 308.829 257.392 309.589 268.3C309.843 271.597 309.843 274.81 309.758 278.108C309.674 281.406 309.505 284.704 308.913 287.917C308.913 288.086 308.575 288.086 308.575 287.832C308.659 284.957 308.913 282.082 308.998 279.207C309.082 276.333 308.913 273.458 308.744 270.583C308.321 264.833 307.222 259.167 305.531 253.671C303.841 248.09 301.304 242.679 298.007 237.774C297.415 237.69 296.739 237.521 296.147 237.352C295.386 237.183 294.71 237.013 293.949 236.76C292.512 236.337 291.159 235.914 289.807 235.238C289.722 235.153 289.807 235.069 289.891 235.069C291.159 235.83 292.597 236.252 294.034 236.506C295.217 236.76 296.401 236.929 297.585 237.183C296.486 235.661 295.386 234.139 294.118 232.701C291.329 232.955 288.454 232.701 285.749 232.109C284.312 231.771 282.874 231.348 281.437 230.756C279.915 230.164 278.563 229.488 277.126 228.811C277.041 228.727 277.126 228.642 277.21 228.642C279.746 230.164 282.874 230.925 285.749 231.433C288.37 231.855 291.075 232.025 293.696 232.109C292.681 230.925 291.582 229.742 290.399 228.642C286.51 224.922 281.944 221.539 276.787 219.764C276.618 219.848 276.703 219.679 276.787 219.679Z" fill="#263238"/>
<path d="M288.792 219.764C289.469 220.609 290.06 221.455 290.568 222.385C291.159 223.4 291.582 224.414 291.836 225.429C291.836 225.429 291.751 225.514 291.751 225.429C291.244 224.414 290.821 223.484 290.314 222.47C289.807 221.54 289.215 220.609 288.539 219.764C288.623 219.764 288.708 219.679 288.792 219.764Z" fill="#263238"/>
<path d="M275.097 226.359C276.027 226.951 277.041 227.289 278.14 227.628C279.155 227.966 280.169 228.22 281.268 228.473C281.353 228.473 281.268 228.558 281.268 228.558C280.169 228.389 279.07 228.22 278.056 227.881C277.041 227.543 276.027 227.036 275.097 226.528C274.843 226.444 274.928 226.359 275.097 226.359Z" fill="#263238"/>
<path d="M311.787 239.212C311.872 240.058 313.986 232.025 326.498 224.837C337.826 218.326 351.353 201.415 340.278 190.676C331.316 182.051 307.645 200.908 311.787 239.212Z" fill="#EE5062"/>
<path d="M303.164 285.549C303.333 277.178 304.01 268.722 305.109 260.436C306.123 252.741 307.814 245.215 310.35 237.944C311.28 235.322 312.379 232.701 313.478 230.164C313.394 229.234 313.478 228.135 313.563 227.205C313.647 225.937 313.732 224.668 313.816 223.4C313.901 222.131 314.07 220.863 314.239 219.595C314.408 218.326 314.662 217.058 314.746 215.79C314.746 215.705 314.915 215.705 314.915 215.79C314.577 217.058 314.577 218.495 314.493 219.848C314.408 221.032 314.324 222.301 314.324 223.569C314.324 224.837 314.324 226.021 314.324 227.289C314.324 227.712 314.324 228.22 314.324 228.642C315.507 226.19 316.775 223.738 318.128 221.37C317.283 216.212 318.382 210.801 319.481 205.727C319.481 205.643 319.65 205.643 319.65 205.812C319.058 208.433 318.889 211.139 318.804 213.845C318.72 215.959 318.889 218.073 318.889 220.187C319.227 219.679 319.481 219.172 319.819 218.665C321.425 216.043 323.2 213.422 324.976 210.885C324.807 209.702 324.891 208.433 325.06 207.165C325.229 205.812 325.568 204.459 325.99 203.106C326.413 201.753 326.836 200.485 327.343 199.216C327.85 197.864 328.611 196.68 329.118 195.327C329.203 195.242 329.287 195.327 329.287 195.411C328.611 196.595 328.104 198.033 327.681 199.301C327.258 200.569 326.92 201.838 326.667 203.191C326.413 204.544 326.159 205.812 325.99 207.165C325.906 208.01 325.821 208.941 325.652 209.871C328.357 206.319 331.232 202.852 334.444 199.724C334.529 199.639 334.614 199.724 334.529 199.808C329.795 205.22 325.483 210.885 321.848 217.058C321.679 217.312 321.594 217.481 321.425 217.734C322.101 217.312 322.862 216.973 323.539 216.635C324.722 215.959 325.99 215.282 327.174 214.606C328.357 213.929 329.541 213.337 330.725 212.661C331.316 212.323 331.908 211.985 332.585 211.646C333.261 211.308 334.106 210.97 334.698 210.463C334.783 210.378 334.867 210.547 334.783 210.632C333.599 211.308 332.5 212.238 331.316 212.999C330.133 213.76 328.949 214.437 327.766 215.113C325.568 216.382 323.116 217.227 320.918 218.495C319.396 221.117 318.043 223.907 316.691 226.613C318.043 225.767 319.396 224.922 320.749 224.161C321.594 223.653 322.524 223.146 323.454 222.723C324.3 222.301 325.229 221.878 325.99 221.201C326.075 221.117 326.159 221.286 326.075 221.286C324.638 222.639 322.947 223.653 321.256 224.668C319.65 225.598 318.043 226.528 316.353 227.289C315 230.249 313.816 233.208 312.717 236.252C307.476 251.134 305.531 266.947 304.601 282.674C304.348 287.325 304.179 292.06 304.094 296.711C304.01 301.361 304.263 306.097 304.263 310.747C304.263 310.916 304.01 310.916 304.01 310.747C303.418 306.604 303.333 302.376 303.164 298.233C303.08 294.09 303.08 289.777 303.164 285.549Z" fill="#263238"/>
<path d="M325.906 218.073C328.188 217.143 330.386 215.874 332.585 214.606C334.783 213.338 336.896 212.069 338.925 210.632C338.925 210.632 339.01 210.632 339.01 210.716C337.065 212.238 335.036 213.676 332.923 214.944C330.725 216.212 328.442 217.227 326.075 218.242C325.906 218.326 325.821 218.157 325.906 218.073Z" fill="#263238"/>
<path d="M322.271 201.246C322.44 200.485 322.693 199.808 322.947 199.132C322.947 199.132 322.862 199.047 322.947 199.047C323.116 198.625 323.285 198.286 323.454 197.864C323.454 197.779 323.454 197.779 323.539 197.694C323.539 197.61 323.623 197.525 323.623 197.441C323.623 197.441 323.708 197.441 323.623 197.441C323.539 197.61 323.539 197.694 323.539 197.864C323.539 197.948 323.539 198.033 323.454 198.117C322.609 200.908 322.017 203.698 321.594 206.573C321.594 206.658 321.425 206.658 321.425 206.573C321.51 204.797 321.848 203.022 322.271 201.246Z" fill="#263238"/>
<path d="M309.589 260.774C313.901 247.245 323.792 239.212 336.473 241.072C349.155 242.932 353.382 259.59 344.928 265.171C336.473 270.752 325.652 259.506 320.495 257.645C315.254 255.785 309.589 260.774 309.589 260.774Z" fill="#EE5062"/>
<path d="M308.406 295.273C308.237 293.751 308.068 292.229 307.899 290.707C307.56 287.663 307.222 284.619 306.884 281.491C306.292 275.91 306.123 270.329 307.729 264.833C309.167 259.928 311.957 255.447 315.93 252.149C317.367 250.965 319.058 249.951 320.749 249.19C322.017 247.329 324.215 245.892 326.244 245.046C328.949 243.947 331.824 243.694 334.783 243.609C334.867 243.609 334.867 243.778 334.783 243.778C332.077 243.863 329.287 244.37 326.751 245.469C325.652 245.977 324.638 246.484 323.708 247.16C323.116 247.583 322.524 248.09 322.017 248.598C324.384 247.752 326.92 247.414 329.457 247.583C330.386 247.668 331.232 247.837 332.162 248.09C332.754 247.837 333.514 247.668 334.191 247.668C335.036 247.583 335.966 247.583 336.896 247.668C338.756 247.837 340.531 248.429 342.222 249.105C342.307 249.105 342.222 249.274 342.138 249.274C340.447 248.682 338.756 248.26 336.981 248.09C336.135 248.006 335.29 248.006 334.444 248.09C333.937 248.09 333.514 248.175 333.092 248.26C336.727 249.359 340.024 251.726 342.053 254.94C342.138 255.024 341.969 255.109 341.884 255.024C339.517 251.135 335.205 248.936 330.725 248.429C330.471 248.429 330.133 248.429 329.879 248.429C330.048 248.767 330.048 249.274 330.217 249.613C330.386 250.204 330.556 250.796 330.809 251.388C331.232 252.572 331.739 253.84 332.331 254.94C332.923 256.123 333.599 257.223 334.275 258.322C335.036 259.421 335.797 260.605 336.812 261.535C336.896 261.62 336.812 261.704 336.727 261.62C335.797 260.605 334.867 259.675 334.022 258.576C333.261 257.561 332.5 256.462 331.908 255.278C331.232 254.094 330.725 252.91 330.302 251.642C330.048 250.965 329.879 250.289 329.71 249.613C329.626 249.19 329.457 248.767 329.457 248.344C328.019 248.344 326.582 248.513 325.145 248.851C326.075 251.811 327.174 254.855 329.203 257.223C329.287 257.307 329.118 257.392 329.034 257.307C328.104 255.954 327.089 254.686 326.329 253.248C325.568 251.896 324.976 250.374 324.638 248.936C322.186 249.612 319.819 250.796 317.874 252.318C313.986 255.278 311.365 259.421 309.843 264.072C308.237 269.061 308.068 274.219 308.406 279.461C308.913 285.972 309.758 292.483 310.012 299.078C310.012 299.501 309.42 299.755 309.251 299.247C308.659 298.233 308.575 296.711 308.406 295.273Z" fill="#263238"/>
<path d="M316.606 251.135C316.86 250.543 317.452 250.12 317.79 249.613C318.213 249.105 318.72 248.682 319.143 248.175C320.157 247.329 321.171 246.568 322.44 246.061C322.524 246.061 322.609 246.146 322.524 246.23C321.256 246.653 320.242 247.499 319.312 248.429C318.889 248.851 318.382 249.359 317.959 249.866C317.536 250.289 317.198 250.881 316.691 251.304C316.691 251.304 316.522 251.219 316.606 251.135Z" fill="#263238"/>
<path d="M336.896 252.91C338.08 254.009 339.263 255.024 340.278 256.208C341.292 257.392 342.222 258.66 342.983 260.098C342.983 260.098 342.899 260.182 342.899 260.098C341.039 257.645 339.094 255.109 336.812 252.995C336.727 252.995 336.812 252.826 336.896 252.91Z" fill="#263238"/>
<path d="M323.454 253.502C323.708 254.263 324.046 255.024 324.469 255.701C324.891 256.377 325.399 256.969 325.906 257.561C325.906 257.561 325.906 257.645 325.821 257.645C324.553 256.631 323.708 255.109 323.285 253.587C323.285 253.502 323.454 253.418 323.454 253.502Z" fill="#263238"/>
<path d="M289.976 288.593L290.906 299.163L293.611 331.379H322.862L325.568 299.163L326.498 288.593H289.976Z" fill="#455A64"/>
<path d="M289.976 288.593L290.906 299.163H325.568L326.498 288.593H289.976Z" fill="#263238"/>
<path d="M287.175 294.424H329.361V284.277H287.175V294.424Z" fill="#455A64"/>
<path d="M247.705 7.35648H104.831C96.8841 7.35648 90.3744 13.9519 90.3744 22.0694V316.328C90.3744 324.445 96.8841 331.041 104.831 331.041H247.705C255.652 331.041 262.162 324.445 262.162 316.328V22.0694C262.162 13.8674 255.652 7.35648 247.705 7.35648ZM253.116 307.196C253.116 314.975 247.283 321.232 240.181 321.232H112.271C105.085 321.232 99.3357 314.975 99.3357 307.196V33.2309C99.3357 17.4188 105.169 16.6578 112.271 16.6578H137.886C139.408 16.6578 140.592 18.3489 140.592 20.4628V21.3929C140.592 26.2973 143.297 26.2973 146.594 26.2973H205.857C209.155 26.2973 211.86 26.2973 211.86 21.3929V20.4628C211.86 18.3489 213.043 16.6578 214.565 16.6578H240.181C247.367 16.6578 253.116 18.7717 253.116 33.2309V307.196Z" fill="#263238"/>
<path d="M184.3 20.1246H168.152C167.56 20.1246 167.138 19.7018 167.138 19.1099C167.138 18.518 167.56 18.0952 168.152 18.0952H184.3C184.891 18.0952 185.314 18.518 185.314 19.1099C185.314 19.7018 184.891 20.1246 184.3 20.1246Z" fill="white"/>
<path d="M253.116 33.2309V307.28C253.116 315.06 247.283 321.317 240.181 321.317H112.271C105.085 321.317 99.3357 315.06 99.3357 307.28V33.2309C99.3357 17.4188 105.169 16.6577 112.271 16.6577H137.886C139.408 16.6577 140.592 18.3489 140.592 20.4628V21.3929C140.592 26.2973 143.297 26.2973 146.594 26.2973H205.857C209.155 26.2973 211.86 26.2973 211.86 21.3929V20.4628C211.86 18.3489 213.043 16.6577 214.565 16.6577H240.181C247.283 16.6577 253.116 18.7717 253.116 33.2309Z" fill="white"/>
<path d="M248.804 19.0253H212.029C212.452 17.5879 213.382 16.6577 214.565 16.6577H240.181C243.478 16.6577 246.522 17.0805 248.804 19.0253Z" fill="#DBDBDB"/>
<path d="M99.3357 293.751V297.387H112.101V293.751H99.3357ZM253.116 68.0684L211.691 111.954H192.669V75.7631H200.193V72.1272H188.949V112.038H168.321V26.2972H160.966V52.0026H99.2512V59.3591H160.966V112.038H101.196V126.413H99.2512V130.049H101.196V184.504L112.186 209.702H99.2512V217.058H115.399L124.022 236.76C114.807 240.819 108.297 250.035 108.297 260.689C108.297 274.388 118.865 285.634 132.222 286.649L150.145 315.905L144.734 321.317H162.065L140.507 286.057C151.92 283.266 160.459 272.95 160.459 260.689C160.459 257.392 159.867 254.348 158.768 251.388L209.831 227.12H252.947V219.764H232.488L189.626 173.173H252.947V169.537H186.244L140.085 119.395H214.65L239.843 92.6746L252.862 105.696V95.3804L244.915 87.432L252.862 78.9763V68.0684H253.116ZM134.505 279.377C124.191 279.377 115.737 270.921 115.737 260.605C115.737 250.289 124.106 241.833 134.505 241.833C144.819 241.833 153.273 250.289 153.273 260.605C153.273 270.921 144.819 279.377 134.505 279.377ZM222.681 219.679H208.309L155.302 244.877C150.483 238.536 142.959 234.477 134.505 234.477C133.406 234.477 132.307 234.561 131.292 234.646L108.635 182.812V119.141H130.362L222.681 219.679ZM228.176 321.232H233.333L253.116 301.446V296.288L228.176 321.232Z" fill="#EBEBEB"/>
<path d="M125.543 124.806H114.891V135.46H125.543V124.806Z" fill="#DBDBDB"/>
<path d="M225.471 165.647V145.1H217.947V136.475H204.758V165.647H225.471Z" fill="#DBDBDB"/>
<path d="M188.949 26.2972V46.9292H177.79V34.3302H171.787V26.2972H188.949Z" fill="#DBDBDB"/>
<path d="M253.116 33.2309V40.3337H243.816V22.4076H251.341C252.44 24.8598 253.116 28.3266 253.116 33.2309Z" fill="#DBDBDB"/>
<path d="M195.628 108.825V93.6047H224.203L208.732 109.079L195.628 108.825Z" fill="#DBDBDB"/>
<path d="M186.159 94.6194H171.787V108.994H186.159V94.6194Z" fill="#DBDBDB"/>
<path d="M157.669 62.1494H140.338V78.0462H157.669V62.1494Z" fill="#DBDBDB"/>
<path d="M157.669 81.1748V109.079H136.449L122.923 95.5495V81.1748H157.669Z" fill="#DBDBDB"/>
<path d="M119.118 98.5935L129.771 109.248H101.365V98.5935H119.118Z" fill="#DBDBDB"/>
<path d="M117.597 233.124H99.3357V220.271H112.44L117.597 233.124Z" fill="#DBDBDB"/>
<path d="M112.609 282.505V288.678H99.3357V261.281H102.971C103.986 269.399 107.452 276.671 112.609 282.505Z" fill="#DBDBDB"/>
<path d="M176.268 229.319L165.109 205.305H151.582L128.418 216.043L134.505 229.234H134.589C143.128 229.234 150.906 232.701 156.57 238.197L176.268 229.319Z" fill="#DBDBDB"/>
<path d="M253.116 199.386V215.367H235.7L220.99 199.386H253.116Z" fill="#DBDBDB"/>
<path d="M143.72 314.468L137.379 321.232H112.355C111.425 321.232 110.495 321.148 109.565 320.894V313.284H120.386V296.542L128.587 289.693L143.72 314.468Z" fill="#DBDBDB"/>
<path d="M195.29 286.31L173.309 263.395L164.855 269.991C162.319 278.108 156.655 284.873 149.3 288.762L167.645 318.78L195.29 286.31Z" fill="#DBDBDB"/>
<path d="M171.365 253.248L210 234.223H229.191V267.792L199.179 282.59L171.365 253.248Z" fill="#DBDBDB"/>
<path d="M253.116 307.872C252.862 314.637 248.128 320.133 242.126 321.148H239.928L253.116 307.872Z" fill="#DBDBDB"/>
<path d="M114.891 139.942V182.136L126.643 210.885L148.116 200.231H198.164L142.029 139.942H114.891Z" fill="#F38A97"/>
<path d="M237.053 79.5682H195.628V89.9687H227.246L237.053 79.5682Z" fill="#DBDBDB"/>
<path d="M106.775 206.235H99.3357V189.07L106.775 206.235Z" fill="#DBDBDB"/>
<path d="M253.116 234.223H234.517V256.208H253.116V234.223Z" fill="#DBDBDB"/>
<path d="M253.116 259.59H234.517V267.285H253.116V259.59Z" fill="#DBDBDB"/>
<path d="M229.952 313.791L222.512 321.232H173.732L199.517 289.693L229.952 313.791Z" fill="#DBDBDB"/>
<path d="M232.572 310.155L245.169 298.148L229.952 284.873V272.95L203.152 286.648L232.572 310.155Z" fill="#F38A97"/>
<path d="M253.116 270.667V289.354L248.128 294.005L234.517 282.59V270.667H253.116Z" fill="#DBDBDB"/>
<path d="M104.155 301.531V318.019C101.28 315.482 99.4203 311.508 99.4203 307.196V301.531H104.155Z" fill="#DBDBDB"/>
<path d="M115.99 303.306H109.565V309.733H115.99V303.306Z" fill="#DBDBDB"/>
<path d="M156.57 26.2972V47.6056H115.568V23.1686L122.669 16.5732H137.886C139.408 16.5732 140.592 18.2643 140.592 20.3783V21.3084C140.592 26.2127 143.297 26.2127 146.594 26.2127H156.57V26.2972Z" fill="#DBDBDB"/>
<path d="M112.101 34.4993H99.3357V47.5211H112.101V34.4993Z" fill="#DBDBDB"/>
<path d="M112.101 23.8451V31.117H99.4203C99.5048 28.0729 99.843 25.7053 100.435 23.8451H112.101Z" fill="#DBDBDB"/>
<path d="M118.865 16.6577L114.384 20.8856H101.703C104.07 16.9114 107.959 16.6577 112.355 16.6577H118.865Z" fill="#DBDBDB"/>
<path d="M200.531 177.57L217.947 195.834H234.517V177.57H200.531Z" fill="#DBDBDB"/>
<path d="M253.116 187.378H237.983V195.75H253.116V187.378Z" fill="#DBDBDB"/>
<path d="M246.86 177.57H237.983V185.18H246.86V177.57Z" fill="#DBDBDB"/>
<path d="M253.201 177.57H249.143V185.18H253.201V177.57Z" fill="#DBDBDB"/>
<path d="M170.35 205.305H198.164V218.58L180.411 226.697L170.35 205.305Z" fill="#DBDBDB"/>
<path d="M134.505 273.204C141.415 273.204 147.017 267.601 147.017 260.689C147.017 253.778 141.415 248.175 134.505 248.175C127.595 248.175 121.993 253.778 121.993 260.689C121.993 267.601 127.595 273.204 134.505 273.204Z" fill="#F38A97"/>
<path d="M106.014 62.1494H99.3357V71.789H106.014V62.1494Z" fill="#DBDBDB"/>
<path d="M118.78 95.1267V62.1494H108.551V88.7004H101.365V95.1267H118.78Z" fill="#DBDBDB"/>
<path d="M137.379 62.1494H122.923V77.2006H137.379V62.1494Z" fill="#DBDBDB"/>
<path d="M106.014 73.5646H99.3357V85.7409H106.014V73.5646Z" fill="#DBDBDB"/>
<path d="M249.988 145.1H228.514V165.647H249.988V145.1Z" fill="#DBDBDB"/>
<path d="M150.06 122.946L172.464 147.383H200.616V122.946H150.06Z" fill="#DBDBDB"/>
<path d="M175.676 150.173L189.879 165.647H200.531V150.173H175.676Z" fill="#DBDBDB"/>
<path d="M217.947 122.946H204.758V133.177H217.947V122.946Z" fill="#DBDBDB"/>
<path d="M250.072 132.755V109.84L239.674 98.5935L221.498 118.042V140.28H242.971V132.755H250.072Z" fill="#F38A97"/>
<path d="M253.116 84.4725V90.6452L250.157 87.7703L253.116 84.4725Z" fill="#DBDBDB"/>
<path d="M253.116 43.6314V62.5722L240.604 76.2705H224.203V43.6314H253.116Z" fill="#DBDBDB"/>
<path d="M220.399 55.6385H204.42V76.2705H220.399V55.6385Z" fill="#F38A97"/>
<path d="M240.604 22.4076V40.3337H220.399V53.0173H204.42V26.2972H205.857C208.901 26.2972 211.437 26.2972 211.775 22.4076H240.604Z" fill="#DBDBDB"/>
<path d="M202.391 26.2972H190.894V39.9109H202.391V26.2972Z" fill="#DBDBDB"/>
<path d="M202.391 49.2122H171.787V64.2634H202.391V49.2122Z" fill="#DBDBDB"/>
<path d="M202.391 42.0249H190.894V46.9292H202.391V42.0249Z" fill="#DBDBDB"/>
<path d="M186.159 91.829H177.79L171.787 86.0791V69.4214H186.159V91.829Z" fill="#DBDBDB"/>
<path d="M133.49 22.8304C133.406 22.915 133.321 22.9995 133.237 23.0841C133.152 23.1686 133.152 23.1686 133.068 23.2532C132.391 22.5767 131.63 22.2385 130.7 22.2385C129.771 22.2385 129.01 22.5767 128.333 23.2532C128.249 23.1686 128.249 23.1686 128.164 23.0841C128.08 22.9995 127.995 22.915 127.911 22.8304C127.995 22.7459 128.08 22.6613 128.249 22.5767C128.502 22.4076 128.756 22.2385 129.01 22.154C129.348 21.9848 129.601 21.9003 129.94 21.8157C130.109 21.8157 130.278 21.7312 130.447 21.7312C130.531 21.7312 130.87 21.7312 130.87 21.7312C130.954 21.7312 131.123 21.7312 131.208 21.7312C131.546 21.7312 131.8 21.8157 132.053 21.9003C132.222 21.9848 132.476 22.0694 132.645 22.154C132.814 22.2385 133.068 22.4076 133.237 22.5767C133.321 22.6613 133.406 22.7459 133.49 22.8304Z" fill="#A6A6A6"/>
<path d="M129.094 24.0142C128.925 23.8451 128.841 23.7605 128.671 23.5914C129.094 23.1686 129.601 22.915 130.278 22.8304C131.208 22.7458 131.969 22.9995 132.645 23.5914C132.476 23.7605 132.391 23.8451 132.222 24.0142C131.8 23.5914 131.208 23.3377 130.616 23.3377C130.109 23.3377 129.601 23.5069 129.094 24.0142Z" fill="#A6A6A6"/>
<path d="M131.969 24.3524C131.8 24.5216 131.715 24.6061 131.546 24.7752C131.292 24.5216 131.039 24.437 130.7 24.437C130.362 24.437 130.109 24.5216 129.855 24.7752C129.686 24.6061 129.601 24.5216 129.432 24.3524C130.109 23.7605 131.292 23.676 131.969 24.3524Z" fill="#A6A6A6"/>
<path d="M131.039 25.1135C131.039 25.2826 130.87 25.4517 130.7 25.4517C130.531 25.4517 130.362 25.2826 130.362 25.1135C130.362 24.9444 130.531 24.7752 130.7 24.7752C130.954 24.7752 131.039 24.9444 131.039 25.1135Z" fill="#A6A6A6"/>
<path d="M109.396 23.5914C109.396 22.9995 109.819 22.5768 110.411 22.5768C111.002 22.5768 111.425 22.9995 111.425 23.5914C111.425 24.1833 111.002 24.6061 110.411 24.6061C109.819 24.6061 109.396 24.0988 109.396 23.5914Z" fill="#A6A6A6"/>
<path d="M112.609 23.5914C112.609 22.9995 113.031 22.5768 113.623 22.5768C114.215 22.5768 114.638 22.9995 114.638 23.5914C114.638 24.1833 114.215 24.6061 113.623 24.6061C113.031 24.6061 112.609 24.0988 112.609 23.5914Z" fill="#A6A6A6"/>
<path d="M115.821 23.5914C115.821 22.9995 116.244 22.5768 116.836 22.5768C117.428 22.5768 117.85 22.9995 117.85 23.5914C117.85 24.1833 117.428 24.6061 116.836 24.6061C116.244 24.6061 115.821 24.0988 115.821 23.5914Z" fill="#A6A6A6"/>
<path d="M119.034 23.5914C119.034 22.9995 119.457 22.5768 120.048 22.5768C120.64 22.5768 121.063 22.9995 121.063 23.5914C121.063 24.1833 120.64 24.6061 120.048 24.6061C119.457 24.6061 119.034 24.0988 119.034 23.5914Z" fill="#A6A6A6"/>
<path d="M122.246 23.5914C122.246 22.9995 122.669 22.5768 123.261 22.5768C123.853 22.5768 124.275 22.9995 124.275 23.5914C124.275 24.1833 123.853 24.6061 123.261 24.6061C122.669 24.6061 122.246 24.0988 122.246 23.5914Z" fill="#A6A6A6"/>
<path d="M241.365 22.154H233.502V25.5362H241.365V22.154Z" fill="#A6A6A6" stroke="white" stroke-width="0.5" stroke-miterlimit="10"/>
<path d="M239.336 22.5768H234.01V25.1135H239.336V22.5768Z" fill="#A6A6A6"/>
<path d="M242.379 22.8304H241.618V24.8598H242.379V22.8304Z" fill="#A6A6A6"/>
<path d="M183.454 236.675L182.778 235.069L211.184 222.47H228.768L130.278 114.913H164.01V51.5798H165.7V116.604H134.167L232.657 224.161H211.522L183.454 236.675Z" fill="#CC142A"/>
<path d="M170.604 41.6021C170.35 38.7272 168.321 35.9368 164.855 35.9368C161.389 35.9368 159.444 38.8117 159.106 41.6021C158.684 45.9991 161.643 49.9732 164.855 53.6092C168.068 50.0578 171.027 46.0836 170.604 41.6021ZM164.855 44.8153C163.164 44.8153 161.727 43.4623 161.727 41.6866C161.727 39.9955 163.164 38.558 164.855 38.558C166.63 38.558 167.983 39.9955 167.983 41.6866C167.983 43.3778 166.546 44.8153 164.855 44.8153Z" fill="#CC142A"/>
<path d="M179.227 246.907L179.143 238.113L172.126 232.87L189.372 233.124L179.227 246.907Z" fill="#37474F"/>
<path d="M281.775 202.091C281.775 215.959 270.531 227.205 256.667 227.205C249.143 227.205 242.379 223.907 237.814 218.665H189.034L182.186 231.264L175.338 218.665H169.082V185.518H237.729C242.295 180.276 249.058 176.978 256.582 176.978C270.531 177.063 281.775 188.309 281.775 202.091Z" fill="white"/>
<path d="M281.775 202.091C281.775 204.628 281.353 207.165 280.676 209.617C279.915 212.069 278.816 214.352 277.379 216.466C274.505 220.609 270.362 223.907 265.543 225.683C264.952 225.852 264.36 226.19 263.768 226.275L261.908 226.782C261.316 226.867 260.64 226.951 260.048 227.12C259.457 227.205 258.78 227.289 258.188 227.289C255.652 227.459 253.116 227.205 250.58 226.613C245.676 225.429 241.111 222.639 237.729 218.834L237.814 218.918L189.034 219.087L189.287 218.918L182.524 231.602L182.186 232.194L181.848 231.602L175 219.003L175.338 219.172H169.082H168.659V218.749C168.659 213.253 168.659 207.672 168.659 202.176L168.744 185.603V185.265H169.082L237.729 185.434L237.56 185.603V185.518V185.434C240.942 181.629 245.507 178.838 250.411 177.654C252.862 177.063 255.483 176.809 257.935 176.978C258.611 176.978 259.203 177.063 259.795 177.147C260.386 177.232 261.063 177.316 261.655 177.485L263.515 177.993C264.106 178.162 264.698 178.415 265.29 178.585C270.024 180.36 274.167 183.658 277.126 187.801C278.563 189.915 279.662 192.198 280.423 194.65C281.437 197.103 281.775 199.555 281.775 202.091ZM281.775 202.091C281.691 199.555 281.353 197.018 280.592 194.65C279.831 192.283 278.647 190 277.21 187.886C274.336 183.743 270.193 180.445 265.459 178.754C264.867 178.585 264.275 178.246 263.684 178.162L261.824 177.654C261.232 177.57 260.556 177.485 259.964 177.401C259.372 177.316 258.696 177.232 258.104 177.232C255.568 177.063 253.031 177.316 250.58 177.908C245.676 179.092 241.196 181.882 237.899 185.687V185.603V185.772H237.729L169.082 185.941L169.42 185.603L169.505 202.176C169.505 207.672 169.505 213.253 169.505 218.749L169.082 218.326H175.338H175.592L175.676 218.496L182.44 231.179H181.848L188.696 218.58L188.78 218.411H188.949L237.729 218.58H237.814L237.899 218.665C241.196 222.47 245.676 225.26 250.58 226.444C253.031 227.036 255.568 227.289 258.104 227.12C258.696 227.12 259.372 227.036 259.964 226.951C260.556 226.867 261.232 226.782 261.824 226.698L263.684 226.19C264.275 226.021 264.867 225.767 265.459 225.598C270.193 223.907 274.336 220.609 277.21 216.466C278.647 214.352 279.746 212.069 280.592 209.702C281.353 207.165 281.775 204.628 281.775 202.091Z" fill="#263238"/>
<path d="M267.028 221.391C277.672 215.652 281.649 202.369 275.911 191.723C270.173 181.077 256.892 177.099 246.248 182.838C235.604 188.577 231.627 201.86 237.365 212.506C243.103 223.152 256.384 227.13 267.028 221.391Z" fill="#EDE2FC"/>
<path d="M187.681 198.963C187.428 196.088 185.399 193.297 181.932 193.297C178.466 193.297 176.522 196.172 176.184 198.963C175.761 203.36 178.72 207.334 181.932 210.97C185.145 207.334 188.188 203.36 187.681 198.963ZM182.017 202.091C180.326 202.091 178.889 200.739 178.889 198.963C178.889 197.272 180.326 195.834 182.017 195.834C183.792 195.834 185.145 197.272 185.145 198.963C185.145 200.739 183.708 202.091 182.017 202.091Z" fill="#CC142A"/>
<path d="M228.514 195.834H193.937V196.849H228.514V195.834Z" fill="#A6A6A6"/>
<path d="M223.104 198.794H193.937V199.808H223.104V198.794Z" fill="#A6A6A6"/>
<path d="M226.824 201.669H193.937V202.683H226.824V201.669Z" fill="#A6A6A6"/>
<path d="M213.551 204.544H193.937V205.558H213.551V204.544Z" fill="#A6A6A6"/>
<path d="M152.512 313.199L133.913 281.913L135.266 281.829C135.35 281.829 145.664 280.73 152.597 271.597C159.444 262.55 153.357 249.697 153.357 249.613L153.019 248.851L180.495 236.337L181.171 237.859L155.302 249.697C156.57 252.741 160.628 264.072 154.034 272.697C148.031 280.56 139.915 282.759 136.787 283.351L154.118 312.438L152.512 313.199Z" fill="#37474F"/>
<path d="M158.937 303.306C158.684 300.431 156.655 297.641 153.188 297.641C149.722 297.641 147.778 300.516 147.44 303.306C147.017 307.703 149.976 311.677 153.188 315.313C156.401 311.762 159.36 307.703 158.937 303.306ZM153.273 306.519C151.582 306.519 150.145 305.166 150.145 303.391C150.145 301.7 151.582 300.262 153.273 300.262C155.048 300.262 156.401 301.7 156.401 303.391C156.401 305.082 154.964 306.519 153.273 306.519Z" fill="#CC142A"/>
<path d="M271.546 218.242C269.855 219.764 267.911 221.117 265.797 222.047C263.007 223.315 259.964 224.076 256.667 224.076C255.652 224.076 254.638 223.992 253.708 223.823C253.031 223.738 252.44 223.653 251.763 223.484C252.862 220.271 253.877 217.65 254.722 216.043C254.807 215.874 254.976 215.621 255.06 215.451C255.229 215.198 255.399 214.944 255.568 214.69C256.413 213.676 258.527 213.168 260.809 213.084C261.824 213.084 262.838 213.084 263.768 213.253C264.614 213.338 265.459 213.507 266.135 213.76C266.22 213.76 266.22 213.76 266.304 213.845H266.389C266.558 213.929 266.812 214.014 266.981 214.014C267.15 214.099 267.319 214.183 267.488 214.268H267.572C267.911 214.437 268.08 214.606 268.333 214.775C268.502 214.944 268.672 215.029 268.841 215.198C269.686 215.959 270.616 216.973 271.546 218.242Z" fill="#EBEBEB"/>
<path d="M271.884 217.904C271.8 217.988 271.63 218.157 271.546 218.242C269.855 219.764 267.911 221.117 265.797 222.047C266.389 217.819 266.896 214.521 266.981 214.014C266.981 213.929 266.981 213.929 266.981 213.929C266.981 213.929 267.15 214.014 267.488 214.268H267.572C267.911 214.437 268.333 214.775 268.841 215.198C269.601 215.79 270.7 216.72 271.884 217.904Z" fill="#37474F"/>
<path d="M255.229 214.437C255.229 214.437 255.145 214.775 255.06 215.451C254.976 215.705 254.976 216.043 254.891 216.297C254.807 216.551 254.807 216.804 254.722 217.143C254.469 218.834 254.046 221.286 253.623 223.823C252.947 223.738 252.355 223.653 251.679 223.484C251.594 223.484 251.51 223.484 251.425 223.4C252.609 219.764 253.708 216.804 254.553 215.198C254.891 214.86 255.06 214.606 255.229 214.437Z" fill="#37474F"/>
<path d="M257.85 221.962C260.386 222.216 265.121 218.749 266.473 215.029C266.558 214.775 265.797 212.323 265.036 209.363C264.614 207.588 264.106 205.558 263.768 203.613C263.684 203.191 252.44 208.349 252.44 208.349C252.44 208.349 254.215 212.069 254.722 215.367C254.722 215.621 254.807 215.874 254.722 216.128C254.722 216.128 254.722 216.212 254.722 216.297C254.807 217.819 255.145 221.624 257.85 221.962Z" fill="#D3766A"/>
<path d="M254.807 216.212C254.807 216.212 254.807 216.297 254.807 216.382C255.145 216.382 255.568 216.297 255.99 216.212C262.923 214.944 263.345 205.981 263.345 203.698C261.316 204.29 252.44 208.349 252.44 208.349C252.44 208.349 254.215 212.069 254.722 215.367C254.807 215.621 254.807 215.959 254.807 216.212Z" fill="#263238"/>
<path d="M263.684 188.647C265.459 192.706 264.783 205.135 262.162 208.18C258.357 212.661 251.256 213.929 247.283 209.11C243.394 204.459 244.577 188.309 247.621 185.434C252.101 181.206 260.978 182.643 263.684 188.647Z" fill="#D3766A"/>
<path d="M255.06 197.356C255.06 197.356 255.145 197.441 255.06 197.356C255.06 198.286 255.145 199.217 255.821 199.555V199.639C254.976 199.47 254.891 198.117 255.06 197.356Z" fill="#263238"/>
<path d="M255.821 196.511C257.174 196.511 257.174 199.217 255.906 199.217C254.722 199.301 254.722 196.595 255.821 196.511Z" fill="#263238"/>
<path d="M249.988 197.441C249.903 197.441 249.903 197.525 249.988 197.441C249.903 198.371 249.819 199.301 249.058 199.555V199.639C249.988 199.555 250.072 198.286 249.988 197.441Z" fill="#263238"/>
<path d="M249.227 196.595C247.874 196.511 247.705 199.217 248.973 199.301C250.242 199.386 250.326 196.68 249.227 196.595Z" fill="#263238"/>
<path d="M256.92 195.327C256.582 195.242 256.244 195.073 255.906 194.904C255.483 194.735 255.145 194.65 254.891 194.312C254.722 194.143 254.807 193.805 254.976 193.636C255.399 193.298 255.906 193.382 256.413 193.467C256.92 193.636 257.343 193.889 257.597 194.397C257.935 194.904 257.428 195.411 256.92 195.327Z" fill="#263238"/>
<path d="M248.213 195.242C248.551 195.158 248.889 195.073 249.312 194.989C249.734 194.904 250.072 194.82 250.326 194.481C250.495 194.312 250.495 193.974 250.326 193.805C249.988 193.382 249.396 193.382 248.889 193.551C248.382 193.636 247.959 193.889 247.621 194.312C247.283 194.65 247.705 195.242 248.213 195.242Z" fill="#263238"/>
<path d="M255.145 205.135C254.976 205.305 254.722 205.558 254.469 205.643C254.215 205.643 253.877 205.558 253.539 205.389C253.539 205.389 253.454 205.389 253.539 205.474C253.792 205.812 254.215 205.981 254.638 205.981C254.976 205.897 255.145 205.558 255.145 205.135C255.229 205.135 255.145 205.135 255.145 205.135Z" fill="#263238"/>
<path d="M254.3 202.683C253.792 203.444 253.116 203.783 252.355 203.952C252.017 204.036 251.679 204.036 251.341 203.952C251.256 203.952 251.172 203.952 251.172 203.952C251.087 203.952 251.087 203.952 251.002 203.952C250.918 203.952 250.833 203.867 250.833 203.783V203.698V203.613C250.833 202.937 250.918 202.007 250.918 202.007C250.664 202.091 249.481 202.683 249.481 202.345C249.65 199.555 249.903 196.426 250.664 193.72C250.664 193.636 250.833 193.636 250.833 193.72C250.749 196.426 250.157 199.047 250.072 201.753C250.495 201.584 251.087 201.33 251.425 201.33C251.51 201.33 251.256 203.191 251.256 203.529C252.355 203.613 253.2 203.275 254.3 202.683C254.3 202.514 254.384 202.599 254.3 202.683Z" fill="#263238"/>
<path d="M251.763 203.613C251.763 203.613 252.355 204.375 253.116 204.713C253.37 204.797 253.708 204.882 254.046 204.797C254.722 204.628 254.722 204.036 254.638 203.529C254.553 203.106 254.384 202.683 254.384 202.683C254.384 202.683 253.285 203.529 251.763 203.613Z" fill="#263238"/>
<path d="M253.116 204.628C253.37 204.713 253.708 204.797 254.046 204.713C254.722 204.544 254.722 203.952 254.638 203.444C253.877 203.529 253.116 203.952 253.116 204.628Z" fill="#FF9ABB"/>
<path d="M245.761 189.492C246.268 188.393 246.775 187.378 247.452 187.125C248.128 186.956 249.396 188.816 250.833 188.901C252.778 189.07 254.13 186.871 256.836 186.702C259.626 186.533 261.232 189.831 261.316 195.496C261.316 200.485 264.36 200.992 264.36 200.992C264.36 200.992 266.304 190 263.261 186.279C260.217 182.559 253.116 180.868 248.213 184.334C246.437 185.687 245.761 189.492 245.761 189.492Z" fill="#263238"/>
<path d="M261.824 199.047C261.824 199.047 264.191 194.82 266.051 195.581C267.911 196.342 266.473 202.261 264.444 203.275C262.415 204.29 261.486 202.43 261.486 202.43L261.824 199.047Z" fill="#D3766A"/>
<path d="M265.628 197.272C265.628 197.272 265.628 197.356 265.628 197.272C264.275 198.117 263.599 199.555 263.176 200.992C263.514 200.4 264.106 200.062 264.867 200.485V200.569C264.275 200.485 263.853 200.654 263.515 201.161C263.261 201.5 263.092 202.007 262.923 202.43C262.838 202.599 262.585 202.514 262.669 202.345C262.415 200.485 263.599 197.694 265.628 197.272Z" fill="#263238"/>
<path d="M36.6908 102.399C39.3961 103.836 39.9034 108.656 48.3575 108.318C49.5411 108.318 50.5556 107.81 51.6546 108.233C53.2609 108.825 54.529 110.093 55.9662 111.108C57.1498 111.869 58.4179 112.376 59.8551 112.63C62.4758 112.968 65.1812 112.292 67.4638 110.854C68.8164 110.009 70 108.825 71.3527 107.895C72.6208 107.049 80.8213 105.02 82.1739 100.454C83.0193 97.5789 82.9348 94.2811 79.4686 90.0533C78.7923 89.2077 78.0314 88.3621 77.9469 87.2629C77.8623 86.2482 78.285 85.4026 78.5386 84.5571C78.8768 83.5424 79.2995 82.5277 79.0459 81.4285C78.7923 80.3292 77.9469 79.5682 77.2705 78.8072C76.0024 77.2852 76.256 75.0867 77.2705 72.2963C78.2005 69.9287 77.6932 67.3074 76.4251 65.278C75.6642 64.0097 74.5652 63.0796 73.4662 62.0649C71.9444 60.6274 71.6063 59.1899 70.93 57.1606C69.5773 53.1864 67.5483 51.4107 65.0966 50.1423C62.8985 49.0431 62.9831 49.4659 60.6159 49.8041C58.2488 48.3666 55.3744 47.7747 52.6691 48.113C50.1328 48.4512 48.0193 50.1423 46.0749 51.8335C44.3841 53.2709 42.7778 54.8775 42.6932 57.3297C42.6087 58.7672 42.9469 60.2046 42.9469 61.6421C42.8623 63.4178 41.8478 64.6016 40.6642 65.7854C38.9734 67.392 37.5362 69.3368 37.1135 71.7044C36.7754 73.6492 38.7198 76.6087 36.4372 79.4836C34.4927 82.0204 31.0266 84.8953 30.0966 88.1085C27.3913 97.8325 34.1546 101.046 36.6908 102.399Z" fill="#263238"/>
<path d="M69.4927 107.726C73.3816 107.134 79.3841 107.895 81.413 103.498C82.9348 102.145 83.9493 100.285 83.8647 97.9171C83.7802 95.6341 82.4275 93.6047 80.9058 91.9981C80.0604 91.068 79.0459 90.1378 78.4541 88.954C78.2005 88.1085 78.0314 87.1783 77.9468 86.3328C78.0314 85.2335 78.4541 84.0497 78.8768 83.035C78.8768 83.035 78.8768 82.9505 78.7923 83.035C77.9468 84.8107 77.186 86.8401 77.9468 88.7849C78.0314 89.0386 78.2005 89.3768 78.3696 89.6305C78.6232 90.6452 79.0459 91.6599 79.5531 92.6746C80.8212 95.2113 82.0048 97.4943 81.8357 100.454C81.7512 101.638 81.4976 102.568 81.1594 103.329C79.5531 104.851 77.3551 105.612 75.157 105.95C75.0725 105.95 75.0725 106.035 75.157 106.035C77.1014 105.781 79.1304 105.189 80.8212 104.005C78.5386 107.218 73.2971 106.796 69.4927 107.557C69.4082 107.641 69.4082 107.726 69.4927 107.726ZM81.7512 102.821V102.737C82.5121 100.454 82.1739 97.748 81.244 95.5495C80.6522 94.0275 79.7222 92.6746 79.1304 91.1525C79.0459 90.8989 78.9613 90.6452 78.8768 90.3915C79.7222 91.5753 80.9058 92.59 81.7512 93.6892C83.6111 96.226 84.1184 99.1854 82.4275 101.976C82.2584 102.23 82.0048 102.568 81.7512 102.821Z" fill="#263238"/>
<path d="M28.3213 97.6634C28.4058 97.748 28.4903 97.6634 28.4058 97.5789C26.7995 94.7039 27.2222 91.829 28.5749 89.1232C27.9831 93.0128 28.744 97.4097 32.2947 99.5237C32.3792 99.5237 32.3792 99.4391 32.3792 99.4391C28.6594 97.2406 28.1522 92.1672 29.0821 88.193C29.9275 86.8401 30.942 85.5718 31.9565 84.4725C33.6473 82.6123 35.7609 80.8366 37.029 78.5535C36.7754 79.8219 36.1836 80.8366 34.9155 81.8512C34.8309 81.9358 34.9155 82.0204 35 81.9358C36.099 81.0902 37.029 79.991 37.3671 78.5535C37.4517 78.2999 37.4517 77.9616 37.4517 77.708C37.7899 76.9469 37.9589 76.1859 38.0435 75.4249H37.9589C37.8744 76.1859 37.6208 76.8624 37.3671 77.4543C37.2826 76.1859 36.8599 75.0021 36.5217 73.8183C35.5918 70.436 37.2826 68.4067 39.3961 66.631C39.5652 66.5464 39.7343 66.3773 39.9034 66.2927C41.0024 65.6163 42.1014 64.8553 42.6932 63.6715C42.8623 63.5024 42.9469 63.3333 43.1159 63.2487C43.0314 63.3333 42.8623 63.5024 42.7778 63.5869C42.9469 63.2487 43.0314 62.995 43.1159 62.5722C42.8623 63.1641 42.5242 63.6715 42.186 64.0943C41.3406 64.7707 40.4106 65.4472 39.5652 66.1236C37.8744 67.1383 36.2681 68.0684 35.5918 70.0978C35 72.0426 35.4227 74.072 35.5918 76.0168C35.8454 79.0609 34.7464 81.5976 31.9565 82.7814C31.872 82.7814 31.872 82.8659 31.9565 82.8659C32.1256 82.7814 32.3792 82.7814 32.5483 82.6123C30.942 83.9652 29.5048 85.4026 28.8285 87.5166C27.0531 90.6452 26.2077 94.4503 28.3213 97.6634ZM35.3382 80.6674C35 80.9211 34.7464 81.1748 34.4082 81.4285C34.8309 80.9211 35.1691 80.3292 35.4227 79.6528C36.1836 77.5388 35.5918 75.1712 35.5072 72.9728C35.4227 70.6052 36.2681 69.2522 37.6208 68.0684C37.029 68.7449 36.5217 69.5905 36.2681 70.5206C35.7609 72.1272 36.2681 73.6492 36.7754 75.2558C37.1135 76.355 37.1981 77.3697 37.1135 78.2998C36.6063 79.1454 36.0145 79.9064 35.3382 80.6674ZM29.6739 86.5864C30.5193 84.8107 32.0411 83.4578 33.5628 82.1895C33.6473 82.1049 33.8164 82.0204 33.901 81.9358C34.3237 81.5976 34.7464 81.2593 35.1691 80.8366C33.3937 82.8659 31.1956 84.6416 29.6739 86.5864Z" fill="#263238"/>
<path d="M72.9589 61.3884C74.3961 62.6568 75.8333 64.0097 77.1014 65.3626C78.0314 66.3773 78.5386 67.4765 78.6232 68.8295C78.7077 70.1824 78.2005 71.3662 77.4396 72.4654C77.186 72.8882 76.8478 73.311 76.5942 73.8183C76.5097 74.6639 76.5942 75.4249 77.0169 76.2705C77.6087 77.7925 79.0459 78.7226 79.7222 80.2447C80.8213 82.6968 79.6377 84.7262 78.5386 86.9247C79.2995 85.149 80.314 83.3733 79.7222 81.3439C79.215 79.6528 78.0314 78.8072 77.1014 77.4543C76.5097 76.6087 76.256 75.594 76.1715 74.5793C75.3261 76.1859 75.0725 77.9616 76.5097 79.7373C76.5942 79.8219 76.5097 79.9064 76.4251 79.8219C74.5652 77.9616 75.0725 75.7631 76.1715 73.7338C76.256 72.55 76.5097 71.3662 76.9324 70.3515C77.0169 70.2669 77.1014 70.3515 77.1014 70.436C76.9324 71.2816 76.7633 72.1272 76.5942 72.9728C76.6787 72.8882 76.7633 72.8036 76.7633 72.7191C78.2005 70.6052 78.7923 68.2376 77.1014 66.0391C76.0024 64.3479 74.3116 62.995 72.9589 61.3884C72.8744 61.473 72.9589 61.3884 72.9589 61.3884Z" fill="#263238"/>
<path d="M121.147 351.335C119.203 351.927 62.5604 350.743 60.5314 349.305C59.7705 348.798 64.5894 295.189 64.5894 295.189L100.519 295.865L96.4613 331.717C96.4613 331.717 117.343 341.611 119.457 343.386C121.486 345.162 123.092 350.743 121.147 351.335Z" fill="#AD6359"/>
<path d="M121.147 351.335C119.203 351.927 62.5604 350.743 60.5314 349.305C60.2778 349.136 60.1932 343.725 61.1232 336.622C71.3527 338.313 108.043 343.978 110.918 342.287C112.947 341.103 111.171 339.328 109.481 338.059C114.13 340.427 118.527 342.625 119.457 343.386C121.486 345.162 123.092 350.743 121.147 351.335Z" fill="#263238"/>
<path d="M97.3913 323.177L62.1377 322.67C62.1377 322.67 69.1546 238.197 68.8164 236.591C68.4783 234.477 43.4541 136.391 43.4541 136.391H77.1014C77.1014 136.391 103.647 227.797 104.577 236.591C106.184 250.881 97.3913 323.177 97.3913 323.177Z" fill="#37474F"/>
<path d="M65.3502 314.721C67.4638 314.552 69.5773 314.637 71.6063 314.552C73.7198 314.552 75.7488 314.552 77.8623 314.552C82.0048 314.552 86.2319 314.637 90.3744 314.806C91.558 314.806 92.657 314.891 93.8406 314.891C95.0242 314.975 96.2923 315.144 97.4758 315.229C97.5604 315.229 97.5604 315.398 97.4758 315.398C96.4614 315.398 95.4469 315.567 94.4324 315.567C93.3333 315.567 92.3188 315.567 91.2198 315.567C89.1063 315.567 87.0773 315.567 84.9638 315.567C80.8213 315.567 76.5942 315.482 72.4517 315.313C70.0845 315.229 67.7174 315.229 65.3502 314.975C65.1812 314.891 65.1812 314.721 65.3502 314.721Z" fill="#263238"/>
<path d="M50.8937 144.339C53.9372 154.993 56.6425 165.732 59.3478 176.471C62.0531 187.209 64.7584 197.948 67.3792 208.771C68.7319 214.183 70.0845 219.51 71.3527 224.922C72.6208 230.164 74.1425 235.407 74.4807 240.819C74.8188 246.315 74.1425 251.896 73.6353 257.307C73.128 262.803 72.7053 268.3 72.1981 273.796C71.2681 284.788 70.3382 295.865 69.07 306.858C68.901 308.211 68.7319 309.648 68.6473 311.001C68.6473 311.085 68.4783 311.085 68.4783 311.001C69.2391 300.009 70 288.932 70.8454 277.939C71.2681 272.443 71.7754 266.947 72.1981 261.451C72.6208 255.954 73.2971 250.458 73.4662 244.962C73.6353 239.381 72.6208 234.054 71.2681 228.727C69.9155 223.484 68.6473 218.242 67.2947 212.915C64.5894 202.176 61.8841 191.437 59.2633 180.614C56.3043 168.607 53.2609 156.515 50.6401 144.339C50.7246 144.339 50.8937 144.254 50.8937 144.339Z" fill="#263238"/>
<path d="M43.4541 136.475C43.4541 136.475 54.1908 178.585 61.715 208.179L76.0024 136.475H43.4541Z" fill="#263238"/>
<path d="M78.8768 351.504C76.9324 352.096 20.2899 350.912 18.2609 349.474C17.5 348.967 20.4589 295.273 20.4589 295.273L55.8816 295.95L54.1908 331.887C54.1908 331.887 75.0725 341.78 77.186 343.555C79.215 345.331 80.8213 350.912 78.8768 351.504Z" fill="#AD6359"/>
<path d="M78.8768 351.504C76.9324 352.096 20.2899 350.912 18.2609 349.474C18.0072 349.305 18.0918 343.978 18.2609 336.791C28.4903 338.482 65.7729 344.147 68.5628 342.456C70.5918 341.272 68.8164 339.497 67.1256 338.228C71.7754 340.596 76.1715 342.794 77.1014 343.555C79.215 345.331 80.8213 350.912 78.8768 351.504Z" fill="#263238"/>
<path d="M76.0024 136.391C76.0024 136.391 74.9879 152.456 71.1836 165.225C70.8454 166.239 70.5072 167.338 70.1691 168.269C70.1691 168.269 66.2802 169.621 60.4469 173.173C60.4469 173.173 57.9952 234.73 58.0797 238.536C58.2488 252.826 54.6135 322.501 54.6135 322.501L19.1063 322.162C19.1063 322.162 22.8261 243.44 22.8261 238.197C22.8261 233.124 25.2778 201.161 27.3913 173.427C27.3913 173.427 24.2633 164.548 24.6014 160.067C25.4469 149.243 30.3502 136.391 30.3502 136.391H76.0024Z" fill="#37474F"/>
<path d="M68.3092 158.037C68.4783 157.107 68.5628 156.261 68.7319 155.331C68.9855 153.725 69.3237 152.118 69.5773 150.427C70.2536 146.706 70.93 143.071 71.6908 139.35C71.6908 139.265 71.8599 139.265 71.8599 139.35C71.6908 140.788 71.5217 142.31 71.3527 143.747C71.1836 145.184 71.0145 146.706 70.7609 148.144C70.3382 151.019 69.9155 153.978 69.4082 156.853C69.2391 157.953 68.4783 159.982 70.1691 160.32C71.4372 160.574 72.3672 159.306 72.7899 158.291C73.2126 157.022 73.3816 155.585 73.6353 154.232C73.8889 152.795 74.1425 151.273 74.3116 149.835C74.7343 146.622 75.2415 143.409 75.7488 140.196C75.7488 140.111 75.9179 140.111 75.9179 140.196C75.8333 143.493 75.6643 146.791 75.2415 150.089C75.0725 151.695 74.8188 153.217 74.5652 154.739C74.3116 156.177 74.1425 157.783 73.4662 159.136C72.9589 160.151 72.029 161.166 70.8454 161.25H70.7609L70.8454 161.335C70.8454 161.842 70.8454 162.35 70.7609 162.941C70.6763 163.449 70.5918 163.956 70.5073 164.463C70.4227 164.971 70.2536 165.478 70.0845 165.986C70 166.239 69.9155 166.493 69.8309 166.662C69.7464 166.916 69.5773 167.085 69.4082 167.338C69.3237 167.423 69.2391 167.338 69.2391 167.254C69.2391 167.169 69.2391 167.085 69.2391 167C69.2391 167 69.2391 167 69.2391 166.916C69.2391 166.747 69.2391 166.577 69.2391 166.493C69.2391 166.239 69.3237 165.986 69.4082 165.732C69.4928 165.224 69.6618 164.717 69.7464 164.21C69.9155 163.702 70 163.195 70.0845 162.772C70.2536 162.265 70.4227 161.758 70.5073 161.25C70.5073 161.25 70.5073 161.25 70.5073 161.166C69.5773 161.166 68.6473 160.658 68.2246 159.728C68.0556 159.39 68.1401 158.714 68.3092 158.037Z" fill="#263238"/>
<path d="M57.5725 174.357C58.587 173.511 59.7705 172.835 60.9541 172.158C62.2222 171.397 63.4903 170.721 64.7585 170.213C67.2947 169.114 70 168.353 72.6208 167.423C72.7053 167.423 72.7899 167.508 72.7053 167.592C70.1691 168.607 67.6329 169.96 65.1812 171.228C63.9976 171.82 62.7295 172.412 61.4614 172.919C60.1932 173.511 59.0097 174.103 57.657 174.61C57.5725 174.61 57.4879 174.441 57.5725 174.357Z" fill="#263238"/>
<path d="M37.5362 151.949C39.3116 151.949 41.1715 151.695 42.8623 151.188C43.7077 151.019 44.4686 150.681 45.2295 150.427C45.9903 150.173 46.7512 149.835 47.4275 149.328C48.6111 148.313 49.2029 146.622 49.7101 145.184C50.3019 143.493 50.7246 141.802 51.1473 140.111C51.1473 140.026 51.3164 140.026 51.3164 140.111C51.401 142.056 51.0628 144.001 50.5556 145.861C50.1328 147.468 49.5411 149.243 48.2729 150.342C46.9203 151.526 45.0604 151.949 43.3696 152.118C41.4251 152.372 39.4807 152.287 37.5362 152.034C37.3671 152.118 37.3671 151.949 37.5362 151.949Z" fill="#263238"/>
<path d="M20.628 315.229C22.7415 315.06 24.8551 315.144 26.8841 315.06C28.9976 315.06 31.0266 315.06 33.1401 315.06C37.2826 315.06 41.5097 315.144 45.6522 315.313C46.8358 315.313 47.9348 315.398 49.1184 315.398C50.3019 315.482 51.5701 315.652 52.7536 315.736C52.8382 315.736 52.8382 315.905 52.7536 315.905C51.7391 315.905 50.7246 316.074 49.7101 316.074C48.6111 316.074 47.5966 316.074 46.4976 316.074C44.3841 316.074 42.3551 316.074 40.2415 316.074C36.099 316.074 31.872 315.99 27.7295 315.821C25.3623 315.736 22.9952 315.736 20.628 315.482C20.4589 315.482 20.4589 315.229 20.628 315.229Z" fill="#263238"/>
<path d="M24.9396 310.578C24.686 310.578 24.5169 310.324 24.5169 310.155L32.5483 172.327C32.4638 171.735 30.1812 164.041 30.0121 160.067C29.7585 155.923 34.07 139.688 34.2391 139.012C34.3237 138.758 34.5773 138.674 34.7464 138.674C35 138.758 35.0845 139.012 35.0845 139.181C35 139.35 30.6039 155.923 30.8575 159.982C31.0266 164.041 33.3937 172.074 33.3937 172.158L25.3623 310.155C25.3623 310.409 25.1932 310.578 24.9396 310.578Z" fill="#263238"/>
<path d="M65.0121 88.3621C82.343 103.667 98.4903 120.409 99.843 129.034C101.703 140.957 94.3478 144.423 91.0507 144.508C82.0894 144.677 65.3503 108.487 59.5169 94.6194C53.8527 81.1748 61.2077 85.0644 65.0121 88.3621Z" fill="#9552EC"/>
<path d="M76.9324 136.391L74.4807 121.17C74.4807 121.17 80.4831 114.913 77.3551 108.402C75.7488 105.104 65.0966 88.954 59.3478 84.8953C54.0217 81.0902 47.6812 84.2188 45.2295 88.3621C39.2271 98.7627 33.5628 110.685 30.0966 136.306L76.9324 136.391Z" fill="#9552EC"/>
<path d="M67.3792 119.225C64.9275 119.564 62.5604 119.902 60.1932 120.578C59.0097 120.917 57.9106 121.255 56.7271 121.678C56.1353 121.847 55.5435 122.1 55.0362 122.27C54.4444 122.439 53.7681 122.608 53.1763 122.692C53.0918 122.692 53.0918 122.777 53.1763 122.777C53.7681 122.777 54.3599 122.777 54.9517 122.692C55.5435 122.608 56.1353 122.523 56.6425 122.354C57.8261 122.016 59.0097 121.678 60.1932 121.339C62.5604 120.663 65.0121 119.986 67.3792 119.479C67.5483 119.395 67.4638 119.225 67.3792 119.225Z" fill="#263238"/>
<path d="M73.4662 121.255C71.4372 121.086 69.4082 121.001 67.4638 121.086C66.4493 121.086 65.4348 121.17 64.4203 121.339C63.913 121.424 63.4903 121.424 62.9831 121.509C62.4758 121.593 61.9686 121.762 61.4614 121.762C61.3768 121.762 61.3768 121.847 61.4614 121.847C61.9686 121.762 62.4758 121.847 62.9831 121.847C63.4903 121.847 63.9976 121.762 64.5048 121.762C65.5193 121.678 66.5338 121.678 67.5483 121.593C69.5773 121.509 71.5217 121.424 73.5507 121.339C73.5507 121.424 73.5507 121.339 73.4662 121.255Z" fill="#263238"/>
<path d="M44.7222 86.9247C28.5749 99.6082 12.6812 121.509 12.5966 133.769C12.5121 145.861 16.6546 144.677 17.9227 144.593C25.1932 144.085 42.4396 110.432 47.6812 96.7333C52.9227 83.1196 48.7802 83.7961 44.7222 86.9247Z" fill="#9552EC"/>
<path d="M27.6449 135.122C28.4903 133.6 29.3357 132.078 30.1812 130.556L32.7174 125.99C34.4082 122.946 36.099 119.902 37.7053 116.773C39.3961 113.729 41.0024 110.601 42.6087 107.557C43.3696 106.035 44.215 104.428 44.9758 102.906C45.7367 101.384 46.4976 99.7774 47.1739 98.1708C46.0749 101.469 44.6377 104.682 43.2005 107.81C41.7633 110.939 40.0725 114.068 38.4662 117.196C36.7754 120.24 35.0845 123.284 33.3092 126.328C31.4493 129.288 29.6739 132.332 27.6449 135.122Z" fill="#263238"/>
<path d="M45.3985 102.23C45.7367 101.638 46.0749 101.13 46.413 100.623C46.5821 100.369 46.7512 100.116 46.9203 99.8619C47.0894 99.6082 47.2585 99.3546 47.5121 99.1009C47.343 99.6928 47.0894 100.285 46.7512 100.792C46.3285 101.384 45.9058 101.891 45.3985 102.23Z" fill="#263238"/>
<path d="M94.7705 111.362C93.9251 105.696 92.2343 97.748 90.2053 96.1414C88.0918 94.4502 80.2295 88.7004 78.0314 87.9393C75.7488 87.1783 65.7729 83.5424 63.913 84.5571C62.4758 85.4026 64.2512 89.2923 68.9855 91.068C73.2126 92.6745 75.3261 94.112 76.5097 94.6194C77.6932 95.1267 80.7367 99.0163 79.8913 100.792C79.4686 101.807 76.4251 103.075 74.5652 102.229C72.7053 101.384 72.1981 97.748 70.0845 96.0568C67.971 94.3657 64.1667 94.6194 63.9976 95.634C63.8285 96.6487 65.0121 97.0715 66.9565 100.538C68.2246 102.737 68.3937 108.064 71.1836 111.784C72.6208 113.645 75.157 118.718 75.157 118.718L94.7705 111.362Z" fill="#AD6359"/>
<path d="M68.1401 94.5348C67.4638 94.3657 66.7874 94.1966 66.2802 93.6892C66.1111 93.5201 65.942 93.2664 65.8575 92.9282C65.8575 92.7591 65.8575 92.59 65.8575 92.4209C65.8575 92.2518 65.942 92.0826 66.0266 91.9981C66.0266 91.9981 66.0266 91.9135 66.0266 91.9981C66.0266 92.0826 65.942 92.1672 65.8575 92.2518C65.7729 92.3363 65.7729 92.4209 65.7729 92.5054C65.6884 92.6745 65.6884 92.8437 65.6884 92.9282C65.6884 93.2664 65.8575 93.6047 66.1111 93.8583C66.5338 94.4502 67.2947 94.6194 68.1401 94.5348Z" fill="#263238"/>
<path d="M90.2053 96.1414C88.3454 93.351 83.6957 88.2776 79.0459 86.5019C75.9179 85.3181 65.3502 90.6452 65.6884 92.6745C66.0266 94.7039 67.8019 94.7039 70.5072 94.3657C71.5217 94.1966 76.6787 92.3363 77.5242 93.4355C78.7923 94.9576 80.4831 100.285 80.4831 100.285L90.2053 96.1414Z" fill="#AD6359"/>
<path d="M65.942 91.9135C67.2101 89.715 70.0845 88.5312 72.9589 87.6011C73.0435 87.6011 73.0435 87.6857 72.9589 87.6857C72.2826 87.8548 67.6329 90.0533 65.942 91.9135C65.942 91.9981 65.942 91.9135 65.942 91.9135Z" fill="#263238"/>
<path d="M90.2053 96.1414C88.3454 93.351 83.6956 88.2776 79.0459 86.5019C75.9179 85.3181 67.5483 92.0827 67.8865 94.112C68.2246 96.1414 70.8454 96.3105 73.7198 95.2113C74.6498 94.873 77.7778 92.6746 78.6232 93.6892C79.8913 95.2113 83.0193 99.1009 83.0193 99.1009L90.2053 96.1414Z" fill="#AD6359"/>
<path d="M81.3286 96.8178C81.075 96.3951 80.9059 96.2259 80.6523 95.8032C80.3141 95.3804 80.0605 94.9576 79.7223 94.5348C79.4687 94.1966 79.1305 93.7738 78.7924 93.5201C78.3697 93.2664 77.9469 93.2665 77.5242 93.2665C76.5098 93.351 75.6643 94.0275 74.8189 94.5348C73.889 95.1267 71.9445 95.9723 70.4228 95.8877C70.0001 95.8877 69.5774 95.8032 69.2392 95.5495C68.9856 95.3804 68.6474 95.2113 68.4784 94.9576C67.802 93.8584 68.6474 92.59 69.4083 91.6599C70.93 89.9687 73.0436 88.7004 75.0726 87.6857C75.5798 87.432 76.087 87.1783 76.5943 86.9247C77.1861 86.671 77.7779 86.4173 78.4542 86.4173C79.4687 86.4173 81.2441 87.432 81.7513 87.7702C81.7513 87.7702 81.8358 87.6857 81.7513 87.6857C81.075 87.2629 79.4687 85.9945 77.7779 86.0791C77.1861 86.0791 76.5943 86.4173 76.0025 86.671C75.4107 86.9247 74.8189 87.1783 74.2271 87.5166C73.1281 88.1085 72.0291 88.7004 71.0146 89.4614C70.0846 90.1378 69.0701 90.9834 68.3938 91.9981C67.802 92.8437 67.7175 94.112 68.2247 95.0421C68.732 95.8032 69.6619 95.9723 70.1692 96.0568C70.5919 96.1414 71.0146 96.0568 71.5218 96.0568C72.0291 95.9723 73.7199 95.4649 74.3962 95.2113C75.3262 94.873 76.087 94.1966 77.1015 93.9429C77.5242 93.7738 78.0315 93.7738 78.4542 94.0275C78.8769 94.1966 79.2151 94.6194 79.4687 94.9576C80.145 95.634 80.6523 96.1414 81.1595 96.987C81.3286 97.0715 81.4131 96.987 81.3286 96.8178Z" fill="#263238"/>
<path d="M91.558 98.5935C90.8816 97.2406 89.6981 91.6599 88.599 89.9687C87.5 88.2776 82.5121 82.4431 80.2295 82.6968C77.3551 83.035 80.3986 88.193 81.9203 90.3069C83.442 92.4209 83.273 96.0568 83.273 96.0568L91.558 98.5935Z" fill="#AD6359"/>
<path d="M79.8068 86.8401C80.314 87.5166 80.8212 88.2776 81.3285 88.954C81.7512 89.6305 82.2584 90.3069 82.5966 91.068C82.9348 91.829 83.1039 92.59 83.1884 93.4356C83.1884 93.8583 83.2729 94.1966 83.2729 94.6194C83.2729 95.0421 83.2729 95.4649 83.2729 95.9723C83.2729 96.0568 83.1884 96.0568 83.1884 95.9723C83.1884 95.2113 83.0193 94.3657 82.8502 93.6047C82.6812 92.7591 82.4275 91.9981 82.0894 91.2371C81.413 89.715 80.3985 88.3621 79.7222 86.9247C79.7222 86.8401 79.8068 86.7556 79.8068 86.8401Z" fill="#263238"/>
<path d="M83.273 96.7333C83.442 98.0862 83.1039 99.5237 82.5966 100.792C82.343 101.468 82.0048 102.06 81.6667 102.652C81.3285 103.244 80.9058 103.836 80.4831 104.343C79.6377 105.443 78.9614 106.542 78.4541 107.726C77.9469 108.909 77.6087 110.262 77.3551 111.615C77.2705 110.262 77.3551 108.825 77.8623 107.557C78.285 106.204 79.0459 105.02 79.8068 103.921C80.6522 102.821 81.3285 101.722 81.9203 100.538C82.5121 99.27 83.1039 98.0862 83.273 96.7333Z" fill="#263238"/>
<path d="M90.2053 144.085C84.6256 143.324 80.9058 133.938 74.4807 117.45C73.3816 114.575 88.0072 96.7333 90.0362 99.4391C92.5725 102.821 99.3357 121.424 100.012 126.497C101.449 136.475 96.7995 145.015 90.2053 144.085Z" fill="#AD6359"/>
<path d="M77.9469 126.666L96.0386 109.079C96.0386 109.079 101.196 124.214 100.688 130.556C100.181 136.898 97.9831 144.085 90.3744 144.508C84.6256 144.846 77.9469 126.666 77.9469 126.666Z" fill="#9552EC"/>
<path d="M83.7802 138.843C83.1039 137.913 82.5121 136.982 82.0048 135.968C81.413 134.953 80.9058 134.023 80.3985 133.008C79.8913 131.994 79.3841 130.979 79.0459 129.88C78.6232 128.865 78.2005 127.766 78.0314 126.667C78.5386 127.681 79.0459 128.696 79.5531 129.711L81.0749 132.755C81.5821 133.769 82.0894 134.784 82.5121 135.799C82.8502 136.729 83.3575 137.743 83.7802 138.843Z" fill="#263238"/>
<path d="M81.8358 129.711C82.6812 128.78 83.6957 127.85 84.6256 126.92C85.5556 125.99 86.4855 125.144 87.4155 124.214C89.3599 122.439 91.2198 120.663 93.1643 118.887C93.6715 118.38 94.2633 117.957 94.7705 117.45C95.3623 116.942 95.9541 116.52 96.5459 116.012C96.6304 116.012 96.6304 116.012 96.6304 116.097C96.2077 116.52 95.785 117.027 95.2778 117.534C94.7705 118.042 94.3478 118.464 93.8406 118.887C92.9106 119.817 91.9807 120.663 90.9662 121.593C89.0217 123.369 87.1618 125.144 85.2174 126.836C84.1184 127.766 83.0193 128.78 81.8358 129.711C81.7512 129.795 81.8358 129.88 81.8358 129.711Z" fill="#263238"/>
<path d="M48.7802 84.9799C48.7802 84.9799 52.0773 93.351 53.1763 94.2812C54.2754 95.2113 63.4903 94.7039 63.6594 93.9429C63.8285 93.1819 59.7705 85.5718 59.7705 85.5718C59.7705 85.5718 56.3043 83.8806 53.3454 83.7961C50.3019 83.7115 48.7802 84.9799 48.7802 84.9799Z" fill="#AD6359"/>
<path d="M49.5411 85.4872C49.7101 86.4173 53.5145 92.7591 58.5024 92.4209C61.4614 92.2518 59.4324 86.4173 59.4324 86.4173L61.9686 78.3844L52.3309 71.0279C52.3309 71.0279 49.5411 85.0644 49.5411 85.4872Z" fill="#AD6359"/>
<path d="M51.3164 76.2705C53.0918 82.1049 57.4879 84.8953 59.6015 85.9945L61.9686 78.4689L52.3309 71.0279C52.3309 71.0279 51.9082 73.3955 51.3164 76.2705Z" fill="#263238"/>
<path d="M73.4662 67.1383C73.7198 80.9211 65.5193 82.6123 62.5604 82.6968C59.8551 82.7814 50.7246 82.6123 48.9493 68.914C47.2585 55.2158 53.5145 50.7342 59.686 50.3115C65.8575 49.8887 73.128 53.3555 73.4662 67.1383Z" fill="#AD6359"/>
<path d="M70.2536 66.0391C69.9155 65.9545 69.6618 65.87 69.3237 65.7854C68.9855 65.7008 68.6473 65.6163 68.4783 65.3626C68.3092 65.1935 68.3937 64.9398 68.5628 64.7707C68.901 64.4325 69.3237 64.4325 69.7464 64.6016C70.1691 64.6862 70.5072 64.9398 70.8454 65.278C71.0145 65.6163 70.6763 66.1236 70.2536 66.0391Z" fill="#263238"/>
<path d="M60.785 65.6163C61.1232 65.6163 61.3768 65.5317 61.715 65.4472C62.0531 65.3626 62.3913 65.3626 62.6449 65.1089C62.814 64.9398 62.814 64.6862 62.7295 64.517C62.4758 64.1788 61.9686 64.0943 61.5459 64.1788C61.0386 64.2634 60.7005 64.3479 60.3623 64.6862C60.0242 65.1089 60.3623 65.6163 60.785 65.6163Z" fill="#263238"/>
<path d="M62.4758 69.2522C62.4758 69.1677 62.3913 69.2522 62.4758 69.2522C62.3913 70.2669 62.2222 71.3662 61.3768 71.6198V71.7044C62.3913 71.5353 62.6449 70.0978 62.4758 69.2522Z" fill="#263238"/>
<path d="M61.715 68.2375C60.1932 68.0684 59.9396 71.0279 61.2923 71.2816C62.7295 71.3662 62.9831 68.4067 61.715 68.2375Z" fill="#263238"/>
<path d="M61.1232 68.3221C60.8696 68.4912 60.5314 68.7449 60.2778 68.7449C59.9396 68.7449 59.686 68.4066 59.4324 68.0684H59.3478C59.2633 68.6603 59.4324 69.2522 60.1087 69.4213C60.7005 69.5904 61.1232 69.0831 61.2923 68.4912C61.2923 68.4066 61.2077 68.2375 61.1232 68.3221Z" fill="#263238"/>
<path d="M68.1401 69.3368L68.2246 69.4213C68.1401 70.3514 68.1401 71.4507 68.901 71.7889V71.8735C67.8865 71.6198 67.8865 70.1823 68.1401 69.3368Z" fill="#263238"/>
<path d="M69.07 68.4066C70.5918 68.4066 70.4227 71.4507 68.9855 71.4507C67.6329 71.4507 67.8019 68.4066 69.07 68.4066Z" fill="#263238"/>
<path d="M69.6618 68.6603C69.9155 68.8294 70.0845 69.1676 70.4227 69.1676C70.7609 69.1676 71.0145 68.914 71.2681 68.5757H71.3527C71.3527 69.1676 71.099 69.7595 70.5073 69.8441C70 69.9287 69.6618 69.4213 69.5773 68.8294C69.4928 68.7449 69.5773 68.5757 69.6618 68.6603Z" fill="#263238"/>
<path d="M62.4758 76.4396C62.6449 76.6932 62.814 77.0315 63.1522 77.116C63.4903 77.2006 63.8285 77.116 64.1667 77.0315C64.1667 77.0315 64.2512 77.0315 64.1667 77.116C63.913 77.4543 63.3213 77.6234 62.8986 77.4543C62.4758 77.2851 62.3068 76.9469 62.3068 76.5241C62.3913 76.4396 62.4758 76.4396 62.4758 76.4396Z" fill="#263238"/>
<path d="M66.6184 73.3955C66.6184 73.3955 66.7029 74.833 66.6184 75.4249C66.6184 75.5095 66.4493 75.5095 66.1957 75.5095C65.0121 75.594 63.9131 75.0867 63.2367 74.072C63.2367 73.9874 63.3213 73.9029 63.3213 73.9874C64.1667 74.6639 65.0966 74.9176 66.1111 75.0021C66.1957 74.833 65.8575 72.55 66.0266 72.55C66.3647 72.55 67.0411 72.8882 67.4638 72.9727C67.3792 70.0132 66.7874 67.1383 66.7874 64.1788C66.7874 64.0942 66.9565 64.0942 66.9565 64.1788C67.7174 67.2229 67.971 70.6051 68.1401 73.6492C68.2246 74.072 66.872 73.4801 66.6184 73.3955Z" fill="#263238"/>
<path d="M65.8575 75.1712C65.8575 75.1712 65.2657 75.9322 64.5048 76.1859C64.2512 76.2704 63.913 76.2704 63.5749 76.1859C62.8985 76.0168 62.8985 75.3403 63.0676 74.833C63.1522 74.4102 63.4058 74.072 63.4058 74.072C63.4058 74.072 64.3357 75.0021 65.8575 75.1712Z" fill="#263238"/>
<path d="M64.5048 76.1013C64.2512 76.1859 63.913 76.1859 63.5749 76.1013C62.8985 75.9322 62.8985 75.2558 63.0676 74.7484C63.744 74.9175 64.4203 75.4249 64.5048 76.1013Z" fill="#FF9ABB"/>
<path d="M48.8647 69.1677C50.3865 69.1677 54.6135 65.1935 55.1208 57.837C55.1208 57.837 54.1908 64.4325 53.6836 65.3626C53.1763 66.2927 56.0507 63.1641 56.558 57.2451C56.558 57.2451 59.686 59.7818 62.4759 60.712C65.2657 61.6421 66.9565 61.7267 67.1256 61.5575C67.2947 61.3884 63.3213 59.8664 62.2222 58.5135C62.2222 58.5135 69.4928 62.4031 72.8744 62.8259C73.2971 62.9105 74.1425 54.7084 69.0701 50.9879C63.913 47.2674 55.3744 50.5651 52.9227 52.5945C52.9227 52.5945 50.2174 52.8482 47.1739 56.5687C44.0459 60.2892 47.1739 69.1677 48.8647 69.1677Z" fill="#263238"/>
<path d="M56.6425 56.3995C56.6425 56.2304 56.3889 56.2304 56.3889 56.3995C56.4734 59.1899 55.8816 61.6421 54.8671 64.2633C54.8671 64.2633 54.9517 64.3479 54.9517 64.2633C56.2198 61.7266 56.9807 59.2745 56.6425 56.3995Z" fill="#263238"/>
<path d="M65.942 61.8958C61.9686 61.2193 58.587 59.7818 56.1353 56.4841C56.0507 56.3996 55.9662 56.4841 56.0507 56.5687C57.9952 60.0355 62.0531 61.7267 65.942 61.9803C66.0266 61.9803 66.0266 61.8958 65.942 61.8958Z" fill="#263238"/>
<path d="M51.3164 68.9986C51.3164 68.9986 48.6111 64.517 46.5821 65.4472C44.5531 66.3773 46.413 72.7191 48.6111 73.7337C50.8092 74.7484 51.8237 72.7191 51.8237 72.7191L51.3164 68.9986Z" fill="#AD6359"/>
<path d="M47.1739 67.3074C47.0894 67.3074 47.0894 67.3074 47.1739 67.3074C48.6957 68.153 49.4565 69.675 49.9638 71.2816C49.5411 70.6897 48.8647 70.2669 48.1039 70.7742C48.0193 70.7742 48.1039 70.8588 48.1039 70.8588C48.7802 70.7742 49.2029 70.9434 49.6256 71.4507C49.8792 71.8735 50.1329 72.2963 50.3019 72.8036C50.3865 72.9727 50.6401 72.8882 50.5556 72.7191C50.7246 70.6051 49.2874 67.6456 47.1739 67.3074Z" fill="#263238"/>
<path d="M63.2367 91.9981L55.628 115.59C55.2899 116.266 55.628 116.858 56.3043 116.942L68.7319 117.788C69.4082 117.873 70.2536 117.281 70.5072 116.604L78.1159 93.0128C78.4541 92.3363 78.1159 91.7444 77.4396 91.6599L65.0121 90.8143C64.3358 90.7297 63.5749 91.2371 63.2367 91.9981Z" fill="#37474F"/>
<path d="M64.6739 92.0827L57.0652 115.674C56.7271 116.351 57.0652 116.942 57.7416 117.027L70.1691 117.873C70.8454 117.957 71.6908 117.365 71.9444 116.689L79.5531 93.0973C79.8913 92.4209 79.5531 91.829 78.8768 91.7444L66.4493 90.8989C65.8575 90.8143 65.0121 91.3217 64.6739 92.0827Z" fill="#455A64"/>
<path d="M68.0556 93.351C67.971 93.9429 67.4638 94.3657 66.872 94.2811C66.2802 94.1966 65.8575 93.6892 65.942 93.0973C66.0266 92.5054 66.5338 92.0827 67.1256 92.1672C67.6329 92.2518 68.0556 92.7591 68.0556 93.351Z" fill="#263238"/>
<path d="M16.2319 144.593C21.6425 145.354 28.4058 141.126 45.9058 128.358C48.3575 126.582 40.4952 106.119 37.7899 107.895C34.4082 110.093 21.8116 119.395 20.9662 120.24C13.8647 126.92 12.5966 144.085 16.2319 144.593Z" fill="#AD6359"/>
<path d="M31.5338 114.068C31.5338 114.068 36.5217 107.049 40.2415 104.259C45.2295 100.454 51.1473 99.1855 53.6836 98.8472C58.9251 98.0862 72.1135 99.8619 72.2826 103.752C72.4517 107.303 59.0097 104.766 59.0097 104.766C59.0097 104.766 73.128 105.02 72.4517 109.332C71.8599 113.645 56.4734 109.84 56.4734 109.84C56.4734 109.84 70.93 110.432 69.5773 114.744C68.5628 117.957 54.4444 115.336 54.4444 115.336C54.4444 115.336 66.872 115.928 66.0266 119.31C65.0121 123.031 51.8237 121.424 51.8237 121.424C48.1039 129.626 42.7778 131.994 38.9734 133.262C38.0435 133.6 31.5338 114.068 31.5338 114.068Z" fill="#AD6359"/>
<path d="M54.1908 104.343C55.8816 104.343 57.4879 104.259 59.1787 104.428C60.8696 104.513 62.4758 104.766 64.0821 105.02C68.0556 105.696 70.5072 106.711 70.3382 106.711C66.6184 105.527 60.785 105.02 59.0942 104.935C57.4034 104.682 55.7971 104.513 54.1908 104.343C54.1063 104.343 54.1063 104.343 54.1908 104.343Z" fill="#263238"/>
<path d="M53.599 110.262C55.7126 110.347 57.8261 110.262 59.9396 110.432C62.0531 110.601 63.9976 110.939 66.1111 111.193C66.2802 111.193 66.1957 111.277 66.0266 111.277C63.913 111.108 61.9686 111.023 59.8551 110.854C57.8261 110.685 55.7126 110.432 53.599 110.262C53.599 110.347 53.599 110.262 53.599 110.262Z" fill="#263238"/>
<path d="M52.2464 115.336C55.4589 115.251 58.756 115.759 61.8841 116.351C62.0531 116.351 61.9686 116.435 61.7995 116.435C58.587 116.012 56.0507 115.674 52.2464 115.42C52.1618 115.42 52.1618 115.336 52.2464 115.336Z" fill="#263238"/>
<path d="M31.5338 111.277L38.3816 136.391C38.3816 136.391 19.8672 147.298 15.8092 144.424C11.7512 141.549 14.372 127.005 19.0217 121.509C20.9662 119.225 31.5338 111.277 31.5338 111.277Z" fill="#9552EC"/>
<path d="M31.7029 112.123L31.4493 111.277H31.5338C29.7585 112.715 28.0676 114.152 26.2923 115.59C24.5169 117.027 22.8261 118.464 21.2198 119.986C20.3744 120.748 19.529 121.509 18.8527 122.354C18.1763 123.2 17.5 124.13 16.9928 125.144C15.8937 127.089 15.2174 129.203 14.7947 131.486C14.9638 129.203 15.5556 127.005 16.57 124.975C17.0773 123.961 17.6691 122.946 18.43 122.1C19.1908 121.17 19.9517 120.409 20.7971 119.648C22.4879 118.126 24.2633 116.689 26.0386 115.336C27.814 113.983 29.6739 112.63 31.5338 111.362H31.6184V111.446L31.7029 112.123Z" fill="#263238"/>
<path d="M27.4758 117.534C27.8986 118.803 28.2367 120.071 28.5749 121.255C28.913 122.523 29.2512 123.792 29.5894 125.06C30.2657 127.597 30.8575 130.133 31.4493 132.67C31.6184 133.347 31.7874 134.023 31.9565 134.784C32.1256 135.545 32.2101 136.306 32.3792 137.067C32.3792 137.152 32.2947 137.152 32.2947 137.067C32.1256 136.475 31.872 135.883 31.7029 135.207C31.5338 134.53 31.3647 133.938 31.1957 133.262C30.8575 131.994 30.5193 130.725 30.1812 129.457C29.5048 126.92 28.913 124.383 28.3213 121.847C27.9831 120.409 27.6449 118.972 27.3913 117.534C27.3068 117.45 27.3913 117.45 27.4758 117.534Z" fill="#263238"/>
<path d="M38.3816 136.391C38.4662 136.644 38.4662 136.391 38.4662 136.306C38.4662 136.137 38.128 134.953 37.8744 134.192C37.8744 134.108 37.7053 133.938 37.7899 134.277C37.8744 134.869 38.3816 136.391 38.3816 136.391Z" fill="#263238"/>
</g>
<defs>
<clipPath id="clip0_198_233">
<rect width="350" height="357" fill="white"/>
</clipPath>
</defs>
</svg>
