<svg width="16" height="17" viewBox="0 0 16 17" fill="none" xmlns="http://www.w3.org/2000/svg">
<path d="M14.6667 8.5H10.6667L9.33334 10.5H6.66668L5.33334 8.5H1.33334" stroke="#F9F9F9" stroke-width="2" stroke-linecap="round" stroke-linejoin="round"/>
<path d="M3.63334 3.9065L1.33334 8.49984V12.4998C1.33334 12.8535 1.47382 13.1926 1.72387 13.4426C1.97392 13.6927 2.31305 13.8332 2.66668 13.8332H13.3333C13.687 13.8332 14.0261 13.6927 14.2762 13.4426C14.5262 13.1926 14.6667 12.8535 14.6667 12.4998V8.49984L12.3667 3.9065C12.2563 3.68436 12.0861 3.49742 11.8753 3.36669C11.6645 3.23596 11.4214 3.16664 11.1733 3.1665H4.82668C4.57862 3.16664 4.33552 3.23596 4.12471 3.36669C3.91389 3.49742 3.74373 3.68436 3.63334 3.9065V3.9065Z" stroke="#F9F9F9" stroke-width="2" stroke-linecap="round" stroke-linejoin="round"/>
</svg>
