<svg width="108" height="32" viewBox="0 0 108 32" fill="none" xmlns="http://www.w3.org/2000/svg">
<g opacity="0.5" clip-path="url(#clip0_206_270)">
<path d="M102.1 4.23452C99.0003 4.23452 96.5003 6.73452 96.5003 9.83452C96.5003 12.9345 99.0003 15.4345 102.1 15.4345C105.2 15.4345 107.7 12.9345 107.7 9.83452C107.7 6.63452 105.2 4.23452 102.1 4.23452Z" fill="#505050"/>
<path d="M102.4 17.0345C102.2 17.7345 102.1 18.3345 101.9 18.7345L101.8 18.9345C101.7 19.4345 101.3 19.7345 100.8 19.7345H100.5C100.3 19.7345 100.1 19.6345 99.9003 19.4345C99.8003 19.2345 99.7003 19.0345 99.7003 18.8345L100 16.8345C100 16.7345 100.1 16.5345 100.2 16.4345C97.3003 15.7345 95.2003 13.1345 95.2003 10.0345C95.2003 9.53452 95.3003 9.13452 95.3003 8.63452H87.1003C86.6003 8.63452 86.2003 8.33452 86.1003 7.83452L85.7003 6.13452C85.5003 5.53452 85.0003 5.03452 84.3003 5.03452H81.9003C81.4003 5.03452 81.1003 5.43452 81.1003 5.83452C81.1003 6.33452 81.5003 6.63452 81.9003 6.63452H83.2003C83.7003 6.63452 84.1003 6.93452 84.2003 7.43452L87.4003 20.4345C87.6003 21.0345 88.1003 21.5345 88.8003 21.5345H101.9C102.6 21.5345 103.1 21.1345 103.3 20.4345L104.4 16.0345C103.7 16.3345 103 16.4345 102.3 16.5345C102.5 16.8345 102.5 16.9345 102.4 17.0345ZM87.7003 13.4345C87.6003 12.9345 87.4003 12.4345 87.3003 12.0345L87.2003 11.6345C87.1003 11.4345 87.2003 11.2345 87.3003 11.0345C87.4003 10.8345 87.7003 10.7345 87.9003 10.7345H88.8003C89.3003 10.7345 89.7003 11.0345 89.7003 11.5345L90.0003 13.3345C90.0003 13.5345 90.0003 13.7345 89.8003 13.9345C89.7003 14.1345 89.4003 14.2345 89.2003 14.2345H88.7003C88.2003 14.1345 87.8003 13.8345 87.7003 13.4345ZM90.8003 19.4345C90.7003 19.6345 90.4003 19.7345 90.2003 19.7345H90.1003C89.6003 19.7345 89.2003 19.4345 89.1003 18.9345L89.0003 18.7345C88.9003 18.2345 88.7003 17.6345 88.5003 16.9345C88.4003 16.7345 88.5003 16.5345 88.6003 16.3345C88.7003 16.1345 89.0003 16.0345 89.2003 16.0345H89.7003C90.2003 16.0345 90.6003 16.3345 90.7003 16.8345L91.0003 18.8345C91.0003 19.0345 91.0003 19.3345 90.8003 19.4345ZM94.5003 19.0345C94.5003 19.4345 94.2003 19.7345 93.8003 19.7345C93.4003 19.7345 93.0003 19.4345 93.0003 19.0345L92.7003 16.9345C92.7003 16.7345 92.7003 16.5345 92.9003 16.3345C93.0003 16.1345 93.3003 16.0345 93.5003 16.0345H93.8003C94.3003 16.0345 94.7003 16.4345 94.7003 16.9345V19.0345H94.5003ZM94.5003 13.3345C94.5003 13.8345 94.1003 14.2345 93.6003 14.2345H92.9003C92.4003 14.2345 92.0003 13.9345 91.9003 13.4345L91.7003 11.5345C91.7003 11.3345 91.7003 11.1345 91.9003 10.9345C92.1003 10.7345 92.3003 10.6345 92.5003 10.6345H93.7003C94.2003 10.6345 94.5003 11.0345 94.5003 11.5345V13.3345ZM98.3003 16.9345L98.0003 19.0345C97.9003 19.4345 97.6003 19.7345 97.2003 19.7345C96.8003 19.7345 96.5003 19.4345 96.5003 19.0345V16.9345C96.5003 16.4345 96.9003 16.0345 97.4003 16.0345H97.7003C97.9003 16.0345 98.1003 16.1345 98.3003 16.3345C98.3003 16.5345 98.3003 16.7345 98.3003 16.9345Z" fill="#505050"/>
<path d="M102.1 5.03452L103.5 7.83452L106.7 8.33452L104.4 10.5345L104.9 13.6345L102.1 12.2345L99.3003 13.6345L99.8003 10.5345L97.6003 8.33452L100.7 7.83452L102.1 5.03452Z" fill="#F9F9F9"/>
<path d="M89.7003 27.9345C91.0258 27.9345 92.1003 26.8152 92.1003 25.4345C92.1003 24.0538 91.0258 22.9345 89.7003 22.9345C88.3748 22.9345 87.3003 24.0538 87.3003 25.4345C87.3003 26.8152 88.3748 27.9345 89.7003 27.9345Z" fill="#505050"/>
<path d="M101.3 27.9345C102.626 27.9345 103.7 26.8152 103.7 25.4345C103.7 24.0538 102.626 22.9345 101.3 22.9345C99.9748 22.9345 98.9003 24.0538 98.9003 25.4345C98.9003 26.8152 99.9748 27.9345 101.3 27.9345Z" fill="#505050"/>
<path d="M27.9003 23.0345C26.8003 23.8345 25.1003 24.1345 22.8003 24.1345H19.5003C19.0003 24.1345 18.6003 24.1345 18.0003 24.1345C17.5003 24.1345 17.0003 24.0345 16.5003 23.9345C16.0003 23.8345 15.5003 23.6345 15.1003 23.5345C14.6003 23.3345 14.2003 23.0345 13.9003 22.7345C13.6003 22.4345 13.3003 21.9345 13.1003 21.4345C12.9003 20.9345 12.8003 20.3345 12.8003 19.5345V8.13452H15.8003V19.4345C15.8003 20.6345 16.9003 21.2345 19.2003 21.2345H23.3003C25.5003 21.2345 26.6003 20.6345 26.6003 19.4345V8.13452H29.6003V19.6345C29.5003 21.1345 29.0003 22.3345 27.9003 23.0345Z" fill="#252525"/>
<path d="M52.2003 24.3345V13.8345L45.7003 23.4345C45.5003 23.7345 45.2003 24.0345 44.9003 24.2345C44.6003 24.4345 44.3003 24.5345 43.9003 24.5345C43.2003 24.5345 42.6003 24.2345 42.1003 23.5345L35.6003 13.7345V24.3345H32.6003V9.83452C32.6003 9.23452 32.8003 8.83452 33.1003 8.53452C33.4003 8.23452 33.8003 8.03452 34.3003 8.03452C35.0003 8.03452 35.6003 8.33452 36.0003 8.83452L44.1003 20.4345L52.1003 8.93452C52.5003 8.33452 53.0003 8.03452 53.7003 8.03452C54.2003 8.03452 54.6003 8.23452 54.9003 8.53452C55.2003 8.83452 55.4003 9.33452 55.4003 9.93452V24.2345H52.2003V24.3345Z" fill="#252525"/>
<path d="M58.2003 24.2345V8.13452H61.2003V24.2345H58.2003Z" fill="#252525"/>
<path d="M81.6003 24.3345L79.1003 19.9345H69.7003L67.3003 24.3345H63.7003L72.7003 9.23452C73.1003 8.53452 73.7003 8.13452 74.4003 8.13452C75.1003 8.13452 75.7003 8.53452 76.1003 9.23452L84.9003 24.3345H81.6003ZM74.4003 12.1345L71.5003 16.9345H77.3003L74.4003 12.1345Z" fill="#252525"/>
<path d="M9.80032 17.0345C9.80032 21.9345 8.00032 24.0345 4.80032 24.7345C1.70032 25.3345 0.700317 25.3345 0.700317 25.3345V22.0345C1.90032 21.9345 3.80032 21.7345 5.00032 21.3345C6.10032 20.9345 6.90032 19.8345 6.90032 17.0345L7.00032 11.1345V8.13452H10.0003L9.80032 17.0345Z" fill="#252525"/>
</g>
<defs>
<clipPath id="clip0_206_270">
<rect width="107" height="31" fill="white" transform="translate(0.700317 0.73452)"/>
</clipPath>
</defs>
</svg>
