<svg width="212" height="289" viewBox="0 0 212 289" fill="none" xmlns="http://www.w3.org/2000/svg">
<path d="M94.3691 215.428H94.3605C94.3605 215.428 94.3605 215.428 94.3691 215.428ZM94.3091 173.697V54.3669C94.3091 52.826 93.4955 51.4136 92.1424 50.6432L62.8699 33.7623L31.4392 15.6231L5.18991 0.462863C2.88614 -0.855418 0 0.796714 0 3.46752V232.121C0 233.345 0.676573 234.501 1.72997 235.1L31.4392 252.272L62.8784 270.385V270.411L92.5877 287.54C93.1444 287.848 93.7696 288.019 94.3691 287.994V251.724C93.7696 251.75 93.1444 251.578 92.5877 251.27L62.8784 234.115L33.1692 216.961C32.1158 216.361 31.4392 215.206 31.4392 213.982V57.9023C31.4392 55.24 34.3254 53.5793 36.6291 54.8976L60.7117 68.7824C62.0306 69.5528 62.8784 70.9652 62.8784 72.5061V195.851C62.8784 197.075 63.555 198.231 64.6084 198.83L92.5791 214.975C93.1273 215.3 93.7439 215.437 94.3605 215.428V174.185C94.3091 174.039 94.3091 173.868 94.3091 173.697Z" fill="url(#paint0_linear_53_333)"/>
<path d="M209.535 169.691L179.877 152.587L165.798 144.464C164.744 143.839 163.417 143.839 162.338 144.464L148.395 152.485L133.887 160.874C133.339 161.19 133.339 161.987 133.887 162.303L178.113 187.813C179.201 188.438 179.869 189.602 179.869 190.852V241.751C179.869 242.385 180.554 242.787 181.11 242.47L209.115 226.3C210.443 225.538 211.256 224.117 211.256 222.585V172.653C211.265 171.446 210.623 170.29 209.535 169.691Z" fill="url(#paint1_linear_53_333)"/>
<path d="M147.085 189.568L132.757 197.828L103.048 214.957C102.517 215.266 101.943 215.411 101.369 215.411V179.621L106.371 176.736L106.516 176.667L116.493 170.923C116.733 170.778 117.05 170.778 117.307 170.923L147.085 188.121C147.641 188.446 147.641 189.26 147.085 189.568Z" fill="url(#paint2_linear_53_333)"/>
<path d="M162.86 216.738L132.757 234.115C127.516 237.146 122.257 240.168 117.016 243.224C112.357 245.886 107.715 248.582 103.056 251.27C102.534 251.578 101.951 251.732 101.369 251.732V288.002C101.96 287.994 102.542 287.848 103.056 287.54L132.765 270.385L163.691 252.563C163.948 252.417 164.102 252.143 164.102 251.844V217.457C164.102 216.815 163.408 216.421 162.86 216.738Z" fill="url(#paint3_linear_53_333)"/>
<defs>
<linearGradient id="paint0_linear_53_333" x1="0" y1="144.001" x2="94.3652" y2="144.001" gradientUnits="userSpaceOnUse">
<stop stop-color="#EB3349"/>
<stop offset="1" stop-color="#F45C43"/>
</linearGradient>
<linearGradient id="paint1_linear_53_333" x1="133.48" y1="193.296" x2="211.268" y2="193.296" gradientUnits="userSpaceOnUse">
<stop stop-color="#EB3349"/>
<stop offset="1" stop-color="#F45C43"/>
</linearGradient>
<linearGradient id="paint2_linear_53_333" x1="101.374" y1="193.121" x2="147.501" y2="193.121" gradientUnits="userSpaceOnUse">
<stop stop-color="#EB3349"/>
<stop offset="1" stop-color="#F45C43"/>
</linearGradient>
<linearGradient id="paint3_linear_53_333" x1="101.363" y1="252.311" x2="164.098" y2="252.311" gradientUnits="userSpaceOnUse">
<stop stop-color="#EB3349"/>
<stop offset="1" stop-color="#F45C43"/>
</linearGradient>
</defs>
</svg>
