<svg width="148" height="45" viewBox="0 0 148 45" fill="none" xmlns="http://www.w3.org/2000/svg">
<path d="M55.7626 27.8051H44.9936V11.2295H40.9334V31.6033H55.7626V27.8051Z" fill="#F9F9F9"/>
<path d="M65.085 11.2295H61.0248V31.6033H65.085V11.2295Z" fill="#F9F9F9"/>
<path d="M85.5968 27.8778H74.4349V23.1918H84.971V19.4663H74.4349V14.955H85.4804V11.2295H70.3747V31.6033H85.5968V27.8778Z" fill="#F9F9F9"/>
<path d="M126.245 27.8778H115.084V23.1918H125.62V19.4663H115.084V14.955H126.129V11.2295H111.023V31.6033H126.245V27.8778Z" fill="#F9F9F9"/>
<path d="M105.145 19.6119H94.9292V14.9696H105.829V11.2295H90.869V31.6033H94.9292V23.3519H105.145V19.6119Z" fill="#F9F9F9"/>
<path d="M131.51 11.2295V31.6033H135.57V23.4975H136.764L142.701 31.6033H147.62L141.348 23.4392C145.262 23.0609 147.591 20.7761 147.591 17.429C147.591 13.5288 144.986 11.2295 140.125 11.2295H131.51ZM140.053 14.9696C142.206 14.9696 143.414 15.7409 143.414 17.429C143.414 19.1462 142.265 19.9611 140.053 19.9611H135.57V14.9696H140.053Z" fill="#F9F9F9"/>
<path d="M14.4224 26.5551V8.31262C14.4219 8.19722 14.3911 8.08402 14.333 7.98432C14.2749 7.88462 14.1916 7.80202 14.0915 7.74472L9.60947 5.15028L4.80475 2.38837L0.792625 0.0717913C0.712366 0.0249713 0.621156 0.000201347 0.528246 1.34689e-06C0.435326 -0.000208653 0.344006 0.0241414 0.263536 0.0706014C0.183066 0.117061 0.116306 0.183962 0.0700255 0.264532C0.0237455 0.345102 -0.000404468 0.436471 5.53247e-06 0.529391V35.4904C-0.000414468 35.5825 0.0230856 35.673 0.0682056 35.7533C0.113336 35.8335 0.178526 35.9006 0.257406 35.948L4.79658 38.571L9.60137 41.3411L14.1487 43.9641C14.2303 44.0122 14.3237 44.0363 14.4184 44.0336V38.4893C14.324 38.49 14.231 38.466 14.1487 38.4199L9.60947 35.7928L5.07032 33.1739C4.98993 33.1274 4.9231 33.0608 4.87651 32.9805C4.82991 32.9002 4.80517 32.8091 4.80475 32.7163V8.85192C4.80557 8.75942 4.8305 8.66882 4.87708 8.58902C4.92365 8.50912 4.99026 8.44282 5.07031 8.39662C5.15037 8.35042 5.2411 8.32592 5.33354 8.32542C5.42597 8.32502 5.51692 8.34882 5.59737 8.39432L9.27447 10.5188C9.37457 10.5762 9.45787 10.6588 9.51597 10.7585C9.57407 10.8582 9.60487 10.9714 9.60536 11.0867V29.9462C9.60526 30.0381 9.62947 30.1284 9.67537 30.208C9.72127 30.2876 9.78726 30.3537 9.86687 30.3997L14.1446 32.8511C14.2258 32.9 14.3195 32.9242 14.4143 32.9205V26.6327C14.4122 26.6082 14.4122 26.5836 14.4143 26.5592L14.4224 26.5551Z" fill="url(#paint0_linear_296_239)"/>
<path d="M30.9531 25.9465L26.4058 23.3316L24.2567 22.1059C24.1765 22.0577 24.0847 22.0322 23.9911 22.0322C23.8976 22.0322 23.8057 22.0577 23.7256 22.1059L21.5969 23.3316L19.3907 24.5982C19.3721 24.61 19.3568 24.6263 19.3463 24.6456C19.3357 24.6649 19.3301 24.6865 19.3301 24.7085C19.3301 24.7305 19.3357 24.7522 19.3463 24.7714C19.3568 24.7907 19.3721 24.807 19.3907 24.8188L26.1525 28.7166C26.2309 28.7661 26.2954 28.8349 26.3398 28.9164C26.3841 28.998 26.4068 29.0895 26.4058 29.1823V36.9655C26.4054 36.9881 26.4112 37.0104 26.4223 37.03C26.4335 37.0496 26.4497 37.0659 26.4693 37.0772C26.4889 37.0884 26.5112 37.0942 26.5337 37.094C26.5563 37.0938 26.5785 37.0875 26.5978 37.0758L30.8755 34.6244C30.9751 34.5669 31.0578 34.4841 31.1152 34.3844C31.1726 34.2847 31.2027 34.1716 31.2023 34.0565V26.3959C31.2038 26.3057 31.1816 26.2167 31.1378 26.1379C31.0941 26.059 31.0304 25.993 30.9531 25.9465Z" fill="url(#paint1_linear_296_239)"/>
<path d="M21.409 28.9861L19.2191 30.2486L14.6799 32.8675C14.602 32.9136 14.513 32.9376 14.4225 32.9369V27.4662L15.1865 27.025H15.207L16.7309 26.1466C16.7505 26.1365 16.7722 26.1313 16.7942 26.1313C16.8163 26.1313 16.838 26.1365 16.8576 26.1466L21.409 28.7655C21.4276 28.7773 21.4429 28.7936 21.4534 28.8129C21.464 28.8321 21.4696 28.8538 21.4696 28.8758C21.4696 28.8978 21.464 28.9194 21.4534 28.9387C21.4429 28.958 21.4276 28.9743 21.409 28.9861Z" fill="url(#paint2_linear_296_239)"/>
<path d="M23.8195 33.137L19.219 35.7927L16.8126 37.1859L14.6799 38.4116C14.601 38.4594 14.5106 38.4849 14.4184 38.4851V44.0294C14.51 44.0286 14.5999 44.0047 14.6799 43.9599L19.219 41.3369L23.9543 38.6159C23.9728 38.6039 23.988 38.5875 23.9987 38.5683C24.0093 38.5491 24.0152 38.5275 24.0156 38.5055V33.2473C24.0164 33.2241 24.0108 33.2011 23.9995 33.1808C23.9881 33.1606 23.9714 33.1438 23.9511 33.1324C23.9309 33.1211 23.9079 33.1155 23.8847 33.1163C23.8615 33.1171 23.8389 33.1242 23.8195 33.137Z" fill="url(#paint3_linear_296_239)"/>
<defs>
<linearGradient id="paint0_linear_296_239" x1="5.53249e-06" y1="22.0159" x2="14.4224" y2="22.0159" gradientUnits="userSpaceOnUse">
<stop stop-color="#EB3349"/>
<stop offset="1" stop-color="#F45C43"/>
</linearGradient>
<linearGradient id="paint1_linear_296_239" x1="668.507" y1="1268.1" x2="1013.87" y2="1268.1" gradientUnits="userSpaceOnUse">
<stop stop-color="#EB3349"/>
<stop offset="1" stop-color="#F45C43"/>
</linearGradient>
<linearGradient id="paint2_linear_296_239" x1="315.12" y1="588.756" x2="436.682" y2="588.756" gradientUnits="userSpaceOnUse">
<stop stop-color="#EB3349"/>
<stop offset="1" stop-color="#F45C43"/>
</linearGradient>
<linearGradient id="paint3_linear_296_239" x1="423.839" y1="1177.03" x2="649.088" y2="1177.03" gradientUnits="userSpaceOnUse">
<stop stop-color="#EB3349"/>
<stop offset="1" stop-color="#F45C43"/>
</linearGradient>
</defs>
</svg>
