<svg width="157" height="48" viewBox="0 0 157 48" fill="none" xmlns="http://www.w3.org/2000/svg">
<g clip-path="url(#clip0_164_252)">
<path d="M58.5122 31.6835H47.7432V15.1079H43.683V35.4817H58.5122V31.6835Z" fill="#1B0637"/>
<path d="M67.8346 15.1079H63.7744V35.4817H67.8346V15.1079Z" fill="#1B0637"/>
<path d="M88.3465 31.7562H77.1845V27.0702H87.7207V23.3447H77.1845V18.8334H88.23V15.1079H73.1243V35.4817H88.3465V31.7562Z" fill="#1B0637"/>
<path d="M128.996 31.7562H117.834V27.0702H128.37V23.3447H117.834V18.8334H128.879V15.1079H113.773V35.4817H128.996V31.7562Z" fill="#1B0637"/>
<path d="M107.895 23.4903H97.6788V18.848H108.579V15.1079H93.6186V35.4817H97.6788V27.2303H107.895V23.4903Z" fill="#1B0637"/>
<path d="M134.26 15.1079V35.4817H138.32V27.3759H139.514L145.451 35.4817H150.37L144.098 27.3176C148.013 26.9393 150.341 24.6545 150.341 21.3074C150.341 17.4072 147.736 15.1079 142.875 15.1079H134.26ZM142.803 18.848C144.956 18.848 146.164 19.6193 146.164 21.3074C146.164 23.0246 145.015 23.8395 142.803 23.8395H138.32V18.848H142.803Z" fill="#1B0637"/>
<path d="M17.1721 30.4332V12.1907C17.1716 12.0753 17.1407 11.9621 17.0827 11.8625C17.0246 11.7628 16.9413 11.6801 16.8412 11.6228L12.3592 9.0284L7.55445 6.26649L3.54232 3.94991C3.46206 3.90309 3.37085 3.87832 3.27794 3.87811C3.18502 3.8779 3.0937 3.90226 3.01323 3.94872C2.93276 3.99517 2.866 4.06208 2.81972 4.14265C2.77344 4.22322 2.74929 4.31459 2.7497 4.40751V39.3686C2.74928 39.4606 2.77278 39.5512 2.81791 39.6314C2.86303 39.7116 2.92822 39.7787 3.0071 39.8262L7.54627 42.4492L12.351 45.2192L16.8984 47.8422C16.9799 47.8903 17.0734 47.9144 17.168 47.9117V42.3674C17.0736 42.3681 16.9807 42.3442 16.8984 42.298L12.3592 39.6709L7.82001 37.052C7.73962 37.0056 7.67279 36.9389 7.6262 36.8586C7.5796 36.7783 7.55486 36.6872 7.55445 36.5944V12.73C7.55526 12.6376 7.58019 12.547 7.62677 12.4671C7.67334 12.3873 7.73995 12.321 7.82 12.2747C7.90006 12.2285 7.99079 12.204 8.08323 12.2036C8.17566 12.2032 8.26661 12.2269 8.34707 12.2724L12.0242 14.397C12.1243 14.4543 12.2076 14.5369 12.2657 14.6366C12.3237 14.7363 12.3546 14.8495 12.3551 14.9649V33.8243C12.355 33.9162 12.3791 34.0065 12.425 34.0861C12.4709 34.1658 12.537 34.2319 12.6166 34.2778L16.8943 36.7292C16.9755 36.7782 17.0692 36.8023 17.1639 36.7987V30.5108C17.1619 30.4864 17.1619 30.4618 17.1639 30.4373L17.1721 30.4332Z" fill="url(#paint0_linear_164_252)"/>
<path d="M33.7027 29.8244L29.1554 27.2096L27.0063 25.9839C26.9261 25.9356 26.8343 25.9101 26.7407 25.9101C26.6472 25.9101 26.5553 25.9356 26.4752 25.9839L24.3465 27.2096L22.1403 28.4761C22.1217 28.4879 22.1064 28.5042 22.0959 28.5235C22.0853 28.5428 22.0797 28.5645 22.0797 28.5865C22.0797 28.6085 22.0853 28.6301 22.0959 28.6494C22.1064 28.6687 22.1217 28.685 22.1403 28.6968L28.9021 32.5945C28.9805 32.644 29.045 32.7129 29.0894 32.7944C29.1337 32.8759 29.1564 32.9675 29.1554 33.0603V40.8435C29.155 40.866 29.1608 40.8883 29.1719 40.9079C29.1831 40.9276 29.1993 40.9439 29.2189 40.9551C29.2385 40.9664 29.2608 40.9722 29.2833 40.9719C29.3059 40.9717 29.3281 40.9654 29.3474 40.9538L33.6251 38.5024C33.7247 38.4448 33.8074 38.362 33.8648 38.2623C33.9222 38.1626 33.9523 38.0495 33.9519 37.9345V30.2738C33.9534 30.1837 33.9312 30.0947 33.8874 30.0158C33.8437 29.9369 33.78 29.8709 33.7027 29.8244V29.8244Z" fill="url(#paint1_linear_164_252)"/>
<path d="M24.1586 32.8642L21.9687 34.1266L17.4295 36.7455C17.3516 36.7916 17.2626 36.8156 17.1721 36.815V31.3443L17.9361 30.903H17.9566L19.4805 30.0246C19.5001 30.0146 19.5218 30.0093 19.5438 30.0093C19.5659 30.0093 19.5876 30.0146 19.6072 30.0246L24.1586 32.6435C24.1772 32.6553 24.1925 32.6716 24.203 32.6909C24.2136 32.7102 24.2192 32.7318 24.2192 32.7538C24.2192 32.7758 24.2136 32.7975 24.203 32.8168C24.1925 32.836 24.1772 32.8523 24.1586 32.8642Z" fill="url(#paint2_linear_164_252)"/>
<path d="M26.5692 37.0152L21.9687 39.6709L19.5622 41.0641L17.4295 42.2898C17.3507 42.3376 17.2603 42.3631 17.168 42.3633V47.9076C17.2597 47.9068 17.3496 47.8829 17.4295 47.8381L21.9687 45.2151L26.704 42.4941C26.7224 42.4821 26.7376 42.4657 26.7483 42.4465C26.759 42.4273 26.7648 42.4057 26.7653 42.3837V37.1255C26.7661 37.1023 26.7605 37.0793 26.7491 37.059C26.7378 37.0388 26.721 37.022 26.7008 37.0106C26.6805 36.9993 26.6575 36.9937 26.6343 36.9945C26.6111 36.9953 26.5886 37.0024 26.5692 37.0152Z" fill="url(#paint3_linear_164_252)"/>
</g>
<defs>
<linearGradient id="paint0_linear_164_252" x1="2.7497" y1="25.894" x2="17.1721" y2="25.894" gradientUnits="userSpaceOnUse">
<stop stop-color="#EB3349"/>
<stop offset="1" stop-color="#F45C43"/>
</linearGradient>
<linearGradient id="paint1_linear_164_252" x1="671.257" y1="1271.98" x2="1016.62" y2="1271.98" gradientUnits="userSpaceOnUse">
<stop stop-color="#EB3349"/>
<stop offset="1" stop-color="#F45C43"/>
</linearGradient>
<linearGradient id="paint2_linear_164_252" x1="317.87" y1="592.634" x2="439.432" y2="592.634" gradientUnits="userSpaceOnUse">
<stop stop-color="#EB3349"/>
<stop offset="1" stop-color="#F45C43"/>
</linearGradient>
<linearGradient id="paint3_linear_164_252" x1="426.589" y1="1180.91" x2="651.838" y2="1180.91" gradientUnits="userSpaceOnUse">
<stop stop-color="#EB3349"/>
<stop offset="1" stop-color="#F45C43"/>
</linearGradient>
<clipPath id="clip0_164_252">
<rect width="156.526" height="47.9693" fill="white"/>
</clipPath>
</defs>
</svg>
