<svg width="83" height="64" viewBox="0 0 83 64" fill="none" xmlns="http://www.w3.org/2000/svg">
<g clip-path="url(#clip0_1082_662)">
<path d="M38.0613 47.1408C38.0703 49.3895 37.6057 51.6137 36.6994 53.6608C35.7931 55.708 34.4666 57.5298 32.8106 59.0015C29.2572 62.3308 24.5873 64.1197 19.7783 63.9938C13.6735 63.9938 8.85336 61.8121 5.31788 57.4488C1.78609 53.1102 -0.100889 47.608 0.00416132 41.9545C0.00416132 28.4189 3.62015 18.2331 10.8521 11.397C18.0841 4.56098 26.0897 0.776345 34.8689 0.043139V14.8906C30.4448 15.3743 26.2564 17.1815 22.8238 20.0877C21.0572 21.4448 19.6019 23.1831 18.5604 25.1802C17.5189 27.1772 16.9166 29.3845 16.7959 31.6465C18.254 30.9172 19.8579 30.548 21.4796 30.5682C26.7233 30.5682 30.7978 32.0957 33.7032 35.1508C35.1709 36.7505 36.3124 38.6352 37.0608 40.6942C37.8092 42.7532 38.1493 44.945 38.0613 47.1408ZM82.6924 47.1408C82.7034 49.3899 82.2398 51.6147 81.3334 53.6622C80.4269 55.7097 79.0993 57.5312 77.4417 59.0015C73.8883 62.3308 69.2183 64.1197 64.4094 63.9938C58.3186 63.9938 53.5369 61.8121 50.0645 57.4488C46.5751 53.0896 44.7135 47.5961 44.8137 41.9545C44.8137 28.4189 48.3912 18.2331 55.5462 11.397C62.7012 4.56098 70.6963 0.761959 79.5315 0V14.8474C75.117 15.3499 70.9434 17.172 67.5283 20.0877C65.7485 21.4367 64.2801 23.1718 63.2273 25.1696C62.1746 27.1674 61.5635 29.3787 61.4375 31.6465C62.8917 30.917 64.4923 30.5477 66.1106 30.5682C71.3474 30.5682 75.4219 32.0957 78.3343 35.1508C79.802 36.75 80.9429 38.6348 81.6896 40.6941C82.4363 42.7534 82.7737 44.9455 82.6819 47.1408H82.6924Z" fill="#F38A97"/>
</g>
<defs>
<clipPath id="clip0_1082_662">
<rect width="82.6966" height="64" fill="white"/>
</clipPath>
</defs>
</svg>
