<svg width="41" height="37" viewBox="0 0 41 37" fill="none" xmlns="http://www.w3.org/2000/svg">
<path d="M0.938866 28.2988C1.0604 28.1044 1.25487 28.0922 1.5223 28.2624C7.59976 31.7873 14.2121 33.5498 21.3592 33.5498C26.1239 33.5498 30.8279 32.6625 35.4711 30.8878C35.5927 30.8392 35.7689 30.7663 35.9999 30.6691C36.2308 30.5718 36.3949 30.4989 36.4921 30.4503C36.8568 30.3044 37.1424 30.3773 37.3491 30.6691C37.5557 30.9608 37.4888 31.2282 37.1485 31.4713C36.7109 31.7873 36.1518 32.152 35.4711 32.5652C33.3804 33.805 31.0467 34.7653 28.4699 35.446C25.893 36.1266 23.3769 36.467 20.9216 36.467C17.1293 36.467 13.5435 35.8045 10.1645 34.4796C6.78539 33.1548 3.75881 31.289 1.08473 28.8823C0.938866 28.7607 0.865936 28.6392 0.865936 28.5176C0.865936 28.4447 0.890222 28.3718 0.938866 28.2988ZM11.9148 17.9063C11.9148 16.229 12.3281 14.7947 13.1546 13.6035C13.9811 12.4123 15.1115 11.5128 16.5458 10.9051C17.8586 10.346 19.4752 9.94485 21.3957 9.70174C22.052 9.62881 23.1217 9.53156 24.6046 9.41002V8.79012C24.6046 7.23427 24.4344 6.18897 24.0941 5.65413C23.5836 4.92484 22.7813 4.56019 21.6874 4.56019H21.3957C20.5934 4.63312 19.9006 4.88837 19.3172 5.32595C18.7337 5.76353 18.3569 6.37129 18.1868 7.1492C18.0895 7.63538 17.8464 7.91496 17.4575 7.98789L13.264 7.47738C12.8507 7.38013 12.6441 7.16134 12.6441 6.82101C12.6441 6.74808 12.6562 6.66301 12.6806 6.56576C13.0938 4.40219 14.1087 2.79773 15.7254 1.75239C17.342 0.707051 19.2321 0.123613 21.3957 0.0020752H22.3073C25.0786 0.0020752 27.2422 0.71923 28.798 2.1535C29.0421 2.39771 29.2676 2.65977 29.4726 2.9375C29.6793 3.21708 29.8433 3.46624 29.9649 3.68503C30.0865 3.90382 30.1959 4.21986 30.2931 4.63312C30.3903 5.04637 30.4633 5.33204 30.5119 5.49004C30.5605 5.64805 30.597 5.98841 30.6213 6.51106C30.6456 7.03371 30.6578 7.34366 30.6578 7.44091V16.2654C30.6578 16.8975 30.7489 17.4749 30.9312 17.9975C31.1136 18.5202 31.2898 18.897 31.46 19.1279C31.6301 19.3588 31.9097 19.7296 32.2987 20.2401C32.4445 20.4589 32.5175 20.6534 32.5175 20.8235C32.5175 21.018 32.4202 21.1882 32.2257 21.334C30.208 23.0844 29.1141 24.0324 28.9439 24.1783C28.6522 24.3971 28.2997 24.4214 27.8864 24.2512C27.5461 23.9595 27.2483 23.6799 26.993 23.4125C26.7378 23.1451 26.5555 22.9506 26.4461 22.8291C26.3367 22.7076 26.1604 22.4705 25.9173 22.118C25.6742 21.7655 25.504 21.5285 25.4068 21.407C24.0454 22.8899 22.7084 23.8137 21.3957 24.1783C20.5691 24.4214 19.5481 24.543 18.3326 24.543C16.4607 24.543 14.9232 23.9656 13.7198 22.8109C12.5165 21.6561 11.9148 20.0213 11.9148 17.9063ZM18.1868 17.177C18.1868 18.1251 18.4238 18.8848 18.8978 19.4561C19.3719 20.0274 20.01 20.313 20.8122 20.313C20.8852 20.313 20.9885 20.3009 21.1222 20.2766C21.2559 20.2522 21.347 20.2401 21.3957 20.2401C22.4167 19.9727 23.2067 19.3163 23.7659 18.271C24.0333 17.8091 24.2338 17.3047 24.3676 16.7577C24.5012 16.2107 24.5742 15.7671 24.5864 15.4267C24.5985 15.0864 24.6046 14.5272 24.6046 13.7493V12.8377C23.1946 12.8377 22.125 12.935 21.3957 13.1294C19.2564 13.7372 18.1868 15.0864 18.1868 17.177ZM33.502 28.9187C33.5506 28.8215 33.6236 28.7243 33.7208 28.627C34.3285 28.2138 34.912 27.9342 35.4711 27.7883C36.3949 27.5452 37.2944 27.4115 38.1695 27.3872C38.4126 27.3629 38.6436 27.3751 38.8624 27.4237C39.9563 27.5209 40.6127 27.7033 40.8315 27.9707C40.9287 28.1165 40.9773 28.3353 40.9773 28.627V28.8823C40.9773 29.7331 40.7464 30.7359 40.2845 31.8906C39.8226 33.0454 39.1784 33.9752 38.3518 34.6802C38.2303 34.7774 38.1209 34.8261 38.0237 34.8261C37.975 34.8261 37.9264 34.8139 37.8778 34.7896C37.7319 34.7167 37.6955 34.5829 37.7684 34.3885C38.6679 32.2735 39.1176 30.8028 39.1176 29.9762C39.1176 29.7088 39.069 29.5143 38.9718 29.3928C38.7286 29.1011 38.048 28.9552 36.9297 28.9552C36.5164 28.9552 36.0302 28.9795 35.4711 29.0281C34.8634 29.1011 34.3042 29.174 33.7937 29.2469C33.6479 29.2469 33.5506 29.2226 33.502 29.174C33.4534 29.1254 33.4412 29.0767 33.4656 29.0281C33.4656 29.0038 33.4777 28.9673 33.502 28.9187Z" fill="#252525"/>
</svg>
